<svg xmlns="http://www.w3.org/2000/svg" width="42" height="42" viewBox="0 0 42 42">
    <g fill="none" fill-rule="evenodd">
        <circle cx="21" cy="21" r="21" fill="#FFB229"/>
        <path fill="#121212" fill-rule="nonzero" d="M23.123 23.9c.817-.18 1.604-.492 2.328-.932.548-.334.714-1.033.368-1.564-.346-.531-1.07-.691-1.62-.357-1.642.998-3.756.996-5.398 0-.55-.334-1.274-.174-1.62.357-.346.53-.18 1.23.368 1.564.724.44 1.51.752 2.328.932l-2.24 2.164c-.458.443-.458 1.16 0 1.603.231.221.53.333.83.333.301 0 .6-.112.831-.333l2.203-2.126 2.203 2.126c.459.444 1.201.444 1.66 0 .46-.443.46-1.162 0-1.603l-2.24-2.164zm-1.622-8.63c.916 0 1.66.718 1.66 1.603 0 .883-.744 1.601-1.66 1.601-.914 0-1.66-.718-1.66-1.601 0-.885.746-1.604 1.66-1.604zm0 5.472c2.21 0 4.009-1.736 4.009-3.87C25.51 14.737 23.712 13 21.5 13c-2.21 0-4.009 1.736-4.009 3.871s1.798 3.87 4.009 3.87z"/>
    </g>
</svg>
