<svg xmlns="http://www.w3.org/2000/svg" width="42" height="42" viewBox="0 0 42 42">
    <g fill="none" fill-rule="evenodd">
        <circle cx="21" cy="21" r="21" fill="#5C50F2"/>
        <path fill="#FFF" fill-rule="nonzero" d="M22.724 26.857c-1.181-.939-3.264-2.641-3.264-2.641l-1.805 1.9c-.122.131-.305.183-.475.134-.172-.056-.304-.197-.352-.374-.44-1.45-1.289-4.298-1.289-4.298s-1.812-.64-3.193-1.1c-.205-.075-.343-.273-.345-.497-.01-.224.116-.43.317-.52 3.079-1.27 10.612-4.419 13.056-5.429.159-.065.34-.03.464.091.13.127.187.313.152.493-.462 2.415-1.69 9.134-2.198 11.79-.043.242-.2.446-.422.545-.216.09-.463.054-.646-.094zm-6.42-5.64l.979 3.6.217-2.28 5.939-5.972c.062-.067.07-.17.019-.245-.049-.073-.146-.093-.218-.043l-6.937 4.94z"/>
    </g>
</svg>
