<svg xmlns="http://www.w3.org/2000/svg" width="70" height="45" viewBox="0 0 70 45">
    <g fill="none">
        <path fill="#171A41" d="M2.07 44.29c-.089-.089-.265-.089-.397-.089-.748-.22-1.233-.704-1.453-1.409-.396-1.408.308-3.522 1.497-4.402.572-.44 1.277-.704 2.07-.616.571.044 1.012.308 1.408.836.132-.704.264-1.32.396-1.937.088-.308.132-.616.22-.969.044-.132.088-.176.22-.176h1.453c-.22.925-.396 1.85-.572 2.774-.396 1.805-.748 3.654-1.145 5.459-.088.264-.132.396-.44.396-.308-.044-.66 0-.969 0-.176 0-.22-.044-.176-.22.044-.176.088-.396.132-.616-.176.132-.308.264-.396.352-.528.396-1.1.572-1.76.66l-.089-.044zm7.572 0c-.089-.089-.177-.045-.265-.089-1.232-.088-1.98-.748-2.025-1.937-.088-1.585.396-3.038 1.805-4.006.749-.572 1.673-.705 2.554-.484.924.22 1.54.88 1.629 1.893.088.572-.044 1.056-.088 1.629-.044.264-.22.176-.353.176H9.333c-.264 0-.352.088-.352.352 0 .572.22.968.66 1.145.529.176 1.057.044 1.41-.485.22-.308.396-.352.704-.264.352.088.748.132 1.1.22-.572 1.057-1.408 1.717-2.641 1.85-.088 0-.264-.089-.308.087-.044-.088-.132-.088-.264-.088z"/>
        <path fill="#00A2C1" d="M34.384 21.704c-.573.573-1.057 1.233-1.63 1.805-.087.088-.131.088-.22.088h-.22c-10.522 0-21.132 0-31.654.045-.352 0-.44-.089-.396-.397.044-.396.044-.792 0-1.188 0-.22.088-.265.264-.265h33.944l-.088-.088zM34.34 4.711c-.088.088-.265.044-.397.044H.573c-.265 0-.397-.088-.353-.352.044-.397.044-.749 0-1.145 0-.22.088-.264.264-.264h31.83c.265 0 .44.088.66.264.441.484.925.968 1.366 1.453zM24.39.396h5.371c.264 0 .396.088.572.264.44.485.969.925 1.453 1.41-.176.087-.264.087-.396.087H.616c-.264 0-.396-.088-.352-.352.044-.44 0-.924 0-1.365C.352.352.484.396.572.396h23.466c.132 0 .264-.044.352 0zm7.396 24.17c-.484.484-1.012.925-1.497 1.409-.088.088-.22.088-.308.088H.704c-.352 0-.484-.088-.44-.44.044-.309 0-.66 0-.969 0-.176.044-.264.22-.22h31.214l.088.132z"/>
        <path fill="#EC5824" d="M55.384 38.61c.264-.176.44-.352.704-.484.572-.352 1.145-.484 1.805-.396.44.088.837.264 1.057.704.088.22.176.176.352.088.66-.572 1.409-.88 2.245-.748.925.132 1.409.748 1.277 1.673-.176 1.144-.44 2.289-.705 3.39-.088.352-.176.704-.22 1.056-.044.176-.088.22-.264.22h-1.232c-.177 0-.22-.088-.177-.22.265-1.189.485-2.333.749-3.522.044-.22.088-.44.088-.66.044-.529-.308-.793-.837-.705-.616.132-.968.529-1.232 1.057-.264.704-.397 1.453-.529 2.201-.088.528-.264 1.057-.308 1.585-.044.22-.088.264-.308.264h-1.145c-.22 0-.264-.088-.22-.264l.749-3.566c.044-.176.088-.352.088-.528.088-.529-.264-.837-.749-.749-.572.088-1.012.397-1.232.925-.353.792-.397 1.673-.617 2.51-.088.484-.22.924-.264 1.408-.044.176-.088.264-.308.264-.352-.044-.748-.044-1.057 0-.264 0-.352-.088-.264-.352.22-.969.396-1.981.617-2.95.176-.836.396-1.717.528-2.553.088-.308.132-.484.528-.396.264.044.572 0 .88 0 .22 0 .265.044.22.264-.175.088-.175.264-.22.484z"/>
        <path fill="#00A2C1" d="M62.56 18.226H42.088c.396-.44.837-.88 1.233-1.32.308-.397.66-.485 1.144-.485h16.29c.264 0 .396.088.572.265.396.44.792.968 1.233 1.54zM42.22 8.321h20.34c-.573.616-1.1 1.188-1.63 1.76-.087.089-.22.089-.307.089H44.025c-.132 0-.264 0-.352-.088-.44-.617-.925-1.145-1.453-1.761zm18.006 2.73l-1.232 1.672c-.088.088-.176.088-.264.088H46.535c-.132 0-.265-.044-.309-.132-.396-.44-.88-.924-1.276-1.409-.088-.088-.132-.132-.088-.264.044-.088.176-.088.264-.088h15.012c-.088.044 0 .044.088.132zm.132 4.446H44.642c.572-.572 1.144-1.189 1.716-1.761.089-.088.22-.088.309-.088h11.842c.133 0 .265 0 .353.088.44.616.924 1.189 1.496 1.76z"/>
        <path fill="#171A41" d="M17.698 43.453c-.264.176-.528.352-.792.484-.573.264-1.145.352-1.761.264-1.013-.132-1.497-1.012-1.145-2.025.264-.748.792-1.233 1.54-1.497.75-.264 1.586-.308 2.334-.528.44-.132.529-.176.484-.616 0-.397-.264-.485-.572-.529-.616-.088-1.189 0-1.54.573-.089.176-.22.176-.397.132-.396-.088-.748-.132-1.189-.264.397-.793.925-1.41 1.761-1.63.793-.264 1.63-.264 2.422-.087.924.22 1.232.748 1.1 1.628-.132.881-.352 1.761-.528 2.598-.132.616-.264 1.233-.088 1.893.044.132-.044.132-.132.132h-1.32c-.133 0-.177-.088-.22-.176.087 0 .087-.132.043-.352z"/>
        <path fill="#EC5824" d="M51.73 42.352c-.617 1.321-2.07 2.025-3.566 1.85-1.277-.177-1.894-.881-1.982-2.158 0-.396.044-.748.088-1.1.309-1.41 1.057-2.51 2.422-3.038.704-.264 1.409-.264 2.069-.088.836.264 1.277.924 1.365 1.76.088.573 0 1.057-.088 1.63-.044.22-.088.264-.308.264h-3.566c-.309 0-.397.088-.397.396 0 .528.264.924.705 1.057.484.176 1.056 0 1.409-.485.176-.308.396-.352.704-.264.396.088.748.132 1.145.176zm-22.101 0c-.925 1.761-2.818 2.201-4.27 1.673-.925-.308-1.277-1.056-1.277-1.981 0-1.673.572-3.082 2.069-3.962.792-.485 1.673-.573 2.553-.264.88.264 1.277.924 1.41 1.76.087.529 0 1.057-.089 1.586-.044.264-.132.308-.396.308h-3.522c-.308 0-.396.088-.396.396 0 .528.264.924.704 1.057.484.176 1.057 0 1.409-.529.176-.308.396-.308.66-.264.397.088.793.176 1.145.22zm39.49 0c-.572 1.013-1.364 1.63-2.465 1.805-.44.088-.88.088-1.32 0-.97-.132-1.674-.792-1.762-1.805-.088-1.76.44-3.258 2.025-4.226.793-.484 1.673-.573 2.554-.264.836.264 1.277.88 1.409 1.76.088.573 0 1.057-.088 1.63-.044.22-.132.264-.353.264h-3.522c-.264 0-.352.088-.352.308-.044.572.22.968.66 1.145.485.176 1.101.044 1.41-.485.176-.308.396-.396.704-.264.352.044.704.088 1.1.132zm-31.566-4.534c-.616.66-1.188 1.232-1.717 1.849-.264.308-.572.616-.88.924-.132.132-.132.264-.088.44.44.925.924 1.85 1.409 2.73.132.264.088.308-.176.264h-1.453c-.22 0-.308-.088-.396-.264-.265-.572-.485-1.057-.749-1.673-.528.572-1.012 1.145-1.453 1.717-.132.176-.264.264-.484.22h-1.629c.44-.528.88-.968 1.277-1.409l1.453-1.585c.132-.132.132-.264.088-.44-.397-.748-.749-1.54-1.189-2.29-.088-.131-.132-.307-.264-.483h1.893c.132 0 .132.088.22.22.176.396.396.836.572 1.276.088.177.132.22.265.044.352-.396.748-.792 1.056-1.232.176-.22.396-.308.66-.308h1.585z"/>
        <path fill="#00A2C1" d="M37.245 7.44H27.56c-.573 0-1.145.132-1.585-.088-.44-.22-.793-.704-1.189-1.056-.264-.22-.484-.397-.748-.749h10.874c.352 0 .572.088.836.308 0 .044 1.497 1.585 1.497 1.585zM23.994 20.912c.66-.572 1.232-1.145 1.849-1.717.088-.088.22-.088.352-.088 1.453 0 2.906-.044 4.358-.044h6.736c-.352.352-.704.66-.968 1.012-.529.705-1.189.837-2.025.837-3.258-.044-6.56-.044-9.818-.044-.132.044-.22.044-.484.044zM26.899 8.32h11.007c.264 0 .44.088.616.264.396.44.836.88 1.233 1.277.088.088.132.132.088.264-.044.132-.176.088-.264.088h-10.61c-.088 0-.177.044-.265-.088-.528-.617-1.1-1.189-1.805-1.805zm0 9.905c.705-.616 1.277-1.188 1.893-1.76.089-.089.265-.089.353-.089h10.918c-.396.397-.837.793-1.145 1.233-.396.528-.88.616-1.497.616-3.39-.044-6.735 0-10.081 0h-.44zm25.447.88c-.572.573-1.1 1.146-1.629 1.718-.132.132-.308.088-.484.088-1.277 0-2.598-.044-3.919-.044H39.58c.572-.616 1.1-1.189 1.629-1.761.088-.088.176-.088.264-.088h10.654c.088.088.132.088.22.088zm-9.642-6.295H40.24c-1.673 0-3.346 0-5.019-.044h-3.346c-.132 0-.264.044-.396-.088-.528-.572-1.057-1.188-1.629-1.76 0-.045.088 0 .176 0h10.522c.22 0 .352.087.528.22.44.44.925.924 1.365 1.32.088.176.176.22.264.352zm-12.899 2.642c.616-.572 1.233-1.1 1.805-1.673.132-.132.264-.088.44-.088h10.742c-.572.572-1.144 1.189-1.673 1.76-.088.089-.176.089-.264.089H29.937c-.044-.044-.044-.044-.132-.088zM52.302 7.44H41.604c-.264 0-.396-.088-.573-.264-.396-.528-.88-1.012-1.32-1.497.088-.088.264-.088.352-.088 3.214 0 6.472 0 9.685-.044.529 0 .925.22 1.233.528.44.397.88.793 1.277 1.233.088.044.088.088.044.132zm-2.51 14.308c-.572.617-1.1 1.19-1.673 1.761-.088.088-.176.088-.264.088H37.29c-.044 0-.044 0-.088-.044.573-.572 1.057-1.144 1.63-1.76.087-.089.263-.089.351-.089-.044.044 10.61.044 10.61.044zM49.66 4.755H39.182c-.396 0-.66-.088-.924-.397-.352-.44-.749-.836-1.189-1.276.088-.088.22-.044.308-.044 3.434 0 6.868 0 10.302-.044.264 0 .396.088.573.264l1.452 1.365c.044.044 0 .044-.044.132zm3.346 14.352h9.95c.22 0 .352.044.484.22.44.528.925 1.057 1.453 1.585H54.9c-.264 0-.396-.088-.572-.264-.44-.529-.836-1.013-1.32-1.541zM64.761 5.635c-.44.573-.88 1.1-1.277 1.673-.088.088-.132.132-.264.132H53.182l-.088-.044c.485-.572 1.013-1.1 1.497-1.717.088-.088.176-.088.264-.088 3.214 0 6.516 0 9.73-.044.088.044.132.088.176.088zm-9.377 16.113H65.42c.132 0 .265.044.353.177.396.572.88 1.056 1.276 1.584-.088.088-.22.088-.264.088h-9.51c-.22 0-.351-.044-.44-.22-.484-.484-.968-1.056-1.452-1.629zm-8.189 2.73l-1.585 1.585c-.088.088-.176.088-.264.088-3.478 0-6.956 0-10.434.044-.044 0-.088 0-.132-.044.528-.572 1.012-1.057 1.497-1.629.088-.088.132-.044.22-.044h10.698zM45.478.44c.572.573 1.057 1.1 1.673 1.717h-8.893c-.528 0-1.013 0-1.541.044-.176 0-.308-.044-.44-.176L34.692.44c.088-.088.22-.044.264-.044h10.17c.176 0 .22-.044.352.044zm21.616 2.598c-.44.572-.924 1.056-1.364 1.585-.088.088-.133.088-.265.088-3.301.088-6.56.044-9.861.044l-.088-.044c.484-.573.924-1.057 1.409-1.585.088-.088.132-.044.22-.088h9.773c.044-.044.088-.044.176 0z"/>
        <path fill="#EC5824" d="M40.9 35.616c-.133.66-.265 1.233-.397 1.893-.088.309.044.353.264.353.22 0 .573-.088.749.044.132.176-.088.44-.088.704-.088.572-.088.572-.749.572-.528 0-.528 0-.616.529-.176.792-.308 1.585-.484 2.421-.132.749 0 .925.748.704.088 0 .132-.044.264-.088-.044.397-.088.793-.088 1.19 0 .131-.088.131-.22.175-.528.176-1.057.264-1.629.132-.572-.088-.836-.396-.836-1.012 0-.925.264-1.761.44-2.598.088-.396.132-.748.264-1.144.044-.22 0-.265-.22-.265-.484 0-.484 0-.396-.484.044-.088.044-.22.088-.308.088-.528.088-.528.66-.528.176 0 .264-.088.264-.22 0-.044.044-.089.044-.089 0-.704.396-1.1 1.013-1.364.264-.22.572-.397.924-.617z"/>
        <path fill="#00A3C1" d="M4.799 12.811H.572c-.264 0-.352-.088-.308-.308.044-.396.044-.836 0-1.233 0-.264.088-.264.264-.264h8.365c.264 0 .352.088.352.308 0 .397.044.837.088 1.233.044.264-.088.264-.264.264H4.8z"/>
        <path fill="#00A2C1" d="M4.799 19.107H8.98c.264 0 .396.044.352.308-.044.396 0 .88 0 1.277 0 .176-.088.264-.264.264-2.553 0-5.107 0-7.66-.044H.484c-.176 0-.264-.044-.264-.22 0-.44.044-.925 0-1.365 0-.264.088-.264.308-.264 1.453 0 2.862 0 4.27.044 0-.044 0-.044 0 0zM57.805 2.113c.396-.572.925-1.056 1.32-1.585.089-.088.177-.132.265-.132h9.641c.044 0 .088 0 .177.044-.485.573-.969 1.1-1.41 1.63-.087.087-.175.087-.263.087h-9.598c.044 0 0-.044-.132-.044zm11.49 24.082H59.61c-.264 0-.396-.088-.572-.264-.396-.484-.749-.925-1.145-1.409.088-.088.176-.088.264-.088h9.378c.176 0 .308.044.44.22.396.484.836.969 1.32 1.541zM4.844 16.377h4.182c.264 0 .352.088.308.309-.044.396 0 .836 0 1.232 0 .22-.044.264-.264.264H.53c-.22 0-.265-.088-.265-.264 0-.396.044-.792 0-1.232 0-.265.088-.353.352-.353 1.41.088 2.774.044 4.227.044zm-.088-6.251H.616c-.264 0-.352-.088-.352-.352.044-.397 0-.837 0-1.233 0-.176.088-.264.264-.264h8.497c.132 0 .264 0 .264.176 0 .44.044.924.088 1.365.044.264-.088.264-.264.264-1.497.044-2.905.044-4.358.044zm0 5.37H.572c-.264 0-.308-.087-.308-.307.044-.397 0-.837 0-1.233 0-.22.044-.264.264-.264h8.41c.22 0 .307.088.307.264 0 .396.044.792.088 1.189.044.264-.044.396-.352.396H4.755v-.044zm.044-8.056H.572c-.264 0-.308-.088-.308-.308.044-.396.044-.748 0-1.145 0-.264.088-.308.308-.352H.97c2.597 0 5.239 0 7.836-.044.352 0 .396.088.396.396 0 .397.044.749.088 1.145.044.22-.088.264-.264.264H4.8v.044z"/>
        <path fill="#171A41" d="M21.484 44.157c-.264 0-.616.088-.748-.088s.044-.484.088-.748c.528-2.554 1.057-5.063 1.585-7.573.044-.176.088-.264.308-.264.396.044.748 0 1.1 0 .22 0 .309.044.265.264-.485 2.246-.925 4.579-1.409 6.824-.088.397-.176.793-.264 1.233-.044.264-.132.308-.396.308-.132 0-.353.044-.529.044z"/>
        <path fill="#EC5824" d="M44.201 38.61c.132-.176.264-.352.396-.484.529-.44 1.277-.573 1.894-.22.132.088.176.132.088.308-.22.352-.397.704-.573 1.056-.088.133-.132.22-.308.088-.66-.352-1.233-.132-1.585.529-.352.616-.44 1.277-.572 1.937-.132.66-.264 1.277-.396 1.937-.044.22-.088.264-.309.264h-1.144c-.22 0-.264-.088-.22-.264.352-1.629.704-3.302 1.056-4.93.044-.265.132-.485.132-.75.044-.263.132-.395.397-.351.264.044.572.044.836 0s.396.088.308.352c-.044.088-.044.22-.088.308 0 .132.044.176.088.22z"/>
        <path fill="#F3A54B" d="M33.987 36.409c-.22.132-.396.264-.572.396-.088.088-.22.132-.264-.088-.176-.484-.528-.925-.793-1.32-.396-.617-.66-1.233-.396-2.026.088-.22.176-.396.352-.572.66-.617 1.321-1.233 1.761-2.07.353.309.573.66.793 1.013.088.044.176.088.22.22.704 1.233.748 2.422-.176 3.566-.264.397-.484.749-.925.88z"/>
        <path fill="#E61E26" d="M33.987 36.409c.309-.308.66-.617.925-.969.792-1.056.748-2.245.088-3.346-.088-.088-.088-.22-.176-.264.132-.22.264-.396.44-.616.793.968 1.585 1.937 1.409 3.346-.088.836-.616 1.453-1.233 2.025-.264.264-.572.44-.792.66-.132.088-.264.176-.308-.088-.088-.308-.22-.528-.353-.748z"/>
        <path fill="#DEF2F6" d="M24.39.396H.264C.352.264.528.308.616.308h23.466c.088.044.22.044.308.088z"/>
        <path fill="#DEF3F7" d="M45.478.44H35c-.088 0-.176 0-.264.044.088-.132.22-.088.308-.088H45.17c.088-.044.176-.044.308.044z"/>
        <path fill="#FEFEFE" d="M4.755 40.283c-.044.66-.176 1.277-.529 1.893-.264.396-.616.705-1.056.793-.573.132-1.189-.177-1.233-.749-.132-1.012.088-1.937.793-2.73.088-.087.132-.132.264-.176.396-.264.88-.352 1.32-.088.397.177.44.617.44 1.057zm4.622.176c.088-.704.573-1.233 1.189-1.409.792-.22 1.409.397 1.233 1.233-.044.132-.088.22-.22.176H9.377zm6.956 2.642c-.308 0-.572-.088-.704-.397-.088-.308-.044-.572.176-.792.22-.22.484-.308.748-.396.397-.088.837-.22 1.233-.264.088 0 .176-.088.176.088.132.836-.704 1.76-1.629 1.76zm33.02-2.686H48.34c-.088 0-.22 0-.176-.176.176-.792.968-1.409 1.717-1.233.616.132.792.749.748 1.233-.044.132-.132.132-.264.132-.352.044-.66.044-1.013.044z"/>
        <path fill="#FEFDFD" d="M27.296 40.415h-1.013c-.088 0-.22 0-.176-.176.176-.704.88-1.409 1.673-1.233.572.088.924.749.748 1.277-.044.132-.132.132-.264.132h-.968zm39.49 0H65.73c-.088 0-.177-.044-.177-.176.089-.704.969-1.409 1.673-1.233.573.088.925.749.749 1.277-.044.132-.132.132-.264.132h-.925z"/>
    </g>
</svg>
