<svg xmlns="http://www.w3.org/2000/svg" width="90" height="24" viewBox="0 0 90 24">
    <g fill="none">
        <path fill="#000" d="M34.36 5.38c-.385-.148-.77-.221-1.107-.221-.684 0-1.265.22-1.715.708-.46.487-.685 1.085-.685 1.839 0 .414.075.864.188 1.241.112.414.309.79.497 1.122.271.414.609.754 1.03.975.423.22.882.34 1.341.34.225 0 .46-.037.685-.11.225-.074.422-.148.61-.304.112-.073.224-.147.346-.267.113-.11.188-.147.188-.147.037 0 .037 0 .037.037 0 0 .038.037.038.074 0 .036-.038.11-.113.184-.075.073-.15.183-.31.303-.271.22-.571.377-.88.487-.347.11-.685.184-1.07.184-.956 0-1.762-.303-2.371-.938-.61-.597-.881-1.425-.881-2.4 0-.487.075-.9.187-1.315.113-.413.31-.754.572-1.048.347-.414.769-.754 1.219-.938.459-.22.956-.303 1.565-.303.272 0 .572.037.881.11.31.037.61.147.92.267.037-.304.074-.524.112-.635.037-.11.075-.147.15-.147.037 0 .037 0 .037.037 0 0 .038.074.038.11 0-.036-.038.11-.075.488-.038.377-.038.754-.038 1.158v.901c.038.267.038.414.038.377 0 .037 0 .037-.038.074 0 .037-.037.037-.075.037-.037 0-.075-.074-.112-.184-.038-.11-.075-.34-.113-.671l-.075-.754c-.262-.295-.6-.479-1.022-.672zm9.356 4.165c.112-.377.187-.791.187-1.242 0-.524-.075-.974-.272-1.425-.187-.414-.46-.827-.806-1.122-.347-.294-.684-.524-1.106-.634-.422-.147-.844-.22-1.34-.22-.648 0-1.22.146-1.763.45-.535.303-.994.708-1.303 1.195-.15.304-.31.598-.385.938-.112.304-.15.671-.15 1.012 0 .487.075.937.272 1.351.15.414.422.754.722 1.085.347.34.722.561 1.144.754.422.147.88.221 1.378.221.572 0 1.106-.11 1.565-.34.497-.22.882-.524 1.22-.938.3-.34.487-.671.637-1.085zm-2.1 1.793c-.272.073-.535.11-.807.11-.459 0-.918-.11-1.378-.377-.46-.22-.881-.56-1.218-.974-.31-.377-.535-.708-.685-1.122-.15-.377-.225-.791-.225-1.159 0-.754.272-1.352.722-1.802.497-.488 1.106-.708 1.875-.708.497 0 .994.11 1.416.34.459.22.88.56 1.218 1.011.272.34.497.709.647 1.122.15.414.225.828.225 1.242 0 .413-.112.79-.272 1.122-.187.34-.459.634-.843.9-.216.111-.441.221-.675.295zm3.328-4.193l-.075-.037v-.11s.037-.074.037-.184 0-.184.038-.304v-.533c0-.184 0-.414-.038-.634-.037-.377-.075-.525-.075-.525l.038-.073h.037c.075 0 .15.22.188.34.037.11.075.34.112.524 0 .074.038.11.038.184l.037-.037c.31-.303.647-.487 1.032-.634.346-.147.721-.22 1.068-.22.497 0 .919.11 1.181.376.31.267.46.598.46 1.012 0 .303-.113.597-.272.9-.188.267-.46.562-.806.865.46.11.806.304 1.069.598.224.303.384.671.384 1.122 0 .597-.225 1.122-.647 1.499-.46.413-1.031.597-1.716.597-.384 0-.721-.037-1.068-.184-.347-.11-.685-.266-.994-.487-.15-.11-.272-.184-.347-.303-.075-.074-.112-.184-.112-.221l.037-.074.075-.036c.038 0 .112.036.225.11.075.073.15.147.188.147.309.22.609.377.956.487.347.11.647.147.956.147.497 0 .919-.147 1.266-.413.346-.304.496-.635.496-1.085 0-.488-.15-.828-.496-1.085-.31-.267-.77-.414-1.341-.414-.188 0-.422.037-.647.073-.225.074-.384.11-.384.11-.038 0-.113-.036-.113-.036l-.037-.074c0-.11.187-.266.61-.377.383-.11.88-.184 1.452-.184.225-.22.422-.45.572-.67.113-.268.188-.488.188-.755 0-.377-.113-.671-.385-.901-.272-.22-.61-.34-1.031-.34-.272 0-.534.037-.769.147-.272.073-.497.22-.684.377-.113.073-.188.184-.31.303-.093.561-.28 1.012-.393 1.012zm7.678 4.35c-.15-.038-.31-.038-.46-.074-.037-.267-.037-.524-.037-.791V8.497h.497c.844 0 1.49.11 1.875.377.384.266.61.597.61 1.121 0 .488-.188.865-.535 1.122-.347.258-.844.414-1.49.414-.15 0-.3 0-.46-.037zm-1.219-.865c0 .303 0 .524-.037.79-.347.037-.61.074-.722.111-.113.037-.188.074-.188.147 0 .037 0 .037.038.074 0 0 .037.037.112.037.038 0 .15-.037.422-.037.272-.037.535-.037.769-.037.234 0 .497 0 .881.037.385.037.647.037.806.037.77 0 1.341-.184 1.8-.525.46-.34.685-.79.685-1.351 0-.45-.15-.828-.497-1.085-.31-.267-.769-.451-1.34-.451.496-.11.918-.303 1.218-.634.3-.332.46-.709.46-1.122 0-.524-.188-.901-.573-1.196-.384-.266-.918-.414-1.64-.414-.15 0-.422 0-.844.037s-.722.037-.994.037-.496 0-.768-.037c-.272 0-.422-.037-.422-.037-.038 0-.113 0-.113.037-.037 0-.037.037-.037.074s.075.11.187.11c.15.037.385.074.722.11.038.221.038.488.038.791v3.522c.037.377.037.708.037.975zm.722-2.363v-2.17c0-.304.038-.561.038-.791.225-.037.421-.074.571-.11.113 0 .272-.037.385-.037.572 0 1.031.147 1.415.45.347.304.535.671.535 1.159 0 .524-.188.901-.572 1.158-.385.267-.919.377-1.716.377h-.384c-.075-.036-.197-.036-.272-.036zm8.56-3.265c.459-.036.918-.073 1.377-.147l.113-.34c.038-.037.038-.074.038-.11 0 0 .037-.037.075-.037h.075v.11s0 .11-.038.304c-.038.22-.038.413-.038.597 0 .221 0 .414.038.598v.34c-.038 0-.038.037-.075.037-.038 0-.038 0-.075-.037s-.037-.11-.075-.22l-.075-.598c-.272-.074-.647-.184-1.031-.22-.422-.038-.844-.074-1.303-.074h-.422c-.15 0-.31.036-.497.036-.038.221-.038.488-.038.791v2.06h1.078c.385 0 .722-.037 1.07-.037.346-.037.609-.073.88-.147l.038-.267c0-.036.038-.073.038-.147.037-.22.112-.34.15-.34 0 0 .037 0 .037.037s.038.037.038.073c0 0-.038.11-.038.34 0 .23-.038.451-.038.672 0 .184 0 .414.038.634 0 .221.038.34.038.377 0 .037 0 .037-.038.074 0 .037-.038.037-.075.037-.075 0-.113-.147-.15-.414v-.11l-.037-.34c-.272-.074-.572-.111-.882-.148-.347-.037-.684-.073-1.069-.073h-1.068v2.253c0 .266.037.56.037.79h.61c.497 0 .993-.036 1.415-.11.46-.074.844-.184 1.219-.303l.075-.561c.038-.11.038-.184.075-.221 0-.037.038-.037.075-.037.038 0 .038 0 .075.037 0 .037.037.037.037.073 0 0 0 .074-.037.267-.038.193-.038.414-.038.635 0 .184 0 .377.038.56.037.184.037.267.037.267v.11l-.037.037s-.038 0-.075-.036c-.038-.037-.038-.037-.038-.11l-.075-.185c-.496-.036-.993-.073-1.528-.11-.534-.037-1.03-.037-1.565-.037h-.769c-.225 0-.46 0-.722.037-.225.037-.384.037-.384.037-.075 0-.075 0-.113-.037-.037-.037-.037-.037-.037-.074 0-.073.075-.11.187-.147.15-.037.385-.073.722-.11.038-.22.038-.487.038-.79V5.976c0-.267-.038-.524-.038-.754-.347-.037-.61-.074-.722-.11-.112-.037-.187-.074-.187-.11 0-.037 0-.074.037-.074.038 0 .075-.037.113-.037 0 0 .112 0 .384.037s.535.037.806.037h1.032c.422.082.834.036 1.293.036zm3.056 2.143l-.075-.037v-.11s.037-.074.037-.184v-.828c0-.184 0-.414-.037-.634-.038-.377-.075-.524-.075-.524l.037-.074h.075c.038 0 .15.22.188.34.037.11.075.34.112.524 0 .074.038.11.038.184l.037-.036c.31-.304.647-.488.994-.635.347-.147.722-.22 1.069-.22.496 0 .918.11 1.18.376.31.267.46.598.46 1.012 0 .303-.112.598-.272.901-.187.267-.459.56-.806.864.46.11.806.304 1.069.598.272.304.384.671.384 1.122 0 .598-.225 1.122-.647 1.499-.459.414-1.03.597-1.715.597-.385 0-.722-.036-1.069-.183-.347-.11-.684-.267-.994-.488-.15-.11-.272-.184-.347-.303-.075-.074-.112-.184-.112-.22l.037-.075.075-.036c.038 0 .113.036.225.11.075.074.15.147.188.147.31.22.61.377.956.488.347.11.647.147.956.147.497 0 .92-.147 1.22-.414.346-.304.496-.635.496-1.085 0-.488-.15-.828-.497-1.085-.31-.267-.769-.414-1.34-.414-.188 0-.422.037-.647.074l-.347.11c-.038 0-.113-.037-.113-.037l-.037-.073c0-.11.187-.267.61-.377.383-.11.88-.184 1.452-.184.225-.221.422-.451.572-.672.113-.266.188-.487.188-.754 0-.377-.113-.67-.385-.9-.272-.222-.61-.341-1.031-.341-.272 0-.534.037-.769.147-.272.074-.497.22-.684.377-.113.074-.188.184-.31.304-.075.551-.225 1.002-.346 1.002zm6.496 3.485c-.15.303-.271.598-.421.827-.225 0-.385 0-.497-.11-.075-.073-.15-.303-.15-.377-.038-.11-.075-.184-.15-.184-.038 0-.038 0-.075.037 0 .037-.038.074-.038.11 0 0 .038.184.038.414 0 .147.037.34.037.561 0 .22 0 .487-.037.754-.038.267-.038.414-.038.414v.11c.038.037.038.037.075.037.075 0 .113-.074.15-.184.038-.147.075-.487.15-.754.15-.487.272-.598.994-.598h4.51c.721 0 .843.11.993.598.075.267.113.635.15.754.038.11.075.184.15.184.038 0 .038 0 .075-.037 0 0 .038-.037.038-.11 0 0-.038-.184-.038-.414-.037-.267-.037-.524-.037-.754 0-.22 0-.414.037-.56 0-.268.038-.415.038-.415 0-.073 0-.11-.038-.11 0 0-.037-.037-.075-.037-.075 0-.112.074-.15.184 0 .11-.075.304-.15.377-.075.11-.225.11-.497.11-.112-.22-.225-.487-.384-.754-.113-.266-.272-.56-.422-.9l-1.106-2.585c-.272-.56-.46-1.048-.61-1.498-.15-.414-.272-.754-.347-1.049l-.806.34.225.451c.075.147.188.377.272.598l-1.49 3.558c-.066.377-.216.708-.376 1.012zm.197.827c.075-.303.15-.634.225-.864.075-.22.113-.414.188-.56l1.453-3.67 1.566 3.789c.225.56.421 1.011.496 1.351h-3.937l.01-.046zM82.66 4.892c.038-.037.075-.037.075-.037h.038v.147c0 .267-.075.791-.075 1.085 0 .295-.038.635-.038 1.012v2.473c0 .414 0 .754.038 1.049 0 .266.037.56.037.79.347.037.61.074.722.11.113.038.188.074.188.148 0 .037 0 .037-.038.074-.037 0-.075.036-.112.036 0 0-.188-.036-.422-.036-.272-.037-.535-.037-.769-.037-.225 0-.497 0-.769.037-.272.036-.422.036-.422.036-.037 0-.112 0-.112-.036-.037-.037-.037-.037-.037-.074 0-.074.075-.11.187-.147.15-.037.384-.074.722-.11 0-.267.037-.525.037-.791V6.198l-4.05 5.508-.112.11c-.038.037-.075.037-.075.037h-.038v-.147c.038-.267.038-.791.038-1.049v-4.57c0-.266-.038-.524-.038-.754-.347-.036-.609-.073-.722-.11-.112-.037-.187-.074-.187-.11 0-.037 0-.074.038-.074 0 0 .075-.037.112-.037.037 0 .15 0 .422.037s.534.037.769.037c.234 0 .496 0 .768-.037.272 0 .422-.037.422-.037.038 0 .113 0 .113.037.037 0 .037.037.037.074 0 .036-.075.11-.187.11-.113.037-.385.074-.722.11 0 .221-.038.488-.038.791v4.423l4.088-5.508c0 .01.075-.11.112-.147zm5.541.11c.46-.036.919-.073 1.378-.147l.113-.34c.037-.037.037-.074.037-.11 0 0 .038-.037.075-.037h.075v.11s0 .11-.037.304c-.038.22-.038.413-.038.597 0 .221 0 .414.038.598v.34c-.038 0-.038.037-.075.037-.038 0-.038 0-.075-.037-.038-.037-.038-.11-.038-.22l-.075-.598c-.272-.074-.647-.184-1.031-.22-.422-.038-.844-.074-1.303-.074h-.422c-.15 0-.31.036-.497.036-.038.221-.038.488-.038.791 0 .304-.037.635-.037 1.012v1.048h1.069c.384 0 .722-.037 1.069-.037.346-.037.609-.073.88-.147l.076-.267c0-.036.037-.073.037-.147.038-.22.113-.34.15-.34 0 0 .038 0 .038.037v.073s0 .11-.038.34c0 .221-.037.451-.037.672 0 .184 0 .414.037.634 0 .221.038.34.038.377v.074c0 .037-.038.037-.038.037-.075 0-.112-.147-.15-.414v-.11l-.037-.34c-.272-.074-.572-.111-.881-.148-.347-.037-.685-.073-1.07-.073h-1.068v1.195c0 .414 0 .754.037 1.048 0 .267.038.561.038.791h.61c.496 0 .993-.037 1.415-.11.46-.074.844-.184 1.219-.304l.075-.56c.037-.11.037-.184.075-.221 0-.037.037-.037.075-.037.037 0 .037 0 .075.037v.34c-.038.184-.038.414-.038.634 0 .184 0 .377.038.561 0 .184.037.267.037.267v.11c0 .037-.037.037-.075.037 0 0-.037 0-.075-.037 0-.036-.037-.036-.037-.11l-.075-.184c-.497-.037-.994-.073-1.528-.11-.535-.037-1.032-.037-1.566-.037h-.75c-.225 0-.46 0-.722.037-.225.037-.384.037-.384.037-.038 0-.075 0-.113-.037-.037-.037-.037-.037-.037-.074 0-.073.075-.11.187-.147.15-.037.385-.073.722-.11.038-.221.038-.488.038-.791 0-.304.037-.635.037-1.048V7.016c0-.414 0-.754-.037-1.048 0-.267-.038-.524-.038-.754-.347-.037-.61-.074-.722-.11-.112-.037-.187-.074-.187-.11 0-.038 0-.074.037-.074.038 0 .075-.037.113-.037 0 0 .112 0 .384.037.272.036.534.036.806.036h1.032c.337.092.796.046 1.209.046zM32.212 17.94c.113-.11.272-.22.422-.414l2.372-2.4c-.075-.036-.15-.036-.225-.073-.272-.074-.384-.11-.384-.184 0-.037 0-.074.037-.074.038 0 .075-.036.113-.036 0 0 .112 0 .347.036.187.037.384.037.572.037.187 0 .384 0 .572-.037.187 0 .309-.036.346-.036.038 0 .075 0 .113.036.037 0 .037.037.037.074s-.112.11-.309.184c-.113.037-.188.037-.272.073-.384.267-.806.598-1.266.975-.459.377-.918.791-1.415 1.242l-.919.864h.272c.225 0 .422 0 .572.037.15 0 .272.073.384.11.31.11.61.414.956.901.038.074.075.11.075.11l.882 1.242c.15.22.31.377.422.487.112.11.225.147.347.147.075 0 .15-.036.187-.073.075-.037.112-.037.112-.037.038 0 .076 0 .076.037v.073c0 .074-.113.184-.272.34-.188.111-.385.185-.535.185-.15 0-.31-.074-.46-.184-.15-.11-.309-.304-.496-.525l-.938-1.36-.037-.037c-.497-.754-1.069-1.122-1.603-1.122h-.272v1.986c0 .304.038.561.038.79.346.038.609.075.721.111.113.037.188.074.188.147 0 .037 0 .037-.038.074-.037 0-.075.037-.112.037-.038 0-.15-.037-.422-.037-.272-.037-.534-.037-.769-.037-.225 0-.497 0-.768.037-.272 0-.422.037-.422.037-.038 0-.075 0-.113-.037-.037 0-.037-.037-.037-.074 0-.073.075-.11.187-.147.113-.036.384-.073.722-.11.038-.22.038-.487.038-.79 0-.304.037-.635.037-1.05V16.93c0-.414 0-.754-.037-1.049 0-.266-.038-.524-.038-.754-.347-.036-.61-.073-.722-.11-.112-.037-.187-.073-.187-.147 0-.037 0-.074.037-.074 0 0 .075-.036.113-.036.037 0 .15.036.422.036.271.037.534.037.768.037.225 0 .497-.037.769-.037s.422-.036.422-.036c.037 0 .112 0 .112.036.038 0 .038.037.038.074 0 .074-.075.11-.188.147-.112.037-.384.074-.721.11-.038.267-.038.488-.038.791v2.253c-.037-.083.075-.156.188-.23zm6.385 1.462v-.9c.187.036.384.036.534.036.188 0 .347.037.497.037.806 0 1.453-.184 1.95-.561.497-.377.722-.865.722-1.462 0-.561-.225-.975-.61-1.315-.421-.304-.993-.45-1.762-.45-.15 0-.422.036-.769.036-.384.037-.684.037-.918.037-.272 0-.497-.037-.77-.037-.271 0-.421-.037-.421-.037-.037 0-.075 0-.112.037-.038 0-.038.037-.038.074 0 .073.075.11.188.147.15.036.384.073.721.11.038.22.038.487.038.754 0 .303.037.635.037 1.048v2.474c0 .414 0 .754-.037 1.048 0 .304 0 .524-.038.791-.346.037-.572.074-.721.11-.113.037-.188.074-.188.147 0 .037 0 .037.038.074.037 0 .037.037.112.037.038 0 .188-.037.422-.037.272-.037.534-.037.769-.037.346 0 .647 0 .993.037.31 0 .46.037.46.037.037 0 .112 0 .112-.037.038 0 .038-.037.038-.074 0-.073-.075-.11-.272-.147-.15-.036-.46-.073-.881-.11 0-.267-.038-.524-.038-.79-.019-.369-.056-.7-.056-1.077zm0-1.168v-2.363c0-.303.037-.524.037-.79.188-.037.347-.074.497-.074.15 0 .31-.037.422-.037.61 0 1.069.147 1.416.45.347.304.497.709.497 1.242 0 .524-.15.938-.497 1.241-.347.304-.844.451-1.49.451h-.385c-.113-.074-.263-.074-.497-.12zm5.081 1.095h2.597l.225.524.038.037c.225.56.384.974.459 1.278-.422.037-.722.073-.881.11-.15.037-.225.074-.225.147 0 .037 0 .037.037.074 0 0 .038.037.113.037 0 0 .15-.037.459-.037.272-.037.572-.037.881-.037.31 0 .61 0 .919.037.31 0 .46.037.46.037.037 0 .074 0 .112-.037.037 0 .037-.037.037-.074 0-.073-.075-.11-.187-.147-.113-.037-.385-.073-.722-.11-.112-.22-.225-.45-.384-.708-.113-.267-.272-.561-.422-.901l-1.107-2.584c-.271-.561-.459-1.049-.609-1.5-.15-.413-.272-.753-.347-1.047l-.806.34.225.45c.075.148.188.34.272.598l-1.49 3.559c-.15.377-.31.708-.423 1.011-.15.304-.271.561-.384.791-.347.037-.61.074-.722.11-.112.037-.187.074-.187.147 0 .037 0 .037.037.074.038 0 .075.037.113.037.037 0 .187-.037.459-.037.272-.037.534-.037.769-.037.234 0 .46 0 .684.037.272 0 .385.037.422.037.038 0 .075 0 .112-.037.038 0 .038-.037.038-.074 0-.073-.075-.11-.272-.147-.15-.036-.46-.073-.844-.11.075-.303.15-.598.225-.828.038-.22.113-.413.188-.56.019-.01.131-.46.131-.46zm.085-.23l1.18-2.961 1.22 2.96h-2.4zm9.206-3.899c-.385-.147-.769-.22-1.144-.22-.684 0-1.266.22-1.716.707-.459.488-.684 1.085-.684 1.84 0 .413.075.827.188 1.24.112.415.309.792.496 1.123.272.413.61.754 1.032.974.422.221.88.34 1.34.34.225 0 .46-.036.685-.11.225-.073.422-.147.609-.303.113-.074.225-.147.347-.267.112-.11.187-.147.187-.147.038 0 .038 0 .038.037 0 0 .037.037.037.073 0 .037-.037.11-.112.184-.075.074-.15.184-.31.304-.271.22-.571.377-.88.487-.348.11-.685.184-1.07.184-.956 0-1.762-.303-2.371-.938-.61-.598-.882-1.425-.882-2.4 0-.487.075-.901.188-1.315.112-.414.31-.754.572-1.048.347-.414.769-.754 1.218-.938.46-.22.957-.304 1.566-.304.272 0 .572.037.881.074.31.037.61.147.92.267.037-.304.074-.524.112-.635.037-.11.075-.147.15-.147.037 0 .037 0 .037.037v.11c0-.037 0 .11-.075.488-.037.377-.075.754-.075 1.158v.901c.038.267.038.414.038.377 0 .037 0 .074-.038.074l-.037.037c-.038 0-.113-.074-.15-.184-.038-.11-.038-.34-.075-.671l-.075-.755c-.225-.294-.563-.478-.947-.634zm9.328 4.129c.112-.377.187-.791.187-1.242 0-.524-.075-.974-.272-1.425-.187-.414-.459-.828-.806-1.122-.347-.303-.684-.524-1.106-.634-.422-.147-.844-.22-1.34-.22-.648 0-1.22.146-1.8.45-.535.303-.994.708-1.304 1.195-.187.303-.31.598-.384.938-.075.34-.15.671-.15 1.011 0 .488.075.938.272 1.352.15.414.422.754.722 1.085.346.34.721.561 1.143.754.422.147.882.267 1.378.267.572 0 1.107-.11 1.566-.304.497-.22.881-.524 1.219-.937.328-.423.553-.764.675-1.168zm-2.11 1.793c-.271.073-.534.11-.806.11-.46 0-.919-.11-1.378-.377-.46-.22-.881-.56-1.219-.975-.309-.377-.534-.708-.684-1.121-.15-.414-.225-.791-.225-1.159 0-.754.272-1.352.722-1.802.497-.488 1.106-.708 1.875-.708.497 0 .956.11 1.453.34.46.22.844.56 1.219 1.011.272.34.497.754.647 1.122.15.414.225.828.225 1.242 0 .413-.075.79-.272 1.121-.188.34-.46.635-.844.902-.216.11-.44.22-.712.294zm6.31-.708c0 .303.037.56.037.79.422.037.685.074.844.11.15.038.225.075.225.148 0 .037 0 .037-.037.074 0 0-.038.036-.113.036 0 0-.15-.036-.46-.036-.309-.037-.609-.037-.918-.037-.31 0-.61 0-.919.037-.31 0-.46.036-.46.036-.074 0-.112 0-.112-.036-.037 0-.037-.037-.037-.074 0-.073.075-.11.225-.147.15-.037.46-.074.844-.11.037-.221.037-.488.075-.791v-4.57c0-.267-.038-.524-.075-.791h-.113c-.422 0-.769 0-1.106.073-.347.037-.685.11-.956.221l-.075.598c-.038.11-.038.22-.075.22 0 .037-.038.074-.075.074-.038 0-.038 0-.075-.037 0-.036-.038-.036-.038-.073 0 .037 0-.074.038-.267v-.634c0-.184 0-.377-.038-.598-.037-.22-.037-.304-.037-.34 0-.037 0-.074.037-.074 0-.037.038-.037.075-.037 0 0 .038 0 .075.037 0 0 .038.037.038.074l.075.34c.496.073.956.11 1.415.147.46.037.881.037 1.303.037.422 0 .844 0 1.303-.037.46-.037.92-.074 1.416-.147l.113-.34c.037-.037.037-.074.037-.074 0-.037.038-.037.075-.037h.038v.11s0 .111-.038.304c-.037.22-.037.414-.037.598 0 .22 0 .414.037.634 0 .184.038.304.038.267 0 .037 0 .074-.038.074-.037 0-.037.036-.037.036-.038 0-.075-.036-.075-.073s-.038-.11-.075-.221l-.075-.598c-.31-.11-.61-.147-.957-.22-.346-.037-.721-.074-1.143-.074h-.113c-.037.22-.037.524-.037.79 0 .304-.038.635-.038 1.05v2.473c-.019.45-.019.781.019 1.085zm4.931-2.4v-1.085c0-.414 0-.754.038-1.012 0-.303.037-.524.037-.79.347-.037.61-.074.722-.11.113-.038.188-.074.188-.148 0-.037 0-.074-.038-.074-.037 0-.075-.036-.112-.036-.038 0-.15.036-.422.036-.272.037-.535.037-.77.037-.224 0-.496-.037-.768-.037s-.422-.036-.422-.036c-.037 0-.075 0-.112.036-.038 0-.038.037-.038.074 0 .074.075.11.188.147.112.037.384.074.722.11.037.221.037.488.037.754v4.57c0 .304-.037.525-.037.791-.347.037-.61.074-.722.11-.113.038-.188.074-.188.148 0 .037 0 .037.038.073.037 0 .075.037.112.037.038 0 .15-.037.422-.037.272-.036.535-.036.769-.036.225 0 .534 0 .919.036.384 0 .609.037.768.037.77 0 1.341-.147 1.763-.487.422-.304.61-.708.61-1.196 0-.524-.226-.974-.723-1.351s-1.143-.561-1.95-.561c-.15 0-.309 0-.496.037-.188-.074-.347-.074-.535-.037zm5.269 1.388V16.93c0-.414 0-.754.037-1.012 0-.303.038-.524.038-.79.347-.037.61-.074.722-.11.112-.038.187-.074.187-.148 0-.037 0-.074-.037-.074 0 0-.075-.036-.113-.036 0 0-.15.036-.422.036-.271.037-.534.037-.768.037-.225 0-.497-.037-.77-.037-.271 0-.421-.036-.421-.036-.038 0-.075 0-.113.036-.037 0-.037.037-.037.074 0 .074.075.11.188.147.15.037.384.074.721.11.038.221.038.488.038.754 0 .304.037.635.037 1.049v2.473c0 .414 0 .754-.037 1.049 0 .303 0 .524-.038.79-.347.037-.609.074-.722.11-.112.038-.187.074-.187.148 0 .037 0 .037.037.073.038 0 .075.037.113.037.037 0 .188-.037.422-.037.272-.036.534-.036.769-.036.225 0 .497 0 .768.036.272 0 .422.037.422.037.075 0 .113 0 .113-.037.037 0 .037-.036.037-.073 0-.074-.075-.11-.187-.147-.113-.037-.385-.074-.722-.11 0-.267-.038-.525-.038-.791-.037-.34-.037-.672-.037-1.049zm-5.269 0v-1.158c.225-.037.385-.037.535-.074h.384c.647 0 1.144.147 1.49.45.347.304.497.672.497 1.123 0 .45-.15.864-.496 1.158-.347.304-.807.45-1.416.45-.113 0-.272 0-.422-.036-.15 0-.31-.037-.497-.074 0-.22-.037-.487-.037-.79-.038-.304-.038-.635-.038-1.049z"/>
        <path fill="#00A3B4" d="M25.566 9.471c-.113-.671 0-1.425-.272-2.06-.272-.634-.881-1.085-1.266-1.645-.384-.561-.534-1.315-1.031-1.84-.46-.487-1.219-.754-1.8-1.158-.534-.414-.956-1.048-1.603-1.389-.61-.34-1.416-.303-2.1-.524-.647-.22-1.266-.708-1.988-.79-.684-.111-1.415.146-2.137.146-.685 0-1.378-.266-2.063-.183-.722.11-1.34.56-1.987.79-.685.221-1.453.184-2.063.488-.647.303-1.069.974-1.603 1.388-.572.414-1.303.635-1.8 1.122-.497.487-.647 1.241-1.031 1.802-.385.561-.994 1.049-1.266 1.683-.272.635-.15 1.389-.31 2.097-.074.708-.496 1.351-.496 2.06 0 .67.384 1.314.534 1.986.113.67 0 1.425.272 2.06.038.11.113.266.188.376-.113-.524-.075-1.121-.15-1.646-.113-.634-.497-1.24-.497-1.912 0-.671.384-1.315.534-1.95.113-.67.038-1.425.31-2.023.271-.634.88-1.085 1.218-1.646.385-.56.535-1.278 1.032-1.765.459-.487 1.18-.708 1.762-1.085.534-.414.956-1.012 1.566-1.352.61-.303 1.34-.267 1.987-.487.647-.184 1.266-.671 1.95-.754.647-.11 1.34.147 1.988.147.684 0 1.415-.267 2.1-.147.684.11 1.303.56 1.95.79.647.23 1.415.184 2.025.488.61.303 1.031.938 1.565 1.352.535.413 1.266.634 1.716 1.121.45.488.61 1.196.994 1.766.384.56.956 1.012 1.218 1.61.263.597.15 1.35.272 1.985.113.635.497 1.242.497 1.913s-.384 1.315-.534 1.95c-.113.56-.075 1.158-.188 1.682.075-.11.15-.22.188-.34.272-.634.15-1.388.31-2.097.112-.67.534-1.314.534-2.023-.029-.68-.413-1.314-.525-1.986m-4.735 8.055c-.534.074-.994.34-1.528.34-.31 0-.572-.036-.881-.073-.31 0-.535.11-.806.184-.807.22-1.763.184-2.597.267-.422.036-.919.147-1.34.11l1.265.11c.843.074 1.64.304 2.484.34.684.037 1.266-.036 1.95.037 1.303.11 2.597-.073 3.328-1.278-.197.267-1.612-.073-1.875-.037"/>
        <path fill="#00A3B4" d="M22.819 13.59c-.385.074-.844.111-1.144.341-.3.23-.46.598-.806.864-.535.414-1.219.414-1.838.708-.806.377-1.106 1.012-2.025 1.279-1.181.34-2.372 1.121-3.478 1.682.994-.487 2.26-.597 3.328-.9.31-.074.535-.304.806-.451.385-.184.77-.221 1.182-.267.347-.037.806-.074 1.143-.184.422-.147.722-.524 1.182-.634.347-.11.768 0 1.106-.148.113-.036 1.303-.45 1.303-.524.225-.708.347-1.462.384-2.216.076.184-.993.414-1.143.45m-8.41 4.12c.535-.45 1.107-1.011 1.716-1.315.422-.184.684-.377.994-.708.347-.377.647-.634 1.106-.864.46-.22.881-.303 1.219-.708.31-.377.422-.864.806-1.195.422-.377 1.031-.561 1.49-.865.723-.487 1.341-1.085 1.988-1.646.188-.147-.722-1.95-.844-2.17-.384.267-.806.524-1.18.79-.385.304-.535.599-.77 1.012-.15.304-.347.598-.534.865-.188.266-.497.56-.769.79-.422.34-.61.525-.881.975-.225.377-.61.488-.956.754-.647.524-.806 1.159-1.266 1.803-.187.22-.46.377-.684.597-.806.901-1.64 1.729-2.447 2.621.365-.322.74-.506 1.012-.736m.385-1.499c.187-.303.497-.487.684-.79.15-.267.113-.598.347-.865.31-.413.61-.524.844-1.011.15-.377.347-.561.61-.901.384-.414.421-.791.608-1.278.46-.975 1.454-1.573 1.716-2.621.15-.561.422-.754.806-1.196.497-.56.882-1.609.844-1.646-.534-.56-1.144-1.048-1.8-1.462.113.074-.684.672-.844 1.122-.112.377-.037.865-.187 1.242-.188.56-.684 1.011-.806 1.609-.113.708.037 1.122-.46 1.683-.347.413-.647.79-.768 1.278-.113.487-.113 1.048-.385 1.462-.272.414-.647.597-.806 1.122-.15.597-.272 1.195-.61 1.765-.496.865-.806 1.729-1.18 2.62.224-.376.459-.707.684-1.084.318-.294.468-.708.703-1.049m-2.944 2.07c-.844-.074-1.8-.037-2.597-.267-.272-.074-.497-.184-.806-.184-.31 0-.572.073-.881.073-.535-.036-1.032-.266-1.566-.34-.272-.037-1.678.267-1.8.074.722 1.195 1.987 1.388 3.328 1.278.647-.074 1.266 0 1.95-.037.844-.037 1.64-.267 2.485-.34l1.265-.11c-.46 0-.956-.11-1.378-.148M7.8 15.467c-.61-.304-1.303-.304-1.837-.708-.31-.267-.46-.635-.807-.865-.31-.22-.768-.266-1.143-.34-.15-.037-1.182-.267-1.182-.45.038.753.15 1.498.385 2.216.037.036 1.18.487 1.303.524.347.11.768.036 1.143.147.46.11.77.487 1.182.634.347.11.768.147 1.143.184.422.037.807.074 1.182.267.272.11.497.34.806.45 1.069.304 2.334.377 3.328.902-1.106-.561-2.26-1.352-3.478-1.683-.919-.23-1.228-.901-2.025-1.278m2.4-.267c-.46-.634-.61-1.278-1.266-1.802-.346-.267-.721-.377-.956-.754-.272-.45-.46-.635-.881-.975-.272-.22-.535-.487-.769-.79-.187-.268-.384-.599-.534-.865-.225-.414-.385-.708-.769-1.012-.384-.266-.806-.524-1.144-.79-.112.22-1.031 2.022-.843 2.17.646.56 1.303 1.121 1.987 1.646.46.34 1.069.524 1.49.864.385.34.498.828.807 1.195.347.414.722.45 1.219.672.459.22.768.487 1.106.864.347.377.572.524.994.708.646.303 1.18.901 1.715 1.315.272.22.647.414.882.671-.807-.864-1.641-1.728-2.447-2.62-.094-.12-.394-.267-.591-.497"/>
        <path fill="#00A3B4" d="M11.578 14.041c-.15-.524-.534-.708-.806-1.121-.272-.414-.272-.975-.385-1.463-.112-.524-.421-.9-.768-1.278-.497-.597-.347-1.011-.46-1.682-.075-.598-.572-1.049-.806-1.61-.112-.377-.037-.864-.187-1.241-.15-.45-.994-1.048-.844-1.122-.647.414-1.266.938-1.8 1.462 0 .037.384 1.085.844 1.646.384.414.647.635.806 1.196.272 1.048 1.303 1.646 1.715 2.62.226.488.272.865.61 1.278.272.304.46.525.61.902.224.487.534.597.843 1.011.225.267.188.598.347.864.15.304.46.488.684.791.225.34.422.754.647 1.085.225.377.46.754.684 1.085-.384-.9-.684-1.765-1.18-2.62-.282-.644-.404-1.205-.554-1.803zm1.416-.11c-.113-.377-.038-.79-.038-1.159 0-.524-.112-.974-.112-1.498 0-.267.075-.525.075-.791-.038-.267-.15-.488-.225-.708-.15-.488 0-1.012-.075-1.5-.075-.486-.31-.9-.385-1.35-.075-.599.188-1.16.15-1.766-.037-.414-.309-.791-.309-1.196 0-.073.075-1.195.038-1.195-.77.073-1.529.266-2.26.487.075 0-.15.598.31 1.766.112.303.346.524.421.827.075.34.038.672.038 1.012 0 .524.225.9.422 1.388.225.598.46 1.159.384 1.803-.037.524 0 .938.188 1.425.225.524.309 1.011.459 1.572.113.377.113.754.188 1.085.075.267.271.45.384.708.15.377.15.754.225 1.122.075.414.225.828.31 1.242.084.413.187.79.271 1.195-.112-.45-.075-.938-.112-1.389-.122-.983-.122-2.105-.347-3.08zm1.031 2.06c.075-.377.075-.791.225-1.122.113-.267.31-.45.384-.708.075-.377.075-.754.188-1.085.15-.524.225-1.048.46-1.573.224-.487.271-.9.187-1.425-.075-.634.15-1.195.384-1.802.188-.487.422-.865.422-1.389 0-.34-.037-.67.038-1.011.075-.304.309-.524.421-.828.422-1.195.225-1.802.31-1.765-.722-.22-1.453-.414-2.26-.488-.037 0 .038 1.122.038 1.196 0 .414-.31.79-.31 1.195-.037.598.226 1.159.113 1.766-.075.45-.31.9-.384 1.351-.075.488.037 1.012-.075 1.5-.075.22-.188.45-.225.707 0 .267.075.524.075.791 0 .524-.113 1.012-.113 1.499 0 .414.075.79-.037 1.159-.272.974-.225 2.06-.31 3.07-.037.451 0 .939-.112 1.39.075-.414.187-.791.272-1.196.084-.405.197-.818.309-1.232zm.384 4.083c0 .524-.421.974-.993.974-.535 0-.994-.414-.994-.974 0-.525.422-.938.994-.938.534 0 .993.413.993.938zM0 21.949v.074c0 .524 1.144.377 2.447.79.722.221 1.49.341 2.522.525.843.147 1.875-.304 2.906-.22.881.073 1.762.753 2.71.79.918.037 1.874-.524 2.868-.524.919 0 1.838.56 2.672.524.994-.037 1.875-.708 2.794-.79.994-.111 1.987.376 2.831.22 1.069-.184 1.837-.304 2.56-.524 1.378-.414 2.559-.267 2.559-.828v-.073H0v.036z"/>
    </g>
</svg>
