<svg xmlns="http://www.w3.org/2000/svg" width="100" height="21" viewBox="0 0 100 21">
    <g fill="#FFF">
        <path d="M19.609.454H3.966C1.788.454 0 2.27 0 4.541v7.662c0 2.213 1.788 4.086 4.022 4.086h18.995c.39 0 .67-.284.67-.68V4.54C23.631 2.27 21.844.454 19.61.454zm3.184 14.019c0 .454-.39.851-.838.851h-18.1c-1.676 0-3.017-1.362-3.017-3.065V4.37c0-1.702 1.34-3.065 3.017-3.065h15.922c1.676 0 3.016 1.363 3.016 3.065v10.103zM96.425 3.86c.782 0 1.564.113 2.234.51.335.227 1.118.284.67 1.022-.335.567-.558 1.135-1.452.567-1.117-.737-2.626-.454-3.464.568-.726 1.022-.726 2.838.056 3.803.838 1.021 2.235 1.192 3.632.51.39-.17.67-.85 1.284-.17.503.625.56.965-.167 1.42-2.514 1.588-5.922 1.078-7.263-1.193-.912-1.427-.933-3.26-.056-4.71.894-1.76 2.57-2.328 4.526-2.328zM54.19 4.03c1.061 0 2.067.056 3.128 0 .67-.057.727.34.727.851 0 .51 0 .851-.727.908-2.01.114-2.01.114-2.01 2.214 0 1.305-.057 2.61 0 3.916.111 1.078-.504.965-1.174.965-.782.057-1.229-.057-1.173-1.079.112-1.702 0-3.405.056-5.05.056-.852-.224-1.136-1.062-1.023-.279.057-.614 0-.95 0-.726.114-.782-.34-.782-.908 0-.567.112-.851.783-.851 1.117.057 2.122.057 3.184.057zM73.184 18.786c0 .852-.782 1.703-1.62 1.646-.95-.056-1.508-.567-1.564-1.532-.056-.965.615-1.703 1.564-1.703.838-.056 1.564.681 1.62 1.59zM84.413 8.74c.67.057 3.464-.056 4.134.057.783.057.894-.283.838-.965-.279-3.121-3.072-4.824-5.921-3.632-1.676.681-2.626 2.27-2.57 4.37.056 1.987 1.061 3.576 2.793 4.2 1.788.681 4.246.17 5.307-1.021.224-.227.336-.398.112-.681-.39-.568-.67-.852-1.452-.341-1.788 1.192-3.52.681-3.967-.965-.167-.68-.112-1.078.726-1.021zm-.726-1.759c-.112-.51.224-.965.67-1.305.56-.454 1.23-.454 1.844-.114.503.284.894.795.782 1.362-.111.681-.782.17-1.173.34-.112.058-.28 0-.447 0-.167 0-.39.058-.559 0-.39-.113-.95.285-1.117-.283zM46.983 3.973c-.95.057-1.34.227-1.285 1.305.112 2.044 0 1.987-1.955 2.1-1.117.057-1.564-.283-1.397-1.419.056-.397 0-.794 0-1.191.112-1.079-.67-.738-1.173-.738s-1.229-.398-1.229.68v7.436c0 .284-.056.51.28.681 1.173.51 2.122-.113 2.122-1.305v-1.76c0-.397.056-.624.559-.68 2.57-.398 2.793-.228 2.793 2.383v.454c-.167 1.135.615.908 1.23.908.558 0 1.228.227 1.173-.851-.056-1.135-.056-5.62 0-6.698.055-.908-.056-1.362-1.118-1.305zM63.24 8.741s3.129-.114 3.855.113c.95.114 1.061-.397.95-1.192-.336-2.724-2.458-4.2-5.196-3.632-1.788.397-3.072 1.93-3.24 3.973-.224 2.213.838 4.086 2.737 4.824 1.844.681 4.47.17 5.42-1.078.167-.227.279-.398.055-.625-.39-.454-.614-.965-1.452-.397-1.732 1.135-3.408.795-3.967-.681-.335-1.022-.167-1.305.838-1.305zm-.838-2.384c.335-.738.95-1.135 1.788-1.022 1.006.17 1.397.908 1.564 1.93h-2.849c-.782.057-.726-.397-.503-.908zm9.05-2.043c-.726.397-.893.737-.335 1.475.447.625.67.34 1.118.114 1.34-.625 2.849-.398 3.575.624.782 1.078.615 3.008-.391 4.03-.559.567-1.23.851-1.9 1.135-.558.227-.893.17-.837-.568.055-.624 0-1.305 0-1.986 0-.284.055-.568-.391-.681-1.397-.34-1.9 0-1.9 1.419 0 0 .056 4.086.056 4.994 0 .568.28.738.726.625.503-.114 1.564.454 1.509-.398-.056-1.305.67-1.305 1.452-1.475.726-.227 1.397-.454 2.067-.852 2.57-1.475 3.52-4.256 2.235-6.584-1.23-2.213-4.637-3.121-6.983-1.872zm-35.25-.228c-.56-.056-1.174-.113-1.733 0-.558.114-.167.682-.335 1.022-.056.057-.112.227-.168.284-1.005 1.135-2.01 2.27-3.296 3.69 0-1.76-.055-3.066-.055-4.371.055-.852-.56-.681-1.006-.625-.447.057-1.285-.454-1.285.625v7.548c0 .511.168.795.67.682.56-.114 1.341.454 1.676-.455.615-1.816 2.235-2.78 3.408-4.2.112 1.363.168 2.611.112 3.917-.056 1.078.67.738 1.173.738s1.173.34 1.173-.738V4.768c0-.284 0-.625-.335-.682z"/>
        <path d="M7.374 8.457v3.292c0 .454.335 1.078-.558 1.135-.894.057-.615-.625-.615-1.079 0-1.873-.056-3.689 0-5.562 0-.794-.223-1.021-.95-.965-.447.057-1.061.227-1.061-.624s.614-.624 1.061-.681c2.18-.057 2.18-.057 2.18 2.213-.057.795-.057 1.533-.057 2.27z"/>
        <path d="M5.698 9.365v2.838c0 .397-.111.68-.558.68-.559 0-.67-.226-.67-.737V8.003c0-.568-.057-1.022-.783-.965-.503.057-.559-.284-.559-.681 0-.511.28-.568.67-.568H4.86c.615-.057.838.17.838.795v2.78zm14.079 2.27h-.95c-2.179-.057-4.414.17-6.592-.113-1.565-.17-2.738-1.533-2.738-3.122-.056-1.59 1.062-3.008 2.57-3.292 1.62-.34 3.017.51 3.631 2.157.224.454.28 1.305 1.118.908.726-.34.223-.965.056-1.419-.727-2.157-2.906-3.292-5.14-2.838-2.067.454-3.52 2.44-3.408 4.711.112 2.214 1.9 4.087 4.134 4.2 2.458.114 4.86.057 7.319.057.446 0 .67-.17.67-.681s-.28-.568-.67-.568z"/>
        <path d="M11.285 8.627c-.112-.795.223-1.419.95-1.703.838-.34 1.452.057 1.9.852.39.738.893.68 1.34 0-.447-1.022-1.062-1.93-2.29-2.157-1.453-.284-2.906.795-3.13 2.327-.223 1.646.839 3.065 2.403 3.122 2.626.056 5.251 0 7.877 0h.056c.224-.909-.112-1.25-1.061-1.192-2.067.056-4.19 0-6.257 0-.894 0-1.62-.284-1.788-1.249z"/>
        <ellipse cx="19.441" cy="4.995" rx="1.229" ry="1.249"/>
    </g>
</svg>
