<svg xmlns="http://www.w3.org/2000/svg" width="100" height="27" viewBox="0 0 100 27">
    <g fill="#FFF">
        <path d="M38.177 6.052c-.427-.166-.854-.249-1.23-.249-.76 0-1.405.249-1.905.797-.51.548-.76 1.22-.76 2.069 0 .465.083.972.208 1.397.125.465.343.89.552 1.262.302.465.677.848 1.145 1.096.47.248.98.383 1.49.383.25 0 .51-.041.76-.124.25-.083.47-.166.678-.342.125-.082.25-.165.385-.3.125-.124.208-.165.208-.165.042 0 .042 0 .042.041 0 0 .042.042.042.083s-.042.124-.125.207c-.084.083-.167.207-.344.341-.302.249-.636.424-.98.549-.385.124-.76.206-1.187.206-1.062 0-1.958-.34-2.635-1.055-.677-.672-.98-1.603-.98-2.7 0-.548.084-1.014.209-1.479.125-.466.344-.848.635-1.18.386-.465.855-.848 1.355-1.055.51-.248 1.062-.34 1.74-.34.301 0 .635.04.978.123.344.042.677.166 1.021.3.042-.341.084-.59.125-.714.042-.124.084-.165.167-.165.041 0 .041 0 .041.041 0 0 .042.083.042.124 0-.04-.041.125-.083.549-.042.424-.042.848-.042 1.303V8.07c.042.3.042.465.042.424 0 .041 0 .041-.042.083 0 .041-.041.041-.083.041s-.084-.083-.125-.207c-.042-.124-.084-.382-.125-.755l-.084-.848c-.291-.331-.666-.538-1.135-.755zm10.396 4.686c.125-.424.208-.89.208-1.397 0-.59-.083-1.096-.302-1.603-.208-.466-.51-.931-.896-1.262-.385-.331-.76-.59-1.229-.714-.469-.165-.937-.248-1.49-.248-.718 0-1.354.165-1.958.507-.593.341-1.104.796-1.448 1.345-.166.34-.343.672-.427 1.055-.125.341-.166.755-.166 1.138 0 .548.083 1.055.302 1.52.166.466.468.849.802 1.221.385.383.802.631 1.27.848.47.166.98.249 1.532.249.635 0 1.229-.125 1.74-.383.551-.248.979-.59 1.354-1.055.333-.383.541-.756.708-1.221zm-2.333 2.017c-.303.083-.594.124-.896.124-.51 0-1.021-.124-1.532-.424-.51-.248-.979-.63-1.354-1.096-.343-.425-.593-.797-.76-1.262-.167-.425-.25-.89-.25-1.304 0-.848.302-1.52.802-2.027.552-.549 1.23-.797 2.083-.797.552 0 1.105.124 1.573.383.51.248.98.63 1.354 1.138.303.382.553.796.72 1.262.166.465.25.93.25 1.396 0 .466-.126.89-.303 1.262-.208.383-.51.714-.937 1.014-.24.124-.49.248-.75.331zm3.697-4.717l-.083-.041v-.125s.042-.082.042-.206c0-.125 0-.207.041-.342v-.6c0-.207 0-.465-.041-.714-.042-.424-.084-.59-.084-.59l.042-.082h.042c.083 0 .166.248.208.383.042.124.084.382.125.59 0 .082.042.123.042.206l.041-.041c.344-.342.72-.548 1.146-.714.386-.165.802-.248 1.188-.248.552 0 1.02.124 1.312.424.344.3.51.672.51 1.138 0 .341-.124.672-.301 1.014-.209.3-.51.63-.896.972.51.124.896.341 1.187.672.25.342.427.756.427 1.263 0 .672-.25 1.262-.718 1.686-.51.465-1.146.672-1.907.672-.427 0-.802-.041-1.187-.207-.386-.124-.76-.3-1.104-.548-.167-.124-.302-.207-.386-.341-.083-.083-.125-.207-.125-.249l.042-.082.083-.042c.042 0 .125.042.25.124.084.083.167.166.209.166.343.248.677.424 1.062.548.386.124.719.166 1.063.166.552 0 1.02-.166 1.406-.466.385-.341.552-.714.552-1.22 0-.549-.167-.932-.552-1.221-.344-.3-.854-.466-1.49-.466-.208 0-.468.042-.718.083-.25.083-.428.124-.428.124-.041 0-.124-.041-.124-.041L50.77 9.6c0-.124.208-.3.677-.424.427-.124.98-.207 1.614-.207.25-.248.47-.507.636-.755.125-.3.208-.548.208-.848 0-.425-.125-.756-.427-1.014-.302-.249-.677-.383-1.146-.383-.302 0-.593.041-.854.165-.302.083-.552.249-.76.425-.125.082-.209.207-.344.341-.104.631-.313 1.138-.438 1.138zm8.532 4.893c-.167-.041-.344-.041-.51-.083-.042-.3-.042-.59-.042-.89v-2.4h.552c.937 0 1.656.125 2.083.425.427.3.677.672.677 1.262 0 .548-.208.972-.594 1.262-.385.29-.937.465-1.656.465-.166 0-.333 0-.51-.041zm-1.354-.972c0 .341 0 .59-.042.89-.386.04-.677.082-.802.123-.125.042-.209.083-.209.166 0 .041 0 .041.042.083 0 0 .042.041.125.041.042 0 .167-.041.469-.041.302-.042.594-.042.854-.042s.552 0 .98.042c.426.041.718.041.895.041.854 0 1.49-.207 2-.59.51-.382.76-.89.76-1.52 0-.507-.166-.931-.552-1.221-.343-.3-.854-.507-1.49-.507.553-.124 1.022-.341 1.355-.714.333-.372.51-.796.51-1.262 0-.59-.208-1.014-.635-1.345-.427-.3-1.02-.465-1.823-.465-.167 0-.469 0-.937.041-.47.042-.803.042-1.105.042-.302 0-.552 0-.854-.042-.302 0-.468-.041-.468-.041-.042 0-.126 0-.126.041-.041 0-.041.042-.041.083s.083.124.208.124c.167.042.427.083.802.124.042.249.042.549.042.89v3.962c.042.424.042.797.042 1.097zm.802-2.659V6.859c0-.342.041-.631.041-.89.25-.041.47-.083.636-.124.125 0 .302-.042.427-.042.635 0 1.146.166 1.573.507.385.342.593.756.593 1.304 0 .59-.208 1.014-.635 1.303-.427.3-1.02.424-1.906.424h-.427C58.135 9.3 58 9.3 57.917 9.3zm9.51-3.672c.51-.042 1.02-.083 1.531-.166l.125-.383c.042-.041.042-.082.042-.124 0 0 .042-.041.083-.041h.084v.124s0 .124-.042.341c-.042.249-.042.466-.042.673 0 .248 0 .465.042.672v.383c-.042 0-.042.041-.083.041-.042 0-.042 0-.084-.041-.041-.041-.041-.124-.083-.248l-.083-.673c-.302-.083-.72-.207-1.146-.248-.469-.041-.938-.083-1.448-.083h-.469c-.166 0-.344.042-.552.042-.042.248-.042.548-.042.89v2.316h1.198c.427 0 .802-.04 1.188-.04.385-.042.677-.084.979-.166l.042-.3c0-.042.041-.083.041-.166.042-.248.125-.383.167-.383 0 0 .042 0 .042.042 0 .041.041.041.041.082 0 0-.041.125-.041.383 0 .259-.042.507-.042.755 0 .207 0 .466.042.714 0 .248.041.383.041.424 0 .042 0 .042-.041.083 0 .041-.042.041-.084.041-.083 0-.125-.165-.166-.465v-.124l-.042-.383c-.302-.083-.635-.124-.98-.166-.385-.04-.76-.082-1.187-.082h-1.187v2.534c0 .3.041.631.041.89h.678c.552 0 1.104-.042 1.573-.124.51-.083.937-.207 1.354-.342l.083-.63c.042-.125.042-.208.083-.249 0-.041.042-.041.084-.041.041 0 .041 0 .083.041 0 .041.042.041.042.083 0 0 0 .083-.042.3-.042.217-.042.465-.042.714 0 .206 0 .424.042.63.042.208.042.3.042.3v.125l-.042.041s-.042 0-.083-.041c-.042-.042-.042-.042-.042-.124l-.083-.207c-.552-.042-1.105-.083-1.698-.124-.594-.042-1.146-.042-1.74-.042h-.854c-.25 0-.51 0-.802.042-.25.041-.427.041-.427.041-.084 0-.084 0-.125-.041-.042-.042-.042-.042-.042-.083 0-.083.084-.124.209-.166.166-.041.427-.082.802-.124.041-.248.041-.548.041-.89v-5.14c0-.3-.041-.59-.041-.85-.386-.04-.677-.082-.802-.123-.126-.042-.209-.083-.209-.124 0-.042 0-.083.042-.083.041 0 .083-.042.125-.042 0 0 .125 0 .427.042.302.041.594.041.896.041h1.146c.468.093.927.042 1.437.042zm3.396 2.41l-.083-.041v-.125s.041-.082.041-.206v-.932c0-.206 0-.465-.041-.713-.042-.424-.084-.59-.084-.59l.042-.083h.083c.042 0 .167.249.209.383.041.124.083.383.125.59 0 .082.041.124.041.207l.042-.042c.344-.341.719-.548 1.104-.714.385-.165.802-.248 1.188-.248.552 0 1.02.124 1.312.424.344.3.51.673.51 1.138 0 .342-.124.673-.302 1.014-.208.3-.51.631-.895.972.51.125.895.342 1.187.673.302.341.427.755.427 1.262 0 .672-.25 1.262-.719 1.686-.51.466-1.145.673-1.906.673-.427 0-.802-.042-1.187-.207-.386-.125-.76-.3-1.105-.549-.166-.124-.302-.207-.385-.341-.083-.083-.125-.207-.125-.248l.042-.083.083-.041c.042 0 .125.04.25.124.083.082.167.165.208.165.344.248.677.424 1.063.548.385.125.719.166 1.062.166.552 0 1.021-.166 1.355-.466.385-.34.552-.713.552-1.22 0-.548-.167-.931-.552-1.22-.344-.3-.855-.466-1.49-.466-.208 0-.469.041-.719.082l-.385.124c-.042 0-.125-.04-.125-.04l-.042-.084c0-.124.209-.3.677-.424.427-.124.98-.207 1.615-.207.25-.248.469-.507.635-.755.125-.3.209-.548.209-.848 0-.424-.125-.755-.427-1.014-.303-.248-.678-.383-1.146-.383-.302 0-.594.042-.855.166-.302.083-.552.248-.76.424-.125.083-.208.207-.344.341-.083.621-.25 1.128-.385 1.128zm7.219 3.92c-.167.342-.302.673-.47.932-.25 0-.426 0-.551-.124-.084-.083-.167-.342-.167-.425-.041-.124-.083-.207-.166-.207-.042 0-.042 0-.084.042 0 .041-.041.083-.041.124 0 0 .041.207.041.466 0 .165.042.382.042.63 0 .249 0 .549-.042.849-.041.3-.041.465-.041.465v.124c.041.042.041.042.083.042.083 0 .125-.083.166-.207.042-.166.084-.548.167-.848.167-.549.302-.673 1.104-.673h5.01c.803 0 .938.124 1.105.673.083.3.125.713.167.848.041.124.083.207.166.207.042 0 .042 0 .084-.042 0 0 .041-.04.041-.124 0 0-.041-.207-.041-.465-.042-.3-.042-.59-.042-.848 0-.249 0-.466.042-.631 0-.3.041-.466.041-.466 0-.083 0-.124-.041-.124 0 0-.042-.042-.084-.042-.083 0-.125.083-.166.207 0 .125-.084.342-.167.425-.083.124-.25.124-.552.124-.125-.249-.25-.549-.427-.849-.125-.3-.302-.63-.469-1.013L81.52 8.12c-.301-.631-.51-1.18-.676-1.687-.167-.465-.302-.848-.386-1.179l-.895.383.25.507c.083.165.208.424.302.672l-1.657 4.004c-.073.424-.24.796-.416 1.138zm.218.932c.084-.342.167-.714.25-.973.084-.248.125-.465.209-.63l1.614-4.128 1.74 4.262c.25.63.469 1.138.552 1.52H78.25l.01-.051zm13.584-7.387c.041-.04.083-.04.083-.04h.042v.165c0 .3-.084.89-.084 1.22 0 .331-.041.714-.041 1.138v2.783c0 .465 0 .848.041 1.18 0 .3.042.63.042.889.385.041.677.083.802.124.125.041.209.083.209.166 0 .041 0 .041-.042.082-.042 0-.084.042-.125.042 0 0-.209-.042-.469-.042-.302-.041-.594-.041-.854-.041-.25 0-.552 0-.854.041-.302.042-.469.042-.469.042-.042 0-.125 0-.125-.042-.042-.041-.042-.041-.042-.082 0-.083.084-.125.209-.166.166-.041.427-.083.802-.124 0-.3.041-.59.041-.89V6.972l-4.5 6.197-.125.124c-.041.041-.083.041-.083.041h-.042v-.165c.042-.3.042-.89.042-1.18V6.85c0-.3-.042-.59-.042-.849-.385-.041-.677-.083-.802-.124-.125-.042-.208-.083-.208-.124 0-.042 0-.083.042-.083 0 0 .083-.041.125-.041.041 0 .166 0 .468.041.302.041.594.041.855.041.26 0 .552 0 .854-.041.302 0 .469-.041.469-.041.041 0 .124 0 .124.041.042 0 .042.041.042.083 0 .041-.083.124-.208.124-.125.041-.427.083-.802.124 0 .248-.042.548-.042.89v4.976l4.542-6.197c0 .01.083-.124.125-.166zM98 5.628c.51-.042 1.02-.083 1.531-.166l.125-.383c.042-.041.042-.082.042-.124 0 0 .042-.041.083-.041h.084v.124s0 .124-.042.341c-.042.249-.042.466-.042.673 0 .248 0 .465.042.672v.383c-.042 0-.042.041-.083.041-.042 0-.042 0-.084-.041-.041-.041-.041-.124-.041-.248l-.084-.673c-.302-.083-.719-.207-1.146-.248-.468-.041-.937-.083-1.448-.083h-.468c-.167 0-.344.042-.552.042-.042.248-.042.548-.042.89 0 .34-.042.713-.042 1.137v1.18h1.188c.427 0 .802-.042 1.187-.042.386-.041.677-.083.98-.165l.083-.3c0-.042.041-.083.041-.166.042-.248.126-.383.167-.383 0 0 .042 0 .042.042v.082s0 .125-.042.383c0 .248-.041.507-.041.755 0 .207 0 .466.041.714 0 .248.042.383.042.424v.083c0 .041-.042.041-.042.041-.083 0-.125-.165-.166-.465v-.124L99.27 9.6c-.302-.083-.636-.124-.98-.166-.385-.04-.76-.082-1.187-.082h-1.187v1.345c0 .465 0 .848.041 1.179 0 .3.042.63.042.89h.677c.552 0 1.104-.042 1.573-.125.51-.082.938-.207 1.354-.341l.084-.631c.041-.124.041-.207.083-.248 0-.042.041-.042.083-.042s.042 0 .084.042v.382c-.042.207-.042.466-.042.714 0 .207 0 .424.041.631 0 .207.042.3.042.3v.124c0 .042-.041.042-.083.042 0 0-.042 0-.084-.042 0-.041-.041-.041-.041-.124l-.084-.207c-.552-.041-1.104-.082-1.697-.124-.594-.041-1.146-.041-1.74-.041h-.833c-.25 0-.51 0-.802.041-.25.042-.427.042-.427.042-.042 0-.084 0-.126-.042-.041-.041-.041-.041-.041-.083 0-.082.083-.124.208-.165.167-.041.427-.083.802-.124.042-.248.042-.548.042-.89 0-.341.042-.714.042-1.18V7.894c0-.465 0-.848-.042-1.18 0-.3-.042-.589-.042-.847-.385-.042-.677-.083-.802-.125-.125-.041-.208-.082-.208-.124 0-.041 0-.083.041-.083.042 0 .084-.04.126-.04 0 0 .124 0 .427.04.302.042.593.042.895.042h1.146c.375.103.886.052 1.344.052zM35.792 20.183c.125-.124.302-.249.468-.466l2.636-2.7c-.084-.041-.167-.041-.25-.083-.302-.082-.427-.124-.427-.206 0-.042 0-.083.041-.083.042 0 .084-.042.125-.042 0 0 .125 0 .386.042.208.041.427.041.635.041.209 0 .427 0 .636-.041.208 0 .343-.042.385-.042.042 0 .083 0 .125.042.042 0 .042.041.042.083 0 .041-.125.124-.344.206-.125.042-.208.042-.302.083-.427.3-.896.673-1.406 1.097-.51.424-1.021.89-1.573 1.396l-1.021.973h.302c.25 0 .469 0 .635.041.167 0 .303.083.428.124.343.124.677.466 1.062 1.014.042.083.083.124.083.124l.98 1.397c.166.248.343.424.468.548.125.124.25.166.386.166.083 0 .166-.042.208-.083.083-.042.125-.042.125-.042.042 0 .083 0 .083.042v.083c0 .082-.125.206-.302.382-.208.124-.427.207-.593.207-.167 0-.344-.083-.51-.207-.168-.124-.345-.341-.553-.59l-1.042-1.53-.041-.042c-.552-.848-1.188-1.262-1.782-1.262h-.302v2.235c0 .341.042.63.042.89.385.04.677.082.802.123.125.042.208.083.208.166 0 .041 0 .041-.041.083-.042 0-.084.041-.125.041-.042 0-.167-.041-.469-.041-.302-.042-.594-.042-.854-.042-.25 0-.552 0-.854.042-.302 0-.47.041-.47.041-.04 0-.082 0-.124-.041-.042 0-.042-.042-.042-.083 0-.083.084-.124.209-.166.125-.04.427-.082.802-.124.041-.248.041-.548.041-.89 0-.34.042-.713.042-1.179v-2.865c0-.466 0-.848-.042-1.18 0-.3-.041-.59-.041-.848-.386-.041-.677-.083-.802-.124-.125-.041-.209-.083-.209-.165 0-.042 0-.083.042-.083 0 0 .083-.042.125-.042.042 0 .167.042.469.042.302.041.593.041.854.041.25 0 .552-.041.854-.041.302 0 .469-.042.469-.042.041 0 .125 0 .125.042.041 0 .041.041.041.083 0 .082-.083.124-.208.165-.125.041-.427.083-.802.124-.042.3-.042.549-.042.89v2.534c-.041-.093.084-.175.209-.258zm7.093 1.645v-1.014c.209.041.428.041.594.041.209 0 .386.042.552.042.896 0 1.615-.207 2.167-.631.552-.425.802-.973.802-1.645 0-.631-.25-1.097-.677-1.48-.469-.341-1.104-.507-1.958-.507-.167 0-.47.042-.855.042-.427.041-.76.041-1.02.041-.303 0-.553-.041-.855-.041-.302 0-.468-.042-.468-.042-.042 0-.084 0-.125.042-.042 0-.042.041-.042.083 0 .082.083.124.208.165.167.042.427.083.802.124.042.249.042.549.042.849 0 .34.042.713.042 1.179v2.783c0 .465 0 .848-.042 1.179 0 .341 0 .59-.042.89-.385.041-.635.082-.802.124-.125.041-.208.082-.208.165 0 .042 0 .042.042.083.041 0 .041.041.125.041.041 0 .208-.041.468-.041.303-.041.594-.041.855-.041.385 0 .718 0 1.104.041.343 0 .51.041.51.041.042 0 .125 0 .125-.041.042 0 .042-.041.042-.083 0-.083-.084-.124-.302-.165-.167-.042-.51-.083-.98-.124 0-.3-.041-.59-.041-.89-.02-.414-.063-.786-.063-1.21zm0-1.314v-2.659c0-.341.042-.59.042-.89.208-.04.386-.082.552-.082.167 0 .344-.042.469-.042.677 0 1.187.166 1.573.507.385.342.552.797.552 1.397 0 .59-.167 1.055-.552 1.396-.386.342-.938.507-1.656.507h-.428c-.124-.082-.291-.082-.552-.134zm5.646 1.23h2.886l.25.59.041.042c.25.63.427 1.096.51 1.438-.468.041-.801.083-.978.124-.167.041-.25.083-.25.165 0 .042 0 .042.041.083 0 0 .042.042.125.042 0 0 .167-.042.51-.042.303-.041.636-.041.98-.041s.677 0 1.02.041c.344 0 .511.042.511.042.042 0 .083 0 .125-.042.042 0 .042-.041.042-.083 0-.082-.084-.124-.209-.165-.125-.041-.427-.083-.802-.124-.125-.248-.25-.507-.427-.797-.125-.3-.302-.63-.468-1.014l-1.23-2.906c-.302-.631-.51-1.18-.677-1.687-.166-.465-.302-.848-.385-1.179l-.896.383.25.507c.083.165.208.382.302.672l-1.656 4.004c-.167.424-.344.796-.469 1.137-.167.342-.302.632-.427.89-.385.042-.677.083-.802.124-.125.042-.208.083-.208.166 0 .041 0 .041.041.083.042 0 .084.04.125.04.042 0 .209-.04.51-.04.303-.042.594-.042.855-.042.26 0 .51 0 .76.042.302 0 .427.04.469.04.042 0 .083 0 .125-.04.042 0 .042-.042.042-.083 0-.083-.084-.124-.302-.166-.167-.041-.51-.082-.938-.124.083-.341.167-.672.25-.93.042-.25.125-.466.208-.632.021-.01.146-.517.146-.517zm.094-.258l1.313-3.33 1.354 3.33h-2.667zm10.23-4.386c-.428-.166-.855-.248-1.272-.248-.76 0-1.406.248-1.906.796-.51.549-.76 1.221-.76 2.07 0 .465.083.93.208 1.396.125.465.344.89.552 1.262.302.465.677.848 1.146 1.096.469.249.98.383 1.49.383.25 0 .51-.041.76-.124.25-.083.469-.165.677-.341.125-.083.25-.166.385-.3.125-.124.209-.166.209-.166.041 0 .041 0 .041.042 0 0 .042.04.042.082s-.042.124-.125.207c-.083.083-.167.207-.344.342-.302.248-.635.424-.979.548-.385.124-.76.207-1.187.207-1.063 0-1.959-.342-2.636-1.055-.677-.673-.979-1.604-.979-2.7 0-.549.083-1.014.208-1.48.125-.465.344-.848.636-1.18.385-.465.854-.847 1.354-1.054.51-.249 1.063-.342 1.74-.342.302 0 .635.042.979.083.343.042.677.166 1.02.3.042-.341.084-.59.126-.714.041-.124.083-.165.166-.165.042 0 .042 0 .042.041v.124c0-.041 0 .124-.083.549-.042.424-.084.848-.084 1.303v1.014c.042.3.042.465.042.424 0 .041 0 .083-.042.083l-.041.041c-.042 0-.125-.083-.167-.207-.042-.124-.042-.383-.083-.755l-.084-.848c-.25-.331-.625-.538-1.052-.714zm10.364 4.645c.125-.424.208-.89.208-1.397 0-.59-.083-1.096-.302-1.603-.208-.466-.51-.931-.896-1.262-.385-.342-.76-.59-1.229-.714-.469-.166-.938-.248-1.49-.248-.718 0-1.354.165-2 .507-.593.341-1.104.796-1.447 1.344-.209.342-.344.673-.428 1.056-.083.382-.166.755-.166 1.138 0 .548.083 1.055.302 1.52.166.466.469.848.802 1.22.385.384.802.632 1.27.85.47.165.98.3 1.532.3.635 0 1.23-.125 1.74-.342.552-.248.979-.59 1.354-1.055.364-.476.614-.859.75-1.314zm-2.344 2.017c-.302.083-.594.124-.896.124-.51 0-1.02-.124-1.531-.424-.51-.248-.98-.631-1.354-1.096-.344-.425-.594-.797-.76-1.263-.167-.465-.25-.89-.25-1.303 0-.848.301-1.52.801-2.028.553-.548 1.23-.796 2.084-.796.552 0 1.062.124 1.614.383.51.248.938.63 1.355 1.138.302.382.552.848.718 1.262.167.465.25.93.25 1.396 0 .466-.083.89-.302 1.262-.208.383-.51.714-.937 1.014-.24.124-.49.248-.792.331zm7.01-.796c0 .34.042.63.042.89.469.04.76.082.938.123.166.042.25.083.25.166 0 .041 0 .041-.042.083 0 0-.042.041-.125.041 0 0-.167-.041-.51-.041-.344-.042-.678-.042-1.021-.042-.344 0-.677 0-1.021.042-.344 0-.51.041-.51.041-.084 0-.126 0-.126-.041-.041 0-.041-.042-.041-.083 0-.083.083-.124.25-.166.166-.041.51-.082.937-.124.042-.248.042-.548.084-.89v-5.14c0-.3-.042-.59-.084-.89h-.125c-.469 0-.854 0-1.229.082-.385.042-.76.124-1.062.249l-.084.672c-.041.124-.041.248-.083.248 0 .042-.042.083-.083.083-.042 0-.042 0-.084-.041 0-.042-.041-.042-.041-.083 0 .041 0-.083.041-.3v-.714c0-.207 0-.424-.041-.672-.042-.249-.042-.342-.042-.383 0-.042 0-.083.042-.083 0-.041.041-.041.083-.041 0 0 .042 0 .083.041 0 0 .042.041.042.083l.083.383c.552.082 1.063.124 1.573.165.51.042.98.042 1.448.042.469 0 .938 0 1.448-.042.51-.041 1.02-.083 1.573-.165l.125-.383c.042-.042.042-.083.042-.083 0-.041.041-.041.083-.041h.042v.124s0 .124-.042.341c-.042.249-.042.466-.042.673 0 .248 0 .465.042.713 0 .207.042.342.042.3 0 .042 0 .083-.042.083s-.042.042-.042.042c-.041 0-.083-.042-.083-.083 0-.042-.042-.124-.083-.248l-.084-.673c-.344-.124-.677-.165-1.062-.248-.386-.042-.802-.083-1.271-.083h-.125c-.042.248-.042.59-.042.89 0 .341-.041.714-.041 1.18v2.782c-.021.507-.021.88.02 1.22zm5.48-2.7v-1.221c0-.466 0-.848.041-1.138 0-.341.042-.59.042-.89.385-.041.677-.083.802-.124.125-.041.208-.083.208-.165 0-.042 0-.083-.041-.083-.042 0-.084-.042-.125-.042-.042 0-.167.042-.47.042-.301.041-.593.041-.853.041-.25 0-.552-.041-.854-.041-.302 0-.47-.042-.47-.042-.04 0-.082 0-.124.042-.042 0-.042.041-.042.083 0 .082.084.124.209.165.124.041.427.083.802.124.041.249.041.549.041.849v5.14c0 .342-.041.59-.041.89-.386.042-.677.083-.802.125-.126.041-.209.082-.209.165 0 .042 0 .042.042.083.041 0 .083.041.125.041.041 0 .166-.041.469-.041.302-.041.593-.041.854-.041.25 0 .594 0 1.02.041.428 0 .678.041.855.041.854 0 1.49-.165 1.958-.548.469-.341.677-.796.677-1.345 0-.59-.25-1.096-.802-1.52-.552-.425-1.27-.631-2.167-.631-.166 0-.343 0-.552.04-.208-.082-.385-.082-.593-.04zm5.854 1.562v-2.783c0-.466 0-.848.041-1.138 0-.341.042-.59.042-.89.385-.041.677-.083.802-.124.125-.041.209-.083.209-.165 0-.042 0-.083-.042-.083 0 0-.084-.042-.125-.042 0 0-.167.042-.469.042-.302.041-.594.041-.854.041-.25 0-.552-.041-.854-.041-.302 0-.469-.042-.469-.042-.042 0-.083 0-.125.042-.042 0-.042.041-.042.083 0 .082.084.124.209.165.166.041.427.083.802.124.041.249.041.549.041.849 0 .34.042.713.042 1.179v2.783c0 .465 0 .848-.042 1.179 0 .341 0 .59-.041.89-.386.04-.677.082-.802.124-.125.041-.209.082-.209.165 0 .042 0 .042.042.083.042 0 .083.041.125.041.042 0 .208-.041.469-.041.302-.041.594-.041.854-.041.25 0 .552 0 .854.041.302 0 .469.041.469.041.083 0 .125 0 .125-.041.041 0 .041-.041.041-.083 0-.083-.083-.124-.208-.165-.125-.042-.427-.083-.802-.124 0-.3-.042-.59-.042-.89-.041-.383-.041-.755-.041-1.18zm-5.854 0v-1.304c.25-.041.427-.041.593-.083h.427c.72 0 1.271.166 1.657.507.385.342.552.755.552 1.262s-.167.973-.552 1.304c-.386.341-.896.507-1.573.507-.125 0-.302 0-.469-.042-.167 0-.344-.041-.552-.082 0-.249-.042-.549-.042-.89-.041-.341-.041-.714-.041-1.18zM28.406 10.655c-.125-.755 0-1.603-.302-2.317-.302-.714-.979-1.22-1.406-1.852-.427-.63-.594-1.48-1.146-2.069-.51-.548-1.354-.848-2-1.303-.594-.466-1.062-1.18-1.781-1.562-.677-.383-1.573-.342-2.334-.59-.718-.248-1.406-.796-2.208-.89-.76-.124-1.573.166-2.375.166-.76 0-1.531-.3-2.291-.207-.803.124-1.49.631-2.209.89-.76.248-1.614.207-2.291.548-.72.341-1.188 1.097-1.782 1.562-.635.466-1.448.714-2 1.262S3.563 5.69 3.135 6.321C2.708 6.95 2.031 7.5 1.73 8.214c-.302.714-.167 1.562-.344 2.358-.083.797-.552 1.521-.552 2.318 0 .755.427 1.479.594 2.234.125.755 0 1.604.302 2.317.042.125.125.3.208.425-.125-.59-.083-1.263-.166-1.852-.125-.714-.552-1.397-.552-2.152 0-.755.427-1.48.593-2.193.125-.755.042-1.603.344-2.276.302-.714.98-1.22 1.354-1.852.428-.63.594-1.438 1.146-1.986.51-.548 1.313-.796 1.959-1.22.593-.466 1.062-1.138 1.74-1.521.676-.342 1.489-.3 2.207-.548.72-.207 1.407-.756 2.167-.849.719-.124 1.49.166 2.209.166.76 0 1.572-.3 2.333-.166.76.124 1.448.631 2.166.89.72.259 1.573.207 2.25.548.678.342 1.146 1.055 1.74 1.52.594.466 1.406.715 1.906 1.263.5.548.677 1.345 1.105 1.986.427.631 1.062 1.138 1.354 1.81.291.673.166 1.521.302 2.235.125.714.552 1.397.552 2.152 0 .755-.427 1.479-.594 2.193-.125.63-.083 1.303-.208 1.893.083-.124.166-.248.208-.383.302-.714.167-1.562.344-2.358.125-.756.594-1.48.594-2.276-.032-.766-.459-1.48-.584-2.235m-5.26 9.062c-.594.083-1.104.383-1.698.383-.344 0-.636-.041-.98-.083-.343 0-.593.124-.895.207-.896.248-1.958.207-2.886.3-.468.042-1.02.166-1.49.124l1.407.124c.938.083 1.823.342 2.76.383.761.042 1.407-.041 2.167.042 1.448.124 2.886-.083 3.698-1.438-.219.3-1.791-.083-2.083-.042"/>
        <path d="M25.354 15.29c-.427.082-.937.124-1.27.382-.334.259-.511.673-.896.973-.594.465-1.355.465-2.042.796-.896.425-1.23 1.138-2.25 1.438-1.313.383-2.636 1.262-3.865 1.893 1.104-.548 2.51-.672 3.698-1.013.344-.083.594-.342.896-.507.427-.207.854-.249 1.313-.3.385-.042.895-.083 1.27-.207.47-.166.802-.59 1.313-.714.385-.124.854 0 1.229-.165.125-.042 1.448-.507 1.448-.59.25-.797.385-1.645.427-2.493.083.207-1.104.465-1.27.507m-9.345 4.634c.594-.507 1.23-1.138 1.907-1.48.468-.206.76-.423 1.104-.796.385-.424.719-.714 1.229-.972.51-.248.98-.342 1.354-.797.344-.424.469-.972.896-1.345.469-.424 1.146-.63 1.656-.972.802-.548 1.49-1.22 2.209-1.852.208-.165-.802-2.193-.938-2.441-.427.3-.896.59-1.312.89-.427.341-.594.672-.855 1.138-.166.34-.385.672-.593.972-.209.3-.552.631-.855.89-.468.382-.677.59-.979 1.096-.25.424-.677.548-1.062.848-.719.59-.896 1.304-1.406 2.028-.209.248-.51.424-.76.672-.897 1.014-1.824 1.945-2.72 2.949.407-.362.823-.57 1.125-.828m.427-1.686c.209-.341.553-.548.76-.89.168-.3.126-.672.386-.972.344-.466.677-.59.938-1.138.166-.424.385-.631.677-1.014.427-.465.469-.89.677-1.438.51-1.096 1.615-1.769 1.906-2.948.167-.631.469-.848.896-1.345.552-.63.98-1.81.938-1.852-.594-.63-1.271-1.179-2-1.644.125.082-.76.755-.938 1.262-.125.424-.042.972-.208 1.396-.209.631-.76 1.138-.896 1.81-.125.797.042 1.263-.51 1.894-.386.465-.72.89-.855 1.438-.125.548-.125 1.179-.427 1.644-.302.466-.718.673-.896 1.262-.166.673-.302 1.345-.677 1.987-.552.972-.895 1.944-1.312 2.948.25-.424.51-.797.76-1.22.354-.332.521-.797.781-1.18m-3.27 2.328c-.938-.083-2-.042-2.886-.3-.302-.083-.552-.207-.896-.207-.343 0-.635.082-.979.082-.594-.041-1.146-.3-1.74-.382-.301-.042-1.864.3-2 .082.803 1.345 2.209 1.562 3.699 1.438.718-.082 1.406 0 2.166-.041.938-.041 1.823-.3 2.76-.383l1.407-.124c-.51 0-1.063-.124-1.531-.165m-4.5-3.166c-.677-.341-1.448-.341-2.042-.797-.344-.3-.51-.713-.896-.972-.344-.248-.854-.3-1.27-.383-.167-.041-1.313-.3-1.313-.507.042.849.167 1.687.427 2.493.042.042 1.312.549 1.448.59.385.124.854.042 1.27.166.511.124.855.548 1.313.713.386.125.854.166 1.271.207.469.042.896.083 1.313.3.302.124.552.383.895.507 1.188.342 2.594.424 3.698 1.014-1.229-.631-2.51-1.52-3.864-1.893-1.021-.259-1.365-1.014-2.25-1.438m2.666-.3c-.51-.714-.677-1.438-1.406-2.028-.385-.3-.802-.424-1.062-.848-.303-.507-.51-.714-.98-1.096-.302-.249-.593-.549-.854-.89-.208-.3-.427-.672-.593-.972-.25-.466-.428-.797-.855-1.138-.427-.3-.896-.59-1.27-.89-.125.248-1.146 2.276-.938 2.441.719.631 1.448 1.262 2.208 1.852.51.383 1.188.59 1.657.972.427.383.552.931.895 1.345.386.466.803.507 1.355.755.51.249.854.549 1.229.973.385.424.635.59 1.104.796.719.342 1.312 1.014 1.906 1.48.302.248.719.465.98.755-.896-.973-1.824-1.945-2.72-2.948-.104-.135-.437-.3-.656-.559"/>
        <path d="M12.865 15.797c-.167-.59-.594-.797-.896-1.263-.302-.465-.302-1.096-.427-1.644-.125-.59-.47-1.014-.854-1.438-.553-.673-.386-1.138-.51-1.893-.084-.673-.636-1.18-.897-1.81-.125-.425-.041-.973-.208-1.397-.167-.507-1.104-1.18-.938-1.262-.718.465-1.406 1.055-2 1.644 0 .042.428 1.221.938 1.852.427.466.719.714.896 1.345.302 1.18 1.448 1.852 1.906 2.948.25.549.302.973.677 1.438.302.342.51.59.677 1.014.25.548.594.672.938 1.138.25.3.208.672.385.972.167.342.51.549.76.89.25.383.47.848.72 1.22.25.425.51.849.76 1.221-.427-1.013-.76-1.986-1.313-2.948-.312-.724-.448-1.355-.614-2.027zm1.572-.125c-.124-.424-.041-.89-.041-1.303 0-.59-.125-1.097-.125-1.686 0-.3.083-.59.083-.89-.041-.3-.166-.548-.25-.796-.166-.549 0-1.138-.083-1.687-.084-.548-.344-1.013-.427-1.52-.084-.673.208-1.304.166-1.987-.041-.465-.343-.89-.343-1.344 0-.083.083-1.345.041-1.345-.854.083-1.698.3-2.51.548.083 0-.167.672.344 1.986.125.342.385.59.468.931.084.383.042.755.042 1.138 0 .59.25 1.014.469 1.562.25.673.51 1.304.427 2.028-.042.59 0 1.055.208 1.603.25.59.344 1.138.51 1.77.126.423.126.848.209 1.22.083.3.302.507.427.797.167.424.167.848.25 1.262.083.465.25.93.344 1.396.094.466.208.89.302 1.345-.125-.507-.083-1.055-.125-1.562-.136-1.107-.136-2.369-.386-3.466zm1.146 2.318c.084-.424.084-.89.25-1.262.125-.3.344-.507.427-.797.084-.424.084-.848.209-1.22.166-.59.25-1.18.51-1.77.25-.548.302-1.013.209-1.603-.084-.714.166-1.345.427-2.028.208-.548.468-.972.468-1.562 0-.382-.041-.755.042-1.138.083-.341.344-.59.469-.93.468-1.346.25-2.028.343-1.987-.802-.248-1.614-.465-2.51-.548-.042 0 .042 1.262.042 1.345 0 .465-.344.89-.344 1.344-.042.673.25 1.304.125 1.987-.083.507-.344 1.013-.427 1.52-.083.549.042 1.138-.083 1.687-.084.248-.209.506-.25.796 0 .3.083.59.083.89 0 .59-.125 1.138-.125 1.686 0 .466.083.89-.042 1.303-.302 1.097-.25 2.318-.344 3.456-.041.507 0 1.055-.124 1.562.083-.466.208-.89.302-1.345.093-.455.218-.92.343-1.386zm.427 4.593c0 .59-.468 1.096-1.104 1.096-.594 0-1.104-.465-1.104-1.096 0-.59.469-1.055 1.104-1.055.594 0 1.104.465 1.104 1.055zM0 24.693v.083c0 .59 1.27.424 2.719.89.802.248 1.656.382 2.802.59.937.165 2.083-.342 3.229-.25.98.084 1.958.85 3.01.89 1.021.042 2.084-.59 3.188-.59 1.02 0 2.042.632 2.969.59 1.104-.04 2.083-.796 3.104-.89 1.104-.123 2.208.425 3.146.25 1.187-.208 2.041-.342 2.843-.59 1.532-.466 2.844-.3 2.844-.932v-.082H0v.041z"/>
    </g>
</svg>
