<svg xmlns="http://www.w3.org/2000/svg" width="100" height="16" viewBox="0 0 100 16">
    <g fill="#FFF">
        <path d="M94.615 10.507c-.22.32-.494.586-.934.693-.55.107-1.044-.053-1.318-.267-.33-.266-.55-.586-.605-1.066-.055-.534.165-.907.44-1.174.22-.213.55-.373.879-.373h.385c.494-.053.879-.213 1.208-.48.44-.32.66-.8.77-1.333v-.374c0-.213.11-.426.22-.64.22-.373.494-.586.933-.693.495-.107 1.044.053 1.32.267.164.106.274.266.384.426.11.214.165.427.22.64.054.8-.55 1.494-1.32 1.6h-.384c-.494.054-.879.214-1.209.48-.384.32-.659.747-.769 1.334v.373c-.055.213-.11.427-.22.587m-.164 4.053c-.275.32-.605.533-1.1.587-.549.053-.933-.16-1.208-.427-.22-.213-.385-.533-.385-.853v-.374c-.055-.48-.22-.853-.494-1.173-.33-.427-.824-.64-1.374-.747h-.385c-.22 0-.44-.053-.659-.213-.384-.213-.604-.48-.714-.907-.11-.48.055-1.013.275-1.28.274-.32.659-.533 1.098-.586.825-.054 1.539.533 1.649 1.28v.373c.055.48.22.853.494 1.173.33.374.77.64 1.374.747h.385c.22 0 .44.107.659.213.33.214.604.48.714.907.055.48-.11.96-.33 1.28m-7.197-5.067v.374c0 .213-.11.426-.22.64-.22.32-.495.586-.934.693-.55.107-1.044-.053-1.319-.267-.33-.266-.55-.586-.604-1.066-.055-.534.165-.907.44-1.174.22-.213.549-.373.879-.373h.384c.495-.053.88-.213 1.209-.48.44-.32.66-.8.77-1.333v-.374c0-.213.054-.426.219-.64.22-.373.494-.586.934-.693.494-.107 1.044.053 1.319.267.165.106.274.266.384.426.11.214.165.427.22.64.055.8-.55 1.494-1.319 1.6h-.384c-.495.054-.88.214-1.209.48-.44.267-.714.694-.77 1.28m1.1-7.946c.11-.16.274-.267.44-.374.219-.106.439-.16.659-.213.824-.053 1.538.533 1.648 1.28v.373c.055.48.22.854.494 1.174.33.373.77.64 1.374.746h.385c.22 0 .44.107.659.214.33.213.604.48.714.906.11.534-.055 1.014-.274 1.28-.275.32-.605.534-1.1.587-.549.053-.933-.16-1.208-.427-.22-.213-.385-.533-.385-.853v-.373c-.055-.48-.22-.854-.494-1.174-.33-.426-.824-.64-1.374-.746h-.385c-.22 0-.44-.054-.659-.214-.384-.213-.604-.48-.714-.906-.22-.48-.055-1.014.22-1.28m7.033 12.586v-.373c0-.213.11-.427.22-.64.22-.373.494-.587.933-.693.495-.107 1.044.053 1.32.266h.054c.165-.213.33-.48.495-.746-.275-.214-.605-.32-.934-.374h-.385c-.22 0-.44-.053-.66-.213-.384-.213-.604-.48-.714-.907-.11-.48.055-1.013.275-1.28.11-.16.275-.266.44-.373.22-.107.44-.16.659-.213.824-.054 1.538.533 1.648 1.28v.373c0 .267.11.48.22.693.88-2.08.77-4.426-.275-6.453-.33-.32-.714-.48-1.154-.533h-.384c-.22 0-.44-.054-.66-.214-.384-.213-.604-.48-.714-.906-.11-.48.055-1.014.275-1.28l-.824-.48c-.165.266-.275.586-.33.853v.373c0 .214-.11.427-.22.64-.22.32-.494.587-.934.694-.55.106-1.044-.054-1.318-.267-.33-.267-.55-.587-.605-1.067-.055-.533.165-.906.44-1.173.22-.213.55-.373.879-.373h.384c.22 0 .385-.054.605-.107-2.143-.747-4.506-.533-6.484.48-.164.267-.274.533-.33.853v.374c0 .213-.054.426-.22.64-.219.32-.494.586-.933.693-.495.107-.934 0-1.264-.213-.165.213-.33.48-.494.693.274.213.604.32.989.373h.384c.22 0 .44.107.66.214.33.213.604.48.714.906.11.534-.055 1.014-.275 1.28-.275.32-.604.534-1.099.587-.55.053-.934-.16-1.209-.427-.22-.213-.384-.533-.384-.853v-.373c0-.267-.11-.534-.22-.747-.88 2.133-.77 4.48.33 6.507.274.266.66.426 1.099.48h.384c.22 0 .44.106.66.213.33.213.604.48.714.907.11.48-.055.96-.275 1.226.22.16.44.267.66.427.164-.267.274-.533.33-.8v-.373c0-.214.054-.427.219-.64.22-.374.494-.587.934-.694.494-.106 1.044.054 1.319.267.33.267.55.64.604 1.067.055.8-.55 1.493-1.319 1.6h-.384c-.165 0-.33.053-.495.106 2.088.747 4.396.587 6.374-.373.11-.267.275-.587.275-.907M9.945 8.8c0 1.28-.494 2.293-1.429 2.933-.824.534-1.923.8-3.351.8-.934 0-1.813-.16-2.638-.533-.879-.373-1.593-.907-2.087-1.6l1.758-1.493c.769.906 1.813 1.333 3.077 1.333 1.428 0 2.088-.427 2.088-1.28 0-.48-.33-.853-1.044-1.173-.22-.107-.824-.267-1.649-.427-1.263-.267-2.197-.64-2.747-1.067C1.21 5.76.88 4.96.88 3.84c0-1.12.44-1.973 1.319-2.56C3.022.693 4.01.427 5.165.427c1.703 0 3.187.64 4.395 1.866L7.802 3.947C6.978 3.147 6.1 2.72 5.055 2.72c-1.154 0-1.703.373-1.703 1.067 0 .426.33.8.934 1.013.165.053.66.213 1.483.373 1.264.267 2.143.64 2.747 1.014.99.64 1.43 1.493 1.43 2.613zm8.571 3.573h-2.362v-.586c-.495.533-1.209.746-2.143.746-2.253 0-3.352-1.333-3.352-4v-4.96h2.363V8.32c0 .64.11 1.12.275 1.44.22.427.659.64 1.263.64 1.044 0 1.539-.64 1.539-1.973v-4.8h2.363v8.746h.054zm6.649-4.266c0-1.707-.495-2.56-1.539-2.56-.604 0-1.099.266-1.483.746V9.6c.384.48.934.747 1.593.747.934 0 1.429-.747 1.429-2.24zm2.417-.054c0 1.227-.274 2.24-.769 3.04-.604.96-1.538 1.44-2.747 1.44-.77 0-1.374-.213-1.923-.693v2.773l-2.363 1.174V3.573h2.363v.534c.55-.48 1.209-.747 1.923-.747 1.264 0 2.143.48 2.802 1.493.495.854.714 1.92.714 3.2zm6.264-1.066c-.055-.48-.22-.854-.494-1.12-.275-.267-.66-.427-1.154-.427-.44 0-.77.16-1.044.48-.275.32-.385.693-.44 1.12l3.132-.053zm2.308.96c0 .266 0 .48-.055.746h-5.44c.055.534.22.907.55 1.227.33.32.769.427 1.318.427.66 0 1.21-.214 1.539-.64l1.703 1.386c-.33.427-.824.8-1.428 1.067-.55.267-1.21.373-1.814.373-1.373 0-2.417-.426-3.186-1.333-.715-.8-1.044-1.92-1.044-3.253 0-1.227.33-2.294 1.044-3.147.769-.96 1.758-1.44 3.022-1.44 1.208 0 2.197.48 2.857 1.44.66.907.934 1.92.934 3.147zM42.582 4l-.604 2.24c-.44-.373-.88-.587-1.374-.587-.604 0-.989.16-1.263.534-.22.32-.275.746-.275 1.386v4.747h-2.363V3.573h2.363v.587c.494-.533 1.154-.747 1.868-.747.714-.053 1.264.16 1.648.587zm9.726 4.8c0 1.28-.495 2.293-1.429 2.933-.824.534-1.923.8-3.352.8-.934 0-1.813-.16-2.637-.533-.879-.373-1.593-.907-2.088-1.6l1.758-1.493c.77.906 1.814 1.333 3.077 1.333 1.429 0 2.088-.427 2.088-1.28 0-.48-.33-.853-1.044-1.173-.22-.107-.824-.267-1.648-.427-1.264-.267-2.198-.64-2.747-1.067-.715-.533-1.044-1.333-1.044-2.453 0-1.12.44-1.973 1.318-2.56.825-.587 1.814-.853 2.967-.853 1.704 0 3.187.64 4.396 1.866l-1.758 1.654c-.824-.8-1.703-1.227-2.747-1.227-1.154 0-1.704.373-1.704 1.067 0 .426.33.8.934 1.013.165.053.66.213 1.484.373 1.264.267 2.143.64 2.747 1.014.99.64 1.429 1.493 1.429 2.613zm6.154.853L58.132 12c-.495.373-1.099.533-1.868.533-.77 0-1.374-.266-1.813-.8-.44-.48-.605-1.12-.605-1.866v-4.16h-1.538V3.52h1.538V1.28L56.21.107V3.52h2.198v2.187h-2.198v3.52c0 .693.275 1.066.879 1.066.385.054.824-.16 1.374-.64zm5.934-2.666c-.055-.48-.165-.854-.495-1.12-.275-.267-.66-.427-1.154-.427-.44 0-.769.16-1.044.48-.274.32-.384.693-.44 1.12l3.133-.053zm2.307.96c0 .266 0 .533-.055.746h-5.44c.056.534.22.907.55 1.227.33.32.77.427 1.319.427.66 0 1.209-.214 1.538-.64l1.704 1.386c-.33.427-.824.8-1.429 1.067-.55.267-1.209.373-1.813.373-1.374 0-2.418-.426-3.187-1.333-.714-.8-1.044-1.92-1.044-3.253 0-1.227.33-2.294 1.044-3.147.77-.96 1.758-1.44 3.022-1.44 1.209 0 2.198.48 2.857 1.44.605.907.934 1.92.934 3.147zm6.264.16c0-1.707-.494-2.56-1.538-2.56-.605 0-1.1.266-1.484.746V9.6c.385.48.934.747 1.593.747.935 0 1.429-.747 1.429-2.24zm2.418-.054c0 1.227-.275 2.24-.77 3.04-.604.96-1.538 1.44-2.747 1.44-.77 0-1.373-.213-1.923-.693v2.773l-2.363 1.174V3.573h2.363v.534c.55-.48 1.209-.747 1.923-.747 1.264 0 2.143.48 2.802 1.493.495.854.715 1.92.715 3.2z"/>
    </g>
</svg>
