<svg xmlns="http://www.w3.org/2000/svg" width="90" height="15" viewBox="0 0 90 15">
    <g fill="none" fill-rule="evenodd">
        <path fill="#2E3D49" d="M29.512 8.616c0 1.271-1.068 2.204-2.54 2.204s-2.54-.933-2.54-2.204V3.915h-1.023v4.747c0 1.664 1.472 3.082 3.563 3.082 2.081 0 3.562-1.473 3.562-3.082V3.915h-1.021v4.7zm8.344-4.692H35.11v7.829h2.747c2.288 0 3.863-1.518 3.863-3.915 0-2.35-1.575-3.914-3.863-3.914zm-.103 6.85h-1.631V4.902h1.631c1.734 0 2.953 1.125 2.953 2.936-.01 1.958-1.275 2.89-2.953 2.936zm22.285.147c-1.829 0-3.057-1.326-3.057-3.083 0-1.765 1.275-3.036 3.056-3.036 1.425 0 2.288.786 2.288.786l.403-.686s-.919-.932-2.794-.932c-2.437 0-3.965 1.765-3.965 3.868 0 2.159 1.575 3.97 4.069 3.97 1.93 0 2.896-1.271 2.896-1.271l-.562-.586c-.047-.055-.816.97-2.334.97zm7.63-6.997h1.023v7.829h-1.022v-7.83zm5.598.978h2.54v6.851h1.022v-6.85h2.54v-.98h-6.102v.98zm15.665-.978L86.494 7.5 84 3.924h-1.069l3.056 4.353v3.476H87V8.277l3-4.353h-1.069zm-40.65 0l-3.15 7.829h1.022l.863-2.25 3.309-.686 1.116 2.936h1.021l-3.103-7.83h-1.078zm-.965 4.646l1.528-3.622h.047l1.275 3.082-2.85.54z"/>
        <path fill="#02B3E4" d="M14.86.256l.515.247v6.494c0 2.771-1.481 4.344-3.075 5.049L8.4 14.24c-.028.018-.056.036-.094.055l-.047.027c-.843.457-1.762.677-2.625.677C3.075 15 0 12.997 0 9V3l1.022.503V9c0 3.997 3.075 4.994 4.612 4.994.957 0 2.494-.384 3.535-1.628-1.903-.44-4.04-2.03-4.04-5.369v-5.9L1.03 3.495 0 3l5.119-3 .515.247.516.247v6.494c0 3.466 2.316 4.308 3.59 4.463.31-.658.507-1.463.507-2.47V2.489l1.022.503v6c0 .924-.169 1.747-.45 2.46 1.293-.183 3.525-1.052 3.525-4.454V1.125L11.269 3l-1.022-.503L14.344 0l.515.256z"/>
    </g>
</svg>
