<svg xmlns="http://www.w3.org/2000/svg" width="70" height="56" viewBox="0 0 70 56">
    <g fill="#FFF">
        <path d="M46.166 5.815c-.086 0-.13.087-.086.216l.043.215c0 .043.086.086.129.086h.042c.086 0 .13-.086.086-.215l-.043-.13c.043-.129-.043-.172-.171-.172m.257 2.542c0 .13 0 .301.043.43 0 .087.086.13.13.13.085 0 .128-.086.128-.13 0-.129 0-.3-.043-.43 0-.086-.086-.13-.129-.13-.086 0-.129.044-.129.13m-3.435 17.101h.043c.043 0 .129-.043.129-.086l.128-.387c.043-.087 0-.216-.086-.216-.085-.043-.214 0-.214.086l-.086.388c0 .086.043.172.086.215m.902-2.498h.043c.042 0 .128-.043.128-.086l.13-.388c.042-.086 0-.13-.087-.215-.086-.043-.214 0-.214.086l-.13.388c.044.129.044.215.13.215m.429-1.852l-.129.387c-.043.087 0 .13.086.216h.043c.043 0 .129-.043.129-.086.043-.13.086-.302.129-.388.043-.086 0-.13-.086-.215-.043 0-.086.043-.172.086m1.975-14.043c0 .129.043.301.043.43 0 .087.086.13.13.13.085 0 .128-.087.128-.216s-.043-.301-.043-.43c0-.087-.086-.13-.215-.13 0 .043-.043.086-.043.216m-3.95 20.117c-.086-.044-.215 0-.215.086l-.129.387c-.043.087 0 .216.086.216h.043c.043 0 .086-.043.129-.086l.129-.388c.085-.086.042-.172-.043-.215m.515-1.207c-.086-.043-.215 0-.215.087l-.129.387c-.043.086 0 .13.086.216h.043c.043 0 .129-.043.129-.087l.129-.387c.043-.13 0-.173-.043-.216m3.65-13.87c-.086 0-.129.043-.215.129 0 .13-.042.301-.042.43 0 .087.042.13.128.216.086 0 .13-.043.13-.13 0-.128.042-.3.042-.43.129-.13.086-.215-.043-.215m-1.589 7.667c-.086 0-.214 0-.214.086l-.13.388c-.042.086 0 .13.087.216h.043c.042 0 .128-.044.128-.087l.13-.387c.128-.13.085-.173-.044-.216m1.46-6.375c-.086 0-.128.043-.214.13 0 .128-.043.3-.043.43 0 .086.043.13.129.215h.042c.086 0 .13-.043.13-.129 0-.13.042-.301.042-.43.043-.087 0-.216-.086-.216m-.214 1.335c-.086 0-.13.043-.215.13-.043.129-.043.301-.086.43 0 .086.043.13.129.216h.043c.086 0 .129-.043.129-.13.043-.129.043-.301.086-.43.085-.13 0-.216-.086-.216m.472-3.92c-.086 0-.129.043-.129.13 0 .129 0 .301-.043.43 0 .086.043.13.13.13.085 0 .128-.044.128-.13 0-.129 0-.301.043-.43 0-.087-.043-.13-.129-.13m-1.374 7.711c-.086 0-.129.043-.215.086l-.086.388c0 .086.043.13.086.215h.043c.043 0 .129-.043.129-.086l.086-.388c.129-.129.086-.215-.043-.215M46.68 9.52c-.086 0-.129.043-.129.13v.43c0 .086.043.13.129.13.086 0 .129-.044.129-.13v-.43c0-.087-.086-.13-.129-.13m-1.03 7.754c-.087 0-.13.043-.215.086l-.086.388c0 .086.043.129.086.215h.043c.042 0 .128-.043.128-.086l.086-.388c.043-.129 0-.215-.043-.215m.3-1.292c-.085 0-.128.043-.214.086l-.086.387c0 .087.043.13.086.216h.043c.043 0 .129-.043.129-.086l.086-.431c.043-.086 0-.13-.043-.172M37.319.345c.129 0 .3 0 .43-.043.085 0 .128-.087.128-.13 0-.086-.086-.129-.129-.129-.128 0-.3 0-.429.043-.086 0-.129.086-.129.13-.043.042.043.129.129.129M35.988.43c.129 0 .3-.043.43-.043.085 0 .128-.086.128-.216 0-.086-.086-.129-.215-.129s-.3.043-.43.043c-.085 0-.128.086-.128.216.086.086.129.129.215.129m3.95-.043c.13 0 .301.043.43.043h.043c.086 0 .129-.043.129-.13 0-.086-.043-.129-.129-.215-.129-.043-.3-.043-.43-.043-.085 0-.128.043-.214.13.043.129.086.172.172.215m2.448.732c.128.043.257.13.386.215h.086c.043 0 .086-.043.129-.086.043-.086 0-.129-.043-.215-.129-.043-.258-.13-.387-.216-.086-.043-.214 0-.214.044-.043.086 0 .172.043.258M38.65.302h.43c.086 0 .129-.044.129-.13 0-.086-.043-.129-.13-.129h-.429c-.086 0-.129.043-.129.13-.085.042.043.129.13.129m2.533.344c.129.043.3.086.387.13h.042c.043 0 .13-.044.13-.087.042-.086 0-.129-.087-.215l-.429-.13c-.086-.042-.129 0-.215.087.043.129.086.172.172.215M34.699.69c.215-.043.301-.043.43-.086.086 0 .129-.086.129-.215 0-.086-.086-.13-.215-.13-.129.044-.3.044-.43.087-.085 0-.128.086-.085.215.043.086.085.13.171.13m-1.288.3s.043 0 0 0c.215-.042.3-.085.43-.085.085 0 .128-.087.085-.216-.043-.086-.043-.129-.128-.086-.13.043-.301.043-.43.086-.086 0-.129.086-.086.216-.043.043.086.086.129.086m-1.245.344c.128-.043.3-.086.43-.086.085 0 .128-.086.085-.215-.043-.086-.086-.13-.215-.086-.129.043-.3.086-.386.129-.086.043-.13.086-.086.215 0 0 .086.043.172.043m11.466.56c.043 0 .043.043.086.043s.086 0 .086-.043c.043-.043.043-.129 0-.258l-.13-.13c-.042-.042-.128-.042-.257.044-.043.043 0 .129.043.215l.172.13M32.939 16.497c.3.431.343.991.128 1.465.945-.43 1.804-.732 2.405-.732.301 0 .602.043.816.215.301.216 1.117 1.12.301 4.868-.129.69.3 1.335.988 1.508.086 0 .214.043.257.043.602 0 1.16-.388 1.246-.991.816-3.79.343-6.29-1.332-7.496-.644-.43-1.417-.646-2.233-.646-1.116 0-2.362.345-3.693 1.034.472.086.902.345 1.117.732"/>
        <path d="M32.209 18.523c.6-.388.816-1.163.386-1.766-.258-.388-.644-.603-1.116-.603-.258 0-.43.043-.688.215-.257.13-.515.345-.73.517l-.859 4.308c.86-1.034 1.89-1.982 3.007-2.67m-2.577-7.755h.258c.6 0 1.16-.387 1.245-1.034l.945-4.738c-.3.258-.644.345-1.03.345-.087 0-.216 0-.344-.044-.516-.086-.902-.387-1.16-.861l-.945 4.868c-.129.646.3 1.292 1.03 1.464m8.504 20.29c-.215.043-.344.086-.43.086 0-.259-.085-.905.215-2.413-.3.259-.644.345-1.03.345-.086 0-.258 0-.344-.043-.515-.086-.902-.388-1.117-.862-.429 2.413-.386 4.222.86 5.126.386.302.901.388 1.417.388.644 0 1.33-.215 2.06-.56-.901-.301-1.502-1.077-1.631-2.068M24.736 28.56c-.386 1.895-.73 3.662-.73 3.662-.129.689.3 1.335.988 1.507.086 0 .215.043.258.043.6 0 1.159-.387 1.245-.99 0 0 .343-1.81.73-3.705-.258.086-.515.086-.816.086-.644 0-1.245-.215-1.675-.603"/>
        <path d="M27.785 4.05c.86-.432 1.59-.733 2.062-.862 0 .043 0 .086-.043.129-.13.69.3 1.335.987 1.508h.258c.601 0 1.16-.388 1.245-1.034.344-1.723-.3-2.499-.901-2.843-.387-.259-.86-.345-1.332-.345-1.116 0-2.448.56-3.65 1.206.773.474 1.288 1.293 1.374 2.24zm-3.95 12.75c-.13.043-.301-.043-.301-.215-.043-.13.043-.302.214-.302.13-.043.301.043.301.215 0 .173-.129.259-.215.302zm.429 2.412l.3-.301-.257-1.508c.214-.13.3-.43.257-.732-.085-.388-.515-.69-.901-.646-.387.086-.688.517-.645.904.043.302.258.517.516.603l.043.302.3.215-.129.259.215.129-.129.215.215.13-.215.172.43.258zM45.479 4.394c.085-.086.3-.043.343.086.086.086.043.258-.043.302-.086.086-.3.043-.343-.087-.086-.086-.043-.258.043-.301zm-.645.43c.258.345.687.518 1.117.26.343-.26.515-.69.258-1.035-.13-.258-.387-.387-.688-.344l-.128-.259-.344-.13.043-.258-.258-.043.043-.258-.257-.043.043-.259-.516-.043-.129.388.816 1.292c-.128.173-.128.474 0 .733z"/>
        <path d="M36.245 24.21l-.644 2.972c-.129.689.3 1.335.988 1.507.086 0 .215.043.3.043.602 0 1.16-.387 1.246-.99l.816-3.748c-.3.215-.644.344-.988.344-.086 0-.257 0-.343-.043-.43-.086-.816-.344-1.031-.732-.043-.043-.043-.086-.043-.13l-.086.432c-2.834.517-5.797 1.292-7.73 1.852-.343-.862-1.16-1.465-2.147-1.465-.988 0-1.804.603-2.147 1.465-2.534-.905-6.485-2.843-7.473-6.505-.988-3.661 1.246-8.141 6.7-13.354.128.13.3.259.515.345-.601 1.852-1.16 4.868-.644 9.262 0 .086.086.129.129.129.085 0 .128-.086.128-.216-.515-4.307.043-7.236.602-9.046.257.086.515.086.73.086 1.245 0 2.276-.99 2.276-2.24 0-1.249-.988-2.24-2.276-2.24-1.246 0-2.276.991-2.276 2.24 0 .56.214 1.034.515 1.422-5.497 5.298-7.773 9.908-6.785 13.655.987 3.748 5.11 5.816 7.687 6.72-.043.13-.043.302-.043.517 0 1.25.988 2.24 2.276 2.24 1.245 0 2.276-.99 2.276-2.24 0-.129 0-.344-.043-.517 1.847-.517 4.724-1.249 7.515-1.766"/>
        <path d="M44.748 24.51c-.214-.3-.515-.56-.944-.732v-.043c.043-.086 0-.129-.086-.215s-.215 0-.215.086v.086c-1.116-.344-2.705-.344-4.51-.215l-.042.301c1.804-.215 3.393-.215 4.423.13v.086c-.043.086 0 .13.086.215h.043c.043 0 .129-.043.129-.086v-.043c.343.13.601.345.73.603.515.862-.215 2.412-2.061 4.523-.13-.13-.344-.301-.559-.388l.086-.215c.043-.086 0-.215-.086-.215-.086-.043-.214 0-.214.086l-.086.215c-.258-.086-.43-.086-.73-.086-1.246 0-2.276.99-2.276 2.24 0 1.25.987 2.24 2.276 2.24 1.245 0 2.276-.99 2.276-2.24 0-.56-.215-.99-.516-1.421 2.148-2.24 2.878-3.834 2.276-4.911zm-19.325-.473c.086-.043.215-.043.3-.086.259-.043.516-.086.731-.086.644 0 1.245.258 1.718.603l2.748-13.656c-.3.259-.644.345-1.03.345-.086 0-.215 0-.344-.043-.515-.086-.902-.388-1.16-.862l-2.705 13.526c-.43-1.421-.859-2.756-1.16-4.092 0-.086-.085-.13-.214-.086-.086 0-.13.086-.086.215.3 1.422.687 2.8 1.202 4.222zM6.528 55.87v-5.902c0-.904-.215-1.594-.602-1.981-.386-.388-.987-.603-1.803-.603-1.117 0-1.89.301-2.405.861-.516.56-.73 1.465-.73 2.714V56h-.86V42.818h.86v4.136l-.043 1.163h.043c.343-.56.73-.948 1.288-1.206.558-.259 1.16-.345 1.933-.345 2.06 0 3.092 1.12 3.092 3.36v5.945h-.773zm11.251-4.61c0 1.508-.343 2.671-1.116 3.49-.688.861-1.718 1.249-3.007 1.249-.816 0-1.503-.215-2.104-.603-.601-.388-1.116-.948-1.417-1.637-.3-.69-.515-1.55-.515-2.498 0-1.508.343-2.671 1.116-3.447.687-.861 1.718-1.249 2.963-1.249 1.246 0 2.234.388 2.964 1.25.773.818 1.116 1.98 1.116 3.446zm-7.172 0c0 1.25.301 2.24.86 2.973.558.732 1.33 1.034 2.361 1.034 1.03 0 1.804-.345 2.362-1.034.558-.69.86-1.723.86-2.972 0-1.25-.302-2.24-.86-2.887-.558-.689-1.331-1.033-2.362-1.033-1.03 0-1.803.344-2.362 1.033-.601.603-.859 1.637-.859 2.887zm12.068 4.007c.558 0 .988-.043 1.331-.13v.647c-.386.129-.859.215-1.417.215-.816 0-1.417-.215-1.804-.646-.386-.43-.558-1.12-.558-2.068v-5.815h-1.331v-.517l1.331-.388.386-2.068h.43v2.197h2.663v.69h-2.663v5.772c0 .69.086 1.206.344 1.55.386.388.815.56 1.288.56zm7.043.732c-1.289 0-2.362-.388-3.092-1.206-.73-.819-1.117-1.939-1.117-3.446 0-1.465.344-2.585 1.03-3.49.688-.861 1.719-1.292 2.878-1.292 1.03 0 1.89.345 2.534 1.12.601.732.945 1.766.945 3.059v.646h-6.528c0 1.249.3 2.197.902 2.843.558.646 1.417.99 2.448.99.515 0 .988-.042 1.331-.086.387-.043.902-.258 1.503-.43v.732c-.515.215-.988.388-1.417.43-.43.087-.902.13-1.417.13zm-.258-8.702c-.902 0-1.589.302-2.104.862-.558.603-.86 1.422-.945 2.498h5.626c0-1.033-.258-1.895-.687-2.498-.43-.56-1.074-.862-1.89-.862zm6.785 8.573h-.858V42.818h.858v13.053zm3.908 0h-.859V42.818h.86v13.053zm10.522-4.61c0 1.508-.344 2.671-1.117 3.49-.687.861-1.718 1.249-3.006 1.249-.816 0-1.503-.215-2.104-.603-.601-.388-1.117-.948-1.417-1.637-.3-.69-.516-1.55-.516-2.498 0-1.508.344-2.671 1.117-3.447.687-.861 1.718-1.249 2.963-1.249s2.233.388 2.963 1.25c.773.818 1.117 1.98 1.117 3.446zm-7.129 0c0 1.25.3 2.24.859 2.973.558.732 1.331 1.034 2.362 1.034.988 0 1.804-.345 2.362-1.034.558-.69.859-1.723.859-2.972 0-1.25-.3-2.24-.86-2.887-.557-.689-1.33-1.033-2.361-1.033-.988 0-1.804.344-2.362 1.033-.601.603-.859 1.637-.859 2.887zm17.135 0c0 1.508-.344 2.671-1.117 3.49-.687.861-1.717 1.249-3.006 1.249-.816 0-1.503-.215-2.104-.603-.601-.388-1.117-.948-1.417-1.637-.3-.69-.516-1.55-.516-2.498 0-1.508.344-2.671 1.117-3.447.687-.861 1.718-1.249 2.963-1.249 1.246 0 2.233.388 2.963 1.25.773.818 1.117 1.98 1.117 3.446zm-7.129 0c0 1.25.3 2.24.859 2.973.558.69 1.331 1.034 2.362 1.034 1.03 0 1.804-.345 2.362-1.034.558-.69.859-1.723.859-2.972 0-1.25-.3-2.24-.859-2.887-.558-.689-1.331-1.033-2.362-1.033-1.03 0-1.804.344-2.362 1.033-.601.603-.859 1.637-.859 2.887zm10.479.604l4.638-5.127h.987l-3.607 3.92 3.908 5.213h-.988l-3.435-4.61-1.503 1.336v3.274h-.86V42.818h.86v9.047z"/>
    </g>
</svg>
