<svg xmlns="http://www.w3.org/2000/svg" width="90" height="21" viewBox="0 0 90 21">
    <g fill="none">
        <path fill="#333" d="M7.058 5.823c-1.516 0-2.937.286-4.074.811C1.894 7.16 0 8.782 0 11.932v8.59h3.553v-7.779c0-.43.047-1.623.094-1.957C3.98 9.211 5.116 8.83 6.821 8.83h.568l.806-2.912c-.237-.048-.806-.095-1.137-.095z"/>
        <path fill="#E83587" d="M76.358 5.823c-1.516 0-2.937.286-4.074.811-1.09.525-2.984 2.148-2.984 5.25v8.639h3.553v-7.78c0-.43.047-1.623.094-1.957.332-1.575 1.469-1.956 3.174-1.956h.568l.806-2.912c-.237-.048-.806-.095-1.137-.095zm-37.8 3.102c-2.605-1.002-3.742-1.718-3.742-3.198 0-1.145.995-2.338 3.22-2.338 1.848 0 3.175.572 3.885.906l.853-2.863C41.779.907 40.216.43 38.084.43c-4.216 0-6.868 2.434-6.868 5.631 0 2.816 2.037 4.534 5.258 5.68 2.51.907 3.458 1.766 3.458 3.245 0 1.575-1.28 2.673-3.553 2.673-1.847 0-3.553-.573-4.737-1.24l-.805 2.958c1.09.62 3.22 1.241 5.258 1.241 5.02 0 7.39-2.768 7.39-5.87.094-2.864-1.564-4.582-4.927-5.823zm12.41 8.734c-1.373 0-1.847-.907-1.8-2.625V8.782h2.464l.757-2.673h-3.22V2.1L45.71 3.818v11.55c0 1.862.331 3.15 1.089 3.962.663.715 1.753 1.193 3.079 1.193 1.137 0 2.037-.191 2.605-.382l-.047-2.72c-.474.19-.805.238-1.469.238z"/>
        <path fill="#333" d="M14.637 5.823c-4.5 0-6.869 3.675-6.869 7.588 0 4.296 2.7 7.16 7.248 7.16 2.037 0 3.695-.382 4.926-.907l-.52-2.434c-1.09.43-2.275.62-3.885.62-2.274 0-4.263-1.098-4.358-3.675h9.426c.048-.334.095-.811.095-1.48 0-3.102-1.468-6.872-6.063-6.872zm-3.458 5.918c.142-1.432 1.09-3.436 3.268-3.436 2.369 0 2.937 2.147 2.937 3.436H11.18z"/>
        <path fill="#E83587" d="M90 12.695c0-3.102-1.468-6.872-6.063-6.872-4.5 0-6.869 3.675-6.869 7.588 0 4.296 2.7 7.16 7.248 7.16 2.037 0 3.695-.382 4.926-.907l-.52-2.482c-1.043.43-2.275.62-3.885.62-2.274 0-4.263-1.097-4.358-3.675h9.426c.048-.238.095-.763.095-1.432zm-9.568-.954c.142-1.432 1.09-3.436 3.268-3.436 2.368 0 2.937 2.147 2.937 3.436h-6.205zM60.537 5.823c-4.263 0-7.295 2.816-7.295 7.493 0 4.534 3.08 7.254 7.058 7.254 3.6 0 7.247-2.29 7.247-7.493 0-4.295-2.794-7.254-7.01-7.254zm-.095 12.17c-2.179 0-3.505-2.052-3.505-4.773 0-2.338.995-4.772 3.552-4.772 2.416 0 3.411 2.53 3.411 4.725 0 2.816-1.421 4.82-3.458 4.82z"/>
        <path fill="#333" d="M25.674 6.252c-1.28 0-2.18.955-2.18 2.291 0 1.289.9 2.243 2.18 2.243h.047c1.326 0 2.179-.954 2.179-2.243-.047-1.336-.9-2.29-2.226-2.29zm0 9.45c-1.28 0-2.18.955-2.18 2.291 0 1.289.9 2.243 2.18 2.243h.047c1.326 0 2.179-1.002 2.179-2.243-.047-1.336-.9-2.29-2.226-2.29z"/>
    </g>
</svg>
