<svg xmlns="http://www.w3.org/2000/svg" width="70" height="35" viewBox="0 0 70 35">
    <g fill="#FFF">
        <path d="M18.742 3.01c.075 0 .226 0 .263-.037.15-.301.414-.376.64-.301.377.15-.188.452.075.64.452-.226.753-.828 1.318-.678.414.113 0 .49.075.79.376-.263.715-.526 1.054-.79.15-.112.3-.15.489 0 .188.15.075.301 0 .452-.15.339-.301.677-.49 1.167.565-.113.791-.414.98-.79.225-.528.677-.866 1.241-.941.828-.113 1.091.188.828 1.053-.113.339-.452.49-.828.715.414-.188.64-.414.979-.527.414-.376 1.016-.602.865-1.354-.037-.189.15-.377.301-.34.414.076.602.528 1.092.528.225 0 .15.376.15.602 0 .15 0 .339-.113.49.188-.076.188-.415.49-.302.489.075.677-.301.865-.602.188-.263.414-.376.64-.226.226.15 0 .339-.075.527-.113.301-.264.64-.452 1.054.527-.15.79-.377.94-.753.264-.564.754-.903 1.356-.94.338-.038.752-.076.828.376.113.451-.226.677-.64.715-.188-.15.15-.715-.376-.603-.452.113-.715.565-.64 1.017.075.414.414.414.752.263.414-.15.866-.339 1.054-.753.527-1.091 1.393-1.317 2.446-1.204.264.414.113.64-.338.677-.49.038-.866.264-1.205.79.64-.263.866-1.015 1.581-.714.226.15.038.376.113.527.263-.15.527-.34.828-.452.15-.113.339-.226.452-.414.188-.263.338-.527.677-.339.339.189-.15.452 0 .715.339-.225.677-.451 1.016-.64.226-.112.452-.338.715-.075.226.226-.037.414-.113.64-.075.264-.226.49-.338.753.376.188.526-.15.752-.188.038.602-.94 1.43-1.505 1.242-.226-.076-.301-.226-.226-.452.113-.263.188-.527.301-.866-.865.377-1.242 1.28-2.145 1.355l.038.038c0-.301.15-.715-.452-.414-.828.451-1.694.339-2.56.188 0-.527-.263-.263-.488-.15-.49.3-1.017.451-1.619.3-.188-.037-.3-.15-.338-.3-.452-.34-.678.188-.979.263-.527.15-.903.188-.865-.565-.414.226-.79.452-1.205.603-.188.075-.414.112-.564-.038-.15-.188-.113-.376-.038-.565.15-.376.376-.752.452-1.204-.49.452-.904.903-1.43 1.28-.715.527-1.506 1.129-2.409.3-.188-.15-.301.038-.452.114-.376.188-.79.602-1.204.3-.414-.3.188-.714.075-1.128-.715.263-.94 1.28-1.881 1.242-.038-.038-.076-.076-.038-.15 0-.039.038-.076.038-.076.113-.226.3-.414.075-.715-.376.338-.753.64-1.092.94-.827-.263-.978-.79-.526-1.618.3-.15.489-.376.79-.451zm32.742-.677c.677-.414.978.339 1.392.565.414.188-.3.828-.338 1.468.715-.377 1.242-.79 1.693-1.318.188-.225.377-.338.602-.225.339.188 0 .414-.075.564-.113.339-.263.64-.49 1.091.942-.413 1.657-.978 2.372-1.505.075-.038.15-.15.15-.226-.414-.94.904-.903.941-1.656 0-.225.301-.489.602-.338.339.188.038.451-.037.677-.076.264-.527.49 0 .753.075.037 0 .263-.113.263-1.092.188-.979 1.317-1.468 1.995.263-.113.527-.188.79-.301.226.414-.075.602-.376.752-.376.189-.79.49-1.242.264-.414-.188-.038-.565 0-.94-.865.375-1.505 1.053-2.446 1.053 0-.264-.038-.527-.038-.828-.376.188-.715.376-1.091.564-.226.113-.527.15-.715-.075-.188-.226-.038-.452.037-.64.189-.338.34-.715.452-1.129-.564.452-1.091.941-1.656 1.393-.376.3-.828.602-1.355.527-.94-.189-1.505-.189-2.446.037-.263-.037-.49-.15-.376-.489.225-.414.79-.49 1.091-1.129-.49.414-.753.753-1.054 1.091-.113.603-.338 1.167-.64 1.732-.188.225-.15.752-.564.602-.414-.15-.15-.602-.075-.903.075-.377.338-.716.3-1.13v.038c.34-.113.264-.452.415-.64-.188-.338-.452.339-.565-.075-.075-.226 0-.452.226-.602.414-.264.941-.941 1.054-.903.64.225 1.242-.377 1.769-.038.564.376.15.94.075 1.468.677-.377 1.204-.866 1.543-1.468.715-.038.715 0 .414 1.091.677-.3.94-.865 1.242-1.43zm-6.925.527c.49 1.054.226 1.731-.903 2.032-.602.151-1.204.189-1.807.038-.414-.113-.79-.301-.752-.828 0-.49.376-.677.79-.828.075-.037.188-.037.264-.037.338 0 .865-.226.978.225.113.603-.49.34-.79.452-.113.038-.264.113-.49.188.753.376 1.393.301 1.995.038.452-.188.414-.527.038-.79-.264-.189-.602-.34-.904-.527-.489-.34-.64-.79-.451-1.355.339-1.13 2.032-1.694 3.01-.979.189.903-.037 1.317-.94 1.619-.301.112-.678.225-.866-.113-.226-.377.038-.64.377-.828-.264.113-.565.225-.603.564-.037.414.34.49.603.64.112.075.338.226.451.49z"/>
        <path d="M16.108 3.914c-.678-.301-1.054-.075-1.28.602-.15.414-.263.941-.979.678.189-.452.377-.866.527-1.242-.15-.34-.677.188-.64-.34 0-.375.34-.45.64-.45.414 0 .602-.264.79-.565.49-.753 1.054-1.43 1.845-1.957.414-.264.94-.49 1.392-.226.452.263 0 .753.038 1.129l-.828 3.5c-.339.226-.602.15-.678-.263-.037-.226 0-.452-.188-.603-.3-.037-.564 0-.64-.263zM45.274 4.93c-1.129.866-2.37.979-3.387.264 1.016.15 1.92.15 2.785-.414.188-.151.49-.302.602.15-.037 0 0 0 0 0z"/>
        <path d="M18.742 3.01c-.113.227-.301.415-.527.528-.263 0-.226-.189-.226-.34.113-.488.226-.978.527-1.43.075-.263.15-.526.264-.902.602.828-.151 1.467-.038 2.145zm-2.973 1.43c-.15.302-.339.603-.49.904-.3.602-.3.602-1.279.49 1.054-.264.753-1.43 1.58-1.732.114.075.302.113.189.339zm10.425-.225c-.226 1.204-1.393 1.731-2.56 1.13 1.13.074 1.807-.49 2.56-1.13zm13.322.038c.075.865-.64 1.355-1.731 1.166.564-.489 1.317-.564 1.731-1.166zm9.672 1.317c.903-.264 1.468-.715 2.07-1.13-.038.904-.866 1.393-2.07 1.13zm7.038.075c.64-.3 1.317-.414 1.806-.903.038.828-.79 1.242-1.806.903zm1.242-1.882c.113-.64.527-.903 1.016-1.091.15-.038.414 0 .451.113.076.15-.075.414-.188.414-.527-.038-.715.527-1.28.564zm-24.99.979c.038.188.34.376 0 .564-.526.264-1.09.527-1.806.038.753-.038 1.317-.263 1.806-.602.038.038 0 0 0 0zm-2.408-.15c.113.112.226.188.339.3-.452.452-.904.904-1.694.603.452-.452 1.091-.414 1.355-.904zm18.742.677c-.527.49-1.167.339-1.807.263.565-.3 1.167-.3 1.807-.263zm5.118.451c.452-.225.828-.451 1.204-.64.113-.075.264-.188.377 0 .075.151.075.302-.076.377-.451.226-.865.565-1.505.263zM29.355 1.77c.037-.264.15-.452.49-.49.225 0 .338.113.338.302.037.3-.113.527-.414.564-.226 0-.377-.113-.414-.376zm21.3.414c-.263.15-.488.075-.677-.075 0-.377.076-.753.527-.64.49.113.34.451.15.715zM36.958 4.478c.075.49-.263 1.017-.64 1.054-.075 0-.188-.037-.226-.075-.075-.113-.037-.226.038-.301.263-.226.527-.452.828-.678zm-10.01 1.017c.037-.226.15-.226.263-.226.338-.075.564-.49.94-.264.076.038.151.189.038.264-.376.226-.715.527-1.242.226zm-5.157.075c.339-.188.64-.339.904-.452.188-.113.376-.263.526 0 .151.301-.15.339-.338.414-.339.15-.64.414-1.092.038zm33.608-3.575c0 .263-.15.414-.414.451-.301 0-.376-.188-.376-.451.037-.264.188-.377.451-.377.301-.037.376.15.339.377zm-1.92 3.311c-.413.302-.79.716-1.43.226.527-.075.866-.64 1.43-.226zm-33.87-.376v.226c-.038.414-.302.602-.678.677-.038 0-.188-.113-.188-.113.15-.451.452-.677.866-.79zm1.543.188c-.076.339-.302.49-.565.64-.188.075-.301-.075-.263-.226.075-.3.338-.451.564-.64.15-.112.15.189.264.226zm14.3-.188c-.225.565-.338.64-1.053.376.339-.188.64-.489 1.054-.376.037.038 0 0 0 0zm-17.725.414c.15-.301.3-.301.49-.038 0 .34-.076.716-.528.565-.451-.15.038-.339.038-.527z"/>
        <path d="M15.769 4.44c-.075-.112-.113-.225-.188-.338.15-.075.414.075.489-.188.226.038.414.113.527.339-.226.225-.527.225-.828.188zm18.554.829c-.414.3-.715.339-1.13.075.377-.113.678-.376 1.13-.075zM31.65 3.538c-.037.113-.112.225-.15.3-.075.189-.226.264-.414.227-.038 0-.113-.113-.113-.189 0-.225.188-.263.376-.3.076.037.189 0 .302-.038.037.037 0 0 0 0zM59.086 1.543c-.038.188-.038.414-.301.452-.113 0-.339 0-.263-.226.075-.188.15-.377.3-.49.151-.075.226.113.264.264zM67.516 9.823c-1.167-.189-2.37-.414-3.538-.49-9.446-.715-18.892-.94-28.376-.94-7.527 0-15.016.188-22.543.564-3.312.188-6.624.339-9.898.79-1.355.188-2.333.753-2.935 1.995 0 2.898 0 5.833.113 8.618.64 1.092 1.58 1.656 2.86 1.807 4.215.527 8.392.715 12.607.903 2.974.113 5.984.188 8.957.263.678 0 .527.414.565.79.075.415-.113.452-.49.452-3.236-.15-6.435-.226-9.671-.338l-2.86-.113c-.189 0-.452-.038-.452.263s.226.301.414.339c.188.037.339.037.527.037 3.914.113 7.865.264 11.817.414.339 0 .753-.15.79.49.038.715-.414.564-.79.564-3.274-.075-6.548-.226-9.823-.3-.338 0-.865-.302-.903.3-.038.527.527.339.828.339l9.936.339c.414 0 .79-.038.752.602-.037.677-.451.489-.79.489-2.522-.075-5.043-.188-7.565-.263-.3 0-.677-.189-.715.263-.075.565.414.376.678.376 2.258.113 4.516.189 6.774.264 1.543.037 1.543.037 1.543 1.58.038 1.543.376 2.108 1.844 2.56 1.355.451 2.71.865 4.065 1.28 2.07.639 4.102 1.128 6.247.488 1.806-.526 3.575-.978 5.344-1.58 2.032-.678 2.258-1.016 2.258-3.124 0-1.129 0-1.129 1.167-1.167 2.408-.075 4.855-.188 7.3-.263.227 0 .603.113.565-.301 0-.339-.338-.264-.602-.264-2.559.113-5.118.189-7.677.264-.377 0-.828.188-.828-.527 0-.677.414-.564.79-.564 3.274-.113 6.548-.226 9.823-.377.338 0 .94.188.903-.376-.038-.527-.602-.226-.941-.226-3.312.075-6.624.226-9.935.339-.377.037-.64 0-.64-.527s.226-.565.64-.565c1.655-.037 3.311-.075 4.967-.15 2.447-.075 4.93-.226 7.377-.339.188 0 .527.075.527-.263.037-.452-.34-.264-.565-.301-.15-.038-.301 0-.452 0-3.876.15-7.79.3-11.666.451-.377.038-.828.188-.828-.527 0-.64.226-.752.752-.752 5.081-.038 10.162-.264 15.242-.565 2.22-.113 4.479-.188 6.662-.677C69.323 21.828 70 20.849 70 19.194v-6.36c0-1.732-.753-2.673-2.484-3.011zM44.258 30.22c0 1.28-.226 1.619-1.468 1.995-1.806.565-3.613 1.054-5.419 1.656-1.995.677-3.876.226-5.796-.376-1.43-.452-2.86-.904-4.328-1.318-.865-.225-1.28-.752-1.28-1.618 0-2.183 0-4.365-.037-6.548 0-.602.376-.527.753-.527 2.86.038 5.683.038 8.505.038 2.71 0 5.457.037 8.167 0 .677 0 .978.112.94.865-.075 1.957 0 3.876-.037 5.833zm24.914-10.725c-.038 1.204-.64 1.806-1.995 2.032-1.618.226-3.236.414-4.854.527-5.307.3-10.613.527-15.92.64-5.344.075-10.688.075-16.86.075-7.602-.113-16.032-.339-24.462-1.054-.79-.075-1.543-.188-2.334-.339-1.129-.188-1.618-.677-1.656-1.806-.075-2.371-.075-4.704-.037-7.075 0-1.017.564-1.581 1.656-1.807 1.919-.376 3.838-.527 5.795-.64 7.79-.451 15.619-.715 23.409-.79 4.817-.038 9.634-.038 14.452.113 6.36.15 12.72.263 19.043.978.715.076 1.43.189 2.145.377 1.054.263 1.58.79 1.618 1.882.038 2.295.038 4.59 0 6.887zM45.462.452c.113.94-.451 1.317-1.204 1.543-.188.037-.452.188-.527-.076-.075-.225.038-.451.301-.564.301-.113.602-.15.715-.602-.715 0-1.392.188-1.58.865-.226.678.564.753.94 1.016l.452.226v-.15c.075-.377.414-.339.64-.527.452-.339.79-.715.452-1.317-.038-.189-.038-.34-.189-.414zM18.215 3.538c-.15-.038-.15-.189-.15-.301.15-.49.3-.979.451-1.43-.038-.076-.113-.113-.15-.189-.15.452-.301.904-.414 1.355h-.038c-.188.715-.414 1.393-.376 2.108.075.075.113.15.188.225.15-.414.339.038.49-.037.15.037.3.037.375-.113-.677-.414-.715-.979-.376-1.618zm6.398-.49c-.49-.037-.64.189-.866.603.452-.076.79-.113.866-.603zm-7-2.032c-.753.339-1.242.979-1.694 1.58-.113.189-.338.34-.188.528.113.15.377.113.565.075V3.16c.527.565.828.527.94-.263.038-.264.113-.49.151-.753h-.038c.189-.339.414-.677.264-1.129zm-1.28 2.108s0-.038 0 0c.189-.414.264-.904.828-.941-.414.226-.602.602-.828.94z"/>
        <path d="M10.387 16.522c-.263 1.09-.564 2.107-.79 3.16-.113.49-.339.603-.828.565-.903 0-1.355-.3-1.543-1.28-.377-2.032-.866-4.064-1.393-6.096-.15-.602 0-.753.602-.79 1.393-.076 1.393-.113 1.694 1.242.15.64.263 1.242.414 1.881 0 .076.075.15.15.301.264-1.053.565-2.07.753-3.048.15-.828.753-.602 1.28-.715.527-.075.564.301.64.677.225.941.489 1.882.94 2.86.189-.978.414-1.994.603-2.973.113-.526 1.618-1.053 2.032-.715.188.15.075.377.037.565-.526 2.634-1.053 5.269-1.543 7.94-.075.415-.263.49-.64.452-1.392-.075-1.392-.075-1.693-1.43l-.564-2.258c-.038-.113-.113-.188-.15-.338zm16.22-5.646h.34c2.709.038 2.257.715 2.295 2.785 0 .339-.188.377-.452.377-.3 0-.602-.038-.865 0-.49.075-.715-.038-.64-.565.075-.414-.113-.715-.565-.64-.451.076-1.091-.225-1.242.452-.112.452-.263 1.054.377 1.28.828.3 1.656.564 2.484.79.64.188.978.602.978 1.28v3.311c0 .753-.414 1.167-1.166 1.242-1.092.15-2.183.113-3.312-.037-1.054-.151-1.355-.49-1.355-1.543v-.79c0-1.13 0-1.092 1.167-1.167.715-.038.94.225.827.865-.112.753.34.79.866.79.527 0 .979.038.979-.715.037-1.317.075-1.317-1.242-1.73-3.124-.98-2.597-.49-2.635-3.5-.037-2.146.264-2.41 2.409-2.485h.753zm28.79 4.253c0-.94.038-1.882 0-2.823-.037-.602.151-.828.791-.752 1.468.113 1.242-.15 1.242 1.28v6.886c0 .565-.113.753-.753.828-.94.113-1.43-.188-1.73-1.053-.34-.904-.829-1.77-1.43-2.635 0 1.016-.039 2.032 0 3.049.074 1.28-.904.715-1.469.865-.752.188-.564-.451-.564-.828 0-2.597 0-5.23-.038-7.828 0-.64.15-.79.828-.79.941 0 1.393.339 1.694 1.204.338.903.828 1.77 1.242 2.635.037-.038.113-.038.188-.038zm-11.741 1.167v-3.99c0-.752.339-1.129 1.054-1.241 1.204-.226 2.408-.113 3.65.075.753.15 1.167.527 1.167 1.355-.038 2.596 0 5.156 0 7.752 0 1.167-.903.565-1.393.715-.64.189-.602-.3-.602-.715v-1.129c0-1.129-.451-1.43-1.543-1.129-.338.076-.3.301-.3.527 0 .565-.076 1.13 0 1.656.112.753-.264.903-.904.94-1.091.039-1.091.076-1.091-1.053-.038-1.28-.038-2.521-.038-3.763zm15.693-.301c0-1.205.038-2.447 0-3.65 0-.453.151-.603.603-.565 1.166.112 2.37.188 3.537.338 1.242.15 1.656.64 1.694 1.882v4.253c0 1.091-.377 1.543-1.43 1.73-1.28.264-2.597.227-3.877.34-.489.037-.489-.226-.489-.603-.038-1.242-.038-2.483-.038-3.725zm-42.903.037v-3.989c0-.414.038-.64.527-.677 1.43-.038 2.86-.113 4.253-.189.527-.037.677.226.564.678-.113.414.452 1.129-.527 1.167l-2.333.112c-.903.038-.414.715-.527 1.092-.113.451.113.602.602.564.301-.037.565 0 .866 0 1.167 0 1.392.339 1.167 1.506-.038.226-.15.338-.414.338h-.602c-.527.038-1.28-.225-1.506.15-.3.528-.075 1.318-.075 1.996 0 .376.3.3.527.3.677.038 1.392.114 2.07.038.677-.037.79.226.828.828.037.866-.189 1.092-1.054 1.016-1.242-.113-2.484-.15-3.726-.188-.49 0-.64-.188-.64-.677v-4.065zm15.92.941c0-1.129-.038-2.258 0-3.387 0-.49-.113-.715-.64-.64h-.264c-.376-.037-.94.188-1.053-.113-.189-.489-.113-1.091-.076-1.618.038-.301.339-.263.565-.263h5.156c.376 0 .527.15.489.526 0 .264-.038.527 0 .79.038.528-.113.754-.715.754-1.317-.038-1.317 0-1.317 1.392 0 2.032-.038 4.064 0 6.097 0 .602-.15.79-.753.79-1.392-.038-1.392 0-1.392-1.355v-2.973zm5.419-.903c0-1.468.038-2.898 0-4.366-.038-.677.188-.828.828-.828 1.618.038 1.317-.037 1.317 1.393v6.285c0 .564.075.903.753.752.226-.037.451 0 .677 0 1.317 0 1.317 0 1.205 1.355-.038.339-.113.527-.49.527-1.242 0-2.484 0-3.763.075-.49 0-.602-.188-.565-.602.038-1.58.038-3.086.038-4.591zm-.866 14.226v-.715c.038-.414-.075-.603-.527-.565-.376.038-.677.038-.64-.527 0-.451.151-.564.603-.602 1.054-.075.451-.903.564-1.43.113-.49-.3-.452-.64-.452-.263 0-.489.113-.451.414.113.866-.565.64-.979.603-.677 0-.338-.565-.376-.866-.038-.828.339-1.242 1.204-1.355 2.146-.263 2.748.301 2.484 2.56l.038 3.311c0 1.618-1.618 2.634-3.124 1.995-.451-.189-.865-1.694-.527-1.995.264-.226.678-.038 1.017-.075.3-.038.263.226.263.451-.038.377.038.603.527.565.414-.038.64-.188.602-.64-.075-.188-.038-.451-.038-.677zm-7.752.451s.263.753-.264.715c-.451-.037-1.166.038-1.129-.828.038-1.204 0-2.446 0-3.65 0-.339.113-.678-.451-.866-.377-.113-.34-.752 0-1.016.451-.339 1.016-.376 1.58-.3.339.037.264.338.264.526v5.42zm16.446-16.182c.038 1.73-.264 1.467 1.242 1.543.49 0 .677-.151.64-.64-.038-.64 0-1.28 0-1.92 0-.263-.076-.489-.377-.602-.978-.338-1.505 0-1.505 1.016v.603zm15.731 1.543c0 .564-.038 1.166 0 1.768.038.34-.263.941.527.866.602-.075 1.317.075 1.317-.94v-3.313c0-.865-.226-.978-1.317-1.016-.866 0-.49.602-.527.979-.038.564 0 1.091 0 1.656z"/>
        <path d="M57.054 12.645c0-.753-.339-.865-1.28-.451 1.092-.264.979.376.979.978v6.097c0 .263-.076.527.113.79.225-.113.188-.263.188-.376v-7.038zm-3.764-.564c-.113-.226-.263-.49-.489-.34.94 1.958 1.844 3.877 2.785 5.91.075-.226.113-.302.038-.377-.753-1.731-1.543-3.462-2.334-5.193zm-.414 8.129c.038 0 .076-.038.076-.038v-5.457h-.076v5.495zM44.973 17.8h.15v2.747h-.15v-2.747zm.226-2.597v-2.37h-.301v3.537c0 .263.188.301.414.301h2.333v-.188h-1.167c-1.28 0-1.28 0-1.28-1.28zm1.505-3.838c.414.451.753.376 1.092.414.338.037.752.037.903.489v8.129H49v-7.903c.038-.15 0-.301-.113-.414-.527-.79-1.317-.527-2.183-.715zm-2.145.376c.376 0 .79.038 1.393-.226-.715-.15-1.054-.038-1.393.226zm16.333 6.473V13.36c-.376.226-.3.527-.3.79v4.328c0 .979.15 1.054 1.09.64-.79-.113-.79-.113-.79-.903zm3.124-5.57c-.79-.376-1.656-.3-2.521-.3.828.375 1.73.112 2.521.488v-.075s.038 0 .038.038c.338.414.489.828.489 1.355-.075 1.618.075 3.236-.113 4.892.264-.226.301-.452.301-.715v-4.591c-.037-.49-.263-.866-.715-1.092zm-50.92 7.452c.189-.828.34-1.656.528-2.484-.452.753-.64 1.58-.527 2.484zm-3.16-7.678c.978-.414.677.678 1.129.904-.076-1.205-.189-1.355-1.13-.904zm2.258 5.043c.112-.451-.151-.79-.34-1.129.038.377-.112.79.34 1.13zm1.467-5.419c.678-.075.753.339.753.979.414-1.13.376-1.167-.753-.979zm.15 3.425c.377-.414.34-.903.302-1.393-.113.452-.188.941-.301 1.393zm-2.634-1.054c.076.301.151.564.264 1.016.339-.527.037-.753 0-1.054-.075.038-.15.038-.264.038zm17.538 2.258c-.038-.339-.226-.602-.527-.715-.903-.339-1.844-.602-2.747-.903.527.564 1.242.715 1.92.865.902.189 1.166.64 1.09 1.506-.037.828 0 1.693 0 2.521 0 .113-.075.339.189.226.075-.038.075-.15.113-.226v-3.274c-.038.113-.038.188-.038.301v-.301zm-3.876 1.694c-.301.64-.15 1.016.188 1.317.414.376 1.92.339 2.408 0-.827-.452-2.37.828-2.596-1.317zm3.086-6.925c-.903-.113-1.844-.15-2.71.188h2.71c.414.15.564.414.564.903 0 .377-.15.79.226 1.13.226-1.694.15-1.958-.79-2.221zm-2.936 1.355h-.226c-.188.64-.037 1.242.226 1.844v-1.844zm-7.3 6.586h.225v-2.823c-.339.941-.301 1.882-.226 2.823zm2.709-7.79c-.527.037-1.054-.038-1.543.15-.602-.038-1.204-.075-1.769.226.602 0 1.13-.038 1.731-.076l.038.038c.49-.038.94 0 1.392-.038.527-.037 1.054-.075.941.79.264-1.09.226-1.166-.79-1.09zm-2.409 3.462c0-.715 0-1.43-.037-2.108h-.301c0 .753-.226 1.506.15 2.296.903.339 1.807.15 2.71.113v-.301h-2.522zm.903 4.403c.904.339 1.506.301 2.146.15-.64-.263-1.28-.188-2.146-.15zm14.979-6.737h.113v7.866h-.113V12.72zm1.694-1.354c-1.506-.038-3.049 0-4.554 0 0 .075 0 .15-.038.188 1.242 0 2.484.037 3.726 0 .564 0 1.167-.113 1.28.64 0-.377.225-.79-.414-.828zm3.951 8.392c-.038 0 0-.038 0 0-.15-2.521-.038-5.043-.038-7.564 0-.828-.338-.904-1.016-.678.715-.113.79.264.79.866-.037 2.446 0 4.93.038 7.376.038.038.076.075.113.038.828.338 1.619.075 2.409 0-.753-.301-1.543 0-2.296-.038zM33.382 25.027c-.941-.339-1.995-.414-2.898-.038-.79.339-.414 1.205-.49 1.882v.527c0 1.129.415 1.656 1.544 1.618.903-.038 1.053.339.94 1.092v.526c-.037.226.113.603-.3.603-.34 0-.79 0-.941-.452-.038-.113-.038-.263-.038-.414-.075-.527-.565-.301-.828-.452-.15-.075-.339-.113-.414.15-.188.528.188 1.62.677 1.845.64.339 1.318.49 1.995.602.753.113 1.13-.188 1.13-.978 0 0 0-4.63.037-5.608 0-.376-.038-.753-.414-.903zm-.941 2.032c-.15.264.3.866-.49.903-.903.038-.79-.564-.752-1.091.038-.376-.301-.979.527-.979.94-.037.677.64.715 1.167zm9.634-2.258c-.64.038-1.28.038-1.92.038-.752.037-1.09.451-1.09 1.166v2.522c0 .865-.038 1.731.037 2.559 0 .49.15.94.753.828.94-.15 1.806-.414 2.634-.866.377-.225.527-.564.527-1.016V25.78c0-.64-.263-.979-.94-.979zm-.3 1.694c-.038.527-.038 1.053-.038 1.58v1.731c0 .264-.038.49-.34.64-.79.377-1.053.226-1.053-.64 0-1.09.038-2.22 0-3.311-.038-.79.49-.565.94-.64.603-.075.49.339.49.64zM44.56 2.672c-.34-.263-.151-.376.112-.49.602-.263 1.016-.639.94-1.354.678.376.415.828.076 1.28-.3.3-.715.414-1.129.564z"/>
    </g>
</svg>
