<svg xmlns="http://www.w3.org/2000/svg" width="70" height="19" viewBox="0 0 70 19">
    <path fill="#FFF" d="M23.184 2.212c.938-.357 1.884-.529 2.946-.529 2.667 0 5.056 1.252 6.617 3.203.205.26.344.588.344.938 0 .492-.205.902-.571 1.17l-.022.03c-.25.178-.55.29-.88.29-.461 0-.879-.223-1.143-.551-.315-.402-.681-.738-1.084-1.043-.916-.663-2.052-1.058-3.261-1.058-.696 0-1.319.12-1.927.358-1.18.44-2.184 1.274-2.836 2.331-.52.872-.835 1.892-.835 2.972 0 .804.176 1.564.461 2.25.396.923 1.004 1.72 1.781 2.316.923.7 2.088 1.124 3.341 1.124 1.744 0 3.327-.841 4.353-2.122.264-.35.681-.574 1.143-.574.806 0 1.466.67 1.466 1.49 0 .35-.118.678-.323.938-1.568 1.974-3.95 3.248-6.639 3.248-4.697 0-8.522-3.873-8.522-8.67 0-1.683.484-3.262 1.297-4.603 1.004-1.579 2.543-2.83 4.294-3.508zm17.63 0c.938-.357 1.884-.529 2.946-.529 2.667 0 5.056 1.252 6.617 3.203.205.26.337.588.337.938 0 .492-.22.902-.572 1.17l-.022.03c-.249.178-.55.29-.879.29-.462 0-.865-.223-1.143-.559-.315-.402-.681-.737-1.092-1.042-.916-.67-2.037-1.058-3.26-1.058-.697 0-1.32.12-1.928.358-1.15.446-2.169 1.28-2.813 2.346-.52.864-.836 1.884-.836 2.986 0 .79.176 1.55.476 2.242.381.924 1.004 1.72 1.781 2.317.923.707 2.088 1.132 3.327 1.132 1.751 0 3.326-.842 4.352-2.123.264-.343.682-.574 1.143-.574.821 0 1.466.67 1.466 1.49 0 .35-.125.678-.322.931-1.569 1.974-3.95 3.24-6.64 3.24-4.696 0-8.521-3.873-8.521-8.662 0-1.706.483-3.277 1.311-4.603.982-1.594 2.521-2.853 4.272-3.523zm13.981 13.54c1.568 1.974 3.95 3.233 6.64 3.233 4.71 0 8.521-3.873 8.521-8.67 0-1.683-.476-3.262-1.297-4.595-.264-.417-.725-.707-1.253-.707-.806 0-1.465.67-1.465 1.49 0 .29.11.61.249.84.535.872.835 1.893.835 2.973 0 .804-.169 1.564-.462 2.249-.395.923-1.003 1.72-1.78 2.316-.938.7-2.089 1.125-3.342 1.125-1.75 0-3.326-.842-4.352-2.123-.792-.983-1.238-2.19-1.238-3.567 0-1.892.915-3.583 2.337-4.618.916-.663 2.037-1.058 3.26-1.058.69 0 1.32.12 1.928.358.161.06.322.089.506.089.806 0 1.465-.67 1.465-1.49 0-.64-.403-1.191-.967-1.4-.938-.357-1.883-.529-2.946-.529-2.667 0-5.063 1.252-6.631 3.203-1.195 1.49-1.898 3.396-1.898 5.46-.007 2.063.703 3.94 1.89 5.422zM5.576 2.213c-.564.209-.952.76-.952 1.4 0 .82.66 1.49 1.465 1.49.176 0 .345-.03.506-.09.608-.23 1.238-.357 1.942-.357 1.209 0 2.352.417 3.268 1.095l-8.398 6.83c-.285-.693-.454-1.445-.454-2.235 0-1.102.308-2.122.828-2.986.147-.231.256-.551.256-.842 0-.82-.652-1.49-1.465-1.49-.52 0-.982.29-1.238.7C.484 7.069 0 8.648 0 10.346 0 15.127 3.81 19 8.522 19c2.69 0 5.085-1.259 6.639-3.247.205-.254.322-.581.322-.931 0-.82-.66-1.49-1.465-1.49-.462 0-.88.223-1.144.559-1.025 1.28-2.6 2.122-4.345 2.122-1.253 0-2.403-.432-3.341-1.132l9.702-7.887c.366-.283.578-.678.578-1.17 0-.35-.139-.692-.344-.938-1.553-1.951-3.95-3.203-6.617-3.203-1.04-.007-2 .179-2.93.53zm61.478-.722c0-.82.66-1.49 1.48-1.49C69.341 0 70 .67 70 1.49c0 .819-.66 1.49-1.466 1.49-.82 0-1.48-.671-1.48-1.49z"/>
</svg>
