<svg xmlns="http://www.w3.org/2000/svg" width="90" height="26" viewBox="0 0 90 26">
    <g fill="none">
        <path fill="#B11278" d="M75.032.337c2.652 0 5.305.096 7.957.337 1.469.096 2.985.289 4.453.53.995.096 1.847.963 1.942 2.022.332 2.648.521 5.344.569 8.04.047 2.649 0 5.249-.237 7.897l-.332 3.611c-.095 1.06-.947 1.782-2.084 1.974-1.895.24-3.79.482-5.732.578-1.468.096-2.936.193-4.405.24-.995 0-2.084.049-3.079 0-2.131-.047-4.31-.096-6.442-.288-1.705-.193-3.41-.29-5.116-.578-.994-.193-1.705-1.011-1.894-2.022-.237-1.974-.427-3.948-.521-5.922-.048-1.541-.095-3.178-.095-4.719.047-2.311.19-4.67.426-6.933.047-.674.095-1.397.237-2.023.19-.962.947-1.685 1.942-1.781 2.51-.337 5.021-.578 7.532-.722 1.61-.145 3.22-.241 4.879-.241z"/>
        <path fill="#FACD11" d="M79.626 13.096c.048-.24.095-.433.19-.577.52-1.638.995-3.275 1.516-4.912.047-.192.094-.24.331-.24h3.363c.19 0 .237.048.19.24-1.232 3.612-2.51 7.223-3.79 10.834-.047.192-.094.24-.284.24h-2.984c-.19 0-.237-.048-.284-.24-1.137-3.37-2.274-6.645-3.458-10.015-.095-.289-.19-.578-.284-.915-.048-.096-.048-.192.094-.192h3.553c.19 0 .19.096.237.192.52 1.782 1.137 3.515 1.658 5.345-.19.048-.095.144-.048.24zm-12.22 1.397v-3.9c0-.193-.048-.241-.238-.241h-2.084c-.19 0-.19-.048-.19-.193V7.511c0-.192.048-.192.19-.192h7.248c.094 0 .19.048.236.192.332.915.71 1.782.995 2.696.048.193.048.241-.095.241-.805 0-1.61 0-2.415-.048-.19 0-.237.048-.237.24v7.704c0 .241-.048.29-.284.29h-2.937c-.19 0-.237-.049-.237-.241.047-1.349.047-2.649.047-3.9z"/>
        <path fill="#000" d="M30.126 17.189h-4.642c-.19 0-.237-.048-.237-.24V14.78c0-.192.048-.24.237-.24h3.127c.189 0 .236-.048.236-.241v-2.552c0-.192 0-.24-.236-.24h-3.127c-.095 0-.19 0-.19-.193V9.052c0-.193 0-.24.238-.24h4.452c.19 0 .237-.049.237-.242V5.922c0-.24-.047-.24-.237-.24h-8.052c-.19 0-.237.048-.237.24v6.982c0 2.31 0 4.67-.048 7.126 0 .192.048.24.237.24h8.29c.19 0 .237-.048.237-.24v-2.552c.047-.241-.048-.29-.285-.29zm-9.947.048h-4.69c-.189 0-.236-.048-.236-.24V14.83c0-.193.047-.241.236-.241h3.127c.095 0 .19 0 .19-.193v-2.648c0-.192-.048-.24-.238-.24h-3.126c-.19 0-.237-.049-.237-.241V9.004c0-.193 0-.241.237-.241h4.453c.19 0 .237-.048.237-.24V5.873c0-.193-.048-.24-.237-.24h-8.053c-.237 0-.237.047-.237.24v6.982c0 2.31 0 4.67.048 7.125 0 .193.047.241.236.241h8.29c.237 0 .237-.048.237-.24V17.43c0-.145-.048-.193-.237-.193zM8.053 6.259c-.9-.433-1.848-.578-2.842-.578H.284c-.237-.048-.284 0-.284.241 0 0 0 11.652.095 14.011 0 .193.047.241.237.241h3.126c.19 0 .237-.048.237-.24v-3.467c0-.193 0-.241.19-.241h.9c.947 0 1.894-.048 2.841-.433 1.516-.53 2.51-1.637 2.748-3.226.094-1.011.094-2.119 0-3.13-.19-1.493-.995-2.504-2.321-3.178zm-1.28 5.056c0 1.06-.568 1.733-1.657 1.781-.474.048-.948 0-1.374 0-.19 0-.19-.048-.19-.192V8.907c0-.192 0-.24.19-.24.569 0 1.137-.048 1.705.048.9.192 1.28.77 1.28 1.685v.915h.047zm46.659 4.237c-.095-1.011-.71-1.782-1.516-2.456-.805-.674-1.848-1.155-2.748-1.54-.473-.241-.947-.434-1.373-.723-.284-.24-.521-.481-.663-.818-.095-.482-.048-.915.236-1.156.664-.53 1.706-.24 1.99.482.095.289.19.578.19.915 0 .096 0 .192.189.192l2.984-.337c.426-.048.426-.048.426-.53-.047-1.637-.71-2.792-2.179-3.418-1.894-.819-3.79-.77-5.636.048-2.369 1.06-2.51 3.948-1.421 5.489.52.722 1.136 1.204 1.847 1.685.947.578 1.942 1.011 2.937 1.445.331.192.71.337.994.577.332.29.474.723.332 1.156-.095.433-.474.578-.805.674-.332.048-.758.048-1.137 0-.71-.096-1.137-.578-1.232-1.252v-.53c0-.096 0-.192-.19-.192-.9.096-1.846.193-2.746.289-.569.096-.569.048-.569.722 0 1.493.663 2.552 1.942 3.274 1.137.578 2.227.77 3.458.77h.9c.9-.096 1.753-.288 2.463-.914 1.184-.963 1.469-2.36 1.327-3.852zm-10.99 4.381c-.805-1.54-1.658-3.033-2.51-4.622-.095-.192-.048-.24.094-.337 1.042-.674 1.658-1.54 1.895-2.744.095-.819.095-1.637.047-2.456-.094-1.493-.757-2.648-2.131-3.37-.948-.482-1.942-.723-2.984-.723h-4.737c-.237 0-.237.049-.237.241v14.011c0 .241.047.241.237.241h3.079c.19 0 .237 0 .237-.24v-3.9c0-.193.047-.241.236-.241h.521c.285-.049.332.048.474.288.663 1.3 1.28 2.552 1.895 3.9.047.097.095.193.284.193h3.79c-.048-.048-.048-.193-.19-.24zm-3.979-8.859c-.047.915-.474 1.445-1.374 1.637-.52.048-.994.048-1.515.048-.19 0-.095-.096-.095-.192v-3.66c0-.192 0-.24.19-.192.52 0 1.042-.048 1.61.048.758.193 1.232.722 1.232 1.493v.818h-.048z"/>
    </g>
</svg>
