<svg xmlns="http://www.w3.org/2000/svg" width="70" height="34" viewBox="0 0 70 34">
    <g fill="none" fill-rule="evenodd">
        <path fill="#DB0026" d="M45.24 12.349c-.331-.449-.379-1.228-1.064-1.299l-1.963-.52-3.879.638-.473 2.078 6.291.826 1.632 1.086 4.257.473 2.01-.732c-2.081-.685-4.186-1.205-6.196-2.03-.237-.119-.426-.332-.615-.52z"/>
        <path fill="#004526" fill-rule="nonzero" d="M52.855 14.804c-.142-.189-.355-.26-.52-.33-.142-.071-.119-.236-.237-.26-.142-.047-.378.236-.544.165-.19-.047-.165-.378-.331-.448-.142-.048-.402.212-.544.165-.142-.047-.165-.378-.307-.425-.119-.047-.402.189-.544.165-.142-.047-.142-.401-.308-.449-.142-.047-.402.213-.544.166-.142-.047-.142-.378-.307-.425-.142-.047-.402.189-.544.141-.142-.047-.166-.377-.307-.425-.119-.047-.379.166-.592.142-1.419-.118-1.986-1.039-2.08-.755-.095.236.283.897.803 1.11.379.165 4.683 1.345 4.801 1.416.095.047.378.165.284.33-.166.19-.568 0-.686-.094-.095-.094-.071-.118-.19-.142-.236-.07-.354.355-.59.307-.237-.047-.213-.495-.426-.543-.237-.07-.378.354-.615.284-.19-.024-.213-.473-.426-.543-.236-.048-.354.377-.59.306-.237-.047-.214-.472-.45-.543-.237-.047-.379.355-.591.307-.213-.047-.237-.495-.426-.543-.19-.047-.355.19-.615.236 0 0-.757.19-1.94-1.062-1.182-1.228-1.655-1.464-2.364-.944-1.088.802-1.774.26-1.963 0-.236-.26 0-.52 0-.52s.355.543.804.543c.71.024 1.23-.944 2.46-.944 1.537-.071 1.939.472 2.365.52.402.046.52-.024.804-.19.212-.07.402.354.638.26.237-.095.071-.52.331-.614.237-.094.402.354.639.26.236-.095.07-.52.307-.614.237-.095.402.354.639.236.26-.07.094-.52.33-.59.237-.095.403.33.64.236.236-.071.094-.52.33-.59.237-.095.402.33.639.236.236-.071.094-.52.307-.614.237-.071.426.354.662.26.213-.071.071-.52.308-.614.236-.095.426.33.638.236.237-.071.071-.425.355-.567 0 0 .402-.142.378-.425-.043-.411-.35-.746-.756-.826-.639-.118-5.676 1.275-5.747 1.18-.473-.897-1.064-.66-1.159-.637-.07.023-.638.26-1.277.023-1.206-.543-2.199.85-2.861.685-.439-.138-.91-.138-1.348 0-.237.095-.639.401-1.443.118-6.29-2.125-11.21-.26-11.21-.26-2.79.921-3.144 0-3.144 0s-.923-1.251 5.51-2.715C38.547 4.061 38.83.543 38.713.331c-.142-.331-.19.047-.497.4-.26.284-.567.143-.567.143-.284-.142-.473.189-.473.189s-.379.59-.71.236c-.307-.307-.733.425-.898.448-.19.024-.284-.07-.52-.189-.38-.165-.805.543-.994.59-.331.071-.544-.377-.828-.188-.827.566-.946.637-1.182.425-.142-.166-.166-.354-.71.165-.473.472-.709.543-.898.236-.19-.26-.142-.661-.946.118-.379.354-.568.354-.78.213-.166-.142-.166-.709-.757-.19-.52.473-.899.71-1.04.26-.166-.472-.781.095-.923.237-.142.118-.473.472-.686.118-.236-.378-.757.165-1.064.52-.237.259-.45.07-.71-.119-.283-.189-1.158 1.015-1.23 1.11-.07.047-.141 0-.354-.19-.307-.235-1.135 1.181-1.253 1.3 0 0-.071.118-.284-.095-.331-.307-2.034 1.936-2.673 4.486-.85 3.235.473 5.738.473 5.738s.402.023.568-.236l.237-.59c.236-.473.567-.331.567-.331l-.804 2.408c-.142.307-.047.756.237 1.18.236.426.425.709.638.921.662.614.591-.118.615-.236.07-.377.497-.07.851.118.615.355.544-.425.686-.66.071-.19.378-.19.71.094.26.212.52-.52.52-.52.307-1.534-.45-1.723-.852-1.747l-.804-.024.142-.472.024-.141c.899-2.22-.591-2.645-1.04-2.598-.497.024-.474-.283-.474-.283s2.72-.543 2.2 2.314l-.142.755.733.095c.638.07.757.826.757.826s2.365.638 3.665.378c0 0 .615-.142.78-.496 0 0 .852-2.03 3.382-2.125 0 0 .095.26-.307.402-.473.165-2.105.283-2.436 2.125-.047.307.047.944.71 1.251.544.26.756 1.275.875 1.558.307.78.804.024.804.024s.307-.638.567-.283c.473.59.662.307.78-.071.095-.402.26-.59.734-.095.189.213.591.048.638-.33.071-.803.615-.166.71-.118.07.023.662-.095.33-1.016 0 0-.425-.85-2.364-1.227-.473-.095-.402-.425-.402-.425l.426.07 1.395.166c4.73.472 8.348-1.157 8.442-1.252 3.69.709 8.703.473 9.65.118.945-.33 1.016-.897.898-1.038v.023zM45.24 8.925l.236-.236c.284-.165.473.354.426.378-.07.023-.615.189-.662.141-.118-.07 0-.283 0-.283zm-2.081.165s.07-.094.213-.141c.118-.048.33-.048.614.118.308.189.284.354.284.354h-.023c-.237.094-1.183.236-1.183.236-.165-.354.095-.567.095-.567zM25.777 4.604c.166.095 0 .803-.118.708l-.804-.448s.756-.401.922-.283v.023zm-1.3.425c.141.118 0 .803-.119.708l-.804-.425s.757-.4.922-.283zm-.474 1.346c.166.118 0 .826-.094.708l-.804-.425s.756-.401.898-.283zm-.756 1.818l-.78-.401s.756-.402.898-.284c.165.118 0 .827-.095.709l-.023-.024zm-.142 1.393l-.804-.449s.733-.4.898-.283c.166.118 0 .827-.094.709v.023zm-.024-4.085c.166.118 0 .827-.095.709l-.804-.425s.734-.402.9-.284zm-.71 1.063c.166.118 0 .803-.094.708l-.804-.425s.757-.401.922-.283h-.023zm-1.418 1.653s.756-.402.898-.284c.166.118 0 .827-.094.709l-.804-.425zm.615 1.747l-.804-.425s.756-.402.898-.283c.166.118 0 .802-.094.708zM21 7.036c.142.118 0 .827-.118.708l-.78-.425s.732-.4.898-.283zm-.71 1.417c.142.118 0 .803-.118.708l-.804-.425s.733-.401.899-.283h.024zm-1.064 1.653s.733-.402.899-.284c.166.118 0 .803-.095.709l-.804-.425zm1.42 1.558l-.781-.425s.757-.402.922-.283c.142.118 0 .826-.118.708h-.024zm1.158.944L21 12.183s.757-.401.899-.283c.165.094 0 .803-.095.708zm.355-1.464l-.804-.425s.756-.4.898-.283c.166.118 0 .803-.094.708zm1.064 2.078l-.804-.425s.757-.401.922-.283c.142.118 0 .803-.118.708zm.402-1.322l-.804-.425s.733-.401.899-.283c.165.094 0 .802-.095.708zm.236-1.275l-.78-.425s.733-.401.899-.283c.165.118 0 .802-.095.708h-.024zm1.136 2.432l-.804-.425s.756-.401.922-.283c.165.118 0 .826-.118.708zm.354-1.322l-.804-.425s.757-.402.899-.284c.165.118 0 .803-.095.709zm.284-1.417l-.804-.401s.757-.402.922-.284c.142.118 0 .803-.118.709v-.024zm1.135 2.503l-.804-.425s.757-.402.899-.284c.165.119 0 .803-.095.709zm.26-1.417l-.78-.448s.733-.402.899-.284c.165.118 0 .803-.119.709v.023zm.284-1.487l-.804-.425s.757-.402.922-.284c.142.118 0 .827-.118.709zm1.206 2.337l-.804-.425s.757-.401.923-.283c.141.118 0 .803-.119.708zm.237-1.416l-.828-.425s.757-.402.922-.284c.166.118 0 .827-.118.709h.024zm.26-1.37l-.804-.425s.757-.401.922-.283c.142.118 0 .803-.118.708zm1.23 2.48l-.804-.426s.756-.401.922-.283c.142.118 0 .803-.118.708zm.236-1.3l-.804-.424s.733-.425.899-.307c.165.118 0 .826-.119.708l.024.024zm.237-1.416l-.78-.425s.732-.401.898-.283c.165.118 0 .826-.095.708h-.023zm1.135 2.739l-.804-.425s.756-.402.898-.284c.166.119 0 .803-.094.709zm.26-1.417l-.804-.401s.757-.425.922-.284c.142.119 0 .803-.118.709v-.024zm.307-1.393l-.804-.425s.733-.401.899-.283c.165.118 0 .826-.095.708zm1.112 2.833l-.804-.448s.733-.402.898-.284c.166.119 0 .803-.094.709v.023zm.236-1.345l-.78-.425s.733-.402.899-.284c.165.118 0 .803-.095.709h-.024zm.308-1.37l-.78-.425s.732-.401.898-.283c.165.118 0 .803-.118.708zm1.017 2.904l-.804-.448s.756-.378.922-.26c.142.118 0 .803-.118.708zm.283-1.298l-.804-.425s.757-.402.923-.284c.142.118 0 .803-.119.709zm.308-1.322l-.804-.426s.757-.4.922-.283c.142.118 0 .803-.118.709zm1.253 1.605l-.804-.425s.757-.401.922-.283c.142.118 0 .802-.118.708z"/>
        <path fill="#000" fill-rule="nonzero" d="M15.845 23.328c-.166-.449-.473-.638-1.065-.638h-2.766L8.04 33.528h1.962c.162.017.324-.007.473-.071.355-.189.544-.614.592-.78l.59-1.605h4.021l.804 2.456h2.649l-1.656-5.29-1.608-4.957-.023.047zm-.78 5.525h-2.768l1.325-3.636c.283.826 1.371 3.612 1.395 3.636h.047zm19.699-6.257c-3.122 0-5.369 2.36-5.369 5.548 0 3.14 2.294 5.525 5.369 5.525 1.463.007 2.867-.575 3.895-1.615s1.593-2.449 1.567-3.91c.032-1.464-.53-2.88-1.559-3.925-1.028-1.044-2.436-1.63-3.903-1.623zm.07 8.642c-1.584 0-2.837-1.37-2.837-3.117 0-1.747 1.23-3.046 2.837-3.046 1.609 0 2.767 1.275 2.767 3.046 0 1.77-1.182 3.117-2.767 3.117zm12.44-4.062l-.095-.023-1.017-.307-.165-.071c-.828-.283-1.42-.543-1.42-1.015v-.048c.095-.802 1.585-.802 1.585-.802.828 0 1.443.118 2.247.448h.047c.155.04.315.048.473.024l.237-.07c.307-.19.614-1.11.756-1.488l.024-.142-.095-.07c-.338-.242-.713-.425-1.111-.544-.875-.33-2.081-.378-2.081-.378h-.615c-3.122 0-4.328 1.936-4.375 3.235 0 1.299.71 1.96 1.82 2.574.474.236 1.325.472 1.94.66l.639.19c1.182.377 1.631.779 1.537 1.416-.024.19-.426.543-1.325.543-1.024-.003-2.028-.28-2.908-.802l-.048-.024c-.156-.067-.326-.1-.496-.095l-.237.048c-.378.141-.875 1.062-1.088 1.44l-.07.165.141.095s.568.472 1.04.732c1.057.576 2.251.853 3.454.802 2.435 0 4.209-1.227 4.398-3.069.095-1.653-.946-2.739-3.216-3.4l.024-.024zm5.202-4.486c-.094 0-.638 0-.946.307-.141.118-.212.307-.212.472v1.748h3.31v8.31h2.744v-8.334H59.5c.118 0 .639-.024.946-.307.142-.118.213-.307.213-.472V22.69h-8.183zM5.841 31.12H2.767v-7.414c.01-.266-.094-.523-.284-.709-.284-.33-.71-.33-.899-.33H0v10.86h6.834v-1.723c0-.236-.094-.732-.97-.732l-.023.047zm19.463-6.092c.662-.047 1.206 0 1.726.141.284.095.544.119.757.048l.237-.095c.283-.189.496-1.133.615-1.7v-.118l-.095-.07c-1.01-.422-2.098-.63-3.193-.615h-.047c-2.247 0-5.652 1.464-5.747 5.55v.023c.095 4.108 3.5 5.596 5.747 5.596h.047c1.096 0 2.182-.216 3.193-.638l.095-.07v-.119c-.119-.567-.332-1.511-.639-1.7l-.236-.094c-.19-.071-.45-.048-.734.047-.52.142-1.087.189-1.75.142-1.702-.166-2.72-1.323-2.814-3.188.095-1.818 1.112-2.999 2.838-3.164v.024zm43.419 8.547c.426 0 1.135-.26 1.135-1.11V31.12h-4.8v-1.841h3.996V26.75h-3.95v-1.558h3.619c.118 0 .662 0 .946-.283.213-.213.236-.59.236-.78v-1.416h-7.567v10.814h6.409l-.024.047z"/>
    </g>
</svg>
