<svg xmlns="http://www.w3.org/2000/svg" width="100" height="23" viewBox="0 0 100 23">
    <g fill="#FFF">
        <path d="M16.421 7.318l-3.526 10.35c-.263.627-1.158.732-1.527.105l-.842-1.83c-.473-.784-1.052-1.516-1.684-2.195-.631-.628-1.42-1.203-2.21-1.673l-1.843-.836c-.631-.366-.526-1.255.158-1.464l10.421-3.502c.316-.105.632 0 .843.209.21.209.315.523.21.836zM30 5.75l-2.105.523v2.509h-.948v1.83h.948v4.808c0 1.987 1.105 2.666 2.631 2.666.79 0 1.369-.156 1.895-.47V15.89c-.421.209-.842.314-1.316.314-.737 0-1.158-.314-1.158-1.15v-4.496h2.474V8.73H30V5.75zm4.737 12.18h2.105V8.939h-2.105v8.99zm9.21-1.62c-1.631 0-2.736-1.308-2.736-2.928 0-1.62 1.105-2.927 2.631-2.927 1.053 0 1.737.47 2.369 1.15l1.315-1.412c-.842-.94-1.947-1.568-3.684-1.568-2.737 0-4.79 2.195-4.79 4.81 0 2.613 2 4.756 4.79 4.756 1.79 0 2.842-.732 3.79-1.725l-1.264-1.307c-.684.68-1.42 1.15-2.42 1.15zm14.106-7.58h-2.58l-3.841 4.077V5.75l-2.106.523V17.93h2.106v-2.614l1.315-1.36 2.79 3.974h2.42l-3.789-5.437 3.685-3.763zm9.684 4.756c0 .157 0 .47-.053.575h-6.79c.211 1.516 1.317 2.3 2.632 2.3 1.053 0 1.79-.366 2.474-1.097l1.263 1.097c-.895 1.046-2.052 1.725-3.79 1.725-2.684 0-4.736-1.934-4.736-4.809 0-2.613 1.895-4.757 4.526-4.757 2.948.053 4.474 2.353 4.474 4.966zm-2.105-.784c-.158-1.359-.948-2.404-2.316-2.404-1.316 0-2.21.993-2.369 2.404h4.685zm6.315-6.952l-2.105.523v2.509h-.947v1.83h.947v4.808c0 1.987 1.105 2.666 2.632 2.666.79 0 1.368-.156 1.894-.47V15.89c-.42.209-.842.314-1.315.314-.737 0-1.158-.314-1.158-1.15v-4.496h2.473V8.73h-2.473V5.75h.052zm8.316 6.743c-.052 0-.105-.052-.158-.052-1-.314-1.894-.627-1.894-1.255 0-.575.473-.94 1.315-.94.79 0 1.737.313 2.58.888l.841-1.516c-1-.627-2.21-1.045-3.368-1.045-1.842 0-3.263 1.045-3.263 2.77 0 1.777 1.526 2.352 2.895 2.718.052 0 .105.053.157.053 1 .313 1.895.522 1.895 1.202 0 .627-.526 1.045-1.42 1.045-.948 0-2-.366-3-1.15l-1.054 1.516c1.158.889 2.58 1.36 3.895 1.36 1.895 0 3.421-.942 3.421-2.876 0-1.672-1.526-2.3-2.842-2.718zM35.737 5.698c-.632 0-1.158.522-1.158 1.15 0 .627.526 1.15 1.158 1.15.631 0 1.158-.523 1.158-1.15.052-.628-.474-1.15-1.158-1.15z"/>
        <path d="M22.632 11.082c-.21-5.855-5-10.612-10.895-10.82C5.316 0 0 5.121 0 11.5v9.618c0 .889.737 1.62 1.632 1.62h9.684c6.42 0 11.579-5.279 11.316-11.656zm-11.316 9.304c-4.948 0-8.948-3.972-8.948-8.886s4-8.886 8.948-8.886c4.947 0 8.947 3.972 8.947 8.886s-4 8.886-8.947 8.886zm73.737-11.5h2.052v1.987c.58-1.307 1.58-2.248 3.158-2.196v2.143h-.105c-1.79 0-3.053 1.15-3.053 3.503v3.397h-2.052V8.886zm6.894 5.698V8.886H94v5.07c0 1.36.684 2.196 1.895 2.196 1.21 0 2-.836 2-2.195v-5.07h2.052v8.886h-2.052v-1.36c-.58.837-1.421 1.569-2.79 1.569-2 0-3.158-1.36-3.158-3.398z"/>
    </g>
</svg>
