<svg xmlns="http://www.w3.org/2000/svg" width="90" height="23" viewBox="0 0 90 23">
    <g fill="none">
        <path fill="#C52729" d="M87.966 23H1.973c-.802 0-1.418-.622-1.418-1.43v-2.548c0-.808.616-1.43 1.418-1.43h85.993c.801 0 1.418.622 1.418 1.43v2.548c0 .808-.617 1.43-1.418 1.43z"/>
        <path fill="#C42829" d="M82.295 10.319c.863-2.61 1.726-5.097 2.589-7.46.8-2.362.308-1.927 2.712-1.989h.801c.802-.062 1.048.249 1.048 1.057 0 3.792-.061 7.646 0 11.438 0 1.057-.431 1.119-1.233 1.119-.863 0-1.233-.249-1.233-1.181.062-2.735 0-5.533-.123-8.392-.431 1.243-.986 2.548-1.418 3.792-.616 1.616-1.17 3.294-1.726 4.91-.308.809-.801.809-1.48.809-.677 0-1.109-.063-1.355-.808-.802-2.611-1.788-5.16-2.651-7.709-.062-.31-.247-.497-.493-.746v7.77c0 1.43-.74 1.928-2.158 1.493-.431-.125-.431-.436-.431-.808V1.616c0-.621.246-.808.801-.808h.123C79.09.684 79.09.684 80.075 3.543c.678 2.114 1.418 4.165 2.096 6.34-.185.063-.123.187.124.436zM13.87 7.584c0-1.927.062-3.979 0-5.906C13.87.87 14.3.87 15.04.87c.801 0 1.356 0 1.356.808-.061 1.368 0 2.673 0 4.103 0 .622.247.87.802.87h.123c1.233-.062 2.836.498 3.699-.31.74-.746.123-2.3.246-3.482v-.621c0-1.368.74-1.865 2.096-1.43.37.124.37.373.37.746v12.122c0 1.056-.74.746-1.356.746-.617 0-1.172.062-1.172-.808V9.51c0-.746-.246-.995-.986-.995-1.048.062-1.972.062-3.02 0-.678 0-.863.249-.802.87 0 1.244-.061 2.487 0 3.73.062 1.057-.308 1.243-1.233 1.243-.863 0-1.232-.31-1.17-1.18-.062-1.865-.124-3.73-.124-5.595zM6.288.87c1.294 0 1.417.311 1.726 1.181 1.17 3.73 2.527 7.398 3.698 11.127.124.373.617.808 0 1.181-.493.311-1.972 0-2.219-.435-.061-.124-.123-.31-.123-.435-.802-2.61-.308-2.113-2.959-2.175h-.432c-2.28 0-1.849-.373-2.589 1.864-.37 1.12-1.417 1.617-2.465 1.181-.678-.31-.247-.745-.062-1.056.74-2.362 1.603-4.787 2.466-7.149.431-1.43.986-2.735 1.418-4.165C4.87 1.181 5.178.87 6.287.87zm50.054 6.714V1.803c0-.746.247-1.057.987-.995 1.11.062 2.157 0 3.267 0 2.22.062 3.822 1.927 3.945 4.165 0 2.238-1.726 4.165-3.945 4.351h-.801c-.802-.062-1.048.311-.987 1.057.062 1.057-.061 2.114 0 3.108.062.995-.493.87-1.171.87-.616 0-1.356.25-1.356-.87.061-1.927.061-3.916.061-5.905zm9.863-.062V1.865c0-.746.124-1.12.987-1.057 1.787.062 3.575.062 5.24 0 .8 0 .986.31.986 1.057 0 .684-.062 1.18-.986 1.119-.864-.062-1.727 0-2.59 0-.246 0-.37-.062-.616 0-1.048 0-.616 2.735-.616 2.735 0 .497 0 .995.74.87.739-.124 1.479 0 2.218 0 .802-.062.864.373.864 1.057 0 .684-.124.995-.864.995-.74-.063-1.417-.063-2.157 0-1.788.248-.678 1.554-.863 2.362-.123.621-.247 1.43.863 1.243.986-.062 1.91 0 2.897 0 .802-.062.863.435.863 1.057 0 .621 0 1.119-.801 1.119h-5.425c-.74 0-.986-.311-.986-1.057.246-1.927.246-3.854.246-5.843zm-25.15 7.024c-2.96-.062-5.24-1.181-6.35-3.978-1.11-2.673-.986-5.346 1.048-7.646C37.726.684 40.315.249 43.151.808c1.11.31.616 1.243.493 1.865-.062.746-.678.249-1.048.124-1.911-.497-3.945.125-5.117 1.74-1.17 1.617-1.232 3.855-.123 5.533 1.11 1.74 3.02 2.487 5.055 1.99.37-.063 1.048-.87 1.356.248.308 1.243.062 1.74-1.048 1.927-.678.249-1.233.31-1.664.31zm7.582-5.905V3.854c0-.684-.247-.995-.863-.87-.432 0-.863-.062-1.356 0-1.048.124-1.233-.373-1.233-1.243.062-.684.308-.809.863-.809h7.644c.74 0 .863.373.801.995 0 .497.123 1.181-.801 1.119h-.37c-2.28 0-2.28 0-2.28 2.3 0 2.673-.063 5.47 0 8.143 0 1.057-.494 1.057-1.234 1.057-.801 0-1.233-.062-1.233-1.119.185-1.678.062-3.232.062-4.786zm-22.623-.995V1.865c0-.746 0-1.057.986-1.057h5.61c.74 0 .986.31.986.995 0 .683 0 1.18-.986 1.119-.987-.063-1.85.062-2.836 0-1.11-.125-1.418.373-1.356 1.43.061 2.921 0 5.905.061 8.826 0 .995-.123 1.368-1.232 1.368-.987 0-1.357-.31-1.233-1.243.061-1.99 0-3.792 0-5.657z"/>
        <path fill="#FCF3F3" d="M12.514 19.954v1.554c0 .31-.062.497-.432.497s-.431-.248-.431-.497v-2.486c0-.311 0-.684.431-.622.37 0 .74-.124.986.373.247.684.432 1.243.74 1.99.247-.747.432-1.244.678-1.804.124-.497.432-.621.863-.621.617 0 .493.373.493.808v2.238c0 .373-.061.621-.493.621-.37 0-.37-.31-.37-.621V19.83c-.431.497-.493 1.119-.74 1.616-.06.249-.123.435-.43.435-.37.062-.432-.249-.494-.435-.247-.497-.37-1.057-.616-1.554-.124.062-.185.062-.185.062z"/>
        <path fill="#FCF1F1" d="M37.48 20.203c0-1.865.246-2.114 2.28-1.803.308.062.617.062.493.435 0 .31-.308.31-.493.31-.431.125-1.233-.31-1.356.312-.062.621.801.248 1.171.373.617.124.863.497.863 1.119 0 .621-.308.994-.863 1.119-.431.062-.986.062-1.48.062-.616.062-.8-.125-.739-.746.123-.435.123-.808.123-1.181z"/>
        <path fill="#FBEAEA" d="M49.993 20.203c0-1.927.123-2.114 2.281-1.803.247 0 .616 0 .616.373s-.308.31-.616.373c-.432.124-1.356-.373-1.356.31 0 .747.801.25 1.233.374.123.062.37.062.37.31 0 .311-.247.311-.432.374-.431.124-1.233-.373-1.171.435.061.683.863.124 1.356.31.308.063.678-.062.616.436 0 .373-.308.31-.616.373h-.432c-1.849.062-1.849.062-1.849-1.865z"/>
        <path fill="#FAE9E9" d="M25.274 20.203v-.87c-.062-.747.247-.87.863-.87.493.061.986 0 1.48 0 .308 0 .616.061.493.434 0 .311-.309.311-.494.311h-1.048c-.246 0-.431.062-.431.373 0 .31.247.31.431.373h.247c.308.062.863-.249.986.31 0 .685-.616.312-.986.374-.308.062-.678-.062-.678.373 0 .621.431.31.74.373.431.124 1.17-.311 1.17.31 0 .809-.8.436-1.232.436-1.541 0-1.541-.062-1.541-1.927z"/>
        <path fill="#FDF8F9" d="M65.712 20.451c-.246.435.432 1.492-.37 1.492-.863 0-.308-1.057-.431-1.616-.062-.249 0-.435 0-.684 0-.435-.308-.435-.616-.435-.37 0-.432.249-.432.497v1.244c-.062.621-.37 1.056-1.048 1.18-.123 0-.37.063-.493-.124-.062-.124-.062-.435.062-.497.986-.373.678-1.181.678-1.865-.062-.994.308-1.243 1.233-1.18h.431c.863-.125 1.233.248 1.11 1.118-.247.249-.124.497-.124.87z"/>
        <path fill="#F3E3E3" d="M75.082 20.203v-1.244c0-.31.062-.497.432-.497s.493.249.431.497c-.061.809.37.746.987.809.74 0 1.232.373 1.232 1.243 0 .87-.616 1.057-1.232 1.119h-.617c-.986.124-1.418-.125-1.233-1.181v-.746z"/>
        <path fill="#FCFAFA" d="M6.473 3.916l1.356 4.476c.061.249.123.622-.247.622-.801 0-1.54.062-2.342 0-.432 0-.308-.436-.247-.684.432-1.492.863-2.922 1.356-4.414h.124z"/>
        <path fill="#FCFAFB" d="M58.808 5.035v-.249c.124-.621-.431-1.491.432-1.802.801-.249 1.787-.125 2.465.684.494.683.74 1.491.309 2.3-.432.87-1.788 1.43-2.651 1.118-.37-.062-.431-.31-.431-.683-.124-.373-.124-.933-.124-1.368z"/>
        <path fill="#BF494A" d="M39.637 20.949c-.123.435-.493.373-.801.373-.309 0-.494-.063-.494-.436 0-.497.37-.435.679-.435.308.063.616.125.616.498z"/>
        <path fill="#CA4747" d="M77.24 21.01c-.062.436-.493.312-.802.312-.308 0-.493-.063-.431-.436 0-.497.37-.435.74-.435.185 0 .493.125.493.56z"/>
    </g>
</svg>
