<svg xmlns="http://www.w3.org/2000/svg" width="90" height="22" viewBox="0 0 90 22">
    <path d="M5.294 2.444l-.096 1.467c.433-.587.962-1.075 1.492-1.369.53-.293 1.155-.44 1.78-.44.77 0 1.444.196 2.022.636.578.44.914.929 1.059 1.466.144.538.192 1.516.192 2.836v7.089c0 1.515-.096 2.64-.288 3.275-.193.636-.53 1.174-1.107 1.565-.578.391-1.204.587-2.022.587-.625 0-1.203-.147-1.732-.44-.53-.294-1.011-.734-1.444-1.32v3.862H.144V2.444h5.15zm1.444 4.89c0-1.027-.048-1.663-.096-1.907-.097-.245-.29-.343-.626-.343-.337 0-.53.147-.626.392-.096.244-.144.88-.144 1.857v6.991c0 1.027.048 1.663.144 1.907.097.245.337.391.674.391s.53-.098.626-.342c.096-.244.096-.782.096-1.711V7.333h-.048zm11.214 1.662h-4.717V7.87c0-1.32.145-2.298.433-3.031.29-.733.867-1.32 1.781-1.858.915-.538 2.07-.83 3.465-.83 1.685 0 2.984.292 3.85.928.867.636 1.396 1.369 1.54 2.249.193.88.241 2.738.241 5.524v8.458h-4.86v-1.515c-.29.586-.722 1.075-1.204 1.368-.481.294-1.059.44-1.732.44-.867 0-1.685-.244-2.455-.733s-1.107-1.613-1.107-3.324v-1.37c0-1.27.193-2.101.578-2.59.385-.44 1.347-.978 2.936-1.614 1.636-.684 2.55-1.124 2.647-1.32.096-.244.192-.684.192-1.417 0-.88-.048-1.467-.192-1.712-.145-.244-.337-.39-.626-.39-.337 0-.578.097-.626.342-.096.244-.144.782-.144 1.76v1.76zm1.588 2.297c-.818.587-1.3 1.125-1.396 1.516-.144.391-.192.978-.192 1.76 0 .88.048 1.418.192 1.711.097.244.337.391.674.391s.53-.098.626-.293c.096-.196.144-.734.144-1.565v-3.52h-.048zm11.84-8.849l-.193 2.2c.722-1.564 1.78-2.444 3.177-2.542v5.916c-.915 0-1.589.146-2.022.39-.433.245-.722.588-.818 1.076-.096.49-.144 1.516-.144 3.13v6.648h-5.054V2.444h5.054zM41.294.196v2.64h1.348v2.688h-1.348v8.996c0 1.124.048 1.711.193 1.858.144.146.577.195 1.395.195v2.738h-2.021c-1.155 0-1.973-.049-2.455-.147-.48-.097-.914-.342-1.299-.684-.385-.342-.626-.733-.722-1.222-.096-.44-.144-1.516-.144-3.178V5.524h-1.107V2.836h1.107V.196h5.053zm13.91 11h-6.546v3.666c0 .782.048 1.271.144 1.467.096.244.337.342.626.342.385 0 .625-.147.77-.44.144-.293.192-.88.192-1.711v-2.2h4.765v1.222c0 1.027-.048 1.858-.192 2.396-.145.538-.434 1.173-.915 1.809-.481.635-1.059 1.124-1.829 1.417-.722.294-1.636.49-2.743.49-1.059 0-2.021-.147-2.84-.49-.818-.342-1.443-.733-1.925-1.27-.433-.538-.77-1.125-.962-1.81-.193-.684-.241-1.613-.241-2.884V8.262c0-1.466.193-2.64.578-3.47.385-.832 1.01-1.516 1.925-1.956.914-.44 1.925-.685 3.08-.685 1.396 0 2.599.293 3.513.831.915.538 1.589 1.271 1.925 2.151.385.88.578 2.151.578 3.814v2.249h.096zM50.15 8.409V7.187c0-.88-.048-1.418-.145-1.711-.096-.245-.288-.392-.577-.392-.337 0-.578.098-.674.343-.096.195-.144.782-.144 1.76v1.222h1.54zm11.743-5.965l-.192 2.2c.721-1.564 1.78-2.444 3.176-2.542v5.916c-.914 0-1.588.146-2.021.39-.434.245-.722.588-.819 1.076-.096.49-.144 1.516-.144 3.13v6.648H56.84V2.444h5.053zm5.68 12.663v4.204H63.77v-4.204h3.802zm6.4-12.663l-.192 2.2c.722-1.564 1.78-2.444 3.176-2.542v5.916c-.914 0-1.588.146-2.021.39-.433.245-.722.588-.818 1.076-.097.49-.145 1.516-.145 3.13v6.648H68.92V2.444h5.053zm15.69 0v16.867h-5.15l.097-1.418c-.337.587-.77.978-1.3 1.271-.53.294-1.107.44-1.78.44-.77 0-1.396-.146-1.878-.39-.48-.294-.866-.636-1.107-1.076-.24-.44-.385-.93-.433-1.418-.048-.489-.096-1.467-.096-2.884V2.444h5.054v11.49c0 1.32.048 2.102.096 2.346.096.244.289.391.625.391.385 0 .578-.147.674-.391.048-.244.096-1.076.096-2.444V2.444h5.102z"/>
</svg>
