<svg xmlns="http://www.w3.org/2000/svg" width="60" height="68" viewBox="0 0 60 68">
    <g fill="#22A3F2">
        <path d="M21.927 7.02c.11 0 .218-.055.273-.165.164-.22.327-.494.49-.713.11-.165.11-.33-.054-.439-.163-.11-.381-.11-.49.055-.164.22-.382.494-.546.768-.11.164-.055.329.11.439.054 0 .108.054.217.054m-2.29 4.881c.163.055.381-.055.381-.22.055-.274.164-.548.218-.877.055-.164-.054-.384-.218-.438-.163-.055-.327.054-.382.219-.109.274-.163.603-.272.877 0 .22.054.384.272.439m.819-2.577c.163.054.381 0 .436-.165.109-.274.273-.548.382-.823.109-.164 0-.383-.164-.438-.164-.11-.382 0-.436.164-.164.274-.273.549-.382.823-.11.164 0 .384.164.439m3.163-4.442c.11 0 .164-.055.218-.11.219-.22.437-.439.655-.603.109-.11.164-.33.054-.494-.109-.11-.327-.164-.49-.055l-.655.658c-.11.11-.11.33 0 .494.055.11.11.11.218.11M19.2 14.587c.218 0 .327-.11.382-.274.054-.274.054-.603.109-.878 0-.164-.11-.329-.273-.383-.163 0-.327.11-.382.274-.054.274-.109.603-.109.932-.054.165.11.33.273.33m25.69.877c-.926-1.646-.926-3.675 0-5.32H34.365c.436.823.654 1.7.654 2.687 0 .933-.218 1.865-.654 2.687l10.527-.054"/>
        <path d="M17.782 62.077c.436-1.096 1.363-1.919 2.563-2.193-2.236-1.7-2.29-4.278-2.29-4.607 0-1.206.327-2.193 1.036-3.07.927-1.152.709-2.797-.436-3.73-.491-.383-1.037-.548-1.637-.548-.763 0-1.582.33-2.073 1.042-1.418 1.81-2.127 3.948-2.127 6.361 0 .603.11 4.442 3 7.568-7.963-1.535-13.09-5.868-14.563-12.668-2.51-11.626 6.709-28.187 24.054-35.48.6 1.7 2.291 2.796 4.146 2.796 2.618 0 4.745-2.138 4.745-4.716 0-1.042-.382-2.029-.927-2.851C36 8.06 38.782 7.239 41.455 7.513c1.745.164 3.49.932 4.963 2.029-.873.877-1.309 2.029-1.309 3.29 0 2.633 2.127 4.716 4.746 4.716 1.145 0 2.29-.438 3.163-1.206 2.51 3.235 4.037 7.403 4.255 12.229 0 .164.163.329.327.329s.327-.165.327-.329c-.218-4.88-1.8-9.323-4.418-12.668.71-.877 1.146-1.92 1.146-3.07 0-2.633-2.128-4.717-4.746-4.717-.709 0-1.364.165-1.964.439.055-.11.055-.22 0-.33-.163-.273-.327-.493-.49-.767-.11-.164-.328-.164-.437-.055-.163.11-.163.33-.109.439.164.22.327.493.491.768.055.055.164.11.218.164-.218.11-.436.274-.654.439-1.637-1.261-3.437-2.03-5.4-2.248-2.837-.275-5.782.603-8.673 2.632-.873-.878-2.073-1.371-3.327-1.371-2.619 0-4.746 2.084-4.746 4.716 0 .439.055.877.164 1.316-1.855.768-3.71 1.7-5.455 2.742v-.768c0-.164-.163-.329-.327-.329-.218 0-.327.165-.327.33v.932c0 .054.054.164.109.219C5.236 25.719-1.745 40.087.49 50.56c1.582 7.349 7.254 11.9 16.09 13.326.383.33.819.658 1.31.987-.382-1.042-.436-1.974-.11-2.797m7.91-58.896c.054 0 .109 0 .164-.055.218-.165.49-.33.763-.494.164-.11.218-.274.11-.438-.11-.165-.273-.22-.437-.11-.273.164-.546.329-.764.493-.163.11-.163.33-.109.44.055.109.164.164.273.164m18.164 1.316c.109.11.327.11.49 0 .11-.165.11-.33-.054-.494-.218-.22-.491-.384-.71-.603-.163-.11-.326-.11-.49.055-.11.164-.11.329.054.439.273.219.491.383.71.603"/>
        <path d="M43.364 43.652c.872.274 1.636.877 2.072 1.7.055.11.055.164.11.274 1.036-3.51 2.345-8.116 3.272-13.49-.818.712-1.909.987-2.945.767-.982-.164-1.8-.768-2.346-1.645-.872 5.1-2.127 9.432-3.109 12.832.927-.548 1.964-.713 2.946-.438m-2.4-41.184c.272.164.49.274.763.438.164.11.382.055.437-.11.109-.164.054-.383-.11-.438-.272-.164-.545-.329-.818-.439-.163-.11-.381-.054-.436.11-.055.11 0 .33.164.439m4.745 3.948c.11.165.327.165.491.055.164-.11.164-.33.055-.494-.219-.219-.382-.438-.6-.712-.11-.11-.328-.165-.491 0-.11.11-.164.329 0 .493.163.165.327.384.545.658m-7.145-5.045l.818.329h.109c.109 0 .273-.055.327-.22.055-.164 0-.383-.163-.438-.273-.11-.6-.22-.873-.33-.164-.054-.382.056-.437.22-.054.22 0 .384.219.439M35.945.768c.273.055.6.11.873.164.164.055.382-.055.382-.274.055-.164-.055-.384-.273-.384C36.6.22 36.327.164 36 .11c-.164 0-.327.11-.382.274.055.22.164.384.327.384m-5.29.22h.054c.273-.056.6-.11.873-.165.163-.055.327-.22.273-.384-.055-.165-.219-.274-.382-.274-.328.054-.6.11-.928.164-.163.055-.272.22-.272.384.054.164.218.274.382.274m-2.619.878c.055 0 .11 0 .11-.055l.818-.33c.163-.054.272-.219.218-.438-.055-.22-.218-.274-.437-.22-.272.11-.6.22-.872.33-.164.054-.273.274-.164.438.11.22.218.275.327.275M33.327.658h.873c.164 0 .327-.164.327-.329 0-.164-.163-.329-.327-.329h-.927c-.164 0-.328.165-.328.384.055.11.219.274.382.274M30.982 49.3c.163 0 .327-.165.327-.329 0-.055 0-.11-.054-.165l-.382-.767c-.055-.165-.273-.22-.437-.165-.163.055-.218.274-.163.439l.382.768c.109.164.218.219.327.219m-10.91-27.968c-.054-.164-.217-.274-.436-.22-.163.056-.272.22-.218.385.055.274.164.603.218.877.055.165.219.274.382.22.164-.055.273-.22.218-.384 0-.275-.109-.604-.163-.878m9.982 25.555c.163-.11.218-.22.109-.439l-.382-.767c-.055-.165-.273-.22-.437-.165-.163.055-.218.274-.163.439l.382.768c.054.164.272.274.49.164m-10.8-28.461c-.163 0-.327.164-.272.384.054.274.054.603.109.932 0 .164.164.274.327.274h.055c.163 0 .327-.22.272-.384-.054-.274-.109-.603-.109-.877 0-.22-.163-.33-.381-.33M32.4 51.22l-.382-.822c-.054-.165-.273-.22-.436-.165-.164.055-.218.274-.164.439l.382.768c.055.164.273.22.436.164.164 0 .219-.22.164-.384"/>
        <path d="M51.49 18.152c-1.8.603-3.763.219-5.235-1.042l-2.291 11.845c-.273 1.426.654 2.851 2.072 3.126.164.054.328.054.546.054 1.254 0 2.345-.877 2.618-2.138l2.29-11.845M28.856 44.529c.163-.11.218-.274.163-.439l-.382-.767c-.054-.165-.272-.22-.436-.165-.164.055-.218.274-.164.439 0 0 .273.603.382.768.055.219.273.274.437.164M57.764 32.19c.054-.877 0-1.755 0-1.755.218-.11.436-.219.545-.329.11-.054.164-.164.164-.274v-.164s-.818.164-.982.164c-.164 0-.927-.329-.927-.329v.165c0 .055 0 .164.109.274.109.11.272.274.49.384 0 0-.218.822-.327 1.7l-2.072-1.207s-.055.165-.055.33c0 .164.055.219.11.274 1.145 1.206 1.908 1.81 1.908 1.81-.054.712-.054.986-.054 1.096 0 .22.109.658.327.658.218 0 .436-.384.436-.603 0-.11.055-.384.164-1.097 0 0 .873-.384 2.236-1.37.055 0 .164-.11.164-.275v-.33l-2.236.878m-.873 3.455c-.164-.055-.382.055-.382.274-1.8 8.5-7.364 17.768-16.309 23.142 1.636-2.687 3.218-6.361 4.745-11.242.437-1.425-.381-2.906-1.745-3.345-1.418-.439-2.89.384-3.327 1.755-1.746 5.703-3.437 9.213-5.073 11.461-.11-.164-.327-.164-.49-.055-.11.055-.165.22-.11.33.055.164.055.274.055.383-.164.22-.328.384-.491.549 1.363 1.042 2.127 2.687 2.127 4.387 0 .329-.055.603-.11.932 1.255-.932 2.455-2.193 3.6-3.893 9.819-5.375 15.874-15.3 17.783-24.294.054-.164-.055-.329-.273-.384"/>
        <path d="M30.273 58.568c-2.618 0-4.746 2.084-4.746 4.716S27.655 68 30.273 68c2.618 0 4.745-2.139 4.745-4.716 0-2.578-2.127-4.716-4.745-4.716"/>
        <path d="M25.036 61.42c-1.145-.055-2.181-.275-3.054-.604-1.364-.493-2.891.165-3.437 1.536-.49 1.37.164 2.906 1.528 3.4 1.69.658 3.654.932 5.782.987-.764-.987-1.2-2.194-1.2-3.455.054-.658.163-1.261.381-1.865m2.51-19.193c.163 0 .327-.165.327-.33 0-.054 0-.109-.055-.164l-.382-.767c-.054-.165-.272-.22-.436-.165-.164.055-.218.274-.164.439l.382.767c.11.165.218.22.327.22M25.473 30.49c-1.528-.658-2.51-.822-2.51-.822-.218-.658-.327-.933-.381-.987-.055-.22-.382-.549-.6-.44-.218.056-.273.494-.164.714.055.11.055.384.327 1.042 0 0-.654.713-1.472 2.193 0 .055-.11.165-.055.275.055.164.164.329.164.329l1.69-1.646c.328.823.71 1.59.71 1.59-.164.165-.273.385-.382.494-.055.11-.055.22-.055.33l.055.164s.655-.494.818-.549c.164-.054.982-.054.982-.054l-.055-.165c-.054-.11-.109-.164-.218-.22-.218-.054-.382-.109-.6-.164 0 0-.163-.877-.382-1.7l2.4.274-.109-.329c0-.274-.163-.329-.163-.329m-4.364 20.73c3.327 0 5.018 4.112 5.836 7.677.982-.713 2.128-1.097 3.328-1.097.709 0 1.363.11 2.018.384-1.2-5.484-4.255-12.23-11.182-12.23-1.582 0-3 .385-4.254 1.207h.054c.764 0 1.582.274 2.182.768.709.548 1.2 1.426 1.309 2.358.055.384 0 .768-.055 1.152.219-.22.491-.22.764-.22m12 1.59c-.054-.164-.273-.274-.436-.164-.164.055-.273.274-.164.439l.327.822c.055.165.273.275.437.165.163-.055.272-.274.163-.439l-.327-.822m.6 3.51c.055.164.218.274.382.219.164-.055.273-.22.218-.384V56.1c-.109-.274-.164-.548-.273-.823-.054-.164-.272-.274-.436-.219-.164.055-.273.22-.218.439.163.274.218.548.327.822m-8.836-20.29c-.164.055-.273.274-.164.439l.327.822c.055.165.273.22.437.165.163-.055.218-.274.163-.439l-.327-.822c-.109-.165-.273-.22-.436-.165M24 34c-.164.055-.273.274-.164.439l.164.438c.055.165.273.22.436.165.164-.055.273-.274.164-.439l-.164-.438c-.054-.165-.272-.22-.436-.165m-2.236-7.568c-.055-.164-.273-.274-.437-.164-.163.055-.272.274-.163.438l.163.44c.055.164.273.273.437.164.163-.055.272-.275.163-.439l-.163-.439m-.928-2.522c-.054-.165-.218-.275-.436-.22-.164.055-.273.22-.218.439.109.274.218.548.273.877.054.11.163.22.327.22h.109c.164-.055.273-.274.218-.439-.109-.274-.218-.548-.273-.877m5.291 15.738c.055.11.164.22.328.165.163 0 .327-.165.327-.33 0-.054 0-.109-.055-.164l-.382-.767c-.054-.165-.272-.22-.436-.165-.164.055-.218.274-.164.439l.382.822"/>
    </g>
</svg>
