<svg xmlns="http://www.w3.org/2000/svg" width="70" height="61" viewBox="0 0 70 61">
    <defs>
        <linearGradient id="21lwlgeoag" x1="49.69%" x2="49.69%" y1="1.04%" y2="100.295%">
            <stop offset="0%" stop-color="#559842"/>
            <stop offset="100%" stop-color="#2A7439"/>
        </linearGradient>
        <linearGradient id="slqzq1qhvh" x1="49.803%" x2="49.803%" y1=".396%" y2="100.308%">
            <stop offset="0%" stop-color="#559842"/>
            <stop offset="100%" stop-color="#2A7439"/>
        </linearGradient>
        <linearGradient id="gmi1l4f7oi" x1="49.756%" x2="49.756%" y1=".464%" y2="101.128%">
            <stop offset="0%" stop-color="#559842"/>
            <stop offset="100%" stop-color="#2A7439"/>
        </linearGradient>
        <linearGradient id="zy20lzdgvj" x1="49.902%" x2="49.902%" y1=".217%" y2="100.189%">
            <stop offset="0%" stop-color="#559842"/>
            <stop offset="100%" stop-color="#2A7439"/>
        </linearGradient>
        <linearGradient id="potqozaoik" x1="49.762%" x2="49.762%" y1=".315%" y2="100.204%">
            <stop offset="0%" stop-color="#559842"/>
            <stop offset="100%" stop-color="#2A7439"/>
        </linearGradient>
        <linearGradient id="9liegbxuyl" x1="50.325%" x2="50.325%" y1=".073%" y2="99.163%">
            <stop offset="0%" stop-color="#559842"/>
            <stop offset="100%" stop-color="#2A7439"/>
        </linearGradient>
        <linearGradient id="6754qwxytm" x1="48.913%" x2="48.913%" y1=".604%" y2="100.708%">
            <stop offset="0%" stop-color="#559842"/>
            <stop offset="100%" stop-color="#2A7439"/>
        </linearGradient>
        <linearGradient id="0t8203zran" x1="49.705%" x2="49.705%" y1="-.492%" y2="100.186%">
            <stop offset="0%" stop-color="#559842"/>
            <stop offset="100%" stop-color="#2A7439"/>
        </linearGradient>
        <linearGradient id="0v9fxn2kpo" x1="49.438%" x2="49.438%" y1=".217%" y2="100.189%">
            <stop offset="0%" stop-color="#559842"/>
            <stop offset="100%" stop-color="#2A7439"/>
        </linearGradient>
        <radialGradient id="llrl3ldnwa" cx="17.746%" cy="102.454%" r="125.054%" fx="17.746%" fy="102.454%" gradientTransform="matrix(.64642 -.68504 .76298 .5804 -.719 .551)">
            <stop offset="0%" stop-color="#22A249"/>
            <stop offset="21.8%" stop-color="#A5D066"/>
            <stop offset="68.5%" stop-color="#69BD45"/>
            <stop offset="100%" stop-color="#007332"/>
        </radialGradient>
        <radialGradient id="06i56wxw3b" cx="93.161%" cy="101.754%" r="188.889%" fx="93.161%" fy="101.754%" gradientTransform="matrix(.03443 -.5448 .9994 .01877 -.117 1.506)">
            <stop offset="0%" stop-color="#A3B156"/>
            <stop offset="21.8%" stop-color="#9ACA3C"/>
            <stop offset="62.4%" stop-color="#83A639"/>
            <stop offset="100%" stop-color="#0C6F30"/>
        </radialGradient>
        <radialGradient id="bfpdyilu6c" cx="99.347%" cy="77.989%" r="117.42%" fx="99.347%" fy="77.989%" gradientTransform="matrix(-.73996 -.66563 .67265 -.73224 1.204 2.012)">
            <stop offset="0%" stop-color="#FFF"/>
            <stop offset="20.6%" stop-color="#C8CB59"/>
            <stop offset="54.5%" stop-color="#B4D133"/>
            <stop offset="100%" stop-color="#4A6B18"/>
        </radialGradient>
        <radialGradient id="ceqdt3t6cd" cx="100.804%" cy=".472%" r="173.795%" fx="100.804%" fy=".472%" gradientTransform="scale(-.58222 -1) rotate(-3.122 -.535 50.257)">
            <stop offset="0%" stop-color="#FFF"/>
            <stop offset="12.1%" stop-color="#E9C457"/>
            <stop offset="59.4%" stop-color="#FBA91D"/>
            <stop offset="100%" stop-color="#6E6812"/>
        </radialGradient>
        <radialGradient id="92sijeirxe" cx="83.37%" cy="-1.599%" r="118.642%" fx="83.37%" fy="-1.599%" gradientTransform="matrix(-.69066 .69489 -.72318 -.66365 1.398 -.606)">
            <stop offset="0%" stop-color="#F79B81"/>
            <stop offset="61.2%" stop-color="#F8982F"/>
            <stop offset="100%" stop-color="#844C05"/>
        </radialGradient>
        <radialGradient id="b1adlfke9f" cx="9.213%" cy="1.99%" r="191.754%" fx="9.213%" fy="1.99%" gradientTransform="scale(1 .51843) rotate(87.875 .083 .03)">
            <stop offset="0%" stop-color="#FEE7D9"/>
            <stop offset="52.1%" stop-color="#E3473F"/>
            <stop offset="100%" stop-color="#C36C16"/>
        </radialGradient>
    </defs>
    <g fill="none">
        <path fill="url(#llrl3ldnwa)" d="M28.827 4.726c-6.339 0-12.788 5.88-12.788 13.794 0 3.847.937 7.419 2.867 10.386.385.33 1.047.715 1.433.99-1.158-2.199-1.764-4.672-1.764-7.31 0-8.408 5.567-15.222 14.716-15.277 1.93 0 3.693.385 5.347 1.1-2.536-2.309-6.008-3.683-9.811-3.683z"/>
        <path fill="url(#06i56wxw3b)" d="M26.953 32.039c-5.788-5.99-3.914-18.355-.166-21.707 2.426-2.528 5.402-2.968 5.622-3.078-4.795.055-7.716 1.923-10.472 4.726-3.803 3.902-5.346 9.343-4.41 14.069 2.095 4.836 5.678 8.737 12.347 10.496 1.433.385 1.93-.275 3.417-.66-2.37-.659-4.52-1.978-6.338-3.846z"/>
        <path fill="url(#bfpdyilu6c)" d="M39.024 33.083c-8.213 0-14.772-6.815-14.772-15.223 0-1.978.386-3.846 1.047-5.55-2.205 2.693-3.527 6.265-3.527 10.222 0 6.264 3.362 11.65 8.157 13.958 1.323.33 2.756.495 4.19.495 3.692 0 7.11-1.154 9.92-3.133.827-.824 1.489-1.703 2.15-2.693-2.15 1.264-4.575 1.924-7.165 1.924z"/>
        <path fill="url(#ceqdt3t6cd)" d="M48.339 25.609c-5.788 5.99-15.103 5.99-20.89.055-1.323-1.374-2.425-3.078-2.977-4.836.386 4.177 1.71 7.144 4.465 9.947 3.528 3.627 8.268 5.166 12.567 4.616 5.953-2.803 10.142-8.848 10.527-15.937-.716 2.253-1.929 4.396-3.692 6.155z"/>
        <path fill="url(#92sijeirxe)" d="M48.339 7.364c.716 1.759 1.102 3.682 1.102 5.77 0 8.408-6.56 15.278-14.717 15.278-1.929 0-3.693-.385-5.346-1.1 2.59 2.254 6.063 3.628 9.921 3.628 4.52 0 8.488-1.924 11.19-4.836.991-2.309 1.542-4.836 1.542-7.53-.055-4.23-1.377-8.078-3.692-11.21z"/>
        <path fill="url(#b1adlfke9f)" d="M36.378.165c1.764.77 3.472 1.868 4.905 3.352 8.654 8.903 3.363 18.85.717 21.542-1.323 1.374-2.921 2.364-4.63 3.078 3.417-.33 6.228-1.759 8.93-4.616 3.14-3.243 4.684-7.364 4.574-11.321C48.669 5.825 43.102 1.1 36.378.165z"/>
        <ellipse cx="34.063" cy="17.915" fill="#FFF" rx="10.472" ry="10.661"/>
        <path fill="url(#21lwlgeoag)" d="M.22 52.537v-1.319l1.158-1.1c2.04-1.868 2.976-2.857 2.976-3.956 0-.77-.44-1.374-1.488-1.374-.827 0-1.488.385-1.984.77l-.662-1.54c.717-.494 1.764-.988 2.977-.988 2.094 0 3.252 1.209 3.252 2.912 0 1.54-1.103 2.803-2.48 3.957l-.882.715h3.527v1.758H.22v.165z"/>
        <path fill="url(#slqzq1qhvh)" d="M11.85 52.537v-2.198H7.772v-1.43l3.472-5.66h2.7v5.386h1.103v1.594h-1.102v2.198H11.85v.11zm0-3.847v-2.088c0-.55 0-1.154.056-1.704h-.056c-.275.55-.55 1.154-.881 1.704l-1.213 2.033h2.094v.055z"/>
        <path fill="url(#gmi1l4f7oi)" d="M16.37 50.284c.551.275 1.488.55 2.425.55.992 0 1.488-.385 1.488-1.045 0-.55-.44-.934-1.598-1.319-1.598-.55-2.646-1.429-2.646-2.857 0-1.649 1.378-2.858 3.638-2.858 1.103 0 1.874.22 2.425.44l-.44 1.703c-.331-.165-1.048-.44-1.985-.44s-1.378.44-1.378.935c0 .66.496.88 1.764 1.374 1.654.66 2.48 1.483 2.48 2.857 0 1.594-1.212 2.968-3.858 2.968-1.102 0-2.205-.275-2.7-.55l.385-1.758z"/>
        <path fill="url(#zy20lzdgvj)" d="M26.126 42.92L26.126 46.602 29.709 46.602 29.709 42.92 31.858 42.92 31.858 52.537 29.709 52.537 29.709 48.525 26.126 48.525 26.126 52.537 23.976 52.537 23.976 42.92z"/>
        <path fill="url(#potqozaoik)" d="M37.811 52.702c-2.811 0-4.52-2.143-4.52-4.891 0-2.858 1.874-5.056 4.685-5.056 2.922 0 4.575 2.198 4.575 4.89-.11 3.188-1.984 5.057-4.74 5.057zm.11-1.704c1.433 0 2.315-1.374 2.315-3.297 0-1.704-.827-3.242-2.315-3.242s-2.315 1.428-2.315 3.297c-.055 1.813.772 3.242 2.315 3.242z"/>
        <path fill="url(#9liegbxuyl)" d="M43.93 43.03c.716-.11 1.598-.165 2.92-.165 1.323 0 2.315.22 2.922.824.661.44 1.047 1.264 1.047 2.198 0 .99-.276 1.704-.882 2.308-.772.715-1.874 1.045-3.142 1.045-.275 0-.496 0-.771-.055v3.462h-2.15v-9.562h.055v-.055zm2.094 4.396c.165.055.385.055.771.055 1.158 0 1.874-.55 1.874-1.539 0-.879-.661-1.428-1.653-1.428-.386 0-.772 0-.882.054v2.858h-.11z"/>
        <path fill="url(#6754qwxytm)" d="M51.15 52.702c-.772 0-1.268-.55-1.268-1.32 0-.823.496-1.318 1.268-1.318.771 0 1.267.495 1.267 1.319 0 .77-.55 1.319-1.267 1.319z"/>
        <path fill="url(#0t8203zran)" d="M53.795 43.14c.551-.11 1.654-.22 2.756-.22 1.323 0 2.15.11 2.811.494.717.33 1.158 1.045 1.158 1.924 0 .88-.496 1.594-1.544 2.033 1.103.275 1.93 1.154 1.93 2.363 0 .88-.386 1.539-.993 2.034-.716.55-1.874.879-3.748.879-1.047 0-1.874-.055-2.37-.11V43.14zm2.095 3.627h.716c1.158 0 1.709-.44 1.709-1.21 0-.769-.551-1.098-1.543-1.098-.441 0-.772 0-.937.055v2.253h.055zm0 4.231c.22.055.44.055.827.055.992 0 1.874-.385 1.874-1.374 0-.989-.882-1.374-1.985-1.374h-.771v2.693h.055z"/>
        <path fill="url(#0v9fxn2kpo)" d="M64.047 52.537v-3.902l-2.976-5.715h2.48l.992 2.308c.276.714.496 1.209.772 1.868.22-.55.44-1.154.772-1.868l.992-2.308h2.425l-3.197 5.605v4.012h-2.26z"/>
        <path fill="#848484" d="M.606 56.219v1.758c0 .715 0 1.264-.055 1.869.22-.44.441-.934.827-1.429l1.378-2.198h.551v4.286h-.496v-1.868c0-.714 0-1.21.055-1.704-.22.44-.496.99-.827 1.43L.661 60.56h-.55v-4.286h.495v-.055zm5.126 0v1.758h2.095V56.22h.551v4.286h-.551v-2.033H5.732v2.033h-.55V56.22h.55zm5.292.495H9.7v-.44h3.197v.44H11.63v3.791h-.551v-3.791h-.055zm5.511 1.813h-1.653v1.539h1.874v.44H14.33v-4.287h2.315v.44h-1.764v1.373h1.653v.495zm1.764-2.253c.276-.055.662-.11 1.047-.11.552 0 .937.11 1.213.33.22.22.386.494.386.879s-.11.714-.33.934c-.276.275-.772.44-1.324.44-.165 0-.33 0-.44-.055v1.703h-.552v-4.121zm.607 2.088c.11.055.275.055.44.055.717 0 1.103-.33 1.103-.934 0-.605-.386-.88-1.047-.88-.22 0-.386 0-.496.056v1.703zm4.244-2.143v1.758h2.094V56.22h.551v4.286h-.55v-2.033H23.15v2.033h-.552V56.22h.552zm6.78 2.308h-1.654v1.539h1.874v.44h-2.426v-4.287h2.315v.44h-1.763v1.373h1.653v.495zm2.645-1.813h-1.323v-.44h3.197v.44h-1.323v3.791h-.551v-3.791zm4.134 1.868v.385h-1.544v-.385h1.544zm5.18.055c-.054-.55-.054-1.319-.054-1.869-.166.495-.331 1.045-.496 1.594l-.772 2.088h-.386l-.716-2.033c-.22-.55-.331-1.154-.496-1.649 0 .495-.056 1.264-.056 1.924l-.11 1.868h-.496l.276-4.286h.716l.772 2.088c.165.495.33.99.44 1.429.111-.44.276-.934.442-1.429l.771-2.088h.552l.275 4.286H42l-.11-1.923zm2.977.55l-.44 1.318h-.552l1.433-4.286h.717l1.433 4.286h-.551l-.441-1.319h-1.599zm1.488-.44l-.385-1.21c-.11-.274-.166-.494-.221-.823-.055.22-.11.494-.22.769l-.386 1.264h1.212zm4.961-2.528v.44h-1.709v3.791h-.55v-4.286h2.259v.055zm1.543 2.967l-.44 1.32h-.552l1.433-4.287h.717l1.433 4.286h-.551l-.441-1.319h-1.599zm1.433-.44l-.385-1.208c-.11-.275-.166-.495-.221-.824-.055.22-.11.494-.22.769l-.386 1.264h1.212zm2.536-2.197c.275-.165.716-.33 1.157-.33.772 0 1.268.385 1.268 1.044 0 .495-.386.934-.882 1.044.551.055 1.047.44 1.047 1.1 0 .879-.826 1.263-1.543 1.263-.386 0-.827-.055-1.102-.275l.165-.44c.22.11.661.276.992.276.662 0 .992-.33.992-.825 0-.66-.661-.824-1.157-.824h-.22v-.385h.22c.551 0 1.047-.33 1.047-.824 0-.44-.276-.714-.772-.714-.33 0-.661.11-.882.274l-.33-.384zm4.74-.33v1.758c0 .715 0 1.264-.055 1.869.22-.44.44-.934.827-1.429l1.378-2.198h.55v4.286h-.495v-1.868c0-.714 0-1.21.055-1.704-.22.44-.496.99-.827 1.43l-1.323 2.142h-.551V56.22h.44zm5.126 0v1.758h2.094V56.22h.552v4.286h-.552v-2.033h-2.094v2.033h-.551V56.22h.55z"/>
    </g>
</svg>
