<svg xmlns="http://www.w3.org/2000/svg" width="70" height="20" viewBox="0 0 70 20">
    <g fill="#FFF">
        <path d="M58.358.26c2.063 0 4.126.073 6.19.259 1.141.074 2.32.222 3.463.407.773.074 1.436.74 1.51 1.555.258 2.038.405 4.112.442 6.186.037 2.037 0 4.037-.184 6.074l-.258 2.778c-.074.814-.737 1.37-1.621 1.518-1.474.185-2.947.37-4.458.444-1.142.075-2.284.149-3.426.186-.774 0-1.621.037-2.395 0-1.658-.037-3.353-.074-5.01-.223-1.327-.148-2.653-.222-3.98-.444-.773-.148-1.326-.778-1.473-1.556-.184-1.518-.332-3.037-.405-4.555-.037-1.185-.074-2.445-.074-3.63.037-1.778.147-3.592.332-5.333.036-.519.073-1.074.184-1.556.147-.74.737-1.296 1.51-1.37 1.953-.26 3.906-.444 5.858-.556C55.816.334 57.068.26 58.358.26zm3.574 9.814c-.037-.074-.11-.148.036-.185-.405-1.408-.884-2.74-1.29-4.111-.036-.074-.036-.148-.183-.148h-2.763c-.11 0-.11.074-.074.148.074.259.147.481.22.703.922 2.593 1.806 5.112 2.69 7.704.037.148.074.185.221.185h2.322c.147 0 .184-.037.22-.185.995-2.778 1.99-5.555 2.948-8.333.037-.148 0-.185-.147-.185h-2.616c-.184 0-.221.037-.258.185-.405 1.26-.774 2.518-1.18 3.778-.073.11-.11.259-.146.444zm-9.506 1.074c0 .963 0 1.963-.037 3 0 .148.037.185.185.185h2.284c.184 0 .22-.037.22-.222V8.185c0-.148.038-.185.185-.185.626.037 1.253.037 1.88.037.11 0 .11-.037.073-.185-.221-.704-.516-1.37-.774-2.074-.037-.111-.11-.148-.184-.148H50.62c-.11 0-.147 0-.147.148v2.037c0 .11 0 .148.147.148h1.621c.147 0 .184.037.184.185v3zM23.432 13.222h-3.61c-.148 0-.185-.037-.185-.185V11.37c0-.148.037-.185.184-.185h2.432c.147 0 .184-.037.184-.185V9.037c0-.148 0-.185-.184-.185H19.82c-.074 0-.147 0-.147-.148V6.963c0-.148 0-.185.184-.185h3.463c.147 0 .184-.037.184-.185V4.556c0-.186-.037-.186-.184-.186h-6.263c-.147 0-.184.037-.184.186v5.37c0 1.778 0 3.593-.037 5.481 0 .149.037.186.184.186h6.447c.148 0 .185-.037.185-.186v-1.963c.036-.185-.037-.222-.221-.222zm-7.737.037h-3.648c-.147 0-.184-.037-.184-.185v-1.667c0-.148.037-.185.184-.185h2.432c.074 0 .147 0 .147-.148V9.037c0-.148-.037-.185-.184-.185h-2.431c-.148 0-.185-.037-.185-.185V6.926c0-.148 0-.185.185-.185h3.463c.147 0 .184-.037.184-.185V4.519c0-.149-.037-.186-.184-.186H9.21c-.185 0-.185.037-.185.186v5.37c0 1.778 0 3.592.037 5.481 0 .149.037.186.184.186h6.448c.184 0 .184-.037.184-.186v-1.963c0-.11-.037-.148-.184-.148zM6.263 4.815c-.7-.334-1.437-.445-2.21-.445H.22C.037 4.333 0 4.37 0 4.556c0 0 0 8.963.074 10.777 0 .148.037.186.184.186h2.431c.148 0 .185-.038.185-.186v-2.666c0-.148 0-.186.147-.186h.7c.737 0 1.474-.037 2.21-.333 1.18-.407 1.953-1.26 2.137-2.481.074-.778.074-1.63 0-2.408-.147-1.148-.773-1.926-1.805-2.444zm-.995 3.889c0 .815-.442 1.333-1.29 1.37-.367.037-.736 0-1.067 0-.148 0-.148-.037-.148-.148V6.852c0-.148 0-.185.148-.185.442 0 .884-.037 1.326.037.7.148.995.592.995 1.296v.704h.036zm36.29 3.259c-.074-.778-.553-1.37-1.18-1.889-.625-.518-1.436-.889-2.136-1.185-.368-.185-.737-.333-1.068-.556-.221-.185-.406-.37-.516-.63-.074-.37-.037-.703.184-.888.516-.408 1.326-.185 1.547.37.074.222.148.445.148.704 0 .074 0 .148.147.148l2.321-.26c.332-.036.332-.036.332-.407-.037-1.259-.553-2.148-1.695-2.63-1.474-.629-2.947-.592-4.384.038-1.842.815-1.953 3.037-1.105 4.222.405.556.884.926 1.436 1.296.737.445 1.511.778 2.285 1.111.258.149.552.26.773.445.258.222.369.555.258.889-.073.333-.368.444-.626.518-.258.037-.59.037-.884 0-.553-.074-.884-.444-.958-.963v-.407c0-.074 0-.148-.148-.148-.7.074-1.436.148-2.136.222-.442.074-.442.037-.442.556 0 1.148.515 1.962 1.51 2.518.884.444 1.732.593 2.69.593h.7c.7-.074 1.363-.223 1.915-.704.921-.74 1.142-1.815 1.032-2.963zm-8.547 3.37c-.627-1.185-1.29-2.333-1.953-3.555-.074-.148-.037-.185.074-.26.81-.518 1.29-1.185 1.473-2.11.074-.63.074-1.26.037-1.89-.074-1.148-.59-2.037-1.658-2.592-.737-.37-1.51-.556-2.32-.556h-3.685c-.184 0-.184.037-.184.186v10.777c0 .186.037.186.184.186h2.395c.147 0 .184 0 .184-.186v-3c0-.148.037-.185.184-.185h.405c.221-.037.258.037.369.222.516 1 .995 1.963 1.473 3 .037.074.074.149.222.149h2.947c-.037-.038-.037-.149-.147-.186zM29.916 8.52c-.037.703-.369 1.11-1.069 1.259-.405.037-.773.037-1.179.037-.147 0-.073-.074-.073-.148V6.852c0-.148 0-.185.147-.148.405 0 .81-.037 1.253.037.59.148.958.555.958 1.148v.63h-.037z"/>
    </g>
</svg>
