<svg xmlns="http://www.w3.org/2000/svg" width="70" height="17" viewBox="0 0 70 17">
    <path fill="#FFF" d="M4.118 1.889l-.075 1.133c.337-.453.748-.83 1.16-1.058.412-.226.899-.34 1.385-.34.6 0 1.123.152 1.572.492.45.34.712.717.824 1.133.112.415.15 1.171.15 2.191v5.478c0 1.17-.075 2.04-.225 2.53-.15.492-.412.908-.86 1.21-.45.302-.937.453-1.573.453-.487 0-.936-.113-1.348-.34-.411-.227-.786-.567-1.123-1.02v2.985H.112V1.889h4.006zM5.24 5.667c0-.794-.038-1.285-.075-1.474-.075-.189-.225-.264-.487-.264s-.412.113-.486.302c-.075.189-.113.68-.113 1.436v5.402c0 .793.038 1.284.113 1.473.074.19.262.302.524.302s.411-.075.486-.264c.075-.189.075-.604.075-1.322V5.667h-.037zm8.722 1.284h-3.669v-.869c0-1.02.112-1.775.337-2.342.225-.567.674-1.02 1.385-1.436.711-.415 1.61-.642 2.695-.642 1.31 0 2.321.227 2.995.718.674.491 1.085 1.058 1.198 1.738.15.68.187 2.115.187 4.269v6.535h-3.78v-1.17c-.225.452-.562.83-.937 1.057-.374.227-.823.34-1.347.34-.674 0-1.31-.189-1.91-.567-.598-.378-.86-1.246-.86-2.569v-1.057c0-.983.15-1.625.449-2.003.3-.34 1.048-.755 2.283-1.246 1.273-.53 1.984-.87 2.06-1.02.074-.19.149-.53.149-1.096 0-.68-.038-1.133-.15-1.322-.112-.189-.262-.302-.487-.302-.262 0-.449.075-.486.264-.075.189-.112.605-.112 1.36v1.36zm1.235 1.776c-.637.453-1.01.869-1.086 1.17-.112.303-.15.756-.15 1.36 0 .68.038 1.096.15 1.323.075.189.262.302.524.302s.412-.075.487-.226c.075-.152.112-.567.112-1.21v-2.72h-.037zm9.208-6.838l-.15 1.7c.562-1.209 1.386-1.889 2.471-1.965v4.572c-.711 0-1.235.113-1.572.302-.337.189-.561.453-.636.83-.075.379-.113 1.172-.113 2.419v5.137h-3.93V1.89h3.93zM32.118.15v2.04h1.048V4.27h-1.048v6.951c0 .869.037 1.322.15 1.436.112.113.449.15 1.085.15v2.116H31.78c-.899 0-1.535-.038-1.91-.113-.374-.076-.71-.265-1.01-.529-.3-.264-.487-.567-.562-.944-.074-.34-.112-1.172-.112-2.456V4.269h-.86V2.19h.86V.151h3.93zm10.818 8.5h-5.091v2.833c0 .605.037.983.112 1.134.075.189.262.264.487.264.3 0 .486-.113.599-.34.112-.226.15-.68.15-1.322v-1.7h3.705v.944c0 .794-.037 1.436-.15 1.852-.112.415-.336.906-.71 1.397-.375.491-.824.87-1.423 1.096-.562.227-1.273.378-2.134.378-.823 0-1.572-.114-2.208-.378-.637-.265-1.123-.567-1.498-.982-.336-.416-.599-.87-.748-1.398-.15-.529-.187-1.247-.187-2.229V6.384c0-1.133.15-2.04.449-2.682.3-.642.786-1.17 1.497-1.51.711-.34 1.497-.53 2.396-.53 1.085 0 2.021.227 2.732.642.712.416 1.236.983 1.498 1.663.3.68.449 1.662.449 2.946v1.738h.075zm-3.93-2.153v-.945c0-.68-.038-1.095-.113-1.322-.075-.189-.225-.302-.45-.302-.261 0-.448.075-.523.264-.075.151-.113.605-.113 1.36v.945h1.198zm9.133-4.61l-.15 1.7c.562-1.208 1.385-1.888 2.47-1.964v4.572c-.71 0-1.234.113-1.571.302-.337.189-.562.453-.637.83-.075.379-.112 1.172-.112 2.419v5.137h-3.93V1.89h3.93zm4.417 9.785v3.25H49.6v-3.25h2.957zm4.979-9.784l-.15 1.7c.562-1.209 1.385-1.889 2.47-1.965v4.572c-.71 0-1.235.113-1.572.302-.336.189-.561.453-.636.83-.075.379-.112 1.172-.112 2.419v5.137h-3.93V1.89h3.93zm12.203 0v13.033h-4.005l.074-1.095c-.262.453-.598.755-1.01.982-.412.227-.861.34-1.385.34-.6 0-1.086-.113-1.46-.302-.374-.227-.674-.491-.861-.831-.187-.34-.3-.718-.337-1.096-.037-.378-.075-1.133-.075-2.229V1.89h3.93v8.878c0 1.02.038 1.624.075 1.813.075.189.225.302.487.302.3 0 .45-.113.524-.302.038-.189.075-.831.075-1.889V1.89h3.968z"/>
</svg>
