<svg xmlns="http://www.w3.org/2000/svg" width="100" height="12" viewBox="0 0 100 12">
    <g fill="#FFF">
        <path d="M11.755 9.809h-1.649v1.617H1.81V9.81H.159V.052h3.298V9.81h4.947V.052h3.298V9.81h.053zm13.67 1.617H13.83V.052h3.298V9.81h8.298v1.617zm11.49-9.756h-3.298v9.756h-3.298V1.67h-3.298V.052h9.947V1.67h-.053zm14.521 9.756H46.49V9.81H44.84V8.243h-1.649v3.235h-3.297V.052h9.946V1.67h1.65v4.852H48.19v1.617h1.65v1.565h1.648v1.722h-.053zm-3.35-6.47V1.723h-4.948v4.852h3.298V4.957h1.65zm17.02 6.47H61.81V8.191h-4.84v3.235h-3.405V3.287h1.649V1.722h1.649V.104h4.947v1.618h1.648v1.565h1.65v8.14zM61.81 6.522V3.287h-1.596V1.722H58.51v1.565h-1.543v3.235h4.84z"/>
        <path d="M71.915 11.426L68.617 11.426 68.617 8.191 71.915 8.191z" opacity=".6"/>
        <path d="M86.968 9.809H85.32v1.617h-9.947V.052h9.947V1.67h1.65v3.234h-1.65v1.357h1.65v3.548zM83.67 4.904V1.67h-4.947v3.234h4.947zm0 4.905V6.313h-4.947v3.496h4.947zm16.17-4.852h-1.649v1.617h-1.648v4.904h-3.298V6.574h-1.65V4.957h-1.648V.052h3.298v4.905h3.298V.052h3.297v4.905z"/>
    </g>
</svg>
