<svg xmlns="http://www.w3.org/2000/svg" width="70" height="37" viewBox="0 0 70 37">
    <g fill="#FFF">
        <path d="M31.262 20.128c2.492-2.183 5.827-2.109 7.476.111 1.356-1.369 2.969-1.85 4.838-1.591 1.503.222 2.382 1.147 2.529 2.664.036.703 0 1.48-.11 2.183-.477 2.59-.916 5.217-1.393 7.881-.037.37-.22.555-.586.481-.44-.037-.843-.037-1.356 0-.477.037-.55-.148-.44-.592.476-2.59.916-5.217 1.393-7.881.036-.148.036-.333.036-.481.11-1.776-.916-2.664-2.675-2.331-1.246.222-2.162 1.258-2.382 2.516-.477 2.775-.953 5.55-1.466 8.362-.037.259-.147.444-.44.37-.55 0-1.026-.037-1.576 0-.367 0-.44-.111-.367-.444l1.466-8.14c0-.037 0-.111.037-.148.147-.777.33-1.591-.44-2.109-.77-.592-1.649-.592-2.565-.259-.66.222-1.246.666-1.723 1.184-.146.148-.256.37-.33.666-.476 2.923-1.026 5.883-1.575 8.806-.037.37-.22.555-.587.481-.476-.037-.916-.037-1.392 0-.367 0-.44-.111-.367-.481.55-2.886 1.026-5.698 1.503-8.584.22-1.147.22-2.294 0-3.367-.037-.333 0-.444.33-.481.366-.037.806-.148 1.172-.222.697-.111.697-.111.807.592.073.222.146.518.183.814zm31.335 7.881c-2.639-.148-4.105-2.072-3.665-4.662.66-4.292 4.984-5.55 7.843-4.329.806.333.806.37 1.356-.333.33-.444.55-.444.916 0 .806.851.806.851-.037 1.739-.256.259-.256.481-.146.814.55 2.072-.22 5.143-2.969 6.512l-1.466.666c-.256.111-.476.259-.696.444-.147.148-.22.333-.11.481.037.222.257.222.44.222.22 0 .476-.037.696-.037 2.272-.259 3.665 1.295 3.189 3.515-.257 1.369-1.136 2.294-2.31 2.923-2.418 1.258-4.91 1.406-7.366.222-1.063-.555-1.063-.555-.44-1.591.477-.814.55-.814 1.356-.444 1.613.703 3.299 1.036 4.985.37.66-.259 1.246-.592 1.466-1.369.256-.814-.037-1.48-.807-1.739-.77-.259-1.575-.333-2.382-.481-.44-.037-.806-.148-1.136-.37-.66-.444-.696-1.147-.146-1.665.146-.148.44-.333.66-.444.146-.148.366-.259.769-.444zm-8.026 2.627c-1.466 1.258-3.116 1.628-4.911 1.406-1.503-.222-2.566-1.073-2.969-2.553-.953-3.737 1.026-8.732 4.508-10.249 2.199-.962 4.471-.777 6.67.148.367.148.477.37.367.814-.477 2.22-.953 4.44-1.393 6.734-.33 1.48-.147 2.923.22 4.329.146.666.146.666-.477.666-.33 0-.66-.037-.916 0-.586.111-.843-.148-.953-.777-.036-.222-.11-.37-.146-.518zm-.807-10.175c-.99-.037-1.942.37-2.785 1.221-1.65 1.739-2.199 3.959-2.089 6.29.11 1.998 2.052 2.886 3.665 1.739 1.1-.777 1.686-1.85 2.052-3.108.477-1.739.733-3.552 1.173-5.328.11-.37-.11-.481-.366-.592-.477-.185-.953-.222-1.65-.222zm12.791 2.183c0-1.147-.55-1.887-1.503-2.072-.66-.148-1.356-.111-1.942.222-1.393.777-2.126 2.368-1.87 4.144.22 1.591 1.43 2.22 2.896 1.628 1.356-.592 2.419-2.294 2.419-3.922zM6.12 16.021H.403c-.22 0-.403-.185-.403-.407V9.842c0-.222.183-.407.403-.407H6.12c.22 0 .404.185.404.407v5.772c0 .222-.184.407-.404.407zm0 6.549H.403c-.22 0-.403-.148-.403-.407v-5.735c0-.222.183-.407.403-.407H6.12c.22 0 .404.185.404.407V22.2c0 .222-.184.37-.404.37zm0 6.586H.403c-.22 0-.403-.185-.403-.407v-5.772c0-.222.183-.407.403-.407H6.12c.22 0 .404.185.404.407v5.772c0 .222-.184.407-.404.407zm0 6.586H.403c-.22 0-.403-.185-.403-.407v-5.772c0-.222.183-.407.403-.407H6.12c.22 0 .404.185.404.407v5.772c0 .222-.184.407-.404.407z"/>
        <path d="M6.12 6.623H.403c-.22 0-.403-.185-.403-.407V.444C0 .222.183.037.403.037H6.12c.22 0 .404.185.404.407v5.772c0 .222-.184.407-.404.407z" opacity=".6"/>
        <path d="M21.073 16.021h-5.717c-.22 0-.403-.185-.403-.407V9.842c0-.222.183-.407.403-.407h5.717c.22 0 .403.185.403.407v5.772c0 .222-.183.407-.403.407zm0 6.549h-5.717c-.22 0-.403-.185-.403-.407v-5.735c0-.222.183-.407.403-.407h5.717c.22 0 .403.185.403.407V22.2c0 .222-.183.37-.403.37zm0 6.586h-5.717c-.22 0-.403-.185-.403-.407v-5.772c0-.222.183-.407.403-.407h5.717c.22 0 .403.185.403.407v5.772c0 .222-.183.407-.403.407zm0 6.586h-5.717c-.22 0-.403-.185-.403-.407v-5.772c0-.222.183-.407.403-.407h5.717c.22 0 .403.185.403.407v5.772c0 .222-.183.407-.403.407zm6.524-19.721H21.88c-.22 0-.404-.185-.404-.407V9.842c0-.222.184-.407.404-.407h5.717c.22 0 .403.185.403.407v5.772c0 .222-.183.407-.403.407zM14.55 16.021H8.832c-.22 0-.403-.185-.403-.407V9.842c0-.222.184-.407.403-.407h5.718c.22 0 .403.185.403.407v5.772c0 .222-.183.407-.403.407z"/>
    </g>
</svg>
