<svg xmlns="http://www.w3.org/2000/svg" width="70" height="79" viewBox="0 0 70 79">
    <g fill="#FFF">
        <path d="M25.582 8.155c.127 0 .254-.064.318-.191.19-.255.382-.574.573-.829.127-.19.127-.382-.064-.51-.19-.127-.445-.127-.573.065-.19.254-.445.573-.636.891-.127.192-.064.383.127.51.064 0 .128.064.255.064m-2.673 5.67c.191.064.446-.064.446-.255.063-.318.19-.637.254-1.02.064-.19-.064-.445-.254-.509-.191-.064-.382.064-.446.255-.127.319-.19.7-.318 1.02 0 .254.064.445.318.509m.955-2.994c.19.063.445 0 .509-.191.127-.319.318-.638.445-.956.127-.191 0-.446-.19-.51-.192-.127-.446 0-.51.191-.19.319-.318.637-.445.956-.128.191 0 .446.19.51m3.692-5.16c.127 0 .19-.065.254-.128.255-.255.51-.51.764-.701.127-.127.19-.382.063-.573-.127-.128-.381-.192-.572-.064l-.764.764c-.127.128-.127.383 0 .574.064.127.127.127.255.127M22.4 16.947c.255 0 .382-.128.445-.319.064-.318.064-.7.128-1.02 0-.19-.128-.381-.318-.445-.191 0-.382.127-.446.318-.064.319-.127.701-.127 1.084-.064.19.127.382.318.382m29.973 1.02c-1.082-1.912-1.082-4.27 0-6.18H40.09c.509.955.764 1.974.764 3.121 0 1.083-.255 2.166-.764 3.122l12.282-.064"/>
        <path d="M20.745 72.12c.51-1.275 1.591-2.23 2.991-2.549-2.609-1.975-2.672-4.97-2.672-5.352 0-1.401.381-2.548 1.209-3.567 1.082-1.338.827-3.25-.51-4.333-.572-.446-1.208-.637-1.908-.637-.891 0-1.846.383-2.419 1.21-1.654 2.103-2.481 4.588-2.481 7.391 0 .7.127 5.16 3.5 8.792-9.291-1.784-15.273-6.817-16.991-14.717-2.928-13.506 7.827-32.747 28.063-41.22.7 1.975 2.673 3.25 4.837 3.25 3.054 0 5.536-2.486 5.536-5.48 0-1.21-.445-2.357-1.082-3.313C42 9.365 45.245 8.41 48.364 8.728c2.036.191 4.072 1.083 5.79 2.357-1.018 1.02-1.527 2.358-1.527 3.823 0 3.058 2.482 5.48 5.537 5.48 1.336 0 2.672-.51 3.69-1.403 2.928 3.76 4.71 8.601 4.964 14.208 0 .19.191.382.382.382.19 0 .382-.191.382-.382-.255-5.67-2.1-10.83-5.155-14.717.828-1.02 1.337-2.23 1.337-3.568 0-3.058-2.482-5.479-5.537-5.479-.827 0-1.59.191-2.29.51.063-.128.063-.255 0-.383-.192-.318-.382-.573-.573-.891-.128-.192-.382-.192-.51-.064-.19.127-.19.382-.127.51.191.254.382.573.573.891.064.064.19.128.255.192-.255.127-.51.318-.764.51-1.91-1.466-4.01-2.358-6.3-2.613-3.31-.318-6.746.7-10.118 3.058-1.018-1.02-2.418-1.593-3.882-1.593-3.055 0-5.536 2.421-5.536 5.48 0 .51.063 1.019.19 1.529-2.163.891-4.327 1.975-6.363 3.185v-.892c0-.191-.191-.382-.382-.382-.255 0-.382.19-.382.382v1.083c0 .064.064.191.127.255C6.11 29.88-2.036 46.572.573 58.74c1.845 8.537 8.463 13.825 18.772 15.482.446.382.955.764 1.528 1.147-.446-1.21-.51-2.294-.128-3.25m9.228-68.424c.063 0 .127 0 .19-.064.255-.19.573-.382.892-.573.19-.127.254-.318.127-.51-.127-.19-.318-.254-.51-.127-.317.191-.636.382-.89.573-.191.128-.191.383-.127.51.063.127.19.191.318.191m21.19 1.53c.128.127.382.127.573 0 .128-.192.128-.383-.063-.574-.255-.255-.573-.446-.828-.701-.19-.127-.381-.127-.572.064-.128.19-.128.382.063.51.319.254.573.445.828.7"/>
        <path d="M50.59 50.713c1.02.318 1.91 1.02 2.42 1.975.063.127.063.191.126.318 1.21-4.077 2.737-9.429 3.819-15.672-.955.828-2.228 1.147-3.437.892-1.145-.191-2.1-.892-2.736-1.911-1.018 5.925-2.482 10.958-3.627 14.908 1.081-.638 2.29-.829 3.436-.51m-2.8-47.846c.318.191.573.318.89.51.192.127.446.063.51-.128.127-.19.064-.446-.127-.51-.319-.19-.637-.382-.955-.51-.19-.127-.445-.063-.509.128-.064.128 0 .383.19.51m5.537 4.587c.128.191.382.191.573.064.19-.128.19-.383.064-.574-.255-.254-.446-.51-.7-.828-.128-.127-.382-.191-.573 0-.127.128-.191.382 0 .574.19.19.382.445.636.764m-8.336-5.861l.954.382h.128c.127 0 .318-.064.382-.255.063-.191 0-.446-.191-.51-.319-.127-.7-.254-1.019-.382-.19-.063-.445.064-.509.255-.063.255 0 .446.255.51M41.936.892c.319.064.7.127 1.019.191.19.064.445-.064.445-.318.064-.192-.064-.446-.318-.446C42.7.255 42.382.19 42 .127c-.19 0-.382.128-.445.319.063.255.19.446.381.446m-6.172.255h.063c.318-.064.7-.128 1.018-.191.191-.064.382-.255.319-.446C37.1.319 36.909.19 36.718.19c-.382.064-.7.128-1.082.191-.19.064-.318.255-.318.446.064.191.255.319.446.319m-3.055 1.02c.064 0 .127 0 .127-.065l.955-.382c.19-.064.318-.255.254-.51-.063-.254-.254-.318-.509-.254-.318.127-.7.254-1.018.382-.19.064-.318.318-.19.51.127.254.254.318.381.318M38.882.765H39.9c.19 0 .382-.192.382-.383 0-.19-.191-.382-.382-.382h-1.082c-.19 0-.382.191-.382.446.064.127.255.319.446.319m-2.737 56.51c.191 0 .382-.191.382-.382 0-.064 0-.128-.063-.191l-.446-.892c-.063-.191-.318-.255-.509-.191-.19.063-.254.318-.19.51l.445.891c.127.191.254.255.381.255M23.418 24.783c-.063-.191-.254-.318-.509-.255-.19.064-.318.255-.254.446.063.319.19.701.254 1.02.064.19.255.318.446.254.19-.063.318-.254.254-.446 0-.318-.127-.7-.19-1.019m11.645 29.689c.19-.128.254-.255.127-.51l-.446-.892c-.063-.191-.318-.255-.509-.191-.19.064-.254.319-.19.51l.445.892c.064.19.318.318.573.19m-12.6-33.065c-.191 0-.382.192-.319.446.064.319.064.701.128 1.083 0 .192.19.319.382.319h.063c.191 0 .382-.255.318-.446-.063-.318-.127-.7-.127-1.02 0-.254-.19-.382-.445-.382M37.8 59.505l-.445-.956c-.064-.19-.319-.255-.51-.19-.19.063-.254.318-.19.509l.445.892c.064.19.318.255.51.19.19 0 .254-.254.19-.445"/>
        <path d="M60.073 21.088c-2.1.7-4.391.255-6.11-1.21l-2.672 13.76c-.318 1.657.764 3.314 2.418 3.632.191.064.382.064.636.064 1.464 0 2.737-1.02 3.055-2.485l2.673-13.761m-26.41 30.644c.192-.127.255-.318.192-.51l-.446-.891c-.064-.191-.318-.255-.509-.191-.19.063-.255.318-.19.51 0 0 .317.7.445.891.063.255.318.319.509.191M67.39 37.398c.064-1.02 0-2.04 0-2.04.254-.127.509-.254.636-.381.128-.064.191-.192.191-.319v-.191s-.954.191-1.145.191c-.191 0-1.082-.382-1.082-.382v.19c0 .065 0 .192.127.32.127.127.318.318.573.445 0 0-.255.956-.382 1.975l-2.418-1.401s-.064.191-.064.382.064.255.128.319c1.336 1.401 2.227 2.102 2.227 2.102-.064.828-.064 1.147-.064 1.274 0 .255.127.765.382.765s.51-.446.51-.701c0-.127.063-.446.19-1.274 0 0 1.018-.446 2.61-1.593.063 0 .19-.127.19-.319v-.382l-2.61 1.02m-1.017 4.013c-.191-.063-.446.064-.446.319-2.1 9.875-8.59 20.642-19.027 26.885 1.91-3.121 3.755-7.39 5.536-13.06.51-1.657-.445-3.377-2.036-3.886-1.655-.51-3.373.446-3.882 2.038-2.036 6.626-4.009 10.703-5.918 13.316-.127-.192-.382-.192-.573-.064-.127.064-.19.255-.127.382.064.191.064.319.064.446-.191.255-.382.446-.573.637 1.59 1.21 2.482 3.122 2.482 5.097 0 .382-.064.7-.128 1.083 1.464-1.083 2.864-2.548 4.2-4.523C57.4 63.837 64.464 52.306 66.691 41.857c.064-.19-.064-.382-.318-.446"/>
        <path d="M35.318 68.042c-3.054 0-5.536 2.42-5.536 5.479 0 3.058 2.482 5.479 5.536 5.479 3.055 0 5.537-2.485 5.537-5.479s-2.482-5.48-5.537-5.48"/>
        <path d="M29.21 71.355c-1.337-.064-2.546-.319-3.565-.701-1.59-.573-3.372.191-4.009 1.784-.572 1.593.191 3.377 1.782 3.95 1.973.764 4.264 1.083 6.746 1.147-.891-1.147-1.4-2.549-1.4-4.014.063-.765.19-1.465.445-2.166m2.927-22.299c.191 0 .382-.19.382-.382 0-.064 0-.127-.063-.19l-.446-.893c-.064-.191-.318-.255-.509-.191-.19.064-.255.319-.19.51l.445.892c.127.19.254.254.381.254m-2.418-13.633c-1.782-.765-2.927-.956-2.927-.956-.255-.765-.382-1.083-.446-1.147-.063-.255-.445-.637-.7-.51-.254.064-.318.574-.19.829.063.127.063.446.381 1.21 0 0-.763.828-1.718 2.549 0 .063-.127.19-.063.318.063.191.19.382.19.382l1.973-1.91c.382.955.827 1.847.827 1.847-.19.19-.318.446-.445.573-.064.127-.064.255-.064.382l.064.191s.764-.573.955-.637c.19-.063 1.145-.063 1.145-.063l-.064-.191c-.063-.128-.127-.192-.254-.255-.255-.064-.446-.128-.7-.191 0 0-.191-1.02-.446-1.975l2.8.318-.127-.382c0-.319-.19-.382-.19-.382m-5.092 24.082c3.882 0 5.855 4.778 6.81 8.92 1.145-.829 2.481-1.275 3.881-1.275.827 0 1.591.127 2.355.446-1.4-6.371-4.964-14.207-13.046-14.207-1.845 0-3.5.446-4.963 1.401h.063c.891 0 1.846.319 2.546.892.827.637 1.4 1.657 1.527 2.74.064.446 0 .892-.064 1.338.255-.255.573-.255.891-.255m14 1.847c-.063-.19-.318-.318-.509-.19-.19.063-.318.318-.19.509l.381.956c.064.19.318.318.51.19.19-.063.317-.318.19-.509l-.382-.956m.7 4.078c.064.191.255.318.446.255.19-.064.318-.255.254-.446v-.064c-.127-.319-.19-.637-.318-.956-.064-.19-.318-.318-.509-.254-.19.063-.318.254-.255.51.191.318.255.636.382.955M29.018 41.857c-.19.064-.318.319-.19.51l.381.956c.064.19.318.254.51.19.19-.063.254-.318.19-.509l-.382-.956c-.127-.19-.318-.254-.509-.19M28 39.5c-.19.064-.318.319-.19.51l.19.51c.064.19.318.254.51.19.19-.063.317-.318.19-.51l-.19-.509c-.065-.191-.32-.255-.51-.191m-2.61-8.792c-.063-.191-.317-.318-.508-.191-.191.064-.318.318-.191.51l.19.51c.064.19.319.318.51.19.19-.063.318-.318.19-.51l-.19-.509m-1.082-2.93c-.064-.192-.254-.32-.509-.255-.19.063-.318.254-.255.51.128.318.255.636.319 1.019.063.127.19.254.381.254h.128c.19-.063.318-.318.254-.51-.127-.318-.254-.636-.318-1.019m6.173 18.285c.063.128.19.255.382.191.19 0 .381-.19.381-.382 0-.064 0-.127-.063-.191l-.446-.892c-.063-.191-.318-.255-.509-.191-.19.063-.254.318-.19.51l.445.955"/>
    </g>
</svg>
