<svg xmlns="http://www.w3.org/2000/svg" width="70" height="16" viewBox="0 0 70 16">
    <g fill="#FFF">
        <path d="M5.49 4.436c-1.18 0-2.285.219-3.169.619C1.474 5.455 0 6.69 0 9.09v6.545h2.763V9.71c0-.327.037-1.236.074-1.49.258-1.2 1.142-1.492 2.468-1.492h.442l.627-2.218c-.185-.036-.627-.073-.885-.073zM59.39 4.436c-1.18 0-2.285.219-3.169.619-.847.4-2.321 1.636-2.321 4v6.581h2.763V9.71c0-.327.037-1.236.074-1.49.258-1.2 1.142-1.492 2.468-1.492h.442l.627-2.218c-.185-.036-.627-.073-.885-.073zM29.99 6.8c-2.027-.764-2.911-1.31-2.911-2.436 0-.873.774-1.782 2.505-1.782 1.437 0 2.469.436 3.021.69l.663-2.181c-.773-.4-1.99-.764-3.647-.764-3.279 0-5.342 1.855-5.342 4.291 0 2.146 1.584 3.455 4.09 4.327 1.952.691 2.689 1.346 2.689 2.473 0 1.2-.995 2.037-2.763 2.037-1.437 0-2.763-.437-3.684-.946l-.627 2.255c.848.472 2.505.945 4.09.945 3.905 0 5.747-2.109 5.747-4.473.074-2.181-1.216-3.49-3.832-4.436zm9.652 6.655c-1.068 0-1.437-.691-1.4-2V6.69h1.916l.59-2.036h-2.506V1.6l-2.69 1.31v8.8c0 1.417.259 2.4.848 3.017.516.546 1.363.91 2.395.91.884 0 1.584-.146 2.026-.292l-.037-2.072c-.368.145-.626.182-1.142.182zM11.384 4.436c-3.5 0-5.342 2.8-5.342 5.782 0 3.273 2.1 5.455 5.637 5.455 1.584 0 2.874-.291 3.832-.691l-.406-1.855c-.847.328-1.768.473-3.02.473-1.77 0-3.317-.836-3.39-2.8h7.331c.037-.255.074-.618.074-1.127 0-2.364-1.142-5.237-4.716-5.237zm-2.69 4.51c.111-1.091.848-2.619 2.543-2.619 1.842 0 2.284 1.637 2.284 2.618H8.695zM70 9.673c0-2.364-1.142-5.237-4.716-5.237-3.5 0-5.342 2.8-5.342 5.782 0 3.273 2.1 5.455 5.637 5.455 1.584 0 2.874-.291 3.832-.691l-.406-1.891c-.81.327-1.768.473-3.02.473-1.77 0-3.317-.837-3.39-2.8h7.331c.037-.182.074-.582.074-1.091zm-7.442-.728c.11-1.09.847-2.618 2.542-2.618 1.842 0 2.284 1.637 2.284 2.618h-4.826zM47.084 4.436c-3.316 0-5.673 2.146-5.673 5.71 0 3.454 2.394 5.527 5.489 5.527 2.8 0 5.637-1.746 5.637-5.71 0-3.272-2.174-5.527-5.453-5.527zm-.073 9.273c-1.695 0-2.727-1.564-2.727-3.636 0-1.782.774-3.637 2.763-3.637 1.88 0 2.653 1.928 2.653 3.6 0 2.146-1.105 3.673-2.69 3.673zM19.968 4.764c-.994 0-1.694.727-1.694 1.745 0 .982.7 1.71 1.694 1.71h.037c1.032 0 1.695-.728 1.695-1.71-.037-1.018-.7-1.745-1.732-1.745zm0 7.2c-.994 0-1.694.727-1.694 1.745 0 .982.7 1.71 1.694 1.71h.037c1.032 0 1.695-.764 1.695-1.71-.037-1.018-.7-1.745-1.732-1.745z"/>
    </g>
</svg>
