<svg xmlns="http://www.w3.org/2000/svg" width="100" height="21" viewBox="0 0 100 21">
    <g fill="none">
        <path fill="#FFF" d="M98.933 10.334c.898.94 1.01 2.266.056 3.26-1.91 2.211-3.933 4.256-6.18 6.19-1.067.884-2.36.94-3.596.94L.73 20.779c-.224 0-.45-.221-.45-.442V3.757c0-.22.226-.441.45-.441.45 0 1.236-.055 1.573 0 3.315.276 6.349-.332 9.045-2.377.955-.663 2.191-1.05 3.483-.442h-.112c.056 0 .056.056.112.056.113.055.281.11.338.165 3.314 2.93 7.36 2.708 11.404 2.708 21.011-.055 42.023 0 63.034-.055.899 0 1.685.055 2.415.442.338.166.675.387 1.012.553.899.497 5.899 5.968 5.899 5.968zm-76.012 5.14c.113-2.708-.28-5.416-.337-8.235 0-.331-.112-.663.113-.994h.056c-.281 0-.506-.056-.674-.166l-1.854-1.16c-.394-.222-.843-.387-.9-.885-.505-.11-.954-.387-1.404-.663-.28-.166-.561-.442-.899 0-.112.055-.224.11-.337.11-.505-.11-.898-.442-1.067-.939.169-.331.169-.553-.28-.718-.394-.166-.9-.332-1.125-.719-.112-.166-.337-.22-.505-.166-.45.166-.899.111-1.292.387-.337.277-.843.498-.843 1.05 0 .11-.056.221-.112.332-.562.387-1.18.774-1.742 1.216-.899.608-1.798 1.27-2.753 1.768-.899.497-1.292 1.105-.73 2.045-.056.11-.112.22-.225.331-.337.498-.224 1.05-.28 1.603-.057 1.934.112 3.868-.057 5.803-.168.497-.393.994-.899 1.215-.168 0-.337-.055-.45-.165-.112-.11-.168-.277-.224-.442.112.663.562 1.105 1.236 1.381.674.276 1.405.387 2.191.387h12.135c.393 0 .786 0 1.18-.055 1.517-.277 2.022-.83 2.078-2.321zm5.955-3.371c1.63 0 2.64-.995 2.64-2.542v-.719h-2.471v1.105h.843v.056c0 .497-.394.773-.955.773-.787 0-1.236-.608-1.236-1.602 0-.995.393-1.548 1.123-1.548.45 0 .843.277.955.663h1.686C31.292 7.13 30.225 6.3 28.82 6.3c-1.742 0-2.81 1.05-2.81 2.874 0 1.879 1.068 2.929 2.865 2.929zm3.203-4.421h.056v4.255h1.629V9.782c0-.553.28-.885.899-.885.168 0 .337.056.45.11V7.683c-.113-.056-.225-.056-.394-.056-.506 0-.843.277-1.011.885h-.056v-.83h-1.573zm3.09 3.04c0 .773.674 1.325 1.46 1.325.506 0 1.011-.22 1.236-.663h.056v.553h1.573v-2.93c0-.828-.842-1.436-2.022-1.436-1.236 0-2.023.553-2.079 1.492h1.46c0-.22.226-.387.563-.387.28 0 .505.166.505.442v.221l-.955.056c-1.18.055-1.797.497-1.797 1.326zm2.809-.277c0 .331-.338.552-.73.552-.282 0-.45-.165-.45-.386 0-.222.224-.387.505-.387l.675-.056v.277zm2.19-2.763v4.2h1.63V9.505c0-.387.224-.663.618-.663.393 0 .618.276.618.719v2.376h1.629V9.174c0-.995-.562-1.603-1.517-1.603-.674 0-1.124.332-1.348.94h-.056v-.83h-1.573zm4.888 2.155c0 1.381.674 2.21 1.742 2.21.618 0 1.123-.386 1.292-.829h.056v.719h1.63V6.355h-1.63v2.1h-.056c-.169-.497-.674-.829-1.292-.829-1.124 0-1.742.83-1.742 2.21zm1.686 0c0-.608.28-.995.674-.995.393 0 .674.387.674.995 0 .663-.225.995-.674.995-.45 0-.674-.387-.674-.995zm3.82.552h2.584V9.063h-2.584v1.326zm3.54 1.603h1.685v-1.99h2.078V8.788h-2.078v-1.05h2.303V6.41H54.1v5.581zm4.55-5.581v5.581h1.629V6.411h-1.63zm2.135 3.426c0 1.437.842 2.266 2.303 2.266 1.46 0 2.303-.83 2.303-2.266 0-1.437-.899-2.266-2.303-2.266-1.405 0-2.303.884-2.303 2.266zm2.92 0c0 .718-.224 1.105-.673 1.105-.45 0-.674-.387-.674-1.105 0-.663.28-1.105.674-1.105.45 0 .674.386.674 1.105zm2.136-2.155h.056v4.255h1.63V9.782c0-.553.28-.885.898-.885.169 0 .337.056.45.11V7.683c-.113-.056-.225-.056-.394-.056-.505 0-.843.277-1.011.885h-.056v-.83h-1.573zm3.09 3.04c0 .773.674 1.325 1.46 1.325.506 0 1.011-.22 1.236-.663h.056v.553h1.573v-2.93c0-.828-.842-1.436-2.022-1.436-1.236 0-2.023.553-2.079 1.492h1.461c0-.22.225-.387.562-.387.28 0 .505.166.505.442v.221l-.955.056c-1.18.055-1.797.497-1.797 1.326zm2.809-.277c0 .331-.338.552-.73.552-.282 0-.45-.165-.45-.386 0-.222.225-.387.505-.387l.675-.056v.277zm2.247.773c0 .443.393.83.842.83.45 0 .843-.387.843-.83 0-.442-.393-.829-.843-.829-.449 0-.842.387-.842.83zm2.36-3.536h.055v4.255h1.63V9.782c0-.553.28-.885.899-.885.168 0 .337.056.449.11V7.683c-.112-.056-.225-.056-.393-.056-.506 0-.843.277-1.011.885h-.057v-.83h-1.573zm7.808 4.31h.056v-4.2h-1.629v2.376c0 .387-.28.664-.618.664-.393 0-.618-.277-.618-.719V7.737H79.72V10.5c0 .995.674 1.603 1.63 1.603.673 0 1.067-.332 1.235-.94v.83h1.573z"/>
        <path fill="#A6A6A6" d="M22.36 5.968c-.843-.94-2.08-1.215-2.978-2.044-.618-.332-2.472-1.437-3.315-1.935-.056-.055-.168-.11-.28-.165-.618-.332-1.18-.719-1.742-1.05-1.236-.387-2.023.387-2.865 1.05-.281.276-.169.442.168.497 1.236-.387 2.528-.829 3.764 0 .169.055.281.11.394.166.168.166 3.09 2.266 3.876 2.763 1.011.608 1.798 1.216 1.124 2.487.393.22.674.166.786-.276 0 0 .169-.111.056 0-.28 2.431.113 4.863-.224 7.46-1.124-.884-2.08-1.547-2.978-2.321-.843-.442-1.404-1.216-2.247-1.658-.45-.166-.843-.11-1.292-.166h-2.135c-.618.056-1.18-.165-1.798-.055-.562 1.05-1.517 1.658-2.416 2.321-.898.83-2.078 1.382-2.752 2.487-.113.332-.506.553-.506.995.056.11.169.165.28.22.282.056.563-.11.844-.276.618-.442 1.18-.94 1.854-1.326.898-.663 1.853-1.326 2.752-2.045 2.135-1.27 4.101-1.05 6.405.719.674.442 1.292.884 1.91 1.381.674.498 1.292.995 2.022 1.437.394.221.787.277 1.236.055.337-.276.394-.663.394-1.05V7.35c-.113-.442 0-.94-.337-1.382z"/>
        <path fill="#DBDBDB" d="M9.55 3.647c.619-.331 1.068-1.05 1.91-1.05 1.18-.22 1.293.664 1.686 1.271.337-.773.899-1.492 1.966-1.657.281 0 .506.11.618.386.337.277.674.553 1.012.774.618.829.393 1.658 0 2.487-.73.774-1.573.718-2.529.442-1.797-.553-3.146.11-3.82 1.879-.337.774-.674 1.492-1.685 1.603-.225 0-.393-.056-.562-.166-.73-.498-1.798-.719-1.966-1.824.168-2.21 1.067-2.763 3.37-2.155-.224-.663-.393-1.326 0-1.99z"/>
        <path fill="#F1EDED" d="M17.022 3.316c1.012.94 2.248 1.547 3.427 2.32 1.293.885 1.293.885.057 1.88-.113.055-.225.055-.337 0-.843-1.769-.843-1.769-3.315-1.437-.112 0-.225-.055-.337-.166.225-.829.393-1.713.225-2.542.056 0 .168 0 .28-.055z"/>
        <path fill="#A6A6A6" d="M22.303 7.295V5.968c.225 0 .394.056.506.277.393 3.15.618 6.244.506 9.394-.057 1.437-.675 2.266-2.191 2.377-3.708.331-7.472.11-11.18.11-1.405 0-2.81.166-4.214-.22-1.517-.443-1.966-.94-1.966-2.432 0-2.156-.112-4.31.506-6.41 0 1.989.056 3.978.056 6.023 0 .497-.056 1.05.28 1.492.563.553 1.293.718 2.08.718h13.82c1.854 0 2.247-.497 2.078-2.265-.224-2.598-.056-5.14-.28-7.737z"/>
        <path fill="#F1EDED" d="M8.37 13.263c-1.01.774-1.966 1.548-2.977 2.321 0-2.376.056-4.808 0-7.184 0-.718.281-.774.843-.608.618.663 1.348 1.16 2.079 1.603.28.331.056.552-.169.773-1.46 1.658-1.46 1.658.225 3.095z"/>
        <path fill="#A6A6A6" d="M22.809 15.087c.45 1.381-.28 2.542-1.685 2.597-5.057.055-10.057.055-15.113 0-.674 0-1.348-.22-1.404-1.05h.28c.113.055.17.055.282.11 3.09.277 6.18 0 9.325.111 2.248.056 4.55-.055 6.798.056.281 0 .506-.056.73-.166.281-.221.225-.553.281-.83.225-.33.169-.662.506-.828z"/>
        <path fill="#F1EDED" d="M9.55 3.647c-.056.83.17 1.603.506 2.542-.505-.165-.786-.276-1.123-.386-1.517-.387-2.248.11-2.416 1.713-.056.22-.169.276-.337.276-1.011-1.27-1.011-1.27.45-2.21.954-.664 1.91-1.271 2.92-1.935z"/>
        <path fill="#FFF" d="M11.348 2.321c1.292-.884 2.528-1.382 3.764 0-1.01.332-1.516 1.105-1.91 1.99-.562-.664-.899-1.493-1.798-1.714 0-.055 0-.165-.056-.276z"/>
        <path fill="#A6A6A6" d="M16.517 5.968c.056 0 .168.056.225.056-.169.773-.225 1.547.505 2.1.787.608.674 1.16.113 1.823-.225.277-.394.553-.506.885-.225.331-.45.663-.899.331-.45 0-.955 0-1.404-.055.056-.663.618-1.216.561-1.934-.112-.663-.28-1.271-1.067-1.492-.674-.166-1.405-.166-1.966.386-.506.553-.675 1.216-.281 1.88.168.386.562.663.505 1.16-.674.11-1.292-.055-1.91-.221-.955.055-1.573-.387-1.854-1.326 1.236-.277 1.573-1.327 1.742-2.322.056-.552.225-.663.73-.828 1.292-.443 2.472-1.216 3.877-.277.45.332 1.067-.055 1.629-.166z"/>
        <path fill="#DBDBDB" d="M8.54 9.616c.449.608 1.291.829 1.853 1.326.281.442.225.774-.224 1.05-.618.387-1.18.83-1.798 1.271-.787-.11-1.405-.497-1.63-1.326-.224-.884.394-1.326.956-1.824.224-.22.674-.276.618-.718.056.055.168.11.224.22zM10.393 12.932c1.967-1.271 5.281-1.603 6.91.884.394.497.281.995 0 1.547-1.01.94-1.629 1.05-2.584.276-.674-.497-1.011-.442-1.46.222-.225.331-.619.552-1.068.718-.506.11-.955-.055-1.348-.276-.506-.387-.955-.83-1.012-1.548 0-.718.281-1.27.562-1.823z"/>
        <path fill="#F1EDED" d="M20.169 7.516c.112 0 .224 0 .337.055.786-.11 1.123 0 1.067.995-.112 2.32-.056 4.642-.056 7.184-1.405-1.105-2.64-1.879-3.708-2.984.618-.387 1.742 0 1.966-1.105.225-1.05-.562-1.437-1.18-1.935-.168-.165-.224-.387-.112-.608.618-.497.899-1.27 1.686-1.602z"/>
        <path fill="#FFF" d="M12.303 11.163c-.73-.663-1.292-1.437-.955-2.487.225-.718.73-1.27 1.573-1.437 1.012-.165 1.854.111 2.36 1.05.562 1.106.168 2.1-.73 2.874h-2.248z"/>
        <path fill="#DBDBDB" d="M18.596 9.118c0 .277.168.443.449.553 1.011.442 1.46 1.271 1.067 2.321-.393 1.05-1.348 1.05-2.303.774-.787-.332-1.405-.83-1.854-1.603.393 0 .618-.166.787-.497.505-.719 1.123-1.271 1.741-1.824 0 0 .056.055.113.055.056.056.056.11 0 .221z"/>
        <path fill="#F1EDED" d="M10.955 16.082c.393.055.843.165 1.236.22 2.921-.11 5.843-.22 8.764.056.337.166.674.331 1.067.276-.28.608-.842.498-1.348.498H6.742c-.562 0-1.124-.056-1.573-.498.224-.11.505-.22.73-.331 1.63-.166 3.37.055 5.056-.221z"/>
        <path fill="#F1EDED" d="M20.955 16.358c-1.854.553-3.708.166-5.562.22-1.067.056-2.19.277-3.202-.275.169-.11.337-.166.45-.277.73-1.16 1.46-1.713 2.64-.331.393.497 1.236.055 1.798-.332.674-.11 1.404-.22 2.078-.276.618.331 1.236.774 1.798 1.27zM10.955 16.082c-1.63.994-3.37.552-5.056.22.562-.497 1.123-1.05 1.854-1.326.843.498 1.629 0 2.416-.22 0 .607.505.883.786 1.326z"/>
        <path fill="#F1EDED" d="M10.169 14.81c-.956 1.05-1.517 1.106-2.416.222.899-.664 1.798-1.382 2.696-2.045-.112.552-.224 1.216-.28 1.824z"/>
        <path fill="#FFF" d="M22.809 15.087c0 .331-.169.608-.506.774V7.35c.337.332.225.829.225 1.216-.112 2.155.225 4.31.281 6.52z"/>
        <path fill="#F1EDED" d="M19.101 15.032c-.618.718-1.348.663-2.079.276.281-.497.281-.995.225-1.547.843.22 1.349.828 1.854 1.27z"/>
        <path fill="#DBDBDB" d="M18.596 9.118c-.562.608-1.124 1.16-1.854 1.548-.281-.221 0-.387.112-.498.506-.718 1.18-1.27-.112-2.044-.506-.332-1.012-1.327 0-2.045 2.247-.94 3.314-.497 3.427 1.492-.338.718-.787 1.326-1.573 1.547z"/>
        <path fill="#222" d="M35.337 16.413l.506.11c-.113.222-.225.388-.394.553-.168.11-.393.166-.618.166-.28 0-.449-.055-.618-.22-.168-.167-.224-.333-.224-.609 0-.22.056-.442.112-.608.112-.166.225-.331.393-.442.169-.11.394-.166.618-.166.225 0 .45.056.562.166.169.11.225.276.225.498l-.506.055c0-.11-.056-.166-.112-.221-.056-.056-.112-.056-.225-.056-.112 0-.225.056-.28.111-.057.055-.17.166-.225.332-.057.165-.057.276-.057.442 0 .11.057.22.113.276.056.055.112.11.224.11.113 0 .169-.055.225-.11.169-.166.225-.276.281-.387zm.955-1.216h.562l-.112.387c0 .11-.057.221-.057.277 0 .055.057.165.113.165.056.056.168.056.28.056.113 0 .225 0 .338-.056l.168-.829h.506l-.393 1.935h-.562l.168-.774c-.168.055-.337.055-.505.055-.169 0-.337-.055-.45-.166-.112-.11-.168-.22-.168-.386 0-.111 0-.166.056-.277v-.055l.056-.332zm2.697.553l-.506-.055c.056-.166.169-.332.337-.387.169-.11.337-.166.618-.166.281 0 .45.055.562.166.112.11.169.22.169.387v.166c0 .055-.057.22-.113.552-.056.221-.056.387-.056.498 0 .11 0 .165.056.276h-.505c0-.055-.057-.166-.057-.221-.056.11-.168.166-.28.22-.113.056-.225.056-.338.056-.168 0-.28-.055-.393-.166-.112-.11-.168-.22-.168-.387 0-.165.056-.331.168-.442.113-.11.337-.165.618-.22.281 0 .45-.056.506-.056 0-.055.056-.11.056-.166 0-.055 0-.11-.056-.166-.056-.055-.113-.055-.225-.055s-.169 0-.225.055c-.056.056-.168.056-.168.111zm.505.497h-.112c-.28.056-.45.056-.506.166-.112.055-.112.11-.112.166 0 .055 0 .11.056.166.056.055.113.055.169.055.056 0 .168 0 .224-.055l.169-.166c.056-.055.056-.166.112-.276v-.056zm2.248.166l.505.11c-.112.222-.225.388-.393.553-.169.11-.393.166-.618.166-.28 0-.45-.055-.618-.22-.169-.167-.169-.388-.169-.664 0-.221.057-.442.113-.608.112-.166.225-.332.393-.442.169-.11.393-.166.618-.166.225 0 .45.055.562.166.168.11.225.276.225.497l-.506.056c0-.111-.056-.166-.112-.222-.057-.055-.113-.055-.225-.055-.113 0-.225.055-.281.11-.056.056-.169.167-.225.332-.056.166-.056.277-.056.442 0 .11.056.221.112.277.057.055.113.11.225.11s.169-.055.225-.11c.112-.11.168-.221.225-.332zm1.18-1.216h.505l-.056.221c.225-.165.393-.276.618-.276.168 0 .28.055.337.11.056.056.112.166.168.277.057-.11.169-.166.281-.276.113-.056.281-.11.394-.11.168 0 .28.054.393.11.112.11.112.22.112.331 0 .055 0 .166-.056.332l-.225 1.216h-.562l.281-1.216c.057-.166.057-.221.057-.277 0-.055 0-.11-.057-.11-.056-.055-.056-.055-.168-.055-.113 0-.281.055-.337.22-.056.111-.169.277-.169.553l-.225.885h-.561l.28-1.216c.057-.11.057-.221.057-.277 0-.055 0-.11-.056-.11-.057-.055-.113-.055-.169-.055-.056 0-.112 0-.168.055-.057.055-.113.055-.169.166-.056.055-.112.166-.112.22 0 .056-.057.167-.057.277l-.224.94h-.562l.45-1.935zm3.426 0h.562l-.168.83h.618c.224 0 .393.055.505.11.113.055.169.22.169.387 0 .22-.056.331-.225.497-.169.055-.337.11-.618.11h-1.236l.393-1.934zm.169 1.603h.393c.225 0 .337 0 .393-.055.057-.056.113-.11.113-.221 0-.11-.056-.166-.113-.166-.056 0-.224-.055-.393-.055h-.28l-.113.497zm3.652-.442H48.82v.055c0 .11.056.221.113.332.056.055.168.11.28.11.169 0 .338-.11.394-.276l.505.055c-.112.166-.224.332-.393.442-.168.11-.337.166-.506.166-.28 0-.505-.11-.674-.276-.168-.166-.224-.387-.224-.663 0-.277.056-.498.224-.719.225-.276.506-.442.9-.442.224 0 .449.055.561.221.169.166.225.332.225.608 0 .166 0 .276-.056.387zm-.45-.332c0-.055 0-.055 0 0 0-.22-.056-.331-.112-.387-.056-.055-.169-.11-.281-.11-.113 0-.225.055-.281.11-.112.111-.169.222-.169.387h.843zm3.09.387l.506.11c-.113.222-.225.388-.394.553-.168.11-.393.166-.618.166-.28 0-.45-.055-.618-.22-.168-.167-.224-.333-.224-.609 0-.22.056-.442.112-.608.112-.166.225-.331.393-.442.169-.11.394-.166.618-.166.225 0 .45.056.562.166.169.11.225.276.225.498l-.506.055c0-.11-.056-.166-.112-.221-.056-.056-.113-.056-.225-.056s-.225.056-.28.111c-.057.055-.17.166-.226.332-.056.165-.056.276-.056.442 0 .11.056.22.113.276.056.055.112.11.224.11.113 0 .169-.055.225-.11.169-.166.225-.276.281-.387zm2.809-1.713l.112-.387h.169c.45 0 .73.055.843.221.112.166.224.442.224.774 0 .553-.112.995-.28 1.326-.17.332-.506.553-.956.553-.28 0-.505-.055-.674-.221-.168-.166-.28-.332-.28-.608 0-.332.112-.608.336-.83.225-.22.506-.386.843-.386.112 0 .225 0 .281.055.112.056.168.11.28.166v-.166c0-.165-.055-.276-.112-.386-.112-.056-.224-.111-.449-.111h-.337zm.393.829c-.224 0-.393.11-.505.276-.113.166-.169.387-.169.553 0 .11.056.22.112.331.057.056.169.111.281.111.225 0 .337-.11.506-.332.168-.22.168-.386.168-.607 0-.111-.056-.222-.112-.277-.112 0-.168-.055-.28-.055zm1.124.829c0-.387.112-.663.337-.884.225-.221.506-.332.843-.332.28 0 .505.055.674.221.168.166.224.387.224.663 0 .332-.112.608-.337.83-.224.22-.505.33-.842.33-.169 0-.337-.054-.506-.11-.168-.055-.28-.165-.337-.331 0-.11-.056-.277-.056-.387zm1.573-.387c0-.11-.056-.221-.112-.276-.057-.056-.169-.11-.281-.11-.113 0-.225.054-.337.11-.113.055-.169.166-.225.331-.056.166-.056.277-.056.387 0 .166.056.276.112.332.056.11.169.11.28.11.17 0 .282-.055.394-.166.169-.276.225-.497.225-.718zm2.079.442l.505.11c-.112.222-.225.388-.393.553-.169.11-.393.166-.618.166-.281 0-.45-.055-.618-.22-.169-.167-.225-.333-.225-.609 0-.22.056-.442.113-.608.112-.166.224-.331.393-.442.168-.11.393-.166.618-.166.225 0 .45.056.562.166.168.11.224.276.224.498l-.505.055c0-.11-.056-.166-.113-.221-.056-.056-.112-.056-.224-.056-.113 0-.225.056-.281.111-.056.055-.169.166-.225.332-.056.165-.056.276-.056.442 0 .11.056.22.112.276.056.055.113.11.225.11s.168-.055.225-.11c.168-.166.224-.276.28-.387zm1.18-1.216h.505l-.056.221c.224-.165.393-.276.618-.276.168 0 .28.055.337.11.056.056.112.166.168.277.057-.11.169-.166.281-.276.113-.056.281-.11.393-.11.169 0 .281.054.394.11.112.11.112.22.112.331 0 .055 0 .166-.056.332l-.281 1.216h-.562l.281-1.216c.056-.166.056-.221.056-.277 0-.055 0-.11-.056-.11-.056-.055-.056-.055-.168-.055-.113 0-.281.055-.337.22-.057.111-.169.277-.169.553l-.169.885h-.561l.28-1.216c.057-.11.057-.221.057-.277 0-.055 0-.11-.056-.11-.057-.055-.113-.055-.169-.055-.056 0-.112 0-.169.055-.056.055-.112.055-.168.166-.056.055-.112.166-.112.22 0 .056-.057.167-.057.277l-.168.884h-.562l.393-1.879zm3.82.553l-.506-.055c.056-.166.168-.332.337-.387.169-.11.337-.166.618-.166.28 0 .45.055.562.166.112.11.168.22.168.387v.166c0 .055-.056.22-.112.552-.056.221-.056.387-.056.498 0 .11 0 .165.056.276h-.506c0-.055-.056-.166-.056-.221-.056.11-.168.166-.28.22-.113.056-.225.056-.338.056-.168 0-.28-.055-.393-.166-.112-.11-.169-.22-.169-.387 0-.165.057-.331.169-.442.112-.11.337-.165.618-.22.28 0 .45-.056.505-.056 0-.055.057-.11.057-.166 0-.055 0-.11-.057-.166-.056-.055-.112-.055-.224-.055-.113 0-.169 0-.225.055-.056.056-.168.056-.168.111zm.505.497h-.112c-.281.056-.45.056-.506.166-.056.055-.112.11-.112.166 0 .055 0 .11.056.166.056.055.112.055.169.055.056 0 .168 0 .224-.055l.169-.166c.056-.055.056-.166.112-.276v-.056zm2.472-.11c.112.055.225.11.28.166.057.055.113.165.113.276 0 .166-.056.276-.224.442-.169.11-.394.166-.73.166-.282 0-.506-.055-.675-.221-.168-.166-.225-.387-.225-.608 0-.332.113-.608.281-.83.225-.22.506-.33.9-.33.28 0 .449.055.56.165.113.11.17.221.17.387 0 .11-.057.221-.113.332-.056 0-.168.055-.337.055zm-1.011.166c0 .165.056.276.112.386.056.111.169.111.393.111.113 0 .225 0 .281-.055.057-.056.113-.11.113-.166 0-.055-.056-.166-.113-.166-.056-.055-.168-.055-.224-.055h-.562v-.055zm.056-.277h.393c.225 0 .337 0 .394-.055.056-.055.112-.11.112-.221 0-.055 0-.11-.056-.166-.056-.055-.113-.055-.225-.055-.169 0-.337.055-.393.11-.056.056-.225.222-.225.387zm2.135-.829h.505l-.168.83c.112 0 .168 0 .225-.056.056-.055.112-.11.168-.221.169-.276.281-.387.337-.442.056-.055.225-.11.393-.11h.113l-.056.386h-.057c-.056 0-.112 0-.112.055l-.112.111c-.113.166-.225.276-.281.332-.056.055-.112.055-.225.11.113 0 .225.11.281.332l.169.663h-.506l-.169-.608c-.056-.11-.056-.166-.112-.221-.056-.055-.112-.055-.225-.055l-.168.829h-.506l.506-1.935zm1.629 1.16c0-.386.112-.662.337-.883.225-.221.506-.332.843-.332.28 0 .505.055.674.221.169.166.225.387.225.663 0 .332-.113.608-.337.83-.225.22-.506.33-.843.33-.169 0-.337-.054-.506-.11-.168-.055-.28-.165-.337-.331-.056-.11-.056-.277-.056-.387zm1.517-.386c0-.11-.056-.221-.112-.276-.057-.056-.169-.11-.281-.11-.113 0-.225.054-.337.11-.113.055-.169.166-.225.331-.056.11-.056.277-.056.387 0 .166.056.276.112.332.056.11.169.11.28.11.17 0 .282-.055.394-.166.169-.276.225-.497.225-.718zm1.18-.774h.561l-.224 1.16c-.056.167-.056.222-.056.277 0 .055 0 .11.056.166.056.055.112.055.168.055h.169c.056 0 .112-.055.168-.055.057-.055.113-.055.113-.11 0-.056.056-.111.112-.166 0-.056.056-.166.056-.277l.225-.94h.562l-.393 1.99h-.506l.056-.276c-.225.221-.45.332-.73.332-.169 0-.281-.056-.394-.166-.112-.11-.168-.221-.168-.387 0-.055 0-.221.056-.387l.169-1.216zm.393-.829h.28c.057.11.057.166.113.221.056.056.113.056.169.056.168 0 .28-.11.393-.277h.225c-.056.166-.113.277-.225.387-.112.11-.225.166-.393.166-.169 0-.281-.055-.337-.11-.057-.056-.225-.222-.225-.443zM30 16.8c-.506 0-.955-.387-.955-.94 0-.497.393-.939.955-.939.506 0 .955.387.955.94 0 .552-.45.939-.955.939zm50.618 0c-.506 0-.955-.387-.955-.94 0-.497.393-.939.955-.939.506 0 .955.387.955.94 0 .552-.393.939-.955.939z"/>
    </g>
</svg>
