<svg xmlns="http://www.w3.org/2000/svg" width="100" height="29" viewBox="0 0 100 29">
    <g fill="#FFF">
        <path d="M48.309 5.156c-.007-.135-.105-.229-.244-.229h-3.354c-.142.006-.268.095-.323.229L39.25 18.28c-.073.18.04.355.217.355h3.06c.15-.005.283-.107.328-.255l2.493-7.666.119 7.666c-.005.068.019.135.066.183.046.05.11.075.178.072h2.881c.184 0 .349-.174.342-.356L48.31 5.156zm-12.435 8.19h-2.993c-.138-.014-.224-.155-.197-.323l.46-2.625c.02-.167.151-.302.29-.302h3.092c0-.04.007-.074.007-.114 0-.134-.007-.275-.02-.423-.013-.134-.04-.268-.072-.396-.035-.122-.079-.241-.132-.356V8.8l-.006-.006c-.053-.114-.119-.215-.19-.302-.08-.093-.17-.174-.27-.242-.104-.07-.217-.122-.336-.154-.143-.036-.288-.056-.435-.06-.131 0-.263.006-.388.02-.128.012-.256.035-.381.067-.125.027-.25.06-.362.1-.115.038-.227.083-.336.135-.013.006-.026.013-.04.013-.138.04-.262-.054-.276-.215l-.223-2.39c-.02-.147.059-.315.19-.376.106-.053.23-.1.356-.154.131-.054.263-.1.394-.141.145-.047.303-.094.455-.134.144-.034.302-.067.486-.1.178-.035.356-.055.54-.068.177-.013.375-.027.579-.027h.006c.323 0 .625.027.902.08.51.093.992.3 1.414.605.19.141.368.309.52.49.15.181.29.376.4.584.12.208.218.437.297.671.08.236.145.477.198.732.053.257.093.517.118.779.026.268.04.53.046.799.007.255 0 .523-.02.792v.02c-.02.268-.044.537-.072.805-.033.255-.066.51-.112.765l-.007.027c-.098.55-.223 1.074-.374 1.565-.146.471-.326.931-.54 1.376-.21.43-.434.825-.678 1.181-.237.351-.506.68-.802.98-.29.295-.593.55-.901.772-.611.432-1.3.736-2.027.893-.349.074-.704.107-1.06.107h-.012c-.178 0-.362-.013-.54-.027-.166-.011-.33-.034-.493-.067-.158-.033-.303-.06-.434-.094-.127-.033-.252-.07-.376-.113h-.006c-.104-.037-.207-.078-.31-.121-.105-.048-.19-.088-.256-.121-.112-.06-.151-.215-.099-.363l.928-2.49c.007-.014.013-.034.02-.047.072-.155.23-.228.349-.168.092.047.184.094.282.128.092.033.191.067.297.094h.013c.105.026.224.046.335.06.122.013.245.02.369.02.197 0 .381-.02.552-.06.158-.034.31-.088.441-.155l.013-.007c.138-.066.268-.147.388-.241.117-.093.225-.196.323-.31.098-.12.19-.24.276-.375.085-.134.158-.275.23-.423.073-.154.132-.302.191-.45v-.006l.02-.108zm19.487-3.364h2.546c.139.013.224.155.198.322l-.434 2.47c-.02.169-.152.303-.29.303h-2.566l-.414 2.35h2.888c.138.013.224.154.197.315l-.453 2.584c-.02.168-.152.302-.29.302h-6.098c-.139-.013-.224-.154-.198-.322l2.296-13.083c.02-.168.152-.303.29-.303h5.908c.138.014.223.155.19.323l-.454 2.584c-.02.168-.15.302-.29.302h-2.696l-.329 1.853zm14.316 8.646h-2.612c-.138 0-.23-.134-.21-.302l.506-4.101v-.007c.033-.242.066-.55.105-.873l.04-.308v-.014l.052-.376-.059.154-.217.578-.053.14c-.092.236-.164.437-.23.592l-1.612 4.014c-.045.127-.15.221-.27.221h-2.13c-.12 0-.211-.1-.218-.241l-.171-4.035-.013-.308v-.027l-.007-.403v-.007l-.006-.436v-.02l-.007-.41-.138.591-.145.618v.006l-.125.55v.014l-.928 4.108c-.032.148-.15.262-.282.262h-2.494c-.013 0-.026 0-.04-.007-.13-.026-.21-.18-.164-.342l3.283-13.09c.033-.155.152-.269.283-.269h3.086c.118 0 .217.1.217.249l.079 4.195v.014c.02.765.032 1.316.046 1.88l.013.496c.007.242.007.484.007.739.079-.249.164-.497.256-.76.132-.375.27-.764.415-1.18l.434-1.209 1.553-4.195c.039-.135.15-.236.269-.236h3.066c.138 0 .23.135.217.303L69.98 18.279v.02c-.039.202-.164.336-.302.33zm6.895-8.646h2.546c.138.014.224.155.197.322l-.434 2.47c-.02.169-.151.303-.29.303h-2.565l-.414 2.35h2.894c.138.013.224.154.19.315l-.453 2.584c-.02.168-.151.303-.29.303h-6.11c-.14-.014-.225-.155-.198-.322L73.94 5.223c.02-.168.151-.302.289-.302h5.902c.138.013.223.154.197.322l-.454 2.584c-.02.168-.151.303-.29.303h-2.697c.007.006-.315 1.852-.315 1.852h-.001zm3.388 8.331l2.29-13.084c.019-.167.15-.302.289-.302h2.968c.138.014.224.154.197.323l-.836 4.772h1.671l.843-4.793c.02-.167.151-.302.29-.302h2.966c.138.014.224.154.198.323l-2.29 13.083c-.02.168-.151.302-.29.302h-2.973c-.138-.013-.224-.154-.197-.322l.855-4.887h-1.665l-.861 4.907c-.02.168-.152.302-.29.302h-2.967c-.139-.013-.224-.16-.197-.322h-.001zm15.204.316h-2.967c-.138-.014-.223-.155-.197-.322l1.75-9.983h-1.974c-.138-.013-.223-.154-.197-.322l.487-2.78c.02-.167.15-.301.29-.301h7.447c.138.013.223.154.19.322l-.486 2.779c-.02.168-.152.302-.29.302h-2.013l-1.75 10.002c-.02.175-.151.303-.29.303z"/>
        <path d="M18.72 12.474c-.087-.135-.183-.26-.286-.377-.723-.812-2.013-1.363-3.099-1.363l.38-1.651h5.304l.002-.007h.005l.75-4.176H13c-.188.008-.35.138-.401.323l-1.546 8.706c-.027.108-.007.215.06.296.069.078.174.114.275.093.53-.075 1.114-.094 1.645-.004 1.064.182 1.912.803 1.67 2.28-.008.055-.018.108-.029.16-.165.768-.592 1.332-1.222 1.639-.549.235-1.203.26-1.83.262H8.842l-.684 3.847h2.375c.006 0 .013 0 .013.006.105 0 .21 0 .322-.006h.198c.04 0 .086 0 .125.006.433.013.86 0 1.28-.04 1.024-.09 1.927-.332 2.713-.687 1.512-.67 2.753-1.805 3.5-3.43.519-1.08.756-2.239.736-3.302.006-1.011-.226-1.873-.7-2.575zm-7.371 15.97v-.068h-.638c-.544-.07-1.082-.175-1.613-.316v-.04h-.137c-.125-.034-.25-.074-.382-.114v-.068h-.204c-.164-.053-.322-.113-.487-.174v-.007h-.013c-.592-.224-1.167-.496-1.717-.812v-.074h-.125l-.217-.134v-.047h-.073c-.332-.208-.655-.432-.967-.672v-.033h-.04c-.348-.268-.677-.564-1-.873V25h-.012l-.165-.161v-.013h-.013l-.158-.169v-.013h-.013l-.164-.175c-.244-.268-.474-.55-.692-.838v-.048h-.032c-.105-.14-.21-.288-.316-.443v-.087h-.06L2 22.878c-.25-.397-.48-.806-.691-1.229v-.006h-.006c-.119-.25-.237-.504-.342-.766v-.12H.914l-.125-.33V20.4H.783c-.125-.349-.237-.711-.336-1.074v-.16h-.04c-.047-.192-.09-.385-.13-.578v-.309h-.06c-.224-1.255-.273-2.537-.145-3.806v-.013l.026-.242h.007v-.034c.033-.288.072-.57.125-.852h.053v-.269c.04-.208.085-.41.131-.617h.04v-.161c.093-.361.196-.72.31-1.074h.025v-.101c.046-.141.1-.289.152-.43h.02v-.06l.111-.295h.06v-.142c.052-.127.111-.261.164-.39h.007v-.012c.052-.114.105-.229.158-.336h.019v-.04c.105-.229.217-.45.336-.665h.007v-.013c.091-.175.19-.343.29-.517h.052v-.094l.158-.255h.012v-.027c.106-.168.218-.336.33-.503h.032v-.02c.418-.615.877-1.198 1.375-1.746h.014V5.55l.15-.16h.02v-.02l.146-.155h.026v-.027l.145-.148h.026v-.027l.151-.147h.02v-.02l.164-.155h.013V4.68c.257-.242.52-.47.79-.698h.079v-.068l.138-.113h.033v-.027c.217-.174.438-.342.664-.504h.026v-.02c.441-.309.895-.598 1.362-.866h.02v-.014l.303-.167h.046v-.027l.296-.155h.052v-.027l.316-.154h.033v-.013c.408-.188.83-.363 1.25-.517h.132v-.047c.131-.047.263-.087.388-.128h.132v-.04c.158-.047.316-.094.467-.134h.052V.946c.225-.06.45-.114.678-.16h.013c.323-.07.648-.128.974-.175h.579V.537c.452-.046.907-.069 1.362-.067h14.802l-2.42 13.996-.047.269h-.02v.107c-.04.201-.085.403-.131.604h-.046v.188c-.04.175-.086.35-.132.517h-.04v.148c-.052.188-.111.376-.164.557h-.007v.02c-.052.175-.111.342-.17.51v.007c-.106.295-.218.59-.336.88h-.013v.033l-.132.316h-.04v.087l-.118.268h-.052v.115c-.208.44-.432.872-.671 1.295h-.02v.034c-.092.167-.198.329-.296.497h-.053v.08l-.17.269-.113.174h-.072v.087c-.268.394-.551.777-.849 1.148h-.02v.02l-.124.155h-.046v.054c-.562.677-1.175 1.308-1.836 1.886h-.065v.053l-.139.121h-.033v.027c-.204.175-.414.343-.631.504h-.066v.047c-.492.366-1.004.705-1.533 1.013h-.026v.014c-.099.054-.198.107-.29.161h-.052v.027l-.283.148h-.066v.033l-.296.148h-.046v.02c-.112.054-.224.107-.336.154h-.007v.007c-.29.127-.579.242-.874.35h-.165v.06l-.355.12h-.165v.047c-.144.047-.296.087-.44.128h-.08v.02c-.564.147-1.138.257-1.716.329h-.533v.053c-.388.034-.783.054-1.184.054-.362.054-.718.04-1.067.014z" opacity=".6"/>
        <path d="M98.849 22.972l.098-.578c.007-.04.014-.087.02-.14.007-.055.013-.108.026-.168.007-.054.02-.114.026-.168l.02-.155h.014c.015.105.028.21.04.316.006.054.012.114.025.161l.02.141.086.577c.006.014-.376.014-.376.014zm.427.416l.119.631h.507l-.527-2.76h-.631l-.586 2.76h.507l.118-.631h.493zm-3.052-2.128v2.759h.513v-1.168h.04c.071 0 .124.02.17.067.046.04.08.107.106.182.026.08.052.174.072.282.02.107.04.214.066.328.02.108.052.215.085.316h.52c-.04-.128-.073-.258-.099-.39-.026-.134-.052-.261-.085-.396-.027-.114-.053-.215-.086-.309-.028-.087-.076-.167-.138-.234-.06-.07-.138-.123-.224-.155l.619-1.268h-.58l-.44 1.201h-.04v-1.201h-.5v-.014zm-2.375 0v2.759h.487l.395-1.047c.026-.08.058-.168.092-.262l.098-.282c.032-.088.058-.177.079-.268h.007c-.007.14-.02.308-.026.516-.007.209-.014.45-.014.725v.625h.46v-2.76h-.48l-.394 1.068c-.02.054-.046.114-.066.181-.026.067-.053.142-.08.215l-.078.221-.066.195h-.007c.007-.094.014-.208.027-.342l.02-.436c.006-.155.006-.323.006-.49v-.611c.007-.007-.46-.007-.46-.007zm-2.382 0v2.759h.527v-1.155h.545v1.155h.527V21.26h-.527v1.108h-.546V21.26h-.526zm-.533 2.753l-.532-1.39.506-1.37h-.526l-.138.504c-.013.047-.027.1-.033.147-.014.047-.027.095-.04.148-.015.054-.028.107-.04.161h-.006c-.018-.074-.038-.148-.06-.221-.018-.072-.038-.144-.058-.215l-.158-.51h-.546l.486 1.35-.506 1.409h.52l.144-.497.06-.241c.02-.081.04-.169.066-.256h.013c.02.087.046.175.072.256.02.08.046.16.073.241l.17.51h.533v-.026zm-2.178-1.652h-.611v-.631h.651v-.463h-1.178v2.759h1.218v-.463h-.691v-.745h.612v-.457zm-2.743 1.652h.526V21.75h.48v-.497h-1.486v.497h.48v2.263zm-5.69-1.518c-.014 0-.027.007-.034.007h-.039c-.07.001-.138-.017-.197-.054-.056-.037-.1-.088-.132-.148-.033-.07-.05-.149-.046-.228 0-.053.007-.107.02-.154.012-.049.035-.095.066-.134.029-.04.067-.072.111-.094.05-.022.104-.034.158-.034h.06c.016 0 .032.005.046.013-.013.007-.013.826-.013.826zm-.534 1.518c.019-.04.034-.08.046-.121.013-.04.027-.08.033-.121.014-.054.02-.115.034-.182.006-.073.02-.14.032-.214.013-.075.027-.142.046-.209.013-.056.038-.108.073-.154.024-.032.055-.057.092-.074.04-.016.082-.025.124-.026h.06v1.1h.526v-2.718c-.085-.014-.177-.027-.276-.04-.1-.009-.202-.013-.303-.014-.138 0-.263.013-.381.047-.11.03-.213.083-.303.154-.052.041-.096.091-.131.148-.04.061-.07.13-.086.201-.02.074-.033.161-.033.255 0 .114.02.222.06.31.04.087.092.16.164.22.072.061.151.101.243.135v.007c-.035.012-.068.03-.098.053-.034.021-.065.046-.093.074-.052.054-.085.114-.118.188-.026.067-.053.148-.066.228-.02.08-.032.161-.046.242-.013.08-.026.154-.046.228-.013.054-.033.107-.046.155-.02.046-.033.094-.052.14-.007-.012.545-.012.545-.012zm-2.02-1.041l.1-.578c.006-.04.013-.087.019-.14.007-.055.02-.108.026-.168.007-.054.013-.114.027-.168.006-.054.013-.108.026-.155h.014c.015.105.028.21.039.316.006.054.013.114.026.161.007.054.013.1.02.141l.086.577c.006.014-.383.014-.383.014zm.435.416l.119.631h.506l-.526-2.76h-.632l-.585 2.76h.506l.119-.631h.493zm-2.645-.597h.112c.073 0 .138.013.19.046.06.034.106.081.146.142.04.06.052.14.052.234.002.082-.016.163-.052.236-.03.059-.08.106-.139.134-.06.033-.128.049-.197.047h-.066c-.02 0-.04-.007-.052-.007l.006-.832zm0-1.128c.019-.01.039-.014.06-.013.026-.007.052-.007.078-.007.073 0 .126.013.171.046.046.031.08.076.1.128.019.054.032.114.032.182.002.07-.014.14-.046.201-.026.057-.067.106-.118.14-.053.035-.105.048-.171.048h-.112c.006.006.006-.725.006-.725zm-.526 2.343c.06.013.132.02.217.026.086.007.178.007.276.007.151 0 .283-.014.395-.033.112-.02.21-.054.29-.094.078-.04.15-.094.197-.155.064-.068.115-.148.15-.235.034-.094.054-.194.054-.302 0-.1-.02-.201-.053-.289-.035-.087-.089-.165-.158-.228-.075-.069-.165-.117-.263-.14v-.014c.086-.04.158-.094.217-.155.06-.06.1-.134.132-.207.026-.075.04-.155.04-.242 0-.094-.014-.188-.047-.276-.033-.086-.087-.163-.158-.22-.06-.054-.129-.095-.204-.122-.074-.027-.152-.047-.23-.06-.08-.014-.164-.014-.25-.014-.112 0-.217.007-.322.014-.093.005-.186.019-.277.04v2.699h-.006zm-1.507-2.31c.059 0 .115.028.151.074.04.047.073.114.1.202.026.096.043.195.052.295.006.108.013.221.013.35 0 .14-.007.268-.02.389-.013.113-.026.22-.053.308-.026.087-.058.155-.098.202-.035.046-.088.073-.145.073-.105 0-.19-.08-.243-.241-.06-.154-.086-.396-.086-.705 0-.201.014-.37.04-.51.026-.141.059-.249.111-.322.047-.08.106-.115.178-.115zm.027-.47c-.119 0-.23.027-.323.075-.097.049-.183.12-.25.207-.076.092-.136.197-.177.31-.046.12-.086.24-.106.382-.021.144-.032.29-.033.436 0 .155.007.295.027.437.02.14.052.268.092.39.046.12.099.22.164.314.066.088.145.155.244.209.092.046.204.073.322.073.132 0 .25-.027.355-.08.106-.054.198-.141.277-.255.079-.114.138-.269.178-.457.04-.188.065-.41.065-.664.001-.128-.007-.256-.026-.383-.016-.125-.042-.249-.079-.369-.038-.112-.09-.219-.158-.316-.064-.087-.144-.16-.237-.215-.1-.065-.217-.098-.335-.094zm-2.369 2.787h.527V21.75h.48v-.497h-1.48v.497h.48v2.263h-.007zm-1.598-2.753v2.759h.526V21.26h-.526zm-1.218 1.457c.02-.007.034-.007.053-.007h.06c.067 0 .132.019.19.053.053.04.092.094.125.161.027.068.046.148.046.236.002.076-.014.152-.046.221-.029.065-.074.12-.131.161-.056.041-.123.062-.191.06h-.046c-.02 0-.033-.006-.053-.006l-.007-.88zm-.526-1.457v2.746c.06.013.132.02.21.026.08.007.165.007.25.007.191 0 .356-.026.5-.074.145-.053.264-.12.356-.221.073-.074.125-.161.165-.268.042-.116.062-.24.059-.363 0-.128-.02-.242-.06-.343-.038-.098-.097-.187-.17-.261-.075-.075-.165-.133-.264-.168-.105-.041-.216-.062-.329-.06-.033 0-.059 0-.098.006-.033.007-.066.007-.099.013v-1.033h-.52v-.007zm-1.697 1.457c.039-.009.078-.013.118-.014.06 0 .112.014.158.034.046.026.086.053.125.094.034.042.061.09.08.14.019.054.026.115.026.175.001.06-.008.119-.027.175-.016.05-.04.099-.072.141-.033.042-.076.074-.125.094-.051.025-.108.037-.165.033h-.059c-.02 0-.04-.007-.052-.007-.007.014-.007-.865-.007-.865zm-.527-1.457v2.746c.06.013.132.02.217.026.086.007.172.007.277.007.19 0 .362-.02.506-.074.145-.046.264-.12.356-.221.072-.074.125-.161.164-.268.04-.108.06-.222.06-.357 0-.14-.027-.261-.073-.369-.044-.102-.11-.193-.19-.268-.075-.07-.162-.122-.257-.155-.1-.033-.21-.053-.323-.053-.04 0-.072 0-.105.007-.033.006-.066.006-.105.013v-.577H67v-.457h-1.382zm-13.04 1.718l.1-.577.02-.14c.006-.055.013-.108.026-.169.007-.06.02-.114.026-.167.007-.054.013-.108.026-.155h.013c.016.105.029.21.04.316.006.053.013.114.02.16.006.054.013.102.02.142l.085.577h-.375v.013zm.429.423l.118.631h.507l-.527-2.759h-.631l-.586 2.76h.507l.118-.632h.494zm-3.053-2.134v2.759h.513v-1.169h.04c.072 0 .125.02.17.068.047.04.08.107.106.181.026.08.052.175.072.282.02.107.046.215.066.322.02.108.053.215.086.316h.52c-.04-.128-.074-.258-.1-.39-.026-.134-.052-.261-.085-.396-.026-.114-.053-.215-.086-.309-.03-.086-.077-.166-.138-.234-.059-.072-.136-.125-.223-.155l.618-1.275h-.579l-.434 1.202h-.04v-1.202h-.506zm-2.375 0v2.759h.487l.395-1.054c.033-.08.059-.168.098-.262l.099-.282c.033-.094.06-.181.079-.269h.007c-.007.141-.02.309-.027.517-.006.209-.013.45-.013.725v.624h.46v-2.758h-.48l-.395 1.067c-.019.053-.045.114-.065.181-.027.067-.053.141-.08.215l-.078.221c-.027.074-.046.135-.066.195h-.007c.016-.26.03-.519.04-.778.006-.155.013-.323.013-.49v-.611h-.467zm-2.382 0v2.759h.527v-1.155h.552v1.155h.527v-2.76h-.527v1.109h-.552v-1.108h-.527zm-1.506.436c.059 0 .112.027.151.074.04.047.073.114.1.201.025.088.038.188.052.296.006.113.012.228.012.349 0 .14-.006.268-.02.389-.007.104-.025.208-.052.309-.026.087-.059.154-.098.201-.035.046-.088.074-.145.074-.105 0-.191-.08-.244-.241-.052-.155-.085-.397-.085-.705 0-.202.013-.37.04-.51.026-.142.059-.25.105-.323.052-.074.111-.114.184-.114zm.02-.463c-.222-.002-.433.1-.573.275-.072.087-.131.188-.177.309-.046.114-.086.241-.106.382-.02.142-.04.282-.04.437 0 .154.014.295.034.436.02.141.053.269.092.39.039.12.098.22.164.308s.145.161.243.209c.093.046.205.073.323.073.132 0 .25-.027.355-.08.106-.054.204-.142.277-.262.079-.114.138-.268.178-.45.038-.188.065-.41.065-.665 0-.127-.007-.254-.027-.382-.017-.126-.046-.25-.085-.37-.037-.109-.088-.212-.15-.308-.065-.087-.146-.16-.238-.215-.092-.06-.204-.087-.335-.087zm-2.388.47c.02-.007.032-.014.059-.014.02-.007.045-.007.072-.007.085 0 .144.02.197.061.053.04.086.087.112.154.046.15.044.309-.006.457-.024.065-.068.122-.125.16-.065.044-.14.065-.217.061h-.047c-.013 0-.026 0-.045-.007v-.865zm-.527 2.316h.527v-1.027c.02 0 .032.007.052.007h.053c.16.001.318-.038.46-.114.073-.04.139-.09.197-.148.073-.074.126-.168.165-.275.04-.108.059-.236.059-.39 0-.08-.006-.154-.026-.228-.017-.073-.043-.143-.08-.208-.032-.065-.077-.121-.13-.168-.058-.055-.125-.098-.198-.128-.072-.033-.158-.053-.243-.067-.093-.013-.185-.02-.29-.013-.099 0-.197.007-.296.013-.087.006-.172.02-.257.04l.007 2.705v.001zm-1.599 0h.527v-2.263h.48v-.496h-1.48v.496h.48v2.262l-.007.001zm-2.434-2.76v2.76h.513v-1.169h.04c.072 0 .125.02.17.068.047.04.08.107.106.181.026.08.053.175.073.282.02.107.046.215.065.322.02.108.053.215.086.316h.52c-.04-.128-.073-.258-.1-.39-.025-.134-.052-.261-.085-.396-.026-.114-.053-.215-.085-.309-.03-.086-.077-.166-.139-.234-.06-.07-.137-.123-.223-.155l.618-1.275h-.579l-.434 1.202h-.04v-1.202h-.506zm-.757 1.109h-.611v-.638h.651v-.47h-1.178v2.759h1.218v-.47h-.691v-.745h.612v-.437zm-3.329-1.108v1.242c0 .18-.006.335-.012.463-.007.127-.033.241-.06.328-.022.08-.062.154-.118.215-.026.02-.053.04-.085.06-.032.015-.065.026-.1.034l.113.457c.066 0 .131-.014.197-.034.066-.026.119-.053.171-.1.085-.07.155-.157.204-.256.052-.1.092-.214.112-.342.026-.128.04-.268.053-.416.006-.148.013-.302.013-.456v-.732h.394v2.289h.527v-2.76c0 .014-1.408.008-1.408.008zm-2.032 1.597h.73c-.007.061-.013.128-.027.195-.025.129-.08.25-.157.356-.042.049-.094.087-.152.114-.066.028-.138.042-.21.04-.053 0-.099-.006-.145-.013l-.02-.007-.02-.007v.477c.014.007.034.007.047.013l.013.007c.06.013.125.013.197.02.158 0 .296-.034.421-.1.125-.067.23-.162.323-.282.086-.121.158-.269.204-.444.046-.167.072-.362.072-.577 0-.217-.026-.434-.079-.644-.026-.108-.066-.208-.111-.302-.046-.093-.106-.177-.178-.249-.072-.072-.157-.128-.25-.167-.11-.043-.226-.064-.342-.061-.073 0-.138.007-.204.013l-.105.02-.014.008v.476l.02-.007.066-.02c.052-.013.105-.02.164-.02.073 0 .132.014.185.04.052.027.098.068.138.114.04.048.071.102.092.162.026.06.046.12.052.181.013.06.02.12.02.181h-.737l.007.483z"/>
        <path d="M58.342 22.67c-.066.664.414 1.201 1.066 1.201.651 0 1.184-.537 1.303-1.201l.21-1.202h-1.276c-.651-.006-1.237.537-1.303 1.202z" opacity=".6"/>
    </g>
</svg>
