<svg xmlns="http://www.w3.org/2000/svg" width="100" height="19" viewBox="0 0 100 19">
    <path fill="#FFF" d="M5.602 11.294h4.922c.47 0 .628-.105.628-.58 0-2.322 1.466-4.222 3.403-4.75.262-.053.419-.158.366-.475 0-.58-.052-1.161 0-1.689 0-.422-.157-.475-.523-.475-1.361 0-2.67-.053-3.98 0-.68 0-.575-.37-.575-.739 0-.422-.052-.739.576-.739 1.309.053 2.565 0 3.874.053.524 0 .68-.158.628-.686 0-.211-.157-.633.158-.686.47-.106.994-.159 1.413.053.21.105.105.475.105.738-.052.475.157.581.576.581 1.204-.053 2.408 0 3.612 0 .629-.053.576.317.576.739s.105.792-.576.739c-1.256-.053-2.408 0-3.665 0-.418 0-.575.158-.523.58.052 1.056-.052 2.111 0 3.114.052.58-.157.74-.733.792-1.257.053-2.251.58-2.723 1.847-.628 1.636.21 3.272 1.833 3.853.157.053.314.105.523.158 1.152.264 1.152.264 1.152 1.478 0 .475-.157.633-.628.633-1.728-.158-3.09-.897-4.031-2.27-.21-.316-.42-.474-.838-.474H7.853c-.209 0-.47-.106-.47.264 0 .264.052.422.313.528 1.047.422 1.623 1.16 1.571 2.269-.052 1.056-.628 1.742-1.623 2.111-.995.37-2.094.106-2.775-.686-.942-1.056-.733-2.586.471-3.378.105-.105.262-.158.42-.21.313-.16.209-.423.209-.634 0-.317-.262-.211-.472-.211-1.57 0-3.089-.053-4.66 0-.628 0-.837-.211-.732-.792v-.106c0-.791.157-1.002.785-1.002 1.518.052 3.141.052 4.712.052zm76.702-4.96c-.89 1.319-1.362 2.744-2.356 3.852 1.413.37 1.832 1.478 1.832 2.745 0 .791 0 1.53.052 2.269 0 .422-.157.475-.523.475-1.152 0-1.152.053-1.152-1.161 0-.686.052-1.425-.105-2.111-.157-.634-.576-1.056-1.256-1.056h-1.519c-.366 0-.418.159-.418.475v3.22c0 .422-.105.527-.576.527-1.1 0-1.1 0-1.1-1.108V3.958c0-.527.105-.791.68-.686h.472c.419-.053.576.106.524.58 0 1.742.052 3.484-.053 5.226 0 .686.262.739.786.686.628-.053 1.047-.317 1.36-.897.367-.686.786-1.373 1.153-2.059.21-.422.47-.633.942-.58.419.105.785.105 1.257.105zm-64.555 5.91V6.65c0-.475.157-.633.576-.58.68.052 1.36 0 2.041.052 2.723.211 4.713 3.167 3.98 6.122-.576 2.164-2.2 3.59-4.45 3.642-.42 0-.524.106-.524.528.052.58 0 1.161 0 1.689 0 .264-.105.37-.367.37-1.256.105-1.256.105-1.256-1.162v-5.067zm40.994-5.172c1.78-1.583 4.032-1.003 4.974.053.576.686.89 1.478.943 2.27.052 1.952.052 3.905.052 5.858 0 .264-.105.37-.366.37-1.257.105-1.257.105-1.257-1.215v-3.852c0-.528-.052-1.109-.262-1.637-.314-.738-.785-1.266-1.623-1.319-.838-.053-1.518.264-1.99 1.003-.313.528-.418 1.108-.47 1.689 0 1.583-.053 3.06-.053 4.644 0 .422-.052.633-.576.633-1.1 0-1.1 0-1.1-1.108V3.853c0-.528.105-.792.681-.686.157.052.367 0 .524 0 .366-.053.471.105.471.475l.052 3.43zm-29.005 8.603c-2.565 0-4.607-2.164-4.66-4.856 0-2.691 2.095-4.908 4.66-4.908 2.513 0 4.608 2.164 4.608 4.908 0 2.745-2.042 4.856-4.608 4.856zm44.87-4.856c0 2.692-2.043 4.856-4.608 4.856-2.565 0-4.66-2.164-4.607-4.908 0-2.692 2.094-4.856 4.66-4.856 2.565 0 4.554 2.217 4.554 4.908zm-33.718-.052c0-2.692 2.042-4.856 4.607-4.856 2.566 0 4.608 2.164 4.608 4.856 0 2.744-2.095 4.908-4.66 4.908-2.513 0-4.555-2.111-4.555-4.908zm50.942-1.478V6.756c0-.37.053-.581.524-.581 1.152 0 1.152 0 1.152 1.108v4.011c0 .528.052 1.003.262 1.478.366.792.942 1.267 1.832 1.32.89.052 1.518-.423 1.937-1.161.262-.475.314-.95.314-1.478V6.756c0-.423.105-.634.576-.581 1.1 0 1.1 0 1.1 1.108-.053 1.848.157 3.59-.105 5.384-.262 1.636-1.466 2.744-2.932 3.008-1.623.264-3.089-.422-3.874-1.794-.471-.792-.576-1.637-.576-2.481-.21-.739-.21-1.478-.21-2.111zm-38.586 6.228c-1.204-.053-2.147-.634-2.722-1.742-.158-.317-.21-.58.209-.686.157-.053.314-.106.471-.211.314-.211.471-.106.628.21.367.687.89 1.056 1.676 1.004.576-.053 1.047-.37 1.204-.95.21-.58 0-1.056-.524-1.425-.575-.423-1.204-.58-1.832-.898-1.728-.844-2.094-2.691-.733-3.905 1.204-1.108 3.089-.845 3.927.58.21.317.157.475-.157.581-.472.211-.89.686-1.362-.106-.209-.369-.68-.422-1.1-.263-.366.158-.627.369-.68.791-.052.475.262.792.629.95.523.264 1.047.475 1.623.74 1.466.685 2.042 1.688 1.727 3.007-.261 1.425-1.466 2.323-2.984 2.323zm-15.864 0c-1.204-.053-2.146-.634-2.722-1.848-.157-.316-.105-.475.21-.58.156-.053.313-.106.47-.211.367-.211.524-.106.68.21.367.687.891 1.056 1.729.95.576-.052 1.047-.369 1.204-.95.157-.58-.052-1.107-.576-1.424-.576-.317-1.204-.58-1.832-.897-.89-.423-1.519-1.056-1.519-2.111 0-1.214.733-2.112 1.885-2.375 1.152-.264 2.251.21 2.827 1.213.157.264.105.423-.157.528-.21.106-.419.159-.576.317-.262.158-.366.105-.523-.106-.157-.264-.42-.527-.786-.58-.523-.106-.942.105-1.204.58-.262.528 0 .898.419 1.161.524.37 1.204.528 1.78.845 1.466.686 2.042 1.742 1.675 3.061-.314 1.372-1.518 2.27-2.984 2.217zm48.848-3.59V9.026c0-1.478.681-2.27 2.042-2.744.629-.212 1.31-.264 1.99-.317.262 0 .366.105.366.37.105 1.266.105 1.266-1.152 1.319-1.204.053-1.57.37-1.57 1.583-.053 1.9-.053 3.747-.053 5.7 0 .475-.104.686-.628.686-1.047-.053-1.047 0-1.047-1.055.052-.898.052-1.795.052-2.64zm-2.146 1.426c.628 0 1.152.528 1.152 1.16 0 .634-.524 1.162-1.152 1.162-.629 0-1.152-.528-1.152-1.161-.052-.686.523-1.161 1.152-1.161zm-77.33 3.8c.89 0 1.361-.475 1.361-1.32 0-.739-.471-1.214-1.309-1.214-.89 0-1.413.423-1.413 1.267.052.845.523 1.267 1.36 1.267zm12.67-6.175c0 .897 0 1.741.105 2.639 0 .527.21.686.68.633 1.152-.106 2.042-.686 2.461-1.794.524-1.373.419-2.587-.523-3.748-.576-.633-1.257-.897-2.095-.95-.418 0-.628.106-.628.58.052.845 0 1.743 0 2.64zM29.738 7.6c-1.728 0-2.932 1.32-2.932 3.167 0 1.847 1.152 3.22 2.932 3.22 1.676 0 2.932-1.32 2.932-3.168 0-1.847-1.152-3.219-2.932-3.219zm37.382 3.22c0 1.9 1.205 3.219 2.932 3.219 1.676-.053 2.88-1.372 2.88-3.22 0-1.847-1.152-3.219-2.88-3.219-1.675 0-2.932 1.267-2.932 3.22zm-18.69 0c0-1.9-1.153-3.22-2.933-3.22-1.675 0-2.932 1.32-2.932 3.167 0 1.847 1.205 3.22 2.932 3.22 1.728 0 2.932-1.268 2.932-3.168z"/>
</svg>
