<svg xmlns="http://www.w3.org/2000/svg" width="90" height="26" viewBox="0 0 90 26">
    <g fill="none">
        <path fill="#000" d="M43.478 4.622c-.006-.12-.095-.204-.22-.204H40.24c-.127.004-.24.084-.29.204L35.325 16.39c-.065.162.036.318.195.318h2.754c.136-.004.255-.096.296-.228l2.244-6.873.106 6.873c-.004.06.017.12.06.164.041.044.1.067.16.064h2.593c.166 0 .313-.156.308-.319l-.563-11.766zm-11.191 7.343h-2.694c-.125-.012-.201-.138-.178-.29l.415-2.353c.017-.15.136-.27.26-.27h2.784c0-.036.005-.067.005-.102 0-.12-.005-.247-.017-.38-.012-.12-.036-.24-.066-.355-.03-.11-.07-.216-.118-.319V7.89l-.006-.006c-.047-.102-.106-.192-.171-.27-.071-.084-.153-.157-.243-.217-.092-.063-.194-.11-.302-.139-.128-.032-.26-.05-.391-.054-.119 0-.237.006-.35.018-.115.011-.23.032-.343.06-.112.024-.225.055-.326.09-.102.035-.203.075-.301.121-.012.006-.024.012-.036.012-.124.036-.237-.048-.248-.193l-.202-2.142c-.018-.132.053-.283.172-.337.094-.049.207-.09.32-.139.118-.048.236-.09.355-.126.13-.042.272-.084.408-.12.13-.03.273-.06.439-.09.16-.03.32-.049.485-.06.16-.013.337-.025.521-.025h.006c.29 0 .563.024.811.072.459.083.894.268 1.273.542.172.127.332.277.468.44.136.162.26.336.361.523.107.187.196.391.267.602.07.21.13.427.177.656.049.23.084.464.107.698.024.241.035.475.041.716.006.229 0 .47-.017.71v.018c-.019.241-.04.482-.066.722-.03.23-.059.458-.1.687l-.006.024c-.089.493-.202.963-.338 1.402-.13.423-.293.836-.485 1.234-.19.385-.39.74-.61 1.059-.214.315-.456.609-.723.879-.26.265-.532.493-.81.692-.55.387-1.17.66-1.824.8-.314.067-.634.097-.954.097h-.012c-.16 0-.325-.012-.485-.024-.15-.01-.297-.031-.444-.06-.142-.03-.272-.055-.39-.085-.115-.03-.227-.064-.338-.102h-.006c-.094-.033-.187-.07-.279-.108-.094-.043-.171-.079-.23-.109-.101-.054-.137-.192-.09-.325L28.6 13.8l.017-.042c.066-.138.208-.204.314-.15.083.042.166.084.255.114.083.03.172.06.266.084h.012c.095.025.201.042.302.054.11.013.22.019.331.019.178 0 .344-.019.498-.055.142-.03.278-.078.397-.138l.012-.006c.123-.06.24-.132.349-.217.105-.083.202-.175.29-.277.089-.108.172-.216.249-.337.077-.12.142-.246.207-.379.065-.138.118-.27.172-.403v-.006l.017-.096zm17.538-3.016h2.292c.124.012.2.139.177.29l-.39 2.214c-.018.15-.136.271-.261.271h-2.31l-.372 2.107h2.6c.124.012.2.138.177.282l-.409 2.318c-.018.15-.136.27-.26.27H45.58c-.124-.012-.201-.138-.177-.289l2.066-11.73c.018-.15.136-.27.26-.27h5.317c.125.011.202.138.172.288l-.408 2.318c-.018.15-.136.27-.26.27H50.12l-.295 1.661h-.001zm12.884 7.752h-2.35c-.125 0-.208-.12-.19-.27l.456-3.678v-.006c.03-.216.06-.493.095-.782l.035-.277v-.012l.048-.337-.053.138-.196.518-.047.126c-.083.21-.148.391-.207.53l-1.451 3.599c-.042.114-.136.198-.243.198h-1.918c-.107 0-.19-.09-.196-.216l-.154-3.617-.012-.277v-.024l-.005-.361v-.006l-.007-.391v-.019l-.005-.367-.125.53-.13.554v.005l-.112.494v.012l-.835 3.683c-.03.133-.136.235-.255.235h-2.244c-.012 0-.024 0-.036-.006-.118-.024-.19-.162-.147-.307l2.954-11.736c.03-.138.136-.24.255-.24h2.776c.107 0 .196.09.196.222l.071 3.762v.012c.018.686.03 1.18.041 1.685l.012.445c.006.217.006.434.006.662.071-.223.148-.445.231-.68.118-.337.243-.686.373-1.06l.391-1.083 1.397-3.76c.036-.121.136-.212.243-.212h2.76c.124 0 .207.12.195.271l-1.344 11.73v.018c-.036.181-.148.301-.273.296zm6.205-7.752h2.292c.125.013.201.139.178.29l-.391 2.214c-.018.15-.136.271-.26.271h-2.31l-.373 2.107h2.606c.124.012.201.138.171.283l-.408 2.317c-.018.15-.137.27-.26.27h-5.501c-.125-.012-.201-.138-.178-.288l2.066-11.73c.018-.15.137-.271.261-.271h5.311c.125.012.202.138.178.289l-.408 2.317c-.018.15-.137.27-.26.27H69.2c.005.006-.285 1.662-.285 1.662zm3.05 7.47l2.06-11.73c.018-.151.136-.271.261-.271h2.671c.124.012.201.138.178.288l-.752 4.28h1.504l.757-4.298c.018-.15.137-.27.26-.27h2.672c.124.012.2.138.177.288l-2.06 11.73c-.018.151-.137.271-.26.271h-2.677c-.125-.012-.201-.138-.178-.288l.77-4.382h-1.498l-.776 4.4c-.018.15-.136.27-.26.27h-2.67c-.125-.012-.202-.144-.179-.288zm13.683.283h-2.67c-.124-.013-.2-.139-.177-.29l1.575-8.949h-1.776c-.125-.012-.202-.138-.178-.289l.438-2.492c.018-.15.136-.27.26-.27h6.703c.125.012.202.138.172.289l-.438 2.49c-.018.152-.136.272-.26.272h-1.813l-1.575 8.968c-.017.156-.136.27-.26.27z"/>
        <path fill="#E30017" d="M10.214 25.5v-.06H9.64c-.489-.062-.973-.156-1.45-.283v-.036h-.125c-.112-.03-.225-.066-.343-.102v-.06h-.184c-.148-.049-.29-.103-.437-.157v-.006h-.012c-.534-.2-1.05-.444-1.546-.728v-.066H5.43l-.196-.12v-.043H5.17c-.3-.187-.59-.387-.87-.602v-.03h-.036c-.313-.24-.61-.505-.9-.782v-.012h-.012l-.147-.144v-.013h-.012l-.142-.15v-.012h-.013l-.148-.157c-.219-.24-.426-.493-.621-.752v-.042h-.03c-.095-.126-.19-.259-.284-.397v-.078H1.9l-.1-.157c-.225-.355-.432-.722-.622-1.102v-.005h-.006c-.106-.223-.213-.452-.308-.686v-.109H.823c-.036-.096-.077-.199-.112-.295v-.024H.704c-.112-.313-.213-.638-.301-.963v-.144H.367c-.043-.172-.082-.345-.118-.518v-.277H.195c-.202-1.125-.246-2.274-.13-3.412v-.012l.024-.217h.006v-.03c.03-.259.065-.511.112-.764h.047v-.241c.036-.187.078-.367.119-.554h.035v-.144c.084-.324.177-.645.279-.963H.71v-.09c.04-.127.089-.26.135-.386h.018v-.054l.1-.265h.054V9.13l.148-.35h.006V8.77c.048-.102.095-.205.142-.301h.018v-.036c.095-.205.196-.403.302-.596h.006v-.012c.083-.156.172-.307.26-.464h.048v-.084l.142-.229h.012v-.024c.094-.15.195-.3.296-.45h.03v-.02c.375-.55.789-1.073 1.237-1.564h.012v-.012l.136-.144h.018v-.018l.13-.139h.024v-.024l.13-.132h.024v-.024l.136-.133h.018v-.018l.148-.138h.012v-.012c.23-.217.468-.422.71-.626h.071v-.06l.125-.103h.03v-.024c.195-.155.394-.306.597-.451h.024v-.018c.397-.277.805-.536 1.226-.777h.017v-.012l.272-.15h.042V1.95l.266-.139h.048v-.024l.284-.138h.03v-.012c.367-.168.746-.325 1.125-.464h.118v-.042c.119-.042.237-.078.35-.114h.118V.98c.142-.042.284-.084.42-.12h.048V.847c.202-.053.405-.102.61-.144h.012c.29-.061.582-.114.876-.157h.521V.481c.407-.041.816-.061 1.225-.06h13.323L24.76 12.97l-.04.24h-.018v.097c-.036.18-.078.36-.119.541h-.041v.169c-.036.156-.077.313-.118.464h-.036v.132c-.048.168-.1.337-.148.5h-.006v.018c-.048.156-.1.306-.154.457v.006c-.095.265-.195.53-.302.788h-.012v.03l-.118.283h-.036v.078l-.106.241h-.048v.103c-.187.394-.388.782-.604 1.161h-.018v.03c-.083.15-.177.295-.266.446h-.047v.072l-.154.24-.101.157h-.065v.078c-.241.353-.496.697-.764 1.03h-.018v.017l-.112.139h-.042v.048c-.505.608-1.057 1.173-1.651 1.691h-.06v.048l-.124.109h-.03v.024c-.183.156-.373.307-.568.451h-.06v.042c-.442.329-.903.632-1.379.91h-.024v.011c-.088.048-.177.097-.26.145h-.048v.024l-.254.132h-.06v.03l-.266.132h-.041v.019c-.1.048-.201.096-.302.138h-.006v.006c-.26.114-.521.217-.788.313H15.2v.054l-.32.108h-.147v.043c-.13.042-.267.078-.397.114h-.071v.018c-.509.132-1.025.23-1.546.295h-.479v.048c-.35.03-.705.048-1.066.048-.326.048-.645.036-.96.012h.001zm3.582-15.87l.343-1.487h4.779l.674-3.744H11.7c-.17.007-.315.124-.36.29l-1.393 7.8c-.023.095-.006.192.054.264.063.07.157.102.249.084 1.432-.204 3.31.055 2.984 2.04-.19 1.162-1.013 1.848-2.245 1.848H7.958l-.616 3.45H9.48c.006 0 .011 0 .011.005.095 0 .19 0 .29-.006h.178c.036 0 .077 0 .112.006 3.536.102 6.668-1.697 7.313-5.621.255-1.565-.006-2.81-.793-3.708-.657-.728-1.812-1.221-2.795-1.221z"/>
        <path fill="#000" d="M88.964 20.595l.089-.517c.006-.036.011-.079.017-.127.006-.048.012-.096.024-.15.006-.048.018-.102.024-.15l.018-.139h.011c.014.094.026.189.036.283.006.048.012.102.024.145.006.048.011.09.018.126l.076.517c.006.012-.337.012-.337.012zm.385.374l.106.565h.456l-.473-2.474h-.569l-.527 2.474h.456l.107-.565h.444zM86.6 19.06v2.473h.462v-1.047h.036c.065 0 .112.018.154.06.04.036.07.097.094.163.024.072.048.156.065.253.018.096.036.192.06.294.017.097.047.193.077.284h.467c-.036-.115-.065-.232-.088-.35-.024-.12-.048-.235-.078-.355-.023-.102-.047-.192-.076-.277-.026-.078-.069-.15-.125-.21-.054-.063-.124-.11-.201-.139l.556-1.137h-.52l-.397 1.077h-.036v-1.077h-.45v-.012zm-2.137 0v2.473h.438l.355-.939c.024-.072.054-.15.083-.234l.089-.253c.028-.079.052-.159.071-.24h.006c-.006.126-.018.276-.024.463-.006.186-.011.403-.011.65v.56h.414v-2.474h-.432l-.356.957c-.017.048-.04.102-.059.162-.024.06-.047.127-.07.193l-.072.198-.06.175h-.005c.006-.084.012-.187.023-.307.007-.13.013-.26.018-.391.007-.139.007-.29.007-.44v-.547c.005-.006-.415-.006-.415-.006zm-2.143 0v2.473h.473V20.5h.492v1.035h.473v-2.473h-.473v.993h-.492v-.994h-.474zm-.48 2.467l-.48-1.246.456-1.227h-.474l-.124.451c-.012.042-.023.09-.03.132l-.035.133c-.013.048-.025.096-.036.145h-.005c-.017-.067-.034-.133-.054-.2-.017-.064-.034-.128-.053-.192l-.142-.457h-.492l.439 1.21-.456 1.264h.467l.13-.446.054-.217c.018-.072.036-.15.06-.228h.011c.018.078.041.156.065.228.018.073.042.145.065.217l.154.458h.48v-.025zm-1.96-1.48h-.55v-.566h.586v-.415h-1.06v2.474h1.095v-.416h-.622v-.668h.551v-.41zm-2.47 1.48h.475V19.5h.432v-.445H76.98v.445h.432v2.028zm-5.121-1.36c-.011 0-.024.006-.03.006h-.035c-.063.001-.124-.015-.178-.048-.05-.034-.09-.08-.118-.132-.03-.064-.044-.134-.041-.205 0-.048.005-.096.017-.138.011-.044.032-.085.06-.12.026-.036.06-.065.1-.085.045-.02.093-.03.142-.03h.054c.014 0 .029.004.041.012-.012.006-.012.74-.012.74zm-.48 1.36c.017-.035.03-.07.042-.108.012-.036.023-.072.03-.108.011-.048.017-.103.03-.163.005-.066.017-.126.029-.193.012-.066.023-.126.041-.186.012-.05.034-.098.065-.139.022-.028.05-.05.083-.065.036-.015.074-.023.113-.025h.053v.987h.474v-2.437l-.249-.036c-.09-.008-.181-.012-.272-.012-.124 0-.237.012-.344.041-.099.028-.191.075-.272.14-.047.036-.087.08-.119.132-.036.055-.062.116-.076.18-.018.067-.03.145-.03.229 0 .102.018.198.053.277.036.078.083.144.148.198.066.054.137.09.22.12v.007c-.032.01-.062.027-.09.048-.03.018-.057.04-.082.066-.048.048-.077.102-.107.168-.024.06-.047.133-.06.205-.017.072-.029.144-.04.217-.012.072-.024.138-.042.204-.012.048-.03.097-.041.139-.018.042-.03.084-.048.126-.006-.012.492-.012.492-.012zm-1.817-.933l.089-.517c.006-.036.011-.079.017-.127.006-.048.018-.096.024-.15.006-.048.012-.102.023-.15.007-.049.013-.097.024-.139h.012c.014.094.026.189.036.283.006.048.012.102.024.145.005.048.012.09.017.126l.077.517c.006.012-.343.012-.343.012zm.39.374l.107.565h.456l-.474-2.474h-.568l-.527 2.474h.456l.106-.565h.445zm-2.38-.536h.1c.066 0 .126.012.172.042.054.03.095.072.131.127.036.054.048.126.048.21 0 .073-.016.146-.048.21-.027.054-.071.096-.124.121-.055.03-.116.044-.178.042h-.06c-.017 0-.035-.006-.047-.006l.006-.746zm0-1.011c.017-.008.035-.012.054-.012.023-.006.047-.006.07-.006.066 0 .113.012.155.042.04.027.071.068.089.114.017.048.029.102.029.163.002.063-.012.125-.041.18-.024.052-.06.095-.107.127-.047.03-.095.042-.154.042h-.1c.005.006.005-.65.005-.65zm-.473 2.1c.053.012.118.018.195.024.077.007.16.007.249.007.136 0 .254-.013.355-.03.1-.019.19-.049.26-.085.072-.036.136-.084.178-.138.057-.062.104-.133.136-.211.03-.084.047-.174.047-.27 0-.091-.017-.181-.047-.26-.031-.078-.08-.148-.142-.204-.067-.062-.149-.106-.237-.127v-.012c.077-.036.142-.084.196-.138.053-.054.089-.12.118-.187.024-.066.036-.138.036-.216 0-.084-.012-.169-.042-.247-.03-.078-.078-.146-.142-.199-.054-.047-.116-.084-.183-.108-.068-.024-.137-.043-.208-.054-.07-.012-.148-.012-.225-.012-.1 0-.195.006-.29.012-.084.005-.167.017-.248.036v2.42h-.006zm-1.356-2.07c.053 0 .102.024.136.066.035.042.065.102.089.18.023.087.04.176.047.266.006.096.012.198.012.313 0 .126-.006.24-.018.349-.012.102-.024.198-.047.277-.024.078-.054.138-.09.18-.03.041-.078.066-.13.066-.094 0-.17-.072-.219-.217-.053-.138-.076-.354-.076-.631 0-.18.011-.332.035-.458.024-.126.053-.223.1-.289.042-.072.095-.102.16-.102zm.023-.421c-.106 0-.207.024-.29.066-.088.044-.165.108-.225.186-.068.083-.122.176-.16.277-.04.109-.077.217-.094.343-.02.13-.03.26-.03.391 0 .14.006.265.023.392.018.126.048.24.084.349.041.108.088.198.148.283.059.078.13.138.219.186.083.042.183.066.29.066.118 0 .225-.024.32-.072.094-.048.177-.126.248-.229.071-.102.125-.24.16-.409.036-.168.06-.367.06-.595 0-.115-.008-.23-.024-.344-.015-.112-.038-.222-.071-.33-.034-.101-.082-.196-.142-.284-.058-.078-.13-.143-.213-.192-.09-.059-.196-.088-.303-.084zm-2.131 2.497h.473V19.5h.432v-.445H63.64v.445h.432v2.028h-.005zm-1.439-2.467v2.473h.474v-2.473h-.474zm-1.095 1.306c.017-.007.03-.007.047-.007h.053c.06 0 .12.017.172.049.047.036.083.084.113.144.023.06.04.132.04.21.003.07-.012.137-.04.2-.026.057-.067.107-.119.144-.05.036-.11.056-.172.054h-.04c-.019 0-.03-.006-.048-.006l-.006-.788zm-.474-1.306v2.461c.053.012.118.018.19.024.07.007.148.007.224.007.172 0 .32-.025.45-.067.13-.048.237-.108.32-.198.065-.067.112-.145.148-.241.038-.104.056-.214.053-.325 0-.115-.017-.217-.053-.307-.035-.088-.087-.168-.154-.235-.067-.067-.148-.118-.236-.15-.095-.037-.195-.056-.296-.054-.03 0-.054 0-.09.005-.029.007-.059.007-.088.013v-.927h-.468v-.006zm-1.528 1.306c.035-.008.071-.012.107-.012.053 0 .1.012.142.03.042.024.077.048.113.084.03.038.054.08.07.126.018.049.024.102.024.157.002.053-.006.106-.023.156-.015.046-.037.089-.066.127-.03.038-.068.066-.112.084-.046.022-.097.033-.148.03h-.053c-.018 0-.036-.006-.048-.006-.006.012-.006-.776-.006-.776zm-.473-1.306v2.461c.053.012.118.018.195.024.077.007.154.007.249.007.171 0 .325-.019.456-.067.13-.042.236-.108.32-.198.065-.067.112-.145.148-.241.035-.096.053-.199.053-.32 0-.125-.024-.234-.065-.33-.04-.092-.099-.174-.172-.24-.067-.063-.145-.11-.23-.14-.09-.03-.19-.048-.291-.048-.036 0-.065 0-.095.007-.03.005-.06.005-.095.012v-.518h.77v-.41h-1.243zM47.32 20.6l.09-.517.017-.127c.006-.048.011-.096.023-.15.006-.054.018-.102.024-.15.006-.049.012-.097.024-.14h.012c.013.095.025.19.035.284l.018.144c.006.049.011.09.018.127l.076.517h-.337v.012zm.385.38l.107.565h.455l-.473-2.474h-.569l-.527 2.474h.456l.107-.565h.444zm-2.747-1.914v2.474h.461v-1.048h.036c.065 0 .112.018.154.06.041.036.07.097.094.163.024.072.048.156.066.253.017.096.04.192.059.288.017.097.047.193.077.284h.468c-.036-.115-.066-.232-.09-.35-.023-.12-.047-.235-.076-.355-.024-.102-.047-.192-.077-.277-.027-.078-.07-.15-.124-.21-.054-.064-.123-.112-.202-.139l.557-1.143h-.521l-.391 1.077h-.036v-1.077h-.456zm-2.138 0v2.474h.438l.355-.946c.03-.072.054-.15.09-.235l.088-.252c.03-.085.054-.163.071-.241h.006c-.006.127-.018.277-.023.464-.007.186-.012.403-.012.65v.559h.414v-2.473h-.432l-.355.956c-.018.049-.042.103-.06.163-.023.06-.047.126-.07.193l-.072.198-.059.175h-.006c.014-.233.026-.465.035-.698.007-.139.012-.29.012-.44v-.547h-.42zm-2.143 0v2.474h.473v-1.036h.498v1.036h.473v-2.474h-.473v.993h-.498v-.993h-.473zm-1.356.391c.053 0 .1.024.136.066.035.042.065.102.089.18.024.08.035.17.047.265.006.103.012.205.012.313 0 .127-.006.241-.018.35-.007.093-.023.186-.047.276-.024.079-.053.139-.089.18-.03.042-.079.067-.13.067-.095 0-.172-.072-.22-.216-.047-.139-.077-.356-.077-.633 0-.18.013-.33.036-.457.024-.127.053-.223.095-.289.048-.066.1-.102.166-.102zm.017-.415c-.2-.002-.389.089-.514.247-.066.078-.119.168-.16.276-.042.103-.078.217-.095.343-.018.127-.036.253-.036.392 0 .138.012.265.03.39.018.127.047.241.082.35.036.108.09.198.149.277.059.078.13.144.219.186.083.042.183.066.29.066.118 0 .225-.024.32-.072.094-.048.183-.126.248-.234.071-.103.125-.241.16-.404.036-.168.06-.367.06-.596 0-.114-.006-.228-.024-.343-.016-.112-.042-.223-.077-.331-.034-.098-.08-.19-.136-.276-.058-.078-.13-.144-.213-.193-.083-.054-.184-.078-.303-.078zm-2.149.42c.018-.005.03-.011.053-.011.018-.006.042-.006.066-.006.077 0 .13.018.177.054.047.036.077.078.1.138.042.134.04.277-.005.41-.022.058-.061.109-.113.144-.057.038-.126.057-.195.054h-.041c-.012 0-.024 0-.042-.006v-.776zm-.473 2.078h.473v-.922c.018 0 .03.007.048.007h.047c.144.001.287-.034.415-.102.065-.036.124-.08.177-.133.065-.066.112-.15.148-.247.036-.096.053-.21.053-.349 0-.072-.006-.139-.024-.204-.014-.066-.038-.129-.07-.187-.03-.058-.07-.109-.12-.15-.05-.05-.111-.089-.177-.115-.065-.03-.142-.048-.219-.06-.082-.012-.165-.018-.26-.012-.09 0-.178.006-.267.012-.078.005-.155.017-.23.036l.006 2.425zm-1.44 0h.474v-2.029h.432v-.445h-1.332v.445h.432v2.028h-.005zm-2.19-2.474v2.474h.462v-1.048h.035c.065 0 .112.018.154.06.041.036.071.097.095.163.024.072.047.156.065.253.018.096.041.192.059.288.018.097.047.193.077.284h.468c-.036-.115-.065-.232-.089-.35-.024-.12-.047-.235-.077-.355-.024-.102-.047-.192-.077-.277-.027-.078-.07-.15-.124-.21-.055-.063-.124-.11-.201-.139l.556-1.143h-.521l-.39 1.077h-.036v-1.077h-.456zm-.681.993h-.55v-.572h.586v-.421h-1.06v2.474h1.095v-.422h-.622v-.668h.551v-.392.001zm-2.996-.993v1.113c0 .163-.006.3-.012.415-.006.114-.03.217-.053.295-.02.072-.056.138-.107.193-.024.018-.047.036-.077.054-.028.013-.058.023-.089.03l.101.41c.06 0 .119-.013.178-.03.06-.025.106-.049.154-.091.076-.062.139-.14.183-.229.048-.09.083-.193.101-.307.024-.114.036-.24.047-.373.006-.132.012-.27.012-.409v-.656h.356v2.052h.473V19.06c0 .012-1.267.007-1.267.007zm-1.83 1.432h.657c-.005.054-.011.114-.023.174-.024.116-.072.225-.143.32-.037.043-.083.078-.135.102-.06.025-.125.037-.19.036-.047 0-.089-.006-.13-.012l-.018-.006-.018-.006v.427c.012.007.03.007.041.012l.013.007c.053.011.112.011.177.017.142 0 .267-.03.379-.09.113-.06.207-.145.29-.252.077-.11.142-.241.184-.398.041-.15.065-.325.065-.518 0-.195-.024-.389-.071-.578-.024-.096-.06-.186-.1-.27-.042-.083-.096-.158-.16-.223-.065-.064-.142-.115-.226-.15-.098-.038-.202-.057-.308-.055-.064 0-.124.007-.183.012l-.095.019-.011.006v.427l.017-.006c.018-.006.036-.012.06-.018.047-.012.094-.018.148-.018.064 0 .118.012.165.036.048.024.089.06.124.102.037.043.065.092.083.145.024.054.042.108.048.162.012.054.017.109.017.163h-.663l.006.433z"/>
        <path fill="#E40019" d="M52.508 20.325c-.06.595.373 1.077.96 1.077.586 0 1.065-.482 1.171-1.077l.19-1.078H53.68c-.586-.006-1.113.482-1.172 1.078z"/>
        <path fill="#FEFEFE" d="M10.072 20.174c7.075.229 8.668-6.91 6.519-9.329-.652-.728-1.812-1.222-2.79-1.222l.344-1.486h4.779l.675-3.743H11.7c-.17.006-.315.123-.36.288l-1.393 7.806.302.35c1.433-.205 3.31.054 2.984 2.04-.313 1.902-1.823 1.847-3.084 1.847H7.958l-.616 3.45h2.73z"/>
    </g>
</svg>
