<svg xmlns="http://www.w3.org/2000/svg" width="90" height="27" viewBox="0 0 90 27">
    <g>
        <path d="M5.069 26.013c0 .831-.052.935-.931.935H1.034c-.568 0-.724-.208-.724-.727V.831c0-.571.207-.78.724-.727 1.087 0 2.173.052 3.26 0 .62 0 .775.26.775.83-.052 4.206 0 25.08 0 25.08zM8.897 1.038c0-.934.051-.986.982-.986h5.431c.57 0 .776.208.776.779v2.18c0 .624-.207.831-.776.831-.672-.052-1.344 0-2.017 0-.569 0-.776.208-.776.78v17.653c0 .779.052.83.828.83h2.069c.414 0 .672.208.672.676v2.388c0 .571-.258.727-.724.727H9.724c-.724 0-.827-.052-.827-.83V1.037zM89.69 26.065c0 .78-.052.831-.828.831h-3.155c-.57 0-.776-.208-.776-.727V.727c0-.467.207-.727.724-.727h3.259c.62 0 .776.26.776.779v25.286zM81 26.013c0 .831-.052.935-.931.935h-5.38c-.723 0-.827-.104-.827-.83v-2.233c0-.468.207-.675.672-.675h2.018c.827 0 .93 0 .93-.831V4.62c0-.571-.206-.727-.723-.727h-2.121c-.466 0-.724-.207-.724-.675V.727c0-.467.207-.675.672-.675h5.948c.57 0 .673.311.673.779C81 5.088 81 26.013 81 26.013z"/>
        <path d="M28.603 15.785l2.328-7.945c.103-.415.362-.675.828-.675h1.293c.62 0 .724.104.569.727-.776 2.545-3.052 10.125-3.362 11.371-.104.572-.414.727-.983.727-2.173 0-1.759.208-2.38-1.713l-2.172-6.854-2.327 7.737c-.207.623-.466.83-1.138.83-2.173-.052-1.759.208-2.38-1.713-1.086-3.479-2.12-6.906-3.207-10.333-.258-.727-.206-.779.621-.779 2.431 0 1.862-.311 2.535 1.87l1.965 6.646s1.759-5.4 2.431-7.789c.207-.623.466-.779 1.086-.779 2.018.052 1.707-.207 2.224 1.714l2.07 6.958zm15.725 3.375c0 .57-.207.778-.725.727-2.12 0-1.81.207-1.81-1.766V7.892c0-.779.052-.83.776-.83 2.017 0 1.707-.208 1.707 1.713.052 1.662.052 10.385.052 10.385zm18.362-6.802c.569-.727 1.19-1.195 2.12-1.402.414-.052.621.052.621.467v1.298c.052.416-.207.571-.62.623-1.552.208-2.225.935-2.225 2.493v3.375c0 .467-.207.726-.724.726-2.069 0-1.759.104-1.759-1.661v-6.594c0-.623.26-.78.776-.78 1.5 0 1.5 0 1.81 1.455zM35.483 3.842c-.466 0-.724-.207-.724-.727V.727c0-.415.207-.675.672-.675h5.948c.414 0 .673.208.673.623v2.492c0 .468-.259.675-.724.675h-5.845zm5.793 19.316c.465 0 .724.207.724.675v2.388c0 .467-.259.675-.672.675h-5.845c-.466 0-.673-.26-.673-.675v-2.388c0-.468.259-.675.673-.675h5.793zm20.38-19.316c-.466 0-.725-.207-.673-.675V.78c0-.467.207-.675.672-.675H67.5c.569 0 .724.26.724.727v2.284c0 .623-.258.78-.776.78-1.034-.053-5.793-.053-5.793-.053zm-13.139 0c-.414 0-.672-.207-.672-.623V.727c0-.415.207-.623.62-.623h5.949c.465 0 .62.26.62.675v2.44c0 .468-.258.675-.672.623h-5.845zm5.897 19.316c.465 0 .724.207.724.675v2.388c0 .467-.259.675-.672.675h-5.794c-.465 0-.672-.208-.672-.675v-2.44c0-.468.207-.675.672-.623h5.742zM22.448 3.842c-.414 0-.672-.207-.672-.675V.727c0-.415.207-.675.62-.675h5.949c.414 0 .62.104.62.623v2.492c0 .468-.206.623-.672.623-.983.052-5.845.052-5.845.052zm0 23.106c-.414 0-.672-.208-.672-.623v-2.44c0-.416.207-.675.62-.675h5.949c.414 0 .62.207.62.623v2.492c0 .467-.206.623-.672.623h-5.845zm45-3.79c.466 0 .724.207.724.675v2.492c0 .415-.258.675-.672.623h-5.948c-.466 0-.621-.208-.621-.675v-2.492c0-.468.207-.675.672-.623h5.845zm-8.534-10.073c-.931-1.766-2.535-2.285-4.397-2.181-1.707.052-3.465 0-5.12.052-.414 0-.466-.208-.466-.571.052-.987.31-1.195 1.293-1.35.362-.052.57-.208.57-.623.05-1.454.05-1.454-1.397-1.454h-.466c-1.19.052-2.017.675-2.276 1.817-.103.571-.207 1.09-.207 1.662 0 .26 0 .363-.31.415-1.035.104-1.035.208-1.035 1.142 0 .78 0 .831.828.831.414 0 .569.208.569.623v4.985c0 1.454-.259 1.454 1.448 1.454.983 0 1.035-.052 1.035-.987v-5.4c0-.312-.052-.571.414-.571h1.913c-.569 1.09-.672 2.18-.465 3.375.207 1.817 1.448 3.323 3.155 3.738 1.862.468 3.828-.104 4.759-1.557 1.086-1.662 1.138-3.583.155-5.4zm-2.12 4.257c-.363.727-.984 1.039-1.811 1.039-.776 0-1.397-.364-1.759-1.09-.569-1.143-.569-2.39.052-3.531.362-.675.93-.987 1.707-1.039.776 0 1.396.312 1.758.987.362.57.57 1.194.466 1.869.103.623-.104 1.246-.414 1.765zM72.361 7.113c-.931 0-.931 0-.931.935v3.635c-1.448-1.506-4.759-1.143-5.793 1.35-.62 1.557-.62 3.167-.052 4.725.931 2.596 4.345 3.219 5.845 1.557.207.623.207.675.724.675h.931c.828 0 .931-.052.931-.934V8.723c-.051-1.765.207-1.61-1.655-1.61zM70.966 17.29c-.31.623-.776.831-1.449.935-.724 0-1.19-.312-1.5-.935-.362-.467-.569-1.142-.465-1.817-.052-.727.103-1.35.414-1.921.31-.571.775-.935 1.448-.935.672 0 1.19.26 1.552.831.672 1.298.672 2.544 0 3.842zM36.569 10.8c-2.638 0-4.397 1.87-4.397 4.673 0 2.804 1.81 4.673 4.397 4.673 2.638 0 4.397-1.87 4.448-4.673 0-2.804-1.81-4.673-4.448-4.673zm1.759 6.438c-.362.727-1.035 1.09-1.81 1.09-.777 0-1.397-.363-1.76-1.09-.568-1.142-.568-2.388.052-3.53.724-1.35 2.638-1.35 3.466-.052.362.57.569 1.142.465 1.869.052.623-.103 1.142-.413 1.713z"/>
    </g>
</svg>
