<svg xmlns="http://www.w3.org/2000/svg" width="90" height="18" viewBox="0 0 90 18">
    <path d="M2.416 14.068H0V.711h2.416v4.215c.284-.19.568-.379.9-.473.284-.095.616-.142.947-.142.569 0 1.137.094 1.658.331.521.237.995.521 1.374.947.379.38.71.853.9 1.327.237.52.331 1.09.331 1.658v5.494H6.063V8.574c0-.237-.047-.474-.142-.71-.19-.475-.521-.806-.995-.996-.237-.094-.473-.142-.71-.142s-.474.048-.71.142c-.474.19-.806.521-.995.995-.095.237-.095.474-.095.71v5.495zM13.12 1.895c0 .237-.047.426-.142.616-.095.189-.19.378-.332.52-.142.143-.331.285-.52.332-.427.19-.853.19-1.28 0-.19-.095-.331-.19-.52-.331-.143-.143-.285-.332-.332-.521-.19-.38-.19-.853 0-1.28.142-.378.473-.71.852-.852.427-.19.853-.19 1.28 0 .189.095.33.19.52.332.142.142.285.331.332.52.142.237.142.474.142.664zm-.426 12.173h-2.463V4.5h2.463v9.568zm11.131-1.231c0 .663-.142 1.279-.379 1.895-.236.568-.615 1.09-1.042 1.563-.426.426-.994.805-1.563 1.042-.616.237-1.231.379-1.895.379h-1.231v-2.463H18.9c.332 0 .663-.048.995-.142.473-.19.9-.522 1.137-.995l.284-.71c-.095.141-.237.283-.427.378-.189.095-.378.19-.615.237-.237.047-.427.095-.663.142-.237 0-.474.048-.664.048-.663 0-1.279-.095-1.894-.332-1.185-.474-2.132-1.374-2.606-2.558-.284-.663-.379-1.374-.379-2.132 0-.663.143-1.373.38-1.989.236-.568.568-1.137.994-1.563.426-.474.947-.805 1.563-1.042s1.232-.38 1.895-.38c.284 0 .616.048.9.096.284.094.616.189.9.331.284.142.568.332.805.521.237.19.521.38.71.616l.948-1.137h.616v8.195h.047zm-2.51-3.648c0-.331-.048-.663-.19-.947-.094-.284-.284-.568-.52-.853-.238-.236-.474-.426-.759-.568-.284-.142-.615-.237-.947-.237-.332 0-.663.048-.947.19-.285.094-.569.284-.758.52-.237.238-.38.522-.521.806-.142.332-.19.71-.19 1.09 0 .378.048.71.19 1.089.094.284.284.568.52.805.238.237.474.38.759.521.284.142.615.19.947.19.332 0 .663-.048.947-.19.285-.142.569-.331.758-.568.237-.237.38-.521.521-.853.142-.331.19-.663.19-.995zm6.773 4.88h-2.415V.71h2.415v4.215c.285-.19.569-.379.9-.473.285-.095.616-.142.948-.142.568 0 1.137.094 1.658.331.52.237.947.521 1.326.947.379.38.71.853.9 1.374.237.521.332 1.042.332 1.61v5.495h-2.416V8.574c0-.237-.048-.474-.142-.71-.19-.475-.521-.806-.995-.996-.237-.094-.474-.142-.71-.142-.237 0-.474.048-.711.142-.474.19-.805.521-.995.995-.095.237-.095.474-.095.71v5.495zm13.074 0h-5.542v-2.416h5.542c.332 0 .616-.285.616-.616 0-.142-.047-.284-.19-.332-.142-.047-.284-.094-.426-.094h-2.51c-.427 0-.806-.095-1.185-.237-.71-.332-1.279-.9-1.61-1.61-.332-.759-.332-1.611 0-2.37.284-.71.9-1.326 1.61-1.61.38-.142.758-.237 1.185-.237h4.926v2.416h-4.974c-.331 0-.616.284-.616.616 0 .19.048.332.19.426.095.142.284.19.426.19h2.51c.38 0 .806.047 1.185.19.332.141.663.33.947.568.285.236.521.568.664.9.142.379.236.758.236 1.136 0 .427-.094.806-.236 1.185-.143.379-.38.663-.664.947-.284.284-.615.521-.947.663-.332.19-.758.284-1.137.284zm12.648-7.674l-1.8 1.8c-.095-.237-.19-.474-.38-.663-.142-.19-.331-.38-.52-.521-.19-.143-.427-.237-.616-.332-.237-.095-.474-.095-.71-.095-.332 0-.664.048-.948.19-.284.142-.569.331-.758.568-.237.237-.379.569-.521.853-.142.379-.19.758-.19 1.137 0 .331.048.663.19.947.095.284.284.521.52.758.238.237.475.379.759.52.52.238 1.09.238 1.61.096.237-.048.427-.142.616-.285.19-.142.332-.284.521-.426.142-.19.284-.379.38-.568l1.8 1.8c-.238.331-.475.615-.759.9-.284.237-.616.473-.947.663-.332.19-.71.331-1.09.426-.379.095-.757.142-1.184.142-.663 0-1.279-.142-1.895-.379-1.184-.473-2.084-1.42-2.605-2.605-.237-.616-.379-1.232-.379-1.895 0-.71.142-1.42.38-2.037.236-.615.615-1.184 1.041-1.657.427-.474.948-.853 1.563-1.137.616-.284 1.232-.427 1.895-.427.38 0 .805.048 1.184.143.758.189 1.469.615 2.037 1.136.332.285.616.616.806.948zm3.647 7.673h-2.416V4.5h.569l.805 1.137c.805-.71 1.8-1.137 2.89-1.137h2.13v2.416h-2.13c-.238 0-.474.047-.711.142-.474.19-.806.52-.995.995-.095.236-.142.473-.142.71v5.305zm8.716-2.368c.094.047.19.047.284.047h.284c.237 0 .474-.047.663-.094.237-.048.427-.142.616-.285.379-.236.71-.615.9-1.042l1.8 1.8c-.237.332-.474.616-.758.9-.284.237-.616.474-.947.663-.332.19-.71.332-1.09.427-.379.095-.758.142-1.184.142-1.279 0-2.51-.521-3.458-1.421-.426-.474-.805-.995-1.042-1.61-.284-.664-.379-1.327-.379-2.038 0-.71.142-1.42.38-2.084.473-1.184 1.42-2.131 2.604-2.605.616-.237 1.232-.379 1.895-.379.38 0 .805.047 1.184.142.758.19 1.469.569 2.037 1.042.284.237.569.569.805.853L66.174 11.7zm1.279-5.021c-.095-.047-.237-.047-.332-.095h-.332c-.331 0-.663.048-.947.19-.284.094-.568.284-.758.52-.237.238-.379.522-.52.806-.143.332-.19.71-.19 1.09v.284c0 .094 0 .237.047.331 0 .095.047.237.095.332.047.095.047.19.095.284l2.842-3.742zm8.242 5.021c.094.047.19.047.284.047h.284c.237 0 .474-.047.663-.094.237-.048.427-.142.616-.285.19-.142.332-.284.521-.426.142-.19.284-.379.38-.568l1.8 1.8c-.19.331-.475.615-.759.9-.284.237-.616.473-.947.663-.332.19-.71.331-1.09.426-.379.095-.758.142-1.184.142-1.279 0-2.51-.52-3.458-1.42-.426-.474-.805-.996-1.042-1.611-.284-.663-.379-1.327-.379-2.037s.142-1.421.38-2.084c.473-1.185 1.42-2.132 2.604-2.606.616-.236 1.232-.379 1.895-.379.38 0 .805.048 1.184.143.758.189 1.469.568 2.037 1.042.284.236.569.568.805.852L75.695 11.7zm1.231-5.021c-.094-.047-.237-.047-.331-.095h-.332c-.331 0-.663.048-.947.19-.284.094-.569.284-.758.52-.237.238-.38.522-.521.806-.142.332-.19.71-.19 1.09v.284c0 .094 0 .237.048.331 0 .095.047.237.094.332.048.095.048.19.095.284l2.842-3.742zm7.01 7.39h-2.462V4.5h.568l.805.947c.806-.71 1.8-1.136 2.89-1.136.568 0 1.137.094 1.658.331.52.237.994.521 1.373.947.38.38.71.853.9 1.374.237.521.332 1.042.332 1.61v5.495h-2.416V8.574c0-.237-.047-.474-.142-.71-.19-.475-.52-.806-.995-.996-.236-.094-.473-.142-.71-.142s-.474.048-.71.142c-.474.19-.806.521-.995.995-.095.237-.143.474-.143.71l.048 5.495z"/>
</svg>
