<svg xmlns="http://www.w3.org/2000/svg" width="90" height="30" viewBox="0 0 90 30">
    <g fill="#0095DA">
        <path d="M47.276 7.714l-.828-.857-.31-.59-2.586-1.178c-1.449-3.053-2.535-.428-4.655 1.393l1.448.59 2.017.91c.466.214.931.375 1.397.59l.051.053L45 8.357l1.138-.268c.465-.053 1.759.322 1.138-.375z"/>
        <path d="M8.69 13.286l1.293-.857L14.328 12l4.344-.375c.828 0 4.345.59 4.345-.429l.466-.91v-.429l2.586-2.25c-.672-.803-1.241-.964 0-.91l.88-.43h.827v.912L28.19 9c0 .696-.31 1.34.413 1.34 2.018.589 2.018.642 3.466-.858l1.345-1.34 1.293-1.338.88-.429 1.292-.429 1.759-.857 1.293-.857.931-1.34c.88-2.785 6.466 1.394 8.638 2.412l7.397 3.75c1.965 1.125 5.637 4.607 7.396 2.839l.828-.429.879-.482.414.482.465.429c.621.643.931.268 1.707.053h.466l.414-.428-.414-.482-.414-.911v-.429l7.345 2.84c1.138.643 2.327 1.232 3.465 1.875l3.466.482 4.345.964c1.086.429 2.638 1.232 2.172.054L89.017 15c-.103-.696-.465-.696-1.707-.964-1.19 0-1.913-.107-3.051-.482l-6.518-1.447-5.638-2.357-5.172-1.929-1.293.429-1.345.857-1.707.429h-1.655l-6.103-2.947-7.345-3.268-6.414-3.16-5.276 2.625-6.103 1.768-6.57 1.232-1.292.857-1.759 1.393-2.586 1.339-3.104.429-3.465.857c-4.138 1.875-4.448 2.196-6.362 2.357-.207 0-1.19 2.678-1.19 2.678.414.161 3.672-1.767 5.328-2.41zM23.328 22.5c-.104.214-.259.375-.57.482-.258.16-.568.214-.982.214h-.57l.622-1.5h.672c.155 0 .259.054.414.054.052 0 .103.054.155.054.103.107.207.214.259.321.051.16.051.268 0 .375zm2.275-.59c-.051-.16-.103-.32-.258-.428-.155-.107-.31-.214-.57-.321-.258-.054-.568-.107-.93-.107H22.19c.776-1.822 1.086-1.875-1.138-1.875L19.5 22.82c-.569 1.34-.103 1.018 1.552 1.018l1.293-.053c.569 0 1.034-.054 1.5-.215.414-.107.827-.321 1.138-.589l.103-.107c.155-.107.259-.268.362-.429.052-.053.104-.107.104-.214.051 0 .051-.16.051-.321zM7.034 20.787h-1.19l1.19-1.34c.363-.375.673-.75 1.087-1.178l.155 2.464H7.034v.054zm4.552 1.5l-.465-5.732c-2.224 0-2.587-.268-4.035 1.339l-.258.268c-1.707 1.928-3.466 3.857-5.225 5.732 2.07 0 2.173-.643 3.466-2.09h3.31l.207 2.09c2.328 0 3 .321 3-1.607zm6.673.589l-.31-3.643c-1.449 0-1.656-.16-2.535.857l-.207.215-3.362 3.642c1.293 0 1.345-.428 2.224-1.339 0 0 1.707-1.928 1.965-2.196l.104 1.553.052.643.103 1.34c1.552-.054 2.017.16 1.966-1.072zm53.069-3.696h-4.656c-.672 0-.724.321-.879.696h1.759l-.155.321-1.552 3.643h1.758l.156-.321 1.5-3.643 1.396-.054c.362.054.517-.321.673-.642zm-12.931 1.125s-.621.696-1.035 1.125l-.672-2.197c-1.242 0-1.914-.214-1.656.857l.88 2.947c-.414.428-.776.857-.88.964 1.087 0 1.76-.804 2.483-1.607 0 0 2.017-2.143 2.897-3.16-1.138-.054-1.293.267-2.017 1.07zm4.706 2.946c-.413 0-.775-.107-.982-.268-.207-.107-.362-.321-.414-.59-.052-.267 0-.535.103-.803.104-.321.31-.589.57-.857.258-.268.568-.482.827-.643.052 0 .31-.214.983-.268h.827l.259-.642H63.62c-.155 0-.776.053-1.035.107-.362.053-.672.214-1.086.375-.31.214-.62.428-.931.696-.259.268-.466.59-.62.964-.208.429-.26.804-.208 1.179.052.321.207.59.466.804.259.214.62.375.983.428.413.107.982.16 1.344.107.414 0 .776-.107.776-.107l.156-.536-.363.054zm-15.879-4.071c-1.293 0-.983-.108-1.448 1.017l-.414 1.018c-.672 0-1.034-.053-1.707-.053l.259-.643.569-1.34h-.414c-1.293 0-1.19-.107-1.655 1.018l-1.293 3.268-.155.375h.155c1.448 0 1.396.268 1.913-1.018l.363-.964h1.706l-.62 1.554-.155.375h.155c1.448 0 1.345.268 1.862-1.018l.93-2.304.57-1.339h-.62v.054zm35.742.053c-.673 0-.932-.053-1.087.107 0 0-2.482 2.572-3.207 3.268l1.449-3.428h-.362c-1.138 0-1.19-.215-1.656.857l-.206.535-1.138 2.786c-.156.536-.052.536.465.536 0 0 .673 0 .828-.054h.051c.673-.107.88-.482 1.552-1.232l1.5-1.607-.983 2.464-.155.375h.155c1.449 0 1.345.215 1.862-1.071l.932-2.304.568-1.339h-.568v.107zm1.19 1.34s.05-.054.05-.108c.156-.268.415-.535.673-.696.104-.107.259-.16.466-.214.517-.215 1.086-.268 1.758-.268 1.5 0 2.535-.268 2.018 1.018l-1.345 3.642H86.12l.207-.482 1.448-3.696h-.517c-.207 0-.414.053-.621.107-.207.054-.362.214-.466.321-.155.108-.258.268-.31.429-.103.214-.052.429.104.59.103.16.413.214.775.214h.31c-2.689 2.839-1.965 2.41-4.189 2.41l2.224-2.035c-.258-.054-.465-.108-.62-.215-.156-.107-.26-.268-.31-.482-.053-.107-.053-.268.05-.428-.05 0-.05-.054-.05-.108zm-55.346-1.34c-1.293 0-1.19-.107-1.655 1.018l-1.293 3.268-.155.375h.155c1.448 0 1.397.268 1.914-1.018l.207-.482.983-2.41h1.706c-.051.106-.051.16-.103.267l-.414 1.018-.258.696-.621 1.554-.155.375h.155c1.448 0 1.345.268 1.862-1.018l.931-2.304.569-1.339H28.81zm11.845-.053c-.62 0-.827-.054-.983.053l-3.93 2.09 1.861-4.768c-2.224 0-2.379-.322-3.206 1.66l-1.81 4.715c-.311 1.017-.053 1.017.93 1.017l.983-.053 4.086-2.25-.724 1.768-.155.375h.155c1.448 0 1.345.214 1.862-1.018l.931-2.304.57-1.339-.57.054zm7.966 4.017c.207-.214.31-.428.62-.696l.518-.643.775-.803c.207-.268.466-.483.673-.697l.103 1.554.052.643.052.696c-.931-.054-1.914-.054-2.793-.054zm5.172.054h-.414c0-.214-.31-4.018-.31-4.018-1.448 0-1.655-.16-2.535.804l-.155.214-2.741 3c-.724.054-.828.321-.983.696h6.724c.57 0 .776-.321.931-.642-.051-.054-.517-.054-.517-.054zm21.414-2.732c-.052.107-.155.268-.31.375-.104.107-.31.214-.466.321-.052.054-.103.054-.207.054-.103.053-.258.053-.414.053h-.62l.672-1.553h.569c.362 0 .62.053.724.214.104.214.104.375.052.536zm2.017-.482c0-.054 0-.054-.052-.107-.103-.268-.31-.429-.569-.59-.31-.16-.672-.214-1.24-.214h-1.139c-1.5 0-1.758-.321-2.327 1.018l-1.604 3.696c2.07 0 1.81-.053 2.586-1.875h1.552c.31 0 .62-.053.931-.107.31-.053.569-.214.776-.321.259-.107.414-.268.62-.429.156-.16.26-.321.363-.482.051-.054.051-.107.051-.214.104-.107.104-.215.052-.375zM1.552 27.91l.207-.536h1.086c.207-.696-.259-.696-.466-.696-.465 0-.776.321-.827.482H.879c.207-.482.776-1.072 1.707-1.072 1.19 0 1.19.804.931 1.554-.569 1.5-1.655 1.607-2.017 1.607-.88 0-1.138-.482-.931-1.179h.672c-.103.268 0 .59.466.59.259 0 .724-.107.983-.697H1.552v-.053zm4.086-.965h.672L5.07 27.964l.465 1.125H4.81l-.31-.964-.362.964h-.62l.827-2.143h.62l-.31.858.983-.858zm2.638 1.34c-.155.321-.57.857-1.345.857-.672 0-.931-.429-.672-1.179.207-.482.672-1.178 1.603-1.178.672 0 .776.428.62.857h-.62c.104-.322-.052-.429-.259-.429-.103 0-.465.054-.724.697-.258.696.052.75.207.75.31 0 .517-.322.57-.482l.62.107zm.93.803h-.62l.828-2.143h2.017l-.828 2.143h-.62l.62-1.714h-.775l-.621 1.714zm4.45-.589c-.415.59-.984.696-1.346.696-.258 0-1.086-.053-.672-1.178.24-.704.882-1.176 1.603-1.179.983 0 .725.965.621 1.179l-.103.16h-1.604c-.052.215-.103.59.259.59.207 0 .414-.107.517-.268h.724zm-.363-.696c.155-.483-.103-.536-.259-.536-.103 0-.465 0-.672.536h.931zm2.173-.858l-.104.268c.362-.321.62-.321.776-.321.569 0 .776.428.517 1.178-.258.697-.776 1.179-1.396 1.179-.104 0-.414-.054-.518-.321l-.362 1.017h-.62L14.845 27c.052-.054.62-.054.62-.054zm-.207 1.822c.362 0 .62-.322.775-.697.207-.589-.051-.696-.206-.696-.156 0-.57.107-.776.696-.155.322-.155.697.207.697zm2.069-1.393l.155-.429H19.5l-.155.429h-.724L18 29.089h-.62l.62-1.714h-.672zm4.965-.429c.207 0 .673 0 .466.536-.104.268-.362.482-.621.482.31.054.414.215.259.59-.156.428-.518.589-.983.589h-1.242L21 27l1.293-.054zm-1.241 1.715h.414c.31 0 .413-.107.413-.215.052-.16.052-.267-.258-.267h-.414l-.155.482zm.31-.857h.362c.104 0 .31 0 .414-.215.052-.214-.052-.214-.259-.214h-.31l-.207.429zm3.259 1.285H24l.828-2.143h1.551l-.207.429h-.982l-.57 1.714zm1.758-1.071c.31-.857.983-1.179 1.604-1.179.62 0 .983.375.672 1.179-.31.803-.93 1.178-1.603 1.178-.621 0-.983-.375-.673-1.178zm1.604 0c.258-.697-.052-.697-.207-.697s-.517.054-.776.697c-.103.268-.207.696.207.696.465.054.672-.428.776-.696zm2.224-1.072l-.104.268c.363-.321.621-.321.776-.321.57 0 .776.428.518 1.178-.26.697-.776 1.179-1.397 1.179-.103 0-.414-.054-.517-.321l-.362 1.017H28.5L29.586 27c.052-.054.62-.054.62-.054zm-.155 1.822c.362 0 .62-.322.776-.697.206-.589-.052-.696-.207-.696-.207 0-.57.107-.776.696-.155.322-.155.697.207.697zm2.172.321h-.62l.827-2.143h.62l-.31.804h.776l.31-.804h.621l-.827 2.143H33l.31-.91h-.724l-.362.91zm2.38-1.071c.31-.857.982-1.179 1.603-1.179.62 0 .983.375.672 1.179-.31.803-.93 1.178-1.603 1.178-.57 0-.931-.375-.673-1.178zm1.655 0c.258-.697-.052-.697-.207-.697s-.518.054-.776.697c-.104.268-.207.696.207.696.465.054.672-.428.776-.696zm2.017-.375l-.052.107-.517 1.393h-.62L37.913 27h.827v1.5L39.88 27h.828l-.828 2.143h-.62l.517-1.393.052-.107-1.138 1.5h-.414v-1.5zm3.724.375c.31-.857.983-1.179 1.603-1.179.621 0 .983.375.673 1.179-.31.803-.931 1.178-1.604 1.178-.62 0-.982-.375-.672-1.178zm1.655 0c.259-.697-.052-.697-.207-.697s-.517.054-.776.697c-.103.268-.206.696.207.696.414.054.621-.428.776-.696zm2.276.857c-.31.268-.569.321-.828.321-.672 0-.465-.642-.362-.857L45.26 27h.62l-.465 1.232c-.155.429-.104.59.155.59.414 0 .569-.43.62-.59l.466-1.178h.62l-.827 2.142h-.62l.103-.321zm1.81-1.929h.362l.26-.642h.62l-.259.642h.466l-.156.429h-.465l-.414 1.018c-.052.107-.103.268.104.268.103 0 .207-.054.207-.054l-.156.429c-.207.053-.413.053-.517.053-.414 0-.465-.214-.31-.643l.414-1.178h-.31l.154-.322zm2.638 2.143l.104-.268c-.31.268-.466.322-.776.322-.57 0-.776-.482-.517-1.179.258-.696.776-1.125 1.396-1.125.207 0 .466.107.517.268l.414-1.018h.62L51 29.036h-.62v.053zm.259-1.768c-.362 0-.62.322-.776.697-.207.428-.103.696.207.696.259 0 .569-.214.776-.696.155-.429.103-.697-.207-.697zm1.396.697c.31-.857.983-1.179 1.604-1.179.62 0 .983.375.672 1.179-.31.803-.93 1.178-1.603 1.178-.62 0-.983-.375-.673-1.178zm1.604 0c.259-.697-.052-.697-.207-.697s-.517.054-.776.697c-.103.268-.207.696.207.696.466.054.672-.428.776-.696zm1.19 0c.31-.857.982-1.179 1.603-1.179.62 0 .983.375.672 1.179-.31.803-.93 1.178-1.603 1.178-.62 0-.983-.375-.672-1.178zm1.603 0c.259-.697-.052-.697-.207-.697s-.517.054-.776.697c-.103.268-.207.696.207.696.466.054.673-.428.776-.696zm2.948-.697h-.155c-.362 0-.672.161-.983.911l-.31.857h-.62l.827-2.143h.62l-.103.322c.31-.322.62-.429.88-.429h.051l-.207.482zm3.259.965c-.155.321-.569.857-1.345.857-.672 0-.93-.429-.672-1.179.207-.482.672-1.178 1.603-1.178.673 0 .776.428.62.857h-.62c.104-.322-.052-.429-.258-.429-.104 0-.466.054-.725.697-.258.696.052.75.207.75.31 0 .518-.322.57-.482l.62.107zm2.586-1.607h.104c.258 0 .775-.215.93-.536h.518l-1.138 2.946h-.672L65.74 27h-.672l.155-.321zm2.586 1.714c-.051.214.156.268.362.268.31 0 .57-.215.828-.75-.103.107-.414.268-.724.268-.62 0-.828-.429-.62-1.018.206-.482.62-1.125 1.5-1.125.258 0 1.137.053.62 1.5-.104.321-.673 1.66-1.81 1.66-.725 0-.776-.482-.725-.803h.57zm1.138-1.822c-.414 0-.62.322-.724.59-.103.321 0 .589.31.589.414 0 .621-.321.725-.59.051-.106.155-.589-.31-.589zm1.707.322c.104-.322.57-.857 1.345-.857.724 0 .931.375.776.857-.104.321-.362.536-.673.643.26.107.414.321.26.696-.104.268-.415.964-1.5.964-1.087 0-.932-.642-.829-.964.156-.375.414-.59.776-.696-.207-.107-.31-.322-.155-.643zm1.086 1.286c.052-.161.104-.483-.362-.483-.465 0-.672.322-.724.483-.103.214-.052.482.362.482.466 0 .673-.268.724-.482zm.414-1.233c.104-.214-.052-.321-.31-.321-.259 0-.517.107-.62.321-.104.322.103.429.31.429.362-.054.517-.268.62-.429zm1.293-.053c.104-.322.57-.857 1.345-.857.724 0 .931.375.776.857-.103.321-.362.536-.672.643.258.107.413.321.258.696-.103.268-.414.964-1.5.964s-.93-.642-.827-.964c.155-.375.413-.59.775-.696-.155-.107-.258-.322-.155-.643zm1.138 1.286c.052-.161.104-.483-.362-.483-.465 0-.672.322-.724.483-.103.214-.052.482.362.482s.62-.268.724-.482zM75 26.946c.103-.214-.052-.321-.31-.321-.259 0-.518.107-.621.321-.103.322.103.429.31.429.362-.054.518-.268.621-.429zm2.224 2.143h-.62l.827-2.143h1.603l-.155.429h-.982l-.673 1.714zm1.759-1.071c.31-.857.983-1.179 1.603-1.179s.983.375.673 1.179c-.31.803-.931 1.178-1.604 1.178-.672 0-.983-.375-.672-1.178zm1.655 0c.259-.697-.052-.697-.207-.697s-.517.054-.776.697c-.103.268-.207.696.207.696.414.054.62-.428.776-.696zm.983.643c.31-.322.62-.75.827-1.34l.155-.428h1.81l-.62 1.714h.31l-.413 1.018h-.57l.208-.59h-1.604l-.207.59h-.569l.31-1.018h.363v.054zm1.396-1.286l-.103.214c-.207.482-.466.857-.62 1.072h.827l.465-1.286h-.569zm1.966.268c.31-.75 1.034-.804 1.293-.804.93 0 .776.59.62.804l-.413.964c-.104.214-.155.375-.052.429v.053h-.672l.051-.214c-.258.214-.569.268-.827.268-.673 0-.57-.429-.466-.643.207-.482.62-.59 1.035-.643.465-.053.62-.053.724-.268 0-.053 0-.053.052-.053.103-.268-.156-.268-.259-.268-.103 0-.414.053-.517.321l-.57.054zm1.138.428c-.207.108-.207.054-.466.108-.155.053-.414.053-.465.321-.104.214.103.268.207.268.155 0 .465-.107.672-.536l.052-.16z"/>
    </g>
</svg>
