<svg xmlns="http://www.w3.org/2000/svg" width="70" height="20" viewBox="0 0 70 20">
    <g fill="#FFF">
        <path d="M2.016.185C4.47 3.89 8.099 4.852 12.02 5.26c2.712.297 5.387.148 8.1-.11 5.57-.482 10.738.518 15.245 4.073.807.63 1.576 1.37 2.09 2.334-5.388-4-11.435-4.926-17.885-4.519-3.775.26-7.55.407-11.325-.481C5.058 5.815 2.86 4 2.09.63 2.052.593 2.052.444 2.016.185zM20.01 9.926h3.629c.293 0 .623-.111.66.407.036.519-.33.408-.624.408-1.795 0-3.591.037-5.387-.037-.66-.037-.953.185-.916.889.036 2.148.036 4.333 0 6.481-.037.667.22.889.88.852.806-.037 1.612 0 2.418-.037.66-.037 1.026-.296.99-1.037-.074-.852-.074-1.704 0-2.556.036-.63-.22-.74-.733-.703-.77.037-1.54 0-2.346.037-.366 0-.476-.111-.513-.482-.037-.407.183-.444.513-.444 1.723.037 3.482.037 5.204.037.367 0 .477.148.477.481-.037 1.704-.037 3.408 0 5.074 0 .334-.11.445-.44.445-2.602-.037-5.168.037-7.77-.037-.953-.037-1.502-.667-1.502-1.667-.037-2.111-.037-4.26 0-6.407.036-1.186.55-1.741 1.722-1.741 1.246 0 2.492.037 3.738.037zM59.188 14.704c0 1.37-.036 2.777.037 4.148.037.63-.22.852-.806.74-.623-.11-1.32.26-1.796-.37-.843.63-1.796.26-2.712.334-.696.074-1.43.037-2.126 0-1.392-.037-1.979-.63-2.015-2-.037-2.37.036-4.704-.037-7.037-.037-.63.22-.778.806-.778 1.65 0 1.65-.037 1.65 1.592 0 2.26.036 4.519-.037 6.778-.037.667.22.889.843.852.843-.037 1.722 0 2.602-.037.806 0 1.246-.37 1.246-1.26-.037-2.37.037-4.703-.037-7.036-.036-.704.184-.89.88-.89 1.502.038 1.502 0 1.502 1.482v3.482zM3.298 14.852c0 1.074.037 2.111-.036 3.185-.037.704.22.852.843.815 1.282-.037 2.565-.037 3.811-.037.33 0 .587-.037.623.444.037.482-.256.445-.586.445-1.906 0-3.848.037-5.79-.037C.99 19.63.365 19.11.365 17.963c-.073-2.148-.036-4.333 0-6.482.037-1.074.587-1.63 1.613-1.666 1.98-.037 3.958-.037 5.974-.037.293 0 .55.037.55.444 0 .445-.294.408-.55.408-1.283 0-2.566.037-3.812-.037-.623-.037-.88.148-.843.851.037 1.223 0 2.297 0 3.408zM65.382 14.296c.697-1.185 1.393-2.11 1.87-3.185.586-1.222 1.429-1.63 2.711-1.222.11.222-.146.407-.256.592-.44.741-.843 1.556-1.393 2.186-1.466 1.74-2.052 3.74-1.722 6 .11.777-.22.926-.917.926-1.612-.037-1.685-.037-1.576-1.63.147-1.815-.293-3.37-1.392-4.778-.77-1-1.393-2.148-2.162-3.407.732 0 1.356.037 1.942 0 .403-.037.513.296.66.555.696 1.26 1.429 2.519 2.235 3.963zM12.827 14.852c0 1.444-.036 2.889.037 4.333.037.482-.147.63-.623.63-2.162.037-2.162.074-2.162-2.074 0-2.408.036-4.778-.037-7.148-.037-.63.183-.778.77-.778 2.015 0 2.015-.037 2.015 2.037v3z"/>
        <path d="M8.1 1.926c3.335 2.037 6.963 2 10.628 1.704 1.649-.149 3.262-.186 4.91-.037 2.786.259 5.425.888 7.88 2.296.44.26.917.444 1.393 1.111-2.859-1.481-5.68-2.185-8.613-2.519-2.345-.259-4.654.038-6.963.186-1.76.11-3.555.074-5.277-.297-1.576-.333-2.896-1.148-3.959-2.444zm38.774 12.667C48.377 14 49 11.926 48.157 10.556c-.22-.37-1.21-1.075-2.639-1.075-1.832.038-1.979-.185-3.775.667-.073.037-.146.185-.22.037 0-.704-1.502-.407-1.502-.407-.696 0-.99.11-.99.926.074 2.407.037 4.852.037 7.259 0 1.667 0 1.667 1.65 1.63.036 0 .073.037.11 0 .622-.593 1.282-.037 1.905 0 1.32.037 2.602.037 3.921 0 .623 0 1.173-.223 1.503-.741.88-1.408.22-3.63-1.283-4.26zM43.1 10.37c.697 0 1.43.037 2.126 0 .55-.037.77.26.77.778 0 .74-.037 1.519 0 2.26.036.629-.22.925-.88.851-.476-.037-.953 0-1.466 0-2.199 0-2.199 0-2.199-2.259.037-1.481.147-1.593 1.65-1.63zm1.943 8.593c-.367-.037-.77 0-1.21 0-2.638.037-2.345-.074-2.345-2.407 0-1.63 0-1.63 1.576-1.63.623 0 1.246.037 1.832-.037.88-.074 1.173.333 1.1 1.148-.037.63-.037 1.26 0 1.852.073.778-.183 1.148-.953 1.074zM37.162 19.26c-1.32-2.445-2.309-5.038-3.481-7.556-.917-1.926-.88-1.926-3.079-1.852-.403 0-.586.111-.77.481-1.392 3.111-2.602 6.334-4.324 9.445 1.43-.037 2.932.222 3.408-1.37.513-1.593 1.466-1.927 2.896-1.704.146.037.256.037.366 0 .77-.185 1.063.259 1.32.926.769 2.074 1.172 2.296 3.334 2.148.44 0 .55-.074.33-.519zm-4.58-3.334c-2.64.148-2.64.111-1.613-2.296.146-.334.293-.63.476-1.074.476 1.185.88 2.222 1.283 3.222-.074.074-.11.148-.147.148z"/>
    </g>
</svg>
