<svg xmlns="http://www.w3.org/2000/svg" width="90" height="19" viewBox="0 0 90 19">
    <g fill="none">
        <path fill="#F6A709" d="M17.648.41H3.57C1.609.41 0 2.055 0 4.109v6.933c0 2.002 1.609 3.697 3.62 3.697h17.095c.352 0 .603-.257.603-.616V4.108c-.05-2.054-1.659-3.697-3.67-3.697zm2.866 12.685c0 .41-.352.77-.754.77H3.47c-1.51 0-2.716-1.233-2.716-2.773V3.954c0-1.54 1.207-2.773 2.715-2.773H17.8c1.508 0 2.715 1.233 2.715 2.773v9.14z"/>
        <path fill="#2B2B2A" d="M86.782 3.492c.704 0 1.408.103 2.011.462.302.205 1.006.257.604.924-.302.514-.503 1.027-1.308.514-1.005-.668-2.363-.41-3.117.513-.654.925-.654 2.568.05 3.44.755.925 2.012 1.08 3.269.463.351-.154.603-.77 1.156-.154.452.565.503.873-.15 1.284-2.263 1.438-5.33.976-6.537-1.079-.82-1.291-.84-2.95-.05-4.262.804-1.592 2.312-2.105 4.072-2.105z"/>
        <path fill="#2D2D2C" d="M48.77 3.646c.956 0 1.861.051 2.817 0 .603-.051.653.308.653.77s0 .77-.653.822c-1.81.103-1.81.103-1.81 2.003 0 1.18-.05 2.362 0 3.543.1.975-.453.873-1.056.873-.704.051-1.106-.052-1.056-.976.1-1.54 0-3.081.05-4.57.05-.77-.201-1.027-.955-.925-.252.052-.553 0-.855 0-.654.103-.704-.308-.704-.821 0-.514.1-.77.704-.77 1.006.05 1.91.05 2.866.05z"/>
        <path fill="#2E2E2D" d="M65.866 16.997c0 .77-.704 1.54-1.458 1.49-.855-.052-1.358-.514-1.408-1.387-.05-.873.553-1.54 1.408-1.54.754-.052 1.408.616 1.458 1.437z"/>
        <path fill="#2A2A29" d="M75.972 7.908c.603.051 3.117-.051 3.72.051.705.052.805-.256.755-.873-.251-2.824-2.765-4.364-5.33-3.286-1.508.616-2.363 2.054-2.313 3.954.05 1.797.956 3.235 2.514 3.8 1.61.616 3.822.154 4.777-.924.201-.206.302-.36.1-.616-.351-.514-.603-.77-1.307-.309-1.609 1.079-3.167.617-3.57-.873-.15-.616-.1-.975.654-.924zm-.654-1.592c-.1-.462.202-.873.604-1.18.503-.412 1.106-.412 1.659-.104.453.257.804.72.704 1.233-.1.616-.704.154-1.056.308-.1.051-.251 0-.402 0-.151 0-.352.051-.503 0-.352-.103-.855.257-1.006-.257zM42.285 3.595c-.855.05-1.207.205-1.157 1.18.101 1.85 0 1.798-1.76 1.9-1.005.052-1.407-.256-1.256-1.283.05-.36 0-.719 0-1.078.1-.976-.604-.668-1.056-.668-.453 0-1.106-.36-1.106.616v6.727c0 .257-.05.462.251.616 1.056.463 1.91-.102 1.91-1.18V8.831c0-.359.051-.564.504-.616 2.312-.36 2.513-.205 2.513 2.157v.41c-.15 1.028.554.822 1.107.822.502 0 1.106.206 1.056-.77-.05-1.027-.05-5.084 0-6.06.05-.82-.05-1.232-1.006-1.18zm14.631 4.313s2.816-.103 3.47.103c.854.103.955-.36.854-1.079-.301-2.464-2.212-3.8-4.676-3.286-1.609.36-2.765 1.746-2.916 3.595-.201 2.002.754 3.697 2.464 4.364 1.659.617 4.022.154 4.877-.975.15-.206.251-.36.05-.565-.352-.41-.553-.873-1.307-.36-1.559 1.027-3.067.72-3.57-.616-.302-.924-.15-1.18.754-1.18zm-.754-2.157c.302-.667.855-1.027 1.609-.924.905.154 1.257.822 1.408 1.746h-2.564c-.704.051-.654-.36-.453-.822zm8.145-1.848c-.653.36-.804.667-.301 1.335.402.565.603.308 1.005.103 1.207-.565 2.564-.36 3.218.564.704.976.553 2.722-.352 3.646-.503.514-1.106.77-1.71 1.027-.502.206-.804.154-.754-.513.05-.565 0-1.181 0-1.797 0-.257.05-.514-.352-.617-1.257-.308-1.709 0-1.709 1.284 0 0 .05 3.697.05 4.52 0 .513.252.667.654.564.452-.103 1.408.41 1.357-.36-.05-1.18.604-1.18 1.308-1.335.653-.205 1.257-.41 1.86-.77 2.313-1.335 3.168-3.851 2.011-5.957-1.106-2.002-4.173-2.824-6.285-1.694zm-31.726-.206c-.503-.051-1.056-.102-1.559 0-.502.103-.15.617-.301.925-.05.051-.1.205-.151.256-.905 1.027-1.81 2.054-2.967 3.338 0-1.592-.05-2.773-.05-3.954.05-.77-.503-.616-.905-.565-.402.052-1.156-.41-1.156.565v6.83c0 .462.15.719.603.616.503-.103 1.207.41 1.508-.41.553-1.644 2.012-2.517 3.067-3.8.1 1.232.151 2.361.1 3.543-.05.975.604.667 1.057.667.452 0 1.056.308 1.056-.667V4.314c0-.257 0-.565-.302-.617z"/>
        <path fill="#F6A709" d="M6.637 7.651v2.979c0 .41.302.975-.503 1.027-.804.051-.553-.565-.553-.976 0-1.695-.05-3.338 0-5.032 0-.72-.201-.925-.855-.873-.402.051-.955.205-.955-.565 0-.77.553-.565.955-.616 1.961-.052 1.961-.052 1.961 2.002-.05.72-.05 1.387-.05 2.054z"/>
        <path fill="#F6A709" d="M5.128 8.473v2.568c0 .359-.1.616-.502.616-.503 0-.604-.206-.604-.668V7.241c0-.514-.05-.925-.704-.873-.452.05-.502-.257-.502-.617 0-.462.251-.513.603-.513h.955c.553-.052.754.154.754.719v2.516zm12.67 2.054h-.854c-1.96-.051-3.972.154-5.933-.103C9.603 10.27 8.547 9.038 8.547 7.6c-.05-1.438.956-2.722 2.313-2.978 1.458-.308 2.715.462 3.268 1.951.202.41.252 1.181 1.006.822.654-.309.201-.873.05-1.284-.653-1.952-2.614-2.979-4.625-2.568-1.86.411-3.168 2.208-3.067 4.262.1 2.003 1.71 3.698 3.72 3.8 2.213.103 4.375.052 6.587.052.402 0 .603-.154.603-.616 0-.463-.251-.514-.603-.514z"/>
        <path fill="#F6A709" d="M10.156 7.805c-.1-.719.202-1.283.855-1.54.754-.308 1.307.051 1.71.77.352.668.804.616 1.206 0-.402-.924-.955-1.746-2.061-1.951-1.307-.257-2.615.719-2.816 2.105-.2 1.49.754 2.773 2.162 2.825 2.363.05 4.727 0 7.09 0h.05c.201-.822-.1-1.13-.955-1.079-1.86.051-3.771 0-5.632 0-.804 0-1.458-.257-1.609-1.13z"/>
        <ellipse cx="17.497" cy="4.519" fill="#F8C45B" rx="1.106" ry="1.13"/>
    </g>
</svg>
