<svg xmlns="http://www.w3.org/2000/svg" width="70" height="28" viewBox="0 0 70 28">
    <g fill="none">
        <path fill="#FFF" d="M3.115 16.683c.116-.155 2.308-3.616 3.731-5.405l.385-.078C6.038 8.75 3.96 6.883 1.423 5.989.493 7.62.003 9.472 0 11.356c0 2.527.885 4.86 2.385 6.65.23-.467.5-.895.73-1.323"/>
        <path fill="#FFF" d="M1.846 6.961c.577.272 1.077.622 1.577.972l.192-.894C2.962 6.61 2.231 6.26 1.5 5.989c-.423.7-.77 1.478-1 2.294l.73.623c.116-.662.308-1.323.616-1.945"/>
        <path fill="#FFF" d="M6.308 12.017C5.538 9.8 3.962 7.972 1.846 6.96c-1.504 3.23-.992 7.052 1.308 9.761.077-.194 1.77-2.839 3.154-4.705M19.115 11.278c1.462 1.789 3.654 5.289 3.731 5.405.27.428.5.856.73 1.323 1.54-1.867 2.424-4.24 2.386-6.65 0-1.945-.539-3.812-1.462-5.367-2.538.894-4.615 2.761-5.808 5.211l.423.078"/>
        <path fill="#FFF" d="M24.154 6.961c.27.622.5 1.283.654 1.983l.73-.622c-.23-.816-.576-1.555-1-2.294-.73.272-1.461.622-2.115 1.05l.192.894c.462-.428 1-.739 1.539-1.01"/>
        <path fill="#FFF" d="M22.846 16.683c2.293-2.712 2.805-6.53 1.308-9.76-2.117 1.004-3.731 2.847-4.462 5.094 1.385 1.905 3.077 4.55 3.154 4.666"/>
        <path fill="#FFF" d="M13 0.117L2.885 5.328 2.885 5.561 13 10.772 23.115 5.561 23.115 5.328z" opacity=".6"/>
        <path fill="#FFF" d="M13 10.811L23.115 5.6 13 0.35 2.885 5.561z" opacity=".6"/>
        <path fill="#FFF" d="M22.846 16.683c.116.195-2.23-3.539-3.73-5.405-4.055-.62-8.177-.62-12.231 0-1.462 1.789-3.654 5.289-3.731 5.405 4.192 1.945 7.384 5.561 8.884 9.995H14c1.451-4.427 4.655-8.047 8.846-9.995m-11.692 1.09c0 1.127-.885 2.021-2 2.021-1.116 0-2-.894-2-2.022 0-1.128.884-2.022 2-2.022 1.077 0 2 .894 2 2.022"/>
        <path fill="#FFF" d="M10.923 17.772c0 .972-.808 1.79-1.77 1.79-.96 0-1.768-.818-1.768-1.79 0-.972.807-1.789 1.769-1.789.961 0 1.77.817 1.77 1.79"/>
        <path fill="#A0A0A0" d="M9.885 17.072c0 .272-.231.467-.5.467-.27 0-.462-.233-.462-.506 0-.077.039-.194.077-.272-.538.078-.923.583-.885 1.167.077.505.5.894 1 .894.577 0 1-.466 1-1.01.039-.312-.077-.545-.23-.74" opacity=".6"/>
        <path fill="#FFF" d="M18.615 17.772c-.041 1.108-.942 1.984-2.038 1.984-1.077-.04-1.923-.895-1.962-1.984 0-1.128.885-2.022 2-2.022 1.116 0 2 .894 2 2.022"/>
        <path fill="#222" d="M18.385 17.772c0 .972-.808 1.79-1.77 1.79-.961 0-1.769-.818-1.769-1.79 0-.972.808-1.789 1.77-1.789.96 0 1.769.817 1.769 1.79"/>
        <path fill="#FFF" d="M17.346 17.072c0 .272-.23.467-.5.467s-.461-.233-.461-.506c0-.077.038-.194.077-.272-.553.086-.932.608-.847 1.167.085.558.602.941 1.154.855.577-.077.923-.583.846-1.166-.038-.195-.153-.39-.269-.545"/>
        <path fill="#A0A0A0" d="M22.654 16.411c1.685-2.33 2.049-5.38.961-8.05-1.846.622-3.23 2.178-3.653 4.083 1.115 1.478 2.269 3.267 2.692 3.967zM6 12.444c-.423-1.905-1.808-3.46-3.654-4.083-.423 1.011-.615 2.061-.615 3.15 0 1.828.577 3.539 1.577 4.9.461-.7 1.615-2.489 2.692-3.967zm1.77-1.322c3.46-.466 7-.466 10.46 0V7c0-1.283-2.345-2.294-5.23-2.294-2.885 0-5.23 1.01-5.23 2.294v4.122z"/>
        <path fill="#FFF" d="M22.846 16.683c-3.461 1.634-6.308 4.395-8 7.856.346.272.577.622.654 1.011 2.5-2.8 6.192-4.2 9.885-3.811-.731-1.711-1.577-3.422-2.539-5.056" opacity=".6"/>
        <path fill="#A0A0A0" d="M16.615 20.767c-1.182 0-2.248-.72-2.7-1.825-.453-1.104-.203-2.375.633-3.22.836-.846 2.094-1.099 3.186-.641 1.092.457 1.804 1.535 1.804 2.73-.038 1.633-1.346 2.956-2.923 2.956m4.154-3.5h-.384c-.268-1.897-1.875-3.306-3.77-3.306-2.115 0-3.846 1.75-3.846 3.889s1.731 3.889 3.846 3.889c1.885 0 3.5-1.4 3.77-3.306h.384c.27 0 .5-.233.5-.505v-.156c0-.31-.23-.505-.5-.505"/>
        <path fill="#FFF" d="M11.115 24.539c-1.692-3.461-4.538-6.222-8-7.856-.961 1.634-1.807 3.345-2.577 5.095 3.693-.428 7.385 1.01 9.885 3.81.115-.427.385-.777.692-1.05" opacity=".6"/>
        <path fill="#FFF" d="M21.077 22.128c-2.154.583-4.077 1.789-5.577 3.46.038.118.038.234.038.35v.079c.27.039.539.077.847.077 2.077 0 4-1.01 5.192-2.683-.154-.467-.308-.894-.5-1.283M10.423 25.9c0-.117 0-.233.039-.35-1.5-1.672-3.424-2.878-5.577-3.461-.193.428-.347.817-.5 1.244 1.192 1.673 3.153 2.684 5.192 2.684.27 0 .577-.04.846-.04V25.9" opacity=".6"/>
        <path fill="#FFF" d="M15.577 25.9c0 1.089-1.154 1.983-2.577 1.983s-2.577-.894-2.577-1.983 1.154-1.983 2.577-1.983 2.577.894 2.577 1.983"/>
        <path fill="#FFF" d="M13.77 25.083c0 .311-.347.584-.77.584-.423 0-.77-.273-.77-.584 0-.31.347-.583.77-.583.423 0 .77.233.77.583"/>
        <path fill="#D9D9D9" d="M5.23 8.089V4.2c0-.194-.153-.35-.345-.35h-.077c-.193 0-.346.156-.346.35v3.85c-.347.7-1.039 2.022-1.154 2.333.946.578 2.13.578 3.077 0-.154-.31-.77-1.594-1.154-2.294"/>
        <path fill="#FFF" d="M31.77 11.006h5.038v1.244h-3.654v2.178h3.461v1.166h-3.461v3.345h-1.385v-7.933zm5.422 5.21c-.008-.774.298-1.519.846-2.06.27-.234.577-.428.924-.584.346-.116.73-.194 1.115-.194s.77.078 1.115.194c.346.117.654.311.923.584.549.541.855 1.286.847 2.06.008.776-.298 1.52-.847 2.062-.269.233-.577.428-.923.583-.346.156-.73.195-1.115.195s-.77-.078-1.115-.195c-.347-.155-.654-.35-.924-.583-.269-.234-.461-.545-.615-.895-.154-.35-.23-.739-.23-1.166zm1.346 0c0 .195.039.428.077.623.077.194.154.389.27.544.115.156.269.311.461.39.192.116.423.155.692.155.27 0 .5-.04.693-.156.192-.116.346-.233.461-.389.116-.155.231-.35.27-.544.076-.195.076-.428.076-.622 0-.195-.038-.428-.076-.623-.077-.194-.154-.388-.27-.544-.115-.156-.269-.311-.461-.389-.193-.117-.423-.155-.693-.155-.269 0-.5.038-.692.155-.177.098-.334.23-.461.389-.116.156-.231.35-.27.544-.038.195-.077.428-.077.623zm6.924-.155l-1.924-2.528h1.577l1.154 1.673 1.193-1.673H49l-1.885 2.528L49.27 18.9h-1.615l-1.385-1.944-1.384 1.944h-1.577l2.154-2.839zm4.807-1.439h-1v-1.089h1v-.777c0-.312.039-.623.116-.934.106-.576.477-1.067 1-1.322.269-.117.615-.194 1.038-.194h.385c.115 0 .192.038.307.077l-.077 1.128c-.076-.039-.153-.039-.23-.039-.077 0-.193-.039-.27-.039-.192 0-.346.04-.461.117-.115.078-.192.156-.27.272-.076.117-.115.234-.115.39-.038.155-.038.271-.038.427v.855h1.23v1.09h-1.23v4.277h-1.346v-4.239h-.039zm3.077 1.595c-.008-.775.298-1.52.846-2.061.27-.234.577-.428.923-.584.347-.116.731-.194 1.116-.194.384 0 .769.078 1.115.194.346.117.654.311.923.584.549.541.854 1.286.846 2.06.008.776-.297 1.52-.846 2.062-.269.233-.577.428-.923.583-.346.156-.73.195-1.115.195s-.77-.078-1.116-.195c-.346-.155-.653-.35-.923-.583-.269-.234-.461-.545-.615-.895-.154-.35-.23-.739-.23-1.166zm1.346 0c0 .194.039.427.077.622.077.194.154.389.27.544.115.156.269.311.461.39.192.116.423.155.692.155.27 0 .5-.04.693-.156.177-.097.334-.23.461-.389.116-.155.23-.35.27-.544.076-.195.076-.428.076-.622 0-.195-.038-.428-.077-.623-.077-.194-.153-.388-.269-.544-.115-.156-.27-.311-.461-.389-.193-.117-.423-.155-.693-.155-.269 0-.5.038-.692.155-.178.098-.334.23-.462.389-.115.156-.23.35-.269.544-.038.195-.077.428-.077.623zm5.693-2.645h1.269v.895h.038c.154-.311.346-.584.616-.778.269-.195.577-.272.923-.272h.154c.077 0 .115 0 .153.039V14.7c-.076-.039-.153-.039-.23-.039h-.193c-.307 0-.538.039-.73.156-.193.116-.347.233-.423.389-.116.155-.193.31-.193.466-.038.156-.038.311-.038.39v2.877h-1.346v-5.367zm9.23 5.367h-1.269v-.817h-.038c-.193.311-.423.545-.77.7-.671.311-1.443.311-2.115 0-.308-.155-.577-.35-.808-.622-.23-.272-.384-.544-.538-.894-.262-.716-.262-1.502 0-2.217.115-.35.308-.622.538-.895.231-.272.5-.466.808-.583.308-.155.654-.233 1.039-.233.23 0 .461.039.653.078.193.038.347.116.5.194.154.078.27.156.385.272.115.078.192.195.27.272h.038v-3.772h1.346v8.517h-.039zm-4.384-2.722c0 .194.038.427.077.622.077.194.154.389.269.544.115.156.27.311.461.39.193.116.424.155.693.155.23 0 .461-.04.654-.156.192-.116.346-.233.5-.389.153-.155.23-.35.307-.544.233-.608.115-1.296-.307-1.789-.154-.156-.308-.311-.5-.389-.193-.117-.423-.155-.654-.155-.27 0-.5.038-.693.155-.177.098-.334.23-.461.389-.115.156-.23.35-.27.544-.038.195-.076.428-.076.623z"/>
    </g>
</svg>
