<svg xmlns="http://www.w3.org/2000/svg" width="70" height="34" viewBox="0 0 70 34">
    <g fill="none">
        <path fill="#C6C5C5" d="M19.342 32.684L2.505 34 0 8.774l1.326-.11c.737-.073 1.29-.73 1.216-1.498l-.147-1.317c-.074-.767.479-1.462 1.29-1.498l9.283-.732c.774-.073 1.474.512 1.548 1.28l.147 1.316.148 1.39 4.752-.366 17.61.256 1.77 21.094-3.206 2.779-16.395 1.316z"/>
        <path fill="#066BC6" d="M25.863 0.037L4.863 10.895 2.616 34 23.505 32.355 35.258 31.441 42.774 30.856 45.021 7.751z"/>
        <path fill="#FFF" d="M16.026 24.604l-2.394-3.875h-1.953v3.875H9.358V13.71h5.12c2.285 0 3.685 1.499 3.685 3.51 0 1.937-.995 2.96-2.174 3.217l2.69 4.13c.037.037-2.653.037-2.653.037zm-.22-7.385c0-.914-.7-1.462-1.659-1.462H11.68v2.925h2.468c.921 0 1.658-.549 1.658-1.463zm4.383 7.385V13.71h7.774v2.047h-5.452v2.303h4.826v2.048H22.51v2.449h5.415v2.047H20.19zm9.064-5.447c0-3.437 2.615-5.63 5.858-5.63 2.284 0 3.72 1.133 4.531 2.45l-1.953 1.06c-.57-.888-1.555-1.425-2.615-1.426-1.99 0-3.427 1.535-3.427 3.583 0 2.047 1.437 3.582 3.427 3.582.958 0 1.879-.438 2.32-.84v-1.17h-2.91v-2.048h5.232v4.058c-1.105 1.243-2.69 2.048-4.68 2.048-3.168 0-5.783-2.23-5.783-5.667z"/>
        <path fill="#000" d="M45.463 23.471c0-.731.626-1.316 1.326-1.316.737 0 1.327.621 1.327 1.316 0 .731-.59 1.316-1.327 1.316-.736 0-1.326-.621-1.326-1.316zm11.2 1.133l-2.616-3.875h-1.731v3.875h-2.321V13.71h5.12c2.285 0 3.685 1.499 3.685 3.51 0 1.937-1.216 2.96-2.395 3.217l2.948 4.13c0 .037-2.69.037-2.69.037zm-.258-7.385c0-.914-.7-1.462-1.658-1.462h-2.431v2.925h2.468c.921 0 1.621-.549 1.621-1.463zm4.163 3.035V13.71h2.358v6.47c0 1.536.663 2.56 2.358 2.56s2.321-1.06 2.321-2.56v-6.47H70v6.544c0 2.705-1.363 4.57-4.716 4.57-3.352-.037-4.716-1.901-4.716-4.57z"/>
    </g>
</svg>
