<svg xmlns="http://www.w3.org/2000/svg" width="90" height="17" viewBox="0 0 90 17">
    <g fill="none">
        <path fill="#FE9B63" d="M19.8 16.292c-1.09-.048-1.658-.803-1.658-2.078 0-1.18.569-1.936 1.61-2.03l9.237-.048c1.848.047 2.653 2.078 1.611 3.589-.237.378-.616.614-1.137.614H19.8v-.047z"/>
        <path fill="#FE9A63" d="M20.037 5.006c-1.184 0-1.848-.709-1.848-2.031 0-1.37.616-2.172 1.848-2.172h9.142c1.137 0 1.847.803 1.847 2.078s-.71 2.077-1.847 2.077h-9.142v.048zm0 5.619c-1.184 0-1.848-.756-1.848-2.03 0-1.323.664-2.173 1.848-2.173h9.095c1.184 0 1.894.803 1.894 2.172 0 1.323-.71 2.078-1.942 2.078-1.516-.047-9.047-.047-9.047-.047z"/>
        <path fill="#2C8DEE" d="M54.71 12.136c-1.61 0-3.22-.047-4.831 0-.521 0-.758-.094-.758-.708 0-.567.142-.709.71-.709 1.185.048 2.416 0 3.6 0 1.611 0 2.227-1.086 2.18-2.172-.048-1.18-.616-2.078-2.18-2.078-1.231 0-2.463-.047-3.694 0-.474 0-.663-.094-.663-.613 0-.52.19-.614.663-.614 1.374.047 2.842.094 4.216 0 1.563-.095 2.273-.33 2.652-1.984.237-.991-.52-2.597-1.942-2.597h-8.242c-.947 0-1.374.378-1.705 1.086-.142.472-.237.945-.237 1.417v10.72c.047 2.172.758 2.833 2.842 2.88h6.395c.52 0 1.042-.095 1.563-.189.995-.189 1.468-1.37 1.421-2.314-.095-1.322-.947-2.125-1.99-2.125zM13.738.425c-.805-.378-2.369.189-2.89.85L8.053 4.958c-.237.425-.474.33-.71 0L5.872 3.07C5.022 2.078 4.454.85 3.033.52 1.374.094 0 1.04 0 2.692v11.805c0 1.322.758 2.078 2.179 2.078 1.421 0 2.226-.756 2.226-2.172V7.792c.663.802 1.232 1.605 1.848 2.266.758.803 2.036.803 2.842 0 .568-.566 1.042-1.227 1.705-1.983 0 2.22 0 4.156.047 6.044 0 1.653.853 2.456 2.464 2.456 1.373 0 2.084-.803 2.084-2.361l.047-11.428c.047-1.322-.805-1.983-1.705-2.361zm27.095 11.617h-1.753c-.616.094-.758-.142-.758-.756V2.408c0-1.227-.853-1.983-2.179-1.983-1.374 0-2.274.708-2.274 1.936V14.64c0 1.039.474 1.605 1.421 1.794 1.658.378 3.364.142 4.974.142 1.848 0 2.89-1.417 2.369-3.211-.237-.897-.806-1.322-1.8-1.322zM89.905 1.464C89.337.66 88.2.236 87.253.519c-1.042.331-1.421.945-1.421 2.078v4.58c-1.469-1.888-4.074-5.76-4.074-5.76C81.189.567 80.1.189 79.153.425c-.853.236-1.61 1.086-1.61 1.983V14.45c0 1.322.946 2.078 2.368 2.03 1.278 0 2.036-.802 2.036-2.172V9.633l2.085 3.211c.757.992 1.279 2.173 2.226 3.07.758.755 1.753.85 2.653.472C89.668 16.008 90 15.3 90 14.403V2.267c0-.236-.095-.803-.095-.803zM67.121.378c-5.637-.378-9 3.73-9.047 8.075-.048 4.344 3.41 8.358 8.29 8.17 4.878.235 8.241-3.873 8.336-7.887.095-4.58-3.505-8.122-7.579-8.358zm-.616 11.805c-1.99 0-3.647-1.605-3.647-3.636 0-2.03 1.61-3.636 3.647-3.636 1.99 0 3.648 1.606 3.648 3.636 0 2.03-1.658 3.636-3.648 3.636z"/>
    </g>
</svg>
