<svg xmlns="http://www.w3.org/2000/svg" width="100" height="17" viewBox="0 0 100 17">
    <g fill="#FFF" fill-rule="evenodd">
        <path d="M32.792 9.765c0 1.44-1.188 2.498-2.823 2.498-1.636 0-2.823-1.058-2.823-2.498V4.437H26.01v5.38c0 1.886 1.636 3.493 3.959 3.493 2.312 0 3.958-1.67 3.958-3.494v-5.38h-1.135v5.329zm9.27-5.318H39.01v8.873h3.053c2.541 0 4.291-1.72 4.291-4.436 0-2.664-1.75-4.437-4.291-4.437zm-.114 7.764h-1.813V5.556h1.813c1.927 0 3.281 1.275 3.281 3.328-.01 2.218-1.416 3.275-3.281 3.327zm24.76.166c-2.03 0-3.395-1.503-3.395-3.493 0-2.001 1.416-3.442 3.395-3.442 1.584 0 2.542.892 2.542.892l.448-.778S68.678 4.5 66.594 4.5c-2.709 0-4.406 2-4.406 4.385 0 2.446 1.75 4.498 4.52 4.498 2.146 0 3.22-1.44 3.22-1.44l-.626-.664c-.052-.062-.906 1.099-2.594 1.099zm8.48-7.93h1.135v8.873h-1.135V4.447zm6.218 1.11h2.823v7.763h1.136V5.556h2.823V4.447h-6.782v1.11zm17.406-1.11L96.105 8.5l-2.77-4.053h-1.188l3.396 4.934v3.94h1.125V9.38L100 4.447h-1.188zm-45.166 0l-3.5 8.873h1.135l.959-2.55 3.677-.777 1.24 3.327h1.135l-3.448-8.873h-1.198zm-1.073 5.266l1.698-4.105h.052L55.74 9.1l-3.167.612zM16.51.29l.573.28v7.36c0 3.14-1.645 4.924-3.416 5.722L9.333 16.14c-.03.02-.062.041-.104.062l-.052.03C8.24 16.753 7.22 17 6.26 17 3.417 17 0 14.73 0 10.2V3.4l1.135.57v6.23c0 4.53 3.417 5.66 5.125 5.66 1.063 0 2.771-.436 3.928-1.845-2.115-.498-4.49-2.302-4.49-6.085V1.244L1.146 3.96 0 3.4 5.688 0l.572.28.573.28v7.36c0 3.928 2.573 4.882 3.99 5.058.344-.746.562-1.658.562-2.799V2.82l1.136.57v6.8c0 1.048-.188 1.98-.5 2.789 1.437-.207 3.916-1.192 3.916-5.048V1.275L12.521 3.4l-1.136-.57L15.938 0l.572.29z"/>
    </g>
</svg>
