<svg xmlns="http://www.w3.org/2000/svg" width="90" height="22" viewBox="0 0 90 22">
    <path d="M56.202.143c.048-.047.144-.095.24-.047 1.723.86 3.398 1.674 5.122 2.534l-5.17-1.578c-1.724.478-3.447 1.052-5.218 1.578 1.675-.86 3.35-1.673 5.026-2.487zM43.23 3.061c1.053-.096 2.106.048 3.111.382.48.144.91.43 1.437.527.143.047.287 0 .383-.144.143-.143.239-.383.335-.526 0 .622.048 1.291 0 1.913 0 .526.048 1.052 0 1.578-.24-.287-.335-.67-.575-1.004-.479-.813-1.149-1.578-2.058-1.96-1.004-.455-2.156-.455-3.16 0-.766.334-1.436.956-1.915 1.625-.766 1.052-1.197 2.344-1.244 3.683-.048 1.339.143 2.726.813 3.874.726 1.35 2.067 2.261 3.59 2.439 1.39.048 2.777-.478 3.83-1.387.288-.24.527-.574.862-.765-.095.287-.287.478-.43.717-.814 1.004-1.963 1.722-3.256 1.913-.43.096-.814.048-1.245.048-1.148-.048-2.345-.287-3.398-.861-.958-.526-1.772-1.387-2.25-2.391-.431-.909-.67-1.865-.719-2.87.048-1.387.48-2.774 1.245-3.922 1.101-1.626 2.825-2.678 4.644-2.87zm-9.958.096h3.59c-.287.095-.622.19-.909.382-.43.287-.622.813-.574 1.34 0 1.482-.048 2.917 0 4.4v6.647c-.048.24-.288 0-.335-.096-1.915-2.439-3.83-4.878-5.793-7.317l-2.68-3.396c-.049.144-.049.287-.049.43v8.944c0 .43.192.909.575 1.196.24.143.574.143.861.191-1.148.048-2.297 0-3.446 0 .287-.143.67-.143.91-.335.286-.239.43-.621.43-.956V4.878c0-.478-.191-1.004-.622-1.291-.24-.191-.575-.287-.862-.383h3.399c2.298 2.87 4.596 5.74 6.941 8.561V5.022c0-.526-.095-1.1-.478-1.435-.288-.287-.623-.335-.958-.43zm30.83.047h3.255c1.245 2.63 2.442 5.309 3.687 7.987 1.148-2.678 2.297-5.356 3.446-7.987 1.054 0 2.107 0 3.16.048-.287.096-.575.191-.814.383-.383.335-.526.86-.479 1.387l1.15 9.039c.095.574.239 1.148.67 1.53.239.192.526.24.813.383h-4.404c.24-.096.527-.144.718-.383.383-.382.383-1.004.335-1.482-.383-2.726-.718-5.452-1.1-8.179-.049-.239-.049-.478-.144-.717-.24.43-.383.86-.623 1.34-1.1 2.534-2.154 5.117-3.207 7.651l-.144.287c-.096-.048-.191-.143-.24-.287-1.148-2.487-2.25-4.974-3.398-7.46-.24-.431-.383-.91-.67-1.292-.096.287-.048.574-.096.861l-.862 8.322c-.048.382.048.765.335 1.004.24.191.575.24.91.335h-3.16c.335-.096.67-.191.91-.478.43-.526.43-1.196.479-1.818.287-2.774.622-5.595.91-8.37.047-.573-.097-1.243-.575-1.625-.24-.287-.575-.335-.862-.479zm16.18.048c3.208-.048 6.368 0 9.575 0 .048.67.048 1.387.096 2.057v.526c-.096-.287-.048-.622-.191-.909-.144-.43-.48-.765-.862-.956-.527-.24-1.149-.335-1.723-.335h-2.873c-.24.048-.526-.048-.622.239-.144.43-.096.86-.096 1.291 0 1.005 0 2.057.048 3.061 0 .191.191.24.335.191h3.399c.383 0 .862-.143 1.053-.526.192-.287.192-.621.287-.908.048.621 0 1.29 0 1.913v1.434c-.095-.382-.143-.813-.383-1.1-.239-.334-.67-.43-1.053-.43H84.16c-.192 0-.431.048-.527.191-.096.192-.048.43-.096.67v5.07c0 .143 0 .334.048.478.048.143.24.143.383.143h2.346c.718 0 1.436.048 2.154-.143.527-.144 1.053-.526 1.245-1.052.143-.287.143-.622.24-.957 0 .86-.049 1.722-.049 2.63h-9.622c.335-.047.67-.143.957-.382.431-.383.527-1.005.527-1.578V6.122c0-.574.048-1.148-.048-1.674-.048-.383-.24-.765-.574-1.005-.335-.047-.623-.095-.862-.19zM.288 3.348c1.436-.048 2.825 0 4.26 0h1.054c-.479.143-1.005.239-1.388.574-.287.239-.431.621-.431 1.004v9.948c0 .191.096.383.287.478.192.096.383.096.622.096h2.203c.622 0 1.244-.144 1.77-.43.48-.288.815-.718 1.006-1.196.096-.24.096-.479.24-.67-.144.957-.336 1.865-.527 2.774H.143c.48-.096 1.006-.191 1.437-.526.287-.191.43-.526.43-.86V5.021c0-.479-.19-.909-.622-1.196-.383-.239-.766-.335-1.1-.478zm62.234 3.778c-.574-1.578-1.819-2.87-3.35-3.587-1.198-.526-2.586-.717-3.878-.526-1.15.191-2.298.67-3.208 1.435-.862.765-1.58 1.722-1.963 2.822-.718 2.008-.43 4.4.91 6.121.766 1.052 1.915 1.818 3.16 2.2 1.196.383 2.489.383 3.734.144 1.675-.383 3.207-1.435 4.117-2.918 1.053-1.674 1.196-3.874.478-5.69zm-2.585 5.596c-.335.813-.862 1.578-1.58 2.104-.813.574-1.915.765-2.92.526-.819-.225-1.531-.734-2.01-1.435-.719-1.004-1.006-2.247-1.15-3.49-.095-1.149 0-2.344.24-3.492.24-1.005.67-1.961 1.484-2.678.479-.383 1.005-.67 1.628-.766.91-.143 1.867-.048 2.633.43.718.431 1.244 1.149 1.58 1.914.43 1.052.622 2.248.622 3.395.048 1.196-.096 2.392-.527 3.492zm-37.053 2.965c-.43-.383-.67-.909-.91-1.483L17.378 3.3c-.048-.143-.192-.287-.383-.24-.144.097-.144.24-.24.336-1.532 3.682-3.111 7.413-4.643 11.095-.192.43-.383.861-.766 1.1-.192.144-.383.192-.623.24h3.112c-.383-.096-.814-.048-1.101-.383-.24-.287-.096-.67 0-1.005.527-1.243 1.005-2.486 1.532-3.73.048-.143.144-.287.24-.383.095-.095.239-.095.382-.095h2.202c.383 0 .719-.048 1.101 0 .144 0 .192.191.288.335.478 1.195 1.005 2.439 1.484 3.634.143.335.191.67.096 1.005-.144.382-.527.526-.91.574-.144.047.144.047.144.047h4.164c-.191.048-.383 0-.574-.143zm-5.122-5.978h-2.394c-.144 0-.287 0-.383-.096-.048-.096.048-.24.048-.335.43-1.052.862-2.152 1.292-3.204.048-.144.144-.24.24-.335.24.191.287.478.383.718.383 1.1.766 2.152 1.149 3.252h-.335zm34.276 9.23c.527-.287 1.15-.287 1.724-.191.478.048.91.335 1.053.813-.192.048-.383.143-.575.191-.095-.239-.335-.43-.574-.478-.335-.096-.67-.096-1.005 0-.144.048-.336.143-.336.335.048.191.24.239.383.287.431.095.862.095 1.293.191.287.096.622.24.766.526.144.335.048.813-.287 1.052-.479.335-1.053.335-1.628.287-.527-.048-1.101-.335-1.34-.86.191-.049.383-.144.622-.192.144.335.527.526.862.526.383.048.814.048 1.149-.239.143-.144.047-.383-.096-.43-.67-.287-1.436-.096-2.059-.527-.43-.287-.383-1.052.048-1.29zm-2.728-.191h.622v3.109h-.622v-3.11zm-11.059.526c-.191-.383-.67-.478-1.053-.478h-2.01v3.108h.622V20.71h1.436c.335 0 .718-.096.91-.43.19-.336.19-.718.095-1.005zm-.574.622c-.096.191-.288.239-.48.239H35.81v-.861h1.34c.144 0 .335 0 .43.096.144.143.144.382.097.526zm3.59-1.148h-.718c-.527 1.052-1.005 2.104-1.532 3.109h.67c.096-.24.24-.479.335-.718h1.772c.095.24.191.478.335.718h.67c-.527-1.005-1.005-2.057-1.532-3.11zm-1.005 1.865c.191-.43.43-.909.622-1.34.191.431.43.91.622 1.34h-1.244zm6.319 0c.191-.048.383-.096.526-.191.383-.287.431-.861.192-1.244-.24-.382-.718-.382-1.101-.382h-1.915v3.108h.622v-1.243h.958c.287.382.622.813.91 1.243h.765c-.335-.43-.622-.86-.957-1.291zm-1.676-.478v-.861h1.293c.143 0 .335 0 .479.096.191.143.191.382.095.573-.095.144-.335.192-.478.192h-1.389z"/>
</svg>
