<svg xmlns="http://www.w3.org/2000/svg" width="90" height="26" viewBox="0 0 90 26">
    <g fill="none">
        <path fill="#E67717" d="M53.85 20.392c-2.1 2.498-4.7 4.028-7.85 4.64-.5.101-1 .05-1.5.254h-.45c-.3-.05-.6-.05-.9 0h-.45c-.3-.204-.7-.153-1.05-.204-3.25-.662-5.75-2.447-7.9-4.894-.15-.204-.3-.408-.5-.612.2-.05.3.102.4.153 2.4 1.479 4.9 2.6 7.65 3.161 2.2.408 4.4.153 6.55-.408 2-.51 3.9-1.325 5.75-2.192.15-.05.25-.05.25.102z"/>
        <path fill="#CAC8C8" d="M89.15.255c.25-.153.55-.051.8-.051V.56h-.1c-.2-.204-.5-.102-.7-.306z"/>
        <path fill="#F3BE91" d="M43.2 25.337c.3-.153.6-.153.9 0h-.9z"/>
        <path fill="#1F1A17" d="M3.05 13.969H.4c-.35 0-.4-.102-.35-.408L.8 6.83l.6-5.302c.05-.662.05-.713.7-.662h4.35c.55 0 1.1.102 1.65.255 1.65.51 2.3 1.63 1.95 3.364-.2.969-.65 1.734-1.45 2.243-.55.357-.55.357 0 .765.85.612 1.4 1.428 1.35 2.498-.1 1.428-.75 2.6-2 3.314-.9.51-1.85.663-2.85.663-.7.05-1.35.05-2.05 0z"/>
        <path fill="#E67717" d="M40 12.388c-.5.561-1 1.02-1.6 1.377-1.1.611-2.15.662-3.25-.051-.8-.561-1.15-1.377-1.25-2.243-.25-1.989.2-3.824 1.35-5.506.75-1.122 1.9-1.58 3.2-1.683 1.6-.153 3.1.153 4.6.663.25.051.3.153.25.459-.35 2.396-.65 4.843-.75 7.29-.05.714-.15 1.428-.4 2.09-.7 2.09-2.05 3.467-4.6 3.416-1.15 0-2.25-.204-3.35-.459-.25-.05-.35-.153-.25-.408.15-.458.15-1.07.45-1.325.3-.306.8.102 1.25.153.7.102 1.4.102 2.1.05.85-.05 1.45-.458 1.85-1.223.35-.815.5-1.784.4-2.6zm13.4.051c-.35.306-.7.663-1.05.918-.75.56-1.5.918-2.45.816-1.5-.204-2.45-1.326-2.65-3.06-.15-1.784.25-3.415 1.2-4.944.75-1.224 1.85-1.836 3.25-1.989 1.65-.153 3.25.153 4.85.663.25.102.25.255.2.459-.2 1.478-.4 2.957-.55 4.435-.15 1.224-.1 2.498-.3 3.722-.2 1.427-.7 2.702-1.8 3.67-.9.816-2 .969-3.1.969s-2.2-.204-3.3-.459c-.3-.05-.3-.153-.25-.408.15-.458.15-1.07.4-1.325.3-.306.85.102 1.3.153.7.102 1.45.102 2.15.05.7-.05 1.25-.407 1.6-1.019.45-.815.55-1.682.5-2.65z"/>
        <path fill="#1F1A17" d="M89.15.255c.15 0 .3.05.45 0 .25-.051.25.102.25.306-.4 4.282-.85 8.615-1.25 12.898-.05.459-.2.612-.65.56-.55-.05-1.1 0-1.65 0-.25 0-.3-.05-.25-.305.05-.408.05-.765.1-1.224-.2.051-.25.204-.35.306-.7.765-1.5 1.224-2.5 1.377-1.35.152-2.35-.357-2.8-1.683-.9-2.447-.6-4.792.95-6.831 1.25-1.683 3.3-2.09 5.25-1.07.4.203.4.101.45-.256.1-1.223.25-2.447.35-3.721 0-.204.1-.306.3-.306.35 0 .85-.051 1.35-.051zm-71.5 12.082c-.5.51-.85.918-1.35 1.224-.7.459-1.4.714-2.25.612-1.3-.153-2.2-1.173-2.45-2.702-.35-2.04.1-3.875 1.2-5.557 1-1.479 2.5-1.836 4.15-1.836 1.3 0 2.55.46 3.8.765.2.051.2.204.2.306l-.45 4.027c-.15 1.428-.35 2.906-.5 4.334-.05.306-.1.459-.45.459-.55-.051-1.15 0-1.7 0-.25 0-.4 0-.35-.357.1-.357.1-.765.15-1.275zM64 4.078c.35 0 .85 0 1.3.153 1.55.408 2.55 1.632 2.6 3.314 0 .969-.1 1.988-.3 2.906-.55 2.192-2.45 3.722-4.65 3.773-.7 0-1.4 0-2.1-.255-1.4-.51-2.2-1.479-2.35-2.957-.15-1.173-.05-2.345.35-3.467.65-2.192 2.55-3.467 5.15-3.467zm10.8 0c.4 0 .85 0 1.3.153 1.7.46 2.7 1.836 2.6 3.722-.05.714-.1 1.376-.25 2.09-.4 2.447-2.4 4.18-4.85 4.18-.65 0-1.3 0-1.95-.254-1.4-.51-2.25-1.53-2.4-3.008-.1-1.122 0-2.192.3-3.263.65-2.243 2.6-3.62 5.25-3.62zM26.25 5.761c.55-.561 1.1-1.02 1.75-1.326 2.15-1.02 3.85 0 4 2.396.05 1.071-.05 2.193-.15 3.263-.15 1.224-.3 2.396-.4 3.62-.05.306-.15.357-.4.357-.6-.051-1.15-.051-1.75-.051-.3 0-.35-.102-.35-.408.15-1.428.35-2.804.5-4.232l.15-1.631c0-.255 0-.51-.15-.765-.4-.968-1.2-1.121-1.95-.408-1 .97-1.45 2.193-1.6 3.518-.15 1.173-.25 2.345-.35 3.518-.05.357-.15.51-.5.459-.6-.051-1.15-.051-1.75-.051-.25 0-.3-.051-.3-.306.3-2.651.55-5.302.85-7.953.05-.357.1-.765.1-1.122 0-.255.05-.357.35-.357.65 0 1.3 0 1.95-.05.25 0 .3.05.25.305-.2.408-.2.816-.25 1.224z"/>
        <path fill="#D9251D" d="M80.55 19.984c.35-.306.7-.56 1.05-.764.95-.46 1.7-.255 2.25.713.15.255.2.153.3 0 .5-.458 1.05-.866 1.7-.917 1.05-.102 1.6.357 1.7 1.478.05 1.173-.1 2.345-.2 3.518-.1.815-.1.764-.95.815-.45 0-.55-.102-.5-.56.1-1.02.15-1.989.2-3.008v-.204c0-.357-.05-.714-.4-.867-.35-.153-.6.051-.85.204-.7.51-.9 1.224-.95 2.04-.1.662-.15 1.376-.2 2.039 0 .254-.1.356-.35.356h-.2c-.9 0-.85.051-.8-.917l.15-2.6c0-.459 0-1.02-.5-1.173-.5-.153-.85.306-1.15.663-.4.56-.5 1.173-.6 1.835-.05.612-.15 1.224-.2 1.836 0 .254-.1.356-.4.356-1.05 0-1.05 0-.95-1.07.1-1.377.25-2.804.35-4.18.05-.408.1-.612.55-.51h.2c.7.102.7.102.75.917zM73.8 24.98c-1.7 0-2.55-.968-2.4-2.702.05-1.02.3-1.937 1.15-2.6.9-.713 1.95-.866 3.05-.56.85.255 1.35.917 1.4 1.835 0 .56-.05 1.07-.15 1.58-.35 1.53-1.5 2.447-3.05 2.447zm-5.9.051c-2.1.153-3.3-1.376-2.8-3.517.45-1.887 2.05-2.804 4.1-2.396.1 0 .2.05.3.05.7.154.85.46.6 1.122-.1.204-.2.102-.3.051-.45-.153-.9-.153-1.4-.153-.95.051-1.65.714-1.8 1.683v.153c-.1 1.325.45 1.886 1.75 1.835.35 0 .65-.102 1-.153.2-.051.3 0 .35.255.05.714.05.764-.65.866-.4.102-.8.153-1.15.204z"/>
        <path fill="#D9271F" d="M58.85 23.706c.35 0 .55.204.55.56 0 .358-.25.561-.6.561s-.55-.254-.5-.56c0-.408.2-.561.55-.561z"/>
        <path fill="#EA8B3A" d="M53.85 20.392c-.05-.05-.1-.102-.2-.102.1-.05.2-.102.3-.204.05.204 0 .255-.1.306z"/>
        <path fill="#FEFEFE" d="M4.85 8.412H5.9c1.05 0 1.7.917 1.4 1.937-.4 1.173-.85 1.53-2.05 1.53h-1.9c-.3 0-.4-.052-.35-.357.1-.918.2-1.887.25-2.804 0-.255.1-.357.35-.357.45.05.85.05 1.25.05zm.4-5.404h1.1c.65.05 1.15.56 1.1 1.223-.1 1.224-.6 1.938-1.85 1.938H3.85c-.25 0-.3-.051-.3-.306.1-.867.15-1.734.25-2.6 0-.255.1-.357.35-.306.35 0 .7 0 1.1.05 0-.05 0 0 0 0zM36.4 9.89c0-.815.2-1.631.6-2.345.7-1.478 2.15-1.682 3.4-1.274.2.05.2.204.2.356-.05 1.326-.2 2.6-.75 3.824-.3.714-.75 1.325-1.5 1.58-.8.255-1.45-.05-1.75-.866-.15-.306-.2-.816-.2-1.275zm17.55-2.753c-.05 1.07-.25 2.141-.65 3.161-.3.765-.75 1.427-1.55 1.733-.85.306-1.45-.05-1.8-.866-.2-.561-.2-1.173-.15-1.785.05-.611.25-1.172.5-1.733.7-1.53 2.1-1.784 3.45-1.376.15.05.25.153.2.356v.51zm28.7 2.702c0-.612.1-1.274.3-1.937.6-1.988 2.2-2.09 3.6-1.58.15.05.15.153.15.254 0 1.428-.15 2.804-.8 4.079-.35.663-.85 1.172-1.55 1.427-.65.204-1.1 0-1.45-.611-.2-.357-.3-.867-.25-1.632zm-64.5-2.702c-.1 1.07-.25 2.294-.75 3.416-.3.612-.7 1.172-1.35 1.427-.95.357-1.65-.05-1.9-1.07-.15-.816-.05-1.58.1-2.345l.15-.51c.55-1.886 2.05-2.243 3.55-1.733.25.102.25.102.2.815zM61 10.094c.05-.918.05-1.733.4-2.447.45-.969 1.05-1.682 2.2-1.631.9.05 1.5.51 1.6 1.427.15 1.07 0 2.141-.4 3.16-.45 1.122-1.2 1.632-2.3 1.632-.9 0-1.4-.459-1.5-1.325v-.816zm10.85-.153c.05-.765 0-1.58.35-2.345.45-.969 1.05-1.682 2.25-1.631.9.05 1.5.51 1.6 1.376.15 1.122.05 2.294-.45 3.314-.4.969-1.1 1.53-2.2 1.478-.95-.05-1.45-.458-1.55-1.427-.05-.153 0-.459 0-.765zm1.05 12.49c0-.611.05-1.172.4-1.682.25-.357.6-.663 1.1-.612.6 0 .95.306 1.05.918.05.612 0 1.172-.2 1.733-.25.663-.75 1.02-1.35 1.02-.6 0-.9-.306-.95-.918-.05-.102-.05-.306-.05-.459z"/>
    </g>
</svg>
