<svg xmlns="http://www.w3.org/2000/svg" width="70" height="48" viewBox="0 0 70 48">
    <g fill="none">
        <path fill="#FFF" d="M68.185 31.724c-.432.523-.994 1.047-1.728 1.527-1.901 1.265-4.624 2.269-7.864 3.098C52.11 37.92 43.383 38.836 35 38.836s-17.111-.916-23.593-2.487c-3.24-.785-5.963-1.833-7.864-3.098-.691-.48-1.253-1.004-1.728-1.527-.778-.96-1.296-2.226-1.296-3.579V10.822c0-1.222.388-2.357 1.037-3.273C2.03 6.94 2.679 6.284 3.5 5.76c1.901-1.265 4.623-2.27 7.864-3.098C17.846 1.09 26.574.175 34.957.175s17.11.916 23.592 2.487c3.241.785 5.963 1.833 7.865 3.098.82.524 1.469 1.178 1.944 1.79.648.915 1.037 2.05 1.037 3.272v17.323c.043 1.397-.432 2.619-1.21 3.579z"/>
        <path fill="#133D8D" d="M69.654 28.233V10.865c0-.872-.216-1.745-.605-2.53-.086-.131-.172-.306-.259-.437l-.26-.393c-.388-.523-.82-.96-1.339-1.352-.086-.088-.216-.175-.302-.262-.13-.087-.216-.175-.346-.218-1.599-1.048-3.5-1.833-5.315-2.4-.432-.131-.864-.262-1.253-.393-.432-.13-.907-.262-1.34-.35-2.98-.74-6.092-1.22-9.16-1.614C48.827.83 48.18.742 47.531.698 43.383.262 39.19.044 35 .044c-5.877 0-11.883.392-17.716 1.309-1.037.174-2.074.349-3.068.523-.95.175-1.901.393-2.852.611-2.074.524-4.191 1.178-6.136 2.095-.302.174-.648.305-.95.48-.303.174-.562.349-.821.523h-.043c-.562.393-1.08.83-1.556 1.31-.086.087-.173.174-.216.261-.086.088-.13.175-.216.306-.303.393-.519.829-.691 1.309-.044.087-.087.174-.087.262C.475 9.6.346 10.21.346 10.822v17.367c0 .96.259 1.92.691 2.793.086.174.173.305.303.48.086.13.216.305.345.436.346.437.735.83 1.167 1.135.086.087.173.13.26.218.086.087.215.13.302.218 1.598 1.047 3.5 1.79 5.314 2.356.432.131.865.262 1.253.393.433.131.908.262 1.34.35 2.981.741 6.093 1.221 9.16 1.614.649.087 1.297.174 1.945.218 4.148.436 8.34.655 12.53.655 5.877 0 11.884-.393 17.717-1.31 1.037-.174 2.074-.349 3.068-.523.95-.175 1.901-.393 2.852-.611 2.074-.524 4.191-1.178 6.135-2.095.303-.174.649-.305.951-.48.302-.174.562-.305.821-.523h.043c.476-.306.95-.698 1.34-1.135l.216-.218c.086-.087.13-.175.173-.218.345-.437.648-.873.864-1.397.043-.087.086-.218.13-.305.259-.698.388-1.353.388-2.007zM.734 10.909c0-.61.087-1.178.26-1.702.043-.087.043-.174.086-.262.173-.436.39-.829.648-1.221.044-.088.13-.175.216-.262.087-.087.13-.175.216-.262.433-.48.908-.873 1.426-1.222h.044c.259-.174.561-.349.82-.523.303-.175.606-.35.951-.48 1.901-.917 4.019-1.571 6.05-2.051.95-.219 1.9-.437 2.851-.611 1.038-.218 2.031-.393 3.068-.524C23.16.873 29.123.48 35 .48c4.148 0 8.34.218 12.488.655.648.087 1.296.13 1.944.218 3.068.392 6.136.872 9.117 1.614.432.088.865.218 1.34.35.432.13.82.261 1.253.392 1.772.567 3.673 1.31 5.228 2.313.13.087.216.13.346.218.086.087.216.175.303.218.475.393.907.83 1.253 1.31l.259.392c.086.13.173.262.216.393.346.742.562 1.527.562 2.356v17.367c0 .611-.13 1.266-.346 1.833l-.13.262c-.216.48-.475.916-.777 1.265-.044.088-.13.131-.173.219l-.216.218c-.39.392-.821.742-1.253 1.047-.26.175-.562.35-.821.524-.303.174-.605.349-.908.48-1.901.916-4.018 1.57-6.05 2.05-.95.219-1.9.437-2.851.611-1.037.219-2.03.393-3.068.524-5.79.916-11.753 1.31-17.63 1.31-4.148 0-8.34-.219-12.487-.655-.648-.088-1.297-.131-1.945-.219-3.068-.392-6.135-.872-9.117-1.614-.432-.087-.864-.218-1.34-.35-.432-.13-.82-.261-1.253-.392-1.771-.567-3.672-1.309-5.228-2.313-.086-.043-.173-.13-.26-.174-.086-.044-.172-.131-.258-.218-.39-.306-.778-.699-1.124-1.091-.086-.131-.216-.262-.302-.393-.087-.13-.173-.305-.26-.436-.432-.786-.648-1.702-.648-2.575l-.13-17.28z"/>
        <path fill="#133D8D" d="M67.753 10.865V28.19c0 .916-.346 1.79-.864 2.444-.346.392-.778.829-1.34 1.178-1.685 1.09-4.191 2.05-7.345 2.836-6.309 1.528-14.908 2.444-23.204 2.444-8.253 0-16.852-.916-23.204-2.444-3.154-.785-5.66-1.745-7.345-2.836-.562-.393-.994-.786-1.34-1.178-.562-.655-.864-1.528-.864-2.444V10.865c0-.829.26-1.614.734-2.225.346-.48.821-.96 1.513-1.396 1.685-1.091 4.191-2.051 7.346-2.837 6.308-1.527 14.907-2.443 23.203-2.443 8.253 0 16.852.916 23.204 2.443 3.154.786 5.66 1.746 7.346 2.837.648.436 1.166.916 1.512 1.396.389.61.648 1.396.648 2.225z"/>
        <path fill="#FFF" d="M63.346 13.44c-.173.175-.26.436-.26.698 0 .262.087.524.26.698.173.175.432.306.691.306.26 0 .475-.087.691-.306.173-.174.26-.436.26-.698 0-.262-.087-.48-.26-.698-.172-.175-.432-.305-.691-.305-.26.043-.475.13-.691.305zm1.512 1.484c-.216.218-.475.349-.778.349-.302 0-.561-.131-.778-.35-.216-.218-.345-.48-.345-.785 0-.305.13-.567.345-.785.217-.218.476-.35.778-.35.303 0 .562.132.778.35.216.218.346.48.346.785-.044.306-.13.567-.346.786zm-.605-1.222c.043.043.087.087.087.174 0 .088-.044.175-.13.175-.043 0-.13.044-.216.044h-.216v-.437h.173c.172 0 .259 0 .302.044zm-.216-.175c.173 0 .26 0 .346.044.13.044.173.174.173.305s-.044.175-.13.262c-.043.044-.086.044-.173.044.087 0 .173.043.216.13.043.044.087.132.087.175v.218h-.216v-.13c0-.131-.044-.219-.13-.306-.043-.044-.13-.044-.26-.044h-.172v.48h-.216v-1.178h.475zm-6.05 3.23v9.381c0 .35.303.655.692.655.389 0 .691-.306.691-.655v-9.382c0-.349-.302-.654-.691-.654-.389 0-.691.305-.691.654zm5.532 4.712c0 2.618-.217 4.8-.433 5.498-.043.175-.13.35-.216.524-.95.698-2.549.96-4.148.96-1.599 0-3.197-.262-4.148-.96-.086-.175-.173-.35-.216-.524-.216-.698-.432-2.836-.432-5.498 0-2.618.216-4.8.432-5.498.043-.175.13-.35.216-.524.95-.698 2.55-.96 4.148-.96 1.599 0 3.198.262 4.148.96.087.175.173.35.216.524.216.698.433 2.836.433 5.498zM21 8.727v6.851c.907-.523 1.988-.698 2.463-.698.735 0 1.34.218 1.815.655.518.436.82.916.95 1.483.13.567.173 1.571.173 3.055v9.512c-1.34.219-2.463.219-3.889 0V18.284c0-.524-.475-.786-.734-.786-.303 0-.778.218-.778.742v8.727c-1.642.175-2.765.175-4.105 0V8.727c1.426-.174 2.765-.174 4.105 0zm-5.185 14.095c-.043 2.007-.13 3.578-.303 4.145-.043.175-.13.35-.216.524-.95.698-2.55.96-4.148.96-1.599 0-3.197-.262-4.148-.96-.086-.175-.173-.35-.216-.524-.216-.698-.432-2.836-.432-5.498 0-2.618.216-4.8.432-5.498.043-.175.13-.35.216-.524.95-.698 2.55-.96 4.148-.96 1.599 0 3.198.262 4.148.96.087.175.173.35.216.524.173.567.26 2.094.303 4.145H11.84v-3.36c0-.349-.303-.654-.692-.654-.389 0-.691.305-.691.654v9.426c0 .349.302.654.691.654.389 0 .692-.305.692-.654v-3.36h3.975zm26.574 1.265c-.043 2.008-.13 3.578-.303 4.146-.043.174-.13.349-.216.523-.95.699-2.549.96-4.148.96-1.599 0-3.197-.261-4.148-.96-.086-.174-.173-.349-.216-.523-.216-.698-.432-2.837-.432-5.498 0-2.619.216-4.8.432-5.499.043-.174.13-.349.216-.523.95-.698 2.55-.96 4.148-.96 1.599 0 3.198.262 4.148.96.087.174.173.349.216.523.173.568.26 2.095.303 4.146h-3.975v-3.36c0-.35-.303-.655-.692-.655-.389 0-.691.306-.691.655v9.382c0 .349.302.654.691.654.39 0 .692-.305.692-.654v-3.36l3.975.043zm10.457-2.618c-.044 2.007-.13 3.578-.303 4.146-.043.174-.13.349-.216.523-.95.698-2.55.96-4.148.96-1.599 0-3.198-.262-4.148-.96-.087-.174-.173-.349-.216-.523-.216-.699-.432-2.837-.432-5.499 0-2.618.216-4.8.432-5.498.043-.174.13-.349.216-.523.95-.699 2.55-.96 4.148-.96 1.599 0 3.198.261 4.148.96.087.174.173.349.216.523.173.567.26 2.095.303 4.146H48.87v-3.36c0-.35-.302-.655-.691-.655-.389 0-.691.306-.691.655v9.381c0 .35.302.655.691.655.389 0 .691-.305.691-.655v-3.36c0 .044 3.976.044 3.976.044zm-21.044-8.116v13.57c-1.382.219-2.635.219-4.148 0v-13.57c1.297-.262 2.636-.262 4.148 0z"/>
        <path fill="#133D8D" d="M5.185 46.167h1.556c1.166 0 1.555-.567 1.555-1.047 0-.436-.345-.742-.691-.83.346-.086.605-.348.605-.785 0-.48-.389-.96-1.512-.96H5.185v3.622zm.994-.698v-.785h.605c.346 0 .475.13.475.392s-.173.393-.475.393h-.605zm0-1.44v-.742h.519c.345 0 .475.131.475.35 0 .261-.173.392-.475.392h-.519zm5.877.655v-.219c0-1.221-.605-1.963-1.642-1.963-1.08 0-1.686.829-1.686 1.92 0 .96.519 1.876 1.902 1.876.475 0 .907-.087 1.296-.349l-.303-.698c-.259.174-.561.262-.907.262-.518 0-.907-.262-.95-.786l2.29-.043zm-2.334-.699c0-.392.216-.698.648-.698.432 0 .605.35.649.698H9.722zm4.019 2.27c1.123 0 1.599-.611 1.599-1.179 0-.349-.173-.654-.605-.785.345-.131.518-.436.518-.742 0-.61-.562-1.047-1.469-1.047-.432 0-.907.087-1.296.305l.259.698c.26-.13.648-.218.95-.218.39 0 .562.131.562.35 0 .218-.173.392-.734.392h-.519v.698c.173-.043.39-.043.475-.043.562 0 .821.087.821.392 0 .262-.259.393-.69.393-.347 0-.692-.087-1.081-.262v.786c.346.174.778.262 1.21.262zm1.987 1.221h.951v-1.309h2.204v1.31h.95v-2.095h-.518v-2.793H16.98c-.302 1.484-.518 2.182-.993 2.793h-.26v2.094zm2.55-2.094h-1.21c.26-.48.518-1.135.648-1.92h.562v1.92zm5.315-.698v-.219c0-1.221-.605-1.963-1.642-1.963-1.08 0-1.686.829-1.686 1.92 0 .96.519 1.876 1.902 1.876.475 0 .907-.087 1.296-.349l-.303-.698c-.259.174-.561.262-.907.262-.518 0-.907-.262-.95-.786l2.29-.043zm-2.29-.699c0-.392.216-.698.648-.698.432 0 .605.35.648.698h-1.297zm7.388 2.27c.519 0 .951-.175 1.253-.35l-.302-.698c-.26.175-.519.262-.821.262-.562 0-.95-.349-.95-1.047 0-.611.388-1.091.993-1.091.346 0 .605.087.864.305v-.872c-.172-.131-.518-.262-.993-.262-1.037 0-1.945.785-1.945 1.92.043 1.047.735 1.833 1.901 1.833zM33.185 48h1.037v-1.79c.173.045.346.088.519.088 1.166 0 1.901-.785 1.901-1.876 0-1.135-.691-1.877-1.988-1.877-.518 0-1.037.088-1.426.219L33.185 48zm1.037-2.662v-1.963c.13-.044.216-.044.346-.044.648 0 .994.349.994 1.047 0 .655-.303 1.047-.908 1.047-.173 0-.302-.043-.432-.087zm6.136-.654v-.219c0-1.221-.605-1.963-1.642-1.963-1.08 0-1.685.829-1.685 1.92 0 .96.518 1.876 1.901 1.876.475 0 .908-.087 1.296-.349l-.302-.698c-.26.174-.562.262-.907.262-.519 0-.908-.262-.951-.786l2.29-.043zm-2.29-.699c0-.392.216-.698.648-.698.432 0 .605.35.648.698h-1.296zm4.537 2.27c1.21 0 1.815-.83 1.815-1.92 0-.917-.476-1.659-1.556-1.659-.389 0-.778.131-.994.262.044-.262.13-.523.26-.654.216-.262.605-.306 2.074-.655v-.916c-1.642.349-2.204.392-2.68.872-.431.393-.69 1.397-.69 2.226 0 1.789.734 2.444 1.77 2.444zm.043-.83c-.518 0-.82-.48-.82-1.527v-.218c.258-.13.56-.218.863-.218.562 0 .692.48.692.96 0 .567-.173 1.003-.735 1.003zm5.574-.741v-.219c0-1.221-.605-1.963-1.642-1.963-1.08 0-1.685.829-1.685 1.92 0 .96.519 1.876 1.901 1.876.476 0 .908-.087 1.297-.349l-.303-.698c-.26.174-.562.262-.907.262-.519 0-.908-.262-.95-.786l2.29-.043zm-2.29-.699c0-.392.216-.698.648-.698.432 0 .605.35.648.698h-1.296zm2.895 2.182h1.037v-1.44h1.296v1.44h1.038v-3.622H51.16v1.266h-1.296v-1.266h-1.037v3.622zm4.105 0h1.037v-1.44h.519c.086 0 .172.088.259.306l.432 1.134h1.123l-.648-1.396c-.086-.218-.216-.35-.389-.436.26-.175.303-.655.476-.873.043-.087.13-.131.259-.131.086 0 .173 0 .216.044v-.873c-.13-.044-.302-.044-.389-.044-.346 0-.518.131-.691.306-.303.436-.303 1.178-.735 1.178h-.389v-1.397h-1.037l-.043 3.622zm5.488.088c1.08 0 1.815-.786 1.815-1.92 0-1.091-.735-1.877-1.815-1.877s-1.858.786-1.858 1.877c0 1.134.734 1.92 1.858 1.92zm0-.83c-.519 0-.778-.48-.778-1.09 0-.611.26-1.048.778-1.048s.778.437.778 1.048c0 .61-.26 1.09-.778 1.09zm2.42.742h.993v-1.396c0-.306 0-.567-.043-.698h.043c.044.13.173.349.303.567l.432.742H63l.432-.742c.13-.218.26-.436.346-.567h.043c0 .13-.043.392-.043.698v1.44h.994v-3.622h-.994l-.476.786c-.216.349-.388.698-.518.916-.086-.218-.303-.567-.519-.916l-.475-.786h-.994l.044 3.578z"/>
        <ellipse cx="29.383" cy="7.855" fill="#FFF" rx="3.716" ry="3.84"/>
    </g>
</svg>
