<svg xmlns="http://www.w3.org/2000/svg" width="100" height="41" viewBox="0 0 100 41">
    <g fill="#FFF">
        <path d="M.76 23.467h1.197v7.39H5.76v1.134h-5v-8.524zm8.75-.054h.87l3.805 8.578h-1.25l-1.142-2.536H8.207l-1.033 2.536h-1.25c-.054 0 3.587-8.578 3.587-8.578zm1.794 4.963l-1.358-3.075-1.25 3.075h2.608zm7.283 3.615v-8.524h2.12c.87 0 1.521.216 2.01.647.49.432.761 1.025.761 1.727 0 .485-.108.917-.38 1.295-.272.377-.598.647-1.033.809.272.162.544.431.815.755.272.324.598.863 1.087 1.618.272.486.544.864.707 1.08l.435.593H23.64l-.38-.54s-.054-.054-.054-.108l-.218-.323-.38-.648-.435-.7c-.272-.325-.49-.648-.707-.81-.217-.216-.38-.378-.543-.432-.163-.108-.435-.162-.87-.162h-.326v3.723h-1.141zm1.522-7.499h-.38v2.697h.434c.598 0 1.033-.053 1.25-.161.217-.108.38-.27.544-.486.163-.216.217-.431.217-.701 0-.27-.054-.486-.217-.702-.164-.215-.327-.377-.598-.485-.218-.108-.652-.162-1.25-.162zm9.293-1.133c1.305 0 2.391.432 3.261 1.241.87.81 1.304 1.888 1.304 3.129 0 1.24-.434 2.32-1.304 3.129-.87.81-1.956 1.24-3.315 1.24-1.25 0-2.337-.43-3.207-1.24-.87-.81-1.25-1.834-1.25-3.075 0-1.295.435-2.32 1.305-3.13.815-.916 1.902-1.294 3.206-1.294zm.055 1.133c-.979 0-1.74.324-2.392.917-.598.594-.924 1.403-.924 2.32 0 .917.326 1.672.924 2.266.598.593 1.413.917 2.337.917.924 0 1.74-.324 2.337-.917.652-.648.924-1.403.924-2.32 0-.917-.326-1.672-.924-2.266-.598-.593-1.359-.917-2.282-.917zm13.315 5.503v1.348c-.924.486-1.902.756-3.098.756-.924 0-1.74-.216-2.391-.594-.653-.377-1.196-.917-1.576-1.564-.38-.648-.598-1.403-.598-2.158 0-1.24.434-2.266 1.304-3.13.87-.862 1.957-1.294 3.26-1.294.87 0 1.849.216 2.936.702v1.294c-.979-.593-1.957-.863-2.88-.863-.979 0-1.794.324-2.392.917-.652.594-.978 1.403-.978 2.32 0 .917.326 1.726.924 2.32.652.593 1.413.917 2.39.917 1.088 0 2.12-.324 3.099-.971zm7.445-6.528h1.196v8.524h-1.196v-3.723H45.49v3.723h-1.196v-8.524h1.196v3.669h4.728v-3.669zm3.044 0h4.782v1.08h-3.586v2.589h3.478v1.078h-3.478v2.644h3.695v1.079h-4.891v-8.47zm5.76 5.18h2.99v1.186h-2.99v-1.187zm4.403 3.344v-8.524h2.663c.815 0 1.467.216 1.956.647.49.432.707 1.025.707 1.78 0 .486-.109.918-.38 1.295-.272.378-.598.648-1.033.81-.435.162-1.033.27-1.848.27h-.87v3.668l-1.195.054zm2.446-7.445h-1.25v2.643h1.304c.489 0 .87-.107 1.141-.323.272-.216.38-.594.38-1.025.055-.863-.488-1.295-1.575-1.295zm8.097-1.187c1.305 0 2.392.432 3.261 1.241.87.81 1.305 1.888 1.305 3.129 0 1.24-.435 2.32-1.305 3.129-.87.81-1.956 1.24-3.315 1.24-1.25 0-2.337-.43-3.206-1.24-.87-.81-1.25-1.834-1.25-3.075 0-1.295.434-2.32 1.304-3.13.815-.916 1.902-1.294 3.206-1.294zm.055 1.133c-.979 0-1.74.324-2.392.917-.597.594-.923 1.403-.923 2.32 0 .917.326 1.672.923 2.266.598.593 1.413.917 2.337.917.924 0 1.74-.324 2.337-.917.653-.648.924-1.403.924-2.32 0-.917-.326-1.672-.924-2.266-.597-.593-1.413-.917-2.282-.917zm8.098 3.938l-.924-.54c-.598-.377-.979-.7-1.25-1.024-.218-.324-.38-.755-.38-1.187 0-.647.217-1.24.706-1.618.435-.432 1.087-.648 1.793-.648.707 0 1.359.216 1.957.594v1.348c-.598-.593-1.25-.863-1.957-.863-.38 0-.706.108-.978.27-.272.162-.38.431-.38.701 0 .27.108.486.271.701.163.216.49.432.924.702l.924.54c1.033.593 1.522 1.402 1.522 2.373 0 .701-.218 1.24-.707 1.672-.434.432-1.032.648-1.793.648-.815 0-1.576-.27-2.283-.756V29.78c.652.81 1.413 1.24 2.283 1.24.38 0 .706-.107.924-.323.271-.216.38-.485.38-.81.055-.539-.326-1.024-1.032-1.456zm6.25-5.017h.87l3.803 8.578h-1.25l-1.14-2.536h-3.588l-1.032 2.536h-1.25l3.587-8.578zm1.793 4.963l-1.359-3.075-1.25 3.075h2.609zm7.5-4.909h1.467l-3.097 3.992v4.478h-1.25v-4.478l-3.098-3.992h1.467l2.283 2.913 2.228-2.913zM.272 34.957h.652v4.209H2.88v.647H.272v-4.855zm4.565-.053h.435l1.956 4.855h-.652l-.598-1.456H4.13l-.543 1.402h-.652l1.902-4.801zm.924 2.805l-.707-1.726-.652 1.726h1.359zm3.424 2.05H7.717v-4.801H8.86c.38 0 .652.054.87.162.217.108.38.27.488.431.11.162.163.378.163.648 0 .485-.217.809-.652 1.025.326.054.598.215.761.431.163.216.272.486.272.81 0 .27-.054.485-.163.647-.109.162-.272.324-.49.485-.325.108-.597.162-.923.162zm-.326-4.208h-.544v1.457h.435c.326 0 .598-.054.707-.216.163-.162.217-.324.217-.54 0-.485-.272-.7-.815-.7zm.054 2.05h-.598v1.51h.598c.326 0 .598-.053.707-.107.108-.054.217-.162.271-.27.055-.108.109-.27.109-.377 0-.162-.054-.27-.109-.378-.054-.108-.163-.216-.326-.27-.108-.054-.326-.108-.652-.108zm4.565-2.751c.652 0 1.25.216 1.685.701.435.486.652 1.08.652 1.78 0 .702-.217 1.295-.706 1.78-.435.486-1.033.702-1.74.702-.652 0-1.195-.216-1.63-.701-.435-.486-.652-1.025-.652-1.726 0-.702.217-1.295.652-1.78.49-.486 1.033-.756 1.74-.756zm0 .701c-.489 0-.924.162-1.25.54-.326.323-.489.809-.489 1.295 0 .539.163.97.49 1.294.325.324.706.54 1.195.54.489 0 .87-.162 1.196-.54.326-.377.489-.809.489-1.294 0-.486-.163-.918-.49-1.295-.271-.378-.652-.54-1.14-.54zm3.152 4.208v-4.801h1.087c.435 0 .816.108 1.033.378.217.27.38.593.38.97 0 .27-.054.54-.217.702-.109.216-.326.378-.543.431.163.108.271.216.434.432.109.162.326.486.544.917.163.27.272.486.38.594l.218.323h-.761l-.218-.323s0-.054-.054-.054l-.109-.216-.217-.378-.217-.377c-.11-.216-.272-.378-.38-.486l-.273-.27c-.108-.054-.217-.054-.434-.054h-.163v2.104c.108.108-.49.108-.49.108zm.816-4.208h-.163v1.51h.217c.326 0 .543-.053.652-.107.109-.054.218-.162.272-.27.054-.108.109-.27.109-.431 0-.162-.055-.27-.11-.432-.053-.162-.162-.216-.325-.27h-.652zm4.402-.647h.435l1.956 4.855h-.652l-.598-1.402h-1.793l-.544 1.402H20l1.848-4.855zm.924 2.805l-.707-1.726-.652 1.726h1.359zm.978-2.751h3.641v.593H25.87v4.208h-.653v-4.208h-1.521v-.593h.054zm5.978-.108c.652 0 1.25.216 1.685.701.435.486.652 1.08.652 1.78 0 .702-.217 1.295-.706 1.78-.435.486-1.033.702-1.74.702-.652 0-1.195-.216-1.63-.701-.435-.486-.652-1.025-.652-1.726 0-.702.217-1.295.652-1.78.49-.486 1.033-.756 1.74-.756zm0 .701c-.489 0-.924.162-1.25.54-.326.323-.489.809-.489 1.295 0 .539.163.97.49 1.294.325.324.706.54 1.195.54.489 0 .87-.162 1.196-.54.326-.377.489-.809.489-1.294 0-.486-.163-.918-.49-1.295-.271-.378-.652-.54-1.14-.54zm3.098-.593h.652v4.801h-.652v-4.801zm1.63 4.801v-4.801h1.087c.435 0 .816.108 1.033.378.272.215.38.593.38.97 0 .27-.054.54-.217.702-.109.216-.326.378-.543.431.163.108.271.216.434.432.11.162.327.486.544.917.163.27.272.486.38.594l.218.323h-.761l-.218-.323s0-.054-.054-.054l-.109-.216-.217-.378-.217-.377c-.109-.216-.272-.378-.38-.486l-.273-.27c-.108-.054-.217-.054-.434-.054h-.163v2.104c.163.108-.49.108-.49.108zm.816-4.208h-.163v1.51h.217c.326 0 .544-.053.652-.107.109-.054.218-.162.272-.27.054-.108.109-.27.109-.431 0-.162-.055-.27-.109-.432-.054-.162-.163-.216-.326-.27h-.652zm3.043-.593h2.5v.593h-1.848v1.457h1.794v.593h-1.794v1.51h1.903v.594h-2.555v-4.747zm5 4.801v-4.801h1.468c.597 0 1.087.108 1.413.27.715.463 1.145 1.255 1.141 2.104 0 .323-.054.647-.163.917-.109.27-.272.54-.49.755-.217.216-.434.378-.76.54-.163.053-.326.107-.435.161-.163 0-.38.054-.815.054h-1.359zm1.413-4.208h-.76v3.56h.815c.326 0 .543 0 .706-.053.163-.054.326-.108.435-.162.109-.054.217-.162.326-.27.326-.323.49-.755.49-1.294 0-.54-.164-.918-.49-1.241-.109-.108-.272-.216-.38-.324-.163-.054-.272-.108-.435-.162-.218-.054-.435-.054-.707-.054zm3.37-.593h2.5v.593H48.75v1.457h1.793v.593H48.75v1.51h1.902v.594h-2.554v-4.747zm3.26 4.801v-4.801h1.088c.434 0 .815.108 1.032.378.218.27.38.593.38.97 0 .27-.054.54-.217.702-.108.216-.326.378-.543.431.163.108.272.216.435.432.108.162.326.486.543.917.163.27.272.486.38.594l.218.323h-.761l-.163-.323s0-.054-.054-.054l-.109-.216-.217-.378-.218-.377c-.109-.216-.272-.378-.38-.486l-.272-.27c-.109-.054-.217-.054-.435-.054h-.163v2.104c.055.108-.543.108-.543.108zm.816-4.208h-.163v1.51h.217c.326 0 .544-.053.652-.107.11-.054.218-.162.272-.27.055-.108.109-.27.109-.431 0-.162-.054-.27-.109-.432-.054-.162-.163-.216-.326-.27h-.652zm6.522-.593h.597v4.801h-.652v-3.722l-1.358 1.888h-.11l-1.358-1.888v3.722h-.652v-4.801h.598l1.467 1.996 1.468-1.996zm2.934-.054h.435l1.957 4.855h-.652l-.598-1.402h-1.848l-.544 1.402h-.652l1.902-4.855zm.87 2.805l-.707-1.726-.652 1.726H62.5zm.978-2.751h3.642v.593h-1.522v4.208h-.652v-4.208h-1.522v-.593h.054zm5.979-.108c.652 0 1.25.216 1.684.701.435.486.652 1.08.652 1.78 0 .702-.217 1.295-.706 1.78-.435.486-1.033.702-1.74.702-.651 0-1.195-.216-1.63-.701-.434-.486-.652-1.025-.652-1.726 0-.702.218-1.295.652-1.78.435-.486 1.033-.756 1.74-.756zm0 .701c-.49 0-.924.162-1.25.54-.327.323-.49.809-.49 1.295 0 .539.163.97.49 1.294.326.324.706.54 1.195.54.49 0 .87-.162 1.196-.54.326-.377.489-.809.489-1.294 0-.486-.163-.918-.49-1.295-.27-.378-.651-.54-1.14-.54zm3.097-.593h.653v4.208h1.956v.647h-2.609v-4.855zm5.326-.108c.653 0 1.25.216 1.685.701.435.486.652 1.08.652 1.78 0 .702-.217 1.295-.706 1.78-.435.486-1.033.702-1.74.702-.651 0-1.195-.216-1.63-.701-.434-.486-.652-1.025-.652-1.726 0-.702.218-1.295.652-1.78.49-.486 1.033-.756 1.74-.756zm0 .701c-.489 0-.923.162-1.25.54-.326.323-.489.809-.489 1.295 0 .539.163.97.49 1.294.326.324.706.54 1.195.54.49 0 .87-.162 1.196-.54.326-.377.489-.809.489-1.294 0-.486-.163-.918-.49-1.295-.271-.378-.651-.54-1.14-.54zm5.49 1.835h1.467v2.05c-.544.27-1.087.377-1.576.377-.707 0-1.304-.216-1.74-.701-.434-.486-.651-1.025-.651-1.726 0-.702.217-1.295.652-1.78.435-.486 1.032-.702 1.685-.702.271 0 .489.054.706.108.217.054.49.162.815.324v.7c-.543-.323-1.032-.485-1.576-.485-.489 0-.87.162-1.195.54-.327.377-.49.809-.49 1.295 0 .539.163.97.49 1.348.326.324.76.54 1.25.54.271 0 .543-.054.923-.216h.055v-1.025h-.87l.055-.647zm2.39-2.428h.653v4.801h-.652v-4.801zm5.98 5.125l-.653.647c-.217 0-.38-.054-.598-.108-.217-.054-.435-.161-.652-.27-.217-.107-.49-.323-.87-.593-.543-.108-.978-.377-1.304-.809-.326-.432-.543-.971-.543-1.564 0-.702.217-1.295.652-1.78.435-.486 1.032-.702 1.685-.702.652 0 1.25.216 1.684.701.435.486.652 1.08.652 1.78 0 .594-.163 1.133-.489 1.565-.326.432-.76.755-1.304.863l.163.054c.49.216.87.324 1.141.324.163-.054.272-.054.435-.108zm-2.23-4.532c-.488 0-.923.162-1.195.54-.326.323-.489.809-.489 1.295 0 .539.163.97.49 1.294.325.324.706.54 1.195.54.489 0 .87-.162 1.196-.54.326-.377.489-.809.489-1.294 0-.54-.163-.972-.49-1.295-.271-.378-.706-.54-1.195-.54zm6.142-.593h.652v2.751c0 .378 0 .648-.054.863l-.163.486c-.054.108-.163.216-.272.324-.326.323-.815.485-1.358.485-.544 0-1.033-.162-1.36-.485-.108-.108-.217-.216-.27-.324-.055-.108-.11-.27-.164-.486-.054-.161-.054-.485-.054-.863v-2.751h.652v2.751c0 .432.054.755.163.971.109.162.217.324.435.432.217.108.434.162.706.162.38 0 .652-.108.924-.324.109-.108.218-.27.272-.432.054-.161.109-.431.109-.809l-.218-2.751zm1.522 0h2.5v.593h-1.848v1.457h1.794v.593h-1.794v1.51h1.902v.594h-2.554v-4.747zM42.391.27L58.315.27 58.315 20.5 42.391 20.5z"/>
    </g>
</svg>
