<svg xmlns="http://www.w3.org/2000/svg" width="90" height="37" viewBox="0 0 90 37">
    <g>
        <path d="M.685 21.178H1.76v6.67h3.424v1.022h-4.5v-7.692zm7.875-.05h.782l3.424 7.742h-1.125l-1.027-2.288H7.386l-.93 2.288H5.333c-.05 0 3.228-7.741 3.228-7.741zm1.614 4.48L8.95 22.833l-1.125 2.775h2.348zm6.554 3.262v-7.692h1.908c.782 0 1.37.194 1.81.584.44.39.684.925.684 1.558 0 .438-.097.827-.342 1.168-.245.34-.538.584-.93.73.245.146.49.39.734.682.245.292.538.779.979 1.46.244.439.489.78.636.974l.39.536h-1.32l-.342-.487s-.05-.049-.05-.097l-.195-.293-.342-.584-.391-.633c-.245-.292-.44-.584-.636-.73-.196-.195-.343-.34-.49-.39-.146-.097-.39-.145-.782-.145h-.294v3.359h-1.027zm1.37-6.767h-.343v2.434h.392c.538 0 .93-.049 1.125-.146.195-.098.342-.244.489-.438.147-.195.196-.39.196-.633 0-.244-.05-.438-.196-.633-.147-.195-.294-.34-.538-.438-.196-.098-.587-.146-1.125-.146zm8.364-1.023c1.174 0 2.152.39 2.935 1.12.782.73 1.174 1.704 1.174 2.824 0 1.12-.392 2.093-1.174 2.823-.783.73-1.761 1.12-2.984 1.12-1.125 0-2.103-.39-2.886-1.12-.782-.73-1.125-1.655-1.125-2.775 0-1.168.391-2.093 1.174-2.823.734-.828 1.712-1.169 2.886-1.169zm.049 1.023c-.88 0-1.565.292-2.152.827-.538.536-.832 1.266-.832 2.094 0 .827.294 1.509.832 2.044.538.536 1.271.828 2.103.828.831 0 1.565-.292 2.103-.828.587-.584.832-1.265.832-2.093 0-.828-.294-1.51-.832-2.045-.538-.535-1.223-.827-2.054-.827zm11.984 4.965v1.218c-.832.438-1.712.681-2.788.681-.832 0-1.566-.195-2.153-.535-.587-.341-1.076-.828-1.418-1.412-.343-.584-.538-1.266-.538-1.948 0-1.12.391-2.044 1.174-2.823.782-.78 1.76-1.169 2.935-1.169.782 0 1.663.195 2.64.633v1.169c-.88-.536-1.76-.78-2.592-.78-.88 0-1.614.293-2.152.828-.587.536-.88 1.266-.88 2.094 0 .827.293 1.558.831 2.093.587.536 1.272.828 2.153.828.978 0 1.907-.292 2.788-.877zm6.7-5.89h1.077v7.692h-1.076v-3.36H40.94v3.36h-1.076v-7.692h1.076v3.31h4.256v-3.31zm2.74 0h4.304v.973h-3.228v2.337h3.13v.974h-3.13v2.385h3.326v.974h-4.402v-7.643zm5.185 4.673h2.69v1.071h-2.69v-1.07zm3.962 3.019v-7.692h2.396c.734 0 1.32.194 1.761.584.44.39.636.925.636 1.606 0 .439-.098.828-.342 1.169-.245.34-.538.584-.93.73-.391.146-.93.244-1.663.244h-.782v3.31l-1.076.049zm2.2-6.719h-1.124v2.386h1.174c.44 0 .782-.098 1.027-.292.244-.195.342-.536.342-.925.049-.78-.44-1.169-1.418-1.169zm7.289-1.07c1.174 0 2.152.389 2.934 1.119.783.73 1.174 1.704 1.174 2.824 0 1.12-.391 2.093-1.174 2.823-.782.73-1.76 1.12-2.983 1.12-1.125 0-2.104-.39-2.886-1.12-.783-.73-1.125-1.655-1.125-2.775 0-1.168.391-2.093 1.174-2.823.733-.828 1.712-1.169 2.886-1.169zm.049 1.022c-.88 0-1.566.292-2.153.827-.538.536-.831 1.266-.831 2.094 0 .827.293 1.509.831 2.044.538.536 1.272.828 2.104.828.831 0 1.565-.292 2.103-.828.587-.584.831-1.265.831-2.093 0-.828-.293-1.51-.831-2.045-.538-.535-1.272-.827-2.054-.827zm7.288 3.554l-.832-.487c-.538-.341-.88-.633-1.125-.925-.196-.292-.342-.682-.342-1.071 0-.585.195-1.12.636-1.46.39-.39.978-.585 1.614-.585.636 0 1.223.195 1.76.535v1.218c-.537-.536-1.124-.78-1.76-.78-.343 0-.636.098-.88.244-.245.146-.343.39-.343.633s.098.438.244.633c.147.195.44.39.832.633l.831.487c.93.535 1.37 1.265 1.37 2.142 0 .633-.196 1.12-.636 1.509-.391.39-.93.584-1.614.584-.734 0-1.418-.243-2.054-.681v-1.412c.587.73 1.271 1.12 2.054 1.12.342 0 .636-.098.832-.293.244-.194.342-.438.342-.73.049-.487-.294-.925-.93-1.314zm5.625-4.528h.782l3.424 7.74h-1.125l-1.027-2.287h-3.228l-.93 2.288h-1.125l3.229-7.741zm1.614 4.479l-1.223-2.775-1.125 2.775h2.348zm6.75-4.43h1.32L86.43 24.78v4.041h-1.125v-4.04l-2.788-3.603h1.321l2.054 2.629 2.006-2.63zM.245 31.548h.587v3.797h1.76v.584H.245v-4.382zm4.108-.05h.392l1.76 4.382h-.587l-.538-1.314H3.717l-.489 1.266h-.587l1.712-4.333zm.832 2.532l-.636-1.558-.587 1.558h1.223zm3.081 1.85h-1.32v-4.333h1.027c.342 0 .587.05.782.146.196.098.343.244.44.39.098.146.147.34.147.584 0 .438-.195.73-.587.925.294.049.538.195.685.39.147.194.245.438.245.73 0 .243-.05.438-.147.584-.098.146-.245.292-.44.438-.294.098-.538.146-.832.146zm-.293-3.797h-.49v1.314h.392c.293 0 .538-.048.636-.194.147-.146.196-.292.196-.487 0-.438-.245-.633-.734-.633zm.049 1.85h-.538v1.363h.538c.293 0 .538-.049.636-.097.097-.049.195-.146.244-.244.05-.097.098-.243.098-.34 0-.147-.049-.244-.098-.341-.049-.098-.147-.195-.293-.244-.098-.048-.294-.097-.587-.097zm4.108-2.483c.587 0 1.125.195 1.517.633.391.438.587.974.587 1.606 0 .633-.196 1.169-.636 1.607-.391.438-.93.633-1.565.633-.587 0-1.076-.195-1.468-.633-.391-.438-.587-.925-.587-1.558s.196-1.168.587-1.606c.44-.439.93-.682 1.565-.682zm0 .633c-.44 0-.831.146-1.125.487-.293.292-.44.73-.44 1.168 0 .487.147.876.44 1.169.294.292.636.486 1.077.486.44 0 .782-.146 1.076-.486.293-.341.44-.73.44-1.169 0-.438-.147-.827-.44-1.168-.245-.341-.587-.487-1.028-.487zm2.837 3.797v-4.333h.979c.391 0 .733.098.929.341.196.244.342.536.342.876 0 .244-.049.487-.195.633-.098.195-.294.341-.49.39.147.097.245.195.392.39.098.145.293.437.489.827.147.243.245.438.342.535l.196.293h-.685l-.195-.293s0-.048-.05-.048l-.097-.195-.196-.34-.195-.342c-.098-.194-.245-.34-.343-.438l-.244-.243c-.098-.049-.196-.049-.392-.049h-.146v1.899c.097.097-.44.097-.44.097zm.734-3.797h-.147v1.363h.196c.293 0 .49-.049.587-.097.098-.049.196-.146.245-.244.048-.097.097-.243.097-.39 0-.145-.049-.243-.097-.389-.05-.146-.147-.194-.294-.243h-.587zm3.962-.584h.391l1.761 4.381h-.587l-.538-1.266h-1.614l-.489 1.266H18l1.663-4.381zm.832 2.531l-.636-1.558-.587 1.558h1.223zm.88-2.483h3.277v.536h-1.37v3.797h-.586v-3.797h-1.37v-.536h.049zm5.38-.097c.587 0 1.125.195 1.517.633.391.438.587.974.587 1.606 0 .633-.196 1.169-.636 1.607-.391.438-.93.633-1.565.633-.587 0-1.076-.195-1.468-.633-.391-.438-.587-.925-.587-1.558s.196-1.168.587-1.606c.44-.439.93-.682 1.565-.682zm0 .633c-.44 0-.831.146-1.125.487-.293.292-.44.73-.44 1.168 0 .487.147.876.44 1.169.294.292.636.486 1.077.486.44 0 .782-.146 1.076-.486.293-.341.44-.73.44-1.169 0-.438-.147-.827-.44-1.168-.245-.341-.587-.487-1.028-.487zm2.788-.536h.587v4.333h-.587v-4.333zm1.468 4.333v-4.333h.978c.391 0 .734.098.93.341.244.195.342.536.342.876 0 .244-.049.487-.196.633-.098.195-.293.341-.489.39.147.097.245.195.391.39.098.145.294.437.49.827.146.243.244.438.342.535l.196.293h-.685l-.196-.293s0-.048-.049-.048l-.098-.195-.195-.34-.196-.342c-.098-.194-.244-.34-.342-.438l-.245-.243c-.098-.049-.196-.049-.391-.049h-.147v1.899c.147.097-.44.097-.44.097zm.734-3.797h-.147v1.363h.195c.294 0 .49-.049.587-.097.098-.049.196-.146.245-.244.049-.097.098-.243.098-.39 0-.145-.05-.243-.098-.389-.049-.146-.147-.194-.293-.243h-.587zm2.739-.536h2.25v.536H35.07v1.314h1.614v.536H35.07v1.363h1.712v.536h-2.3v-4.285zm4.5 4.333v-4.333h1.32c.538 0 .979.098 1.272.244.644.418 1.031 1.133 1.027 1.898 0 .293-.049.585-.146.828-.098.244-.245.487-.44.682-.196.194-.392.34-.685.487-.147.048-.294.097-.392.146-.147 0-.342.048-.733.048h-1.223zm1.271-3.797h-.684v3.213h.733c.294 0 .49 0 .636-.049.147-.048.294-.097.392-.146.097-.048.195-.146.293-.243.293-.292.44-.682.44-1.169 0-.486-.147-.827-.44-1.12-.098-.097-.245-.194-.342-.291-.147-.05-.245-.098-.392-.146-.195-.05-.391-.05-.636-.05zm3.033-.536h2.25v.536h-1.663v1.314h1.614v.536h-1.614v1.363h1.712v.536h-2.299v-4.285zm2.935 4.333v-4.333h.978c.391 0 .734.098.93.341.195.244.342.536.342.876 0 .244-.05.487-.196.633-.098.195-.293.341-.489.39.147.097.245.195.391.39.098.145.294.437.49.827.146.243.244.438.342.535l.196.293h-.685l-.147-.293s0-.048-.049-.048l-.098-.195-.195-.34-.196-.342c-.098-.194-.245-.34-.342-.438l-.245-.243c-.098-.049-.196-.049-.391-.049h-.147v1.899c.049.097-.49.097-.49.097zm.734-3.797h-.147v1.363h.195c.294 0 .49-.049.587-.097.098-.049.196-.146.245-.244.049-.097.098-.243.098-.39 0-.145-.05-.243-.098-.389-.049-.146-.147-.194-.294-.243h-.586zm5.87-.536h.537v4.333h-.587v-3.359l-1.223 1.704h-.097l-1.223-1.704v3.36h-.587v-4.334h.538l1.32 1.802 1.321-1.802zm2.64-.048h.392l1.76 4.381h-.586l-.538-1.266h-1.663l-.49 1.266h-.587l1.712-4.381zm.783 2.531l-.636-1.558-.587 1.558h1.223zm.88-2.483h3.278v.536h-1.37v3.797h-.587v-3.797h-1.37v-.536h.05zm5.38-.097c.588 0 1.126.195 1.517.633s.587.974.587 1.606c0 .633-.196 1.169-.636 1.607-.391.438-.93.633-1.565.633-.587 0-1.076-.195-1.467-.633-.392-.438-.587-.925-.587-1.558s.195-1.168.587-1.606c.391-.439.929-.682 1.565-.682zm0 .633c-.44 0-.83.146-1.124.487-.294.292-.44.73-.44 1.168 0 .487.146.876.44 1.169.293.292.636.486 1.076.486.44 0 .783-.146 1.076-.486.294-.341.44-.73.44-1.169 0-.438-.146-.827-.44-1.168-.245-.341-.587-.487-1.027-.487zm2.789-.536h.587v3.798h1.76v.584H65.3v-4.382zm4.793-.097c.587 0 1.125.195 1.517.633.391.438.587.974.587 1.606 0 .633-.196 1.169-.636 1.607-.392.438-.93.633-1.565.633-.587 0-1.077-.195-1.468-.633s-.587-.925-.587-1.558.196-1.168.587-1.606c.44-.439.93-.682 1.565-.682zm0 .633c-.44 0-.831.146-1.125.487-.293.292-.44.73-.44 1.168 0 .487.147.876.44 1.169.294.292.636.486 1.076.486.44 0 .783-.146 1.077-.486.293-.341.44-.73.44-1.169 0-.438-.147-.827-.44-1.168-.245-.341-.587-.487-1.028-.487zm4.94 1.655h1.321v1.85c-.489.244-.978.34-1.418.34-.636 0-1.174-.194-1.565-.632-.392-.438-.587-.925-.587-1.558s.195-1.168.587-1.606c.39-.439.929-.633 1.516-.633.244 0 .44.048.636.097.195.049.44.146.733.292v.633c-.489-.292-.929-.438-1.418-.438-.44 0-.783.146-1.076.487-.294.34-.44.73-.44 1.168 0 .487.146.876.44 1.217.293.292.685.487 1.125.487.244 0 .489-.049.831-.195h.05v-.925h-.783l.049-.584zm2.153-2.19h.587v4.332h-.587v-4.333zm5.38 4.624l-.587.585c-.195 0-.342-.05-.538-.098-.195-.048-.391-.146-.587-.243-.195-.098-.44-.292-.782-.536-.49-.097-.88-.34-1.174-.73-.294-.39-.49-.876-.49-1.412 0-.633.196-1.168.588-1.606.39-.439.929-.633 1.516-.633s1.125.194 1.516.633c.391.438.587.973.587 1.606 0 .536-.147 1.023-.44 1.412-.294.39-.685.682-1.174.779l.147.049c.44.194.782.292 1.027.292.147-.049.244-.049.391-.098zm-2.005-4.09c-.44 0-.832.147-1.076.488-.294.292-.44.73-.44 1.168 0 .487.146.876.44 1.169.293.292.636.486 1.076.486.44 0 .782-.146 1.076-.486.293-.341.44-.73.44-1.169 0-.487-.147-.876-.44-1.168-.245-.341-.636-.487-1.076-.487zm5.527-.535h.587v2.483c0 .341 0 .584-.049.78l-.147.437c-.049.098-.146.195-.244.292-.294.293-.734.439-1.223.439-.49 0-.93-.146-1.223-.439-.098-.097-.196-.194-.245-.292-.048-.097-.097-.243-.146-.438-.05-.146-.05-.438-.05-.779v-2.483h.588v2.483c0 .39.049.682.147.877.097.146.195.292.39.39.196.096.392.145.637.145.342 0 .587-.097.831-.292.098-.097.196-.243.245-.39.049-.146.098-.389.098-.73l-.196-2.483zm1.37 0h2.25v.536h-1.664v1.314h1.615v.536h-1.615v1.363h1.712v.536h-2.298v-4.285zM38.152.243L52.484.243 52.484 18.5 38.152 18.5z"/>
    </g>
</svg>
