<svg xmlns="http://www.w3.org/2000/svg" width="70" height="39" viewBox="0 0 70 39">
    <g fill="#FFF" fill-rule="evenodd">
        <path fill-rule="nonzero" d="M0 0h1.569v3.134c0 .559 0 1.247.284 1.65.283.439.79.581 1.074.581 1.321 0 1.321-1.567 1.321-2.112V0h1.568v3.561c0 .512 0 1.615-.6 2.338-.543.667-1.405.917-1.97.917-.992 0-1.535-.548-1.794-.798v.572H0V0" transform="matrix(1 0 0 -1 0 39)"/>
        <path d="M12.95 3.017c.046.212.095.487.095.795 0 1.66-1.31 3.468-3.387 3.468-2.018 0-3.445-1.712-3.445-3.575 0-1.922 1.51-3.49 3.457-3.49 1.534 0 2.785 1.103 3.162 2.29H11.18c-.295-.546-.813-.842-1.51-.842-1.12 0-1.734.926-1.806 1.354h5.087zm-5.133 1.27C8.112 5.51 9.092 5.83 9.67 5.83c.78 0 1.593-.486 1.77-1.543H7.817z" transform="matrix(1 0 0 -1 0 39)"/>
        <path fill-rule="nonzero" d="M15.059 0L16.024 0 17.263 4.273 17.287 4.273 18.515 0 19.482 0 21.877 6.59 20.202 6.59 18.997 2.564 18.975 2.564 17.911 6.59 16.662 6.59 15.589 2.564 15.565 2.564 14.374 6.59 12.698 6.59 15.059 0z" transform="matrix(1 0 0 -1 0 39)"/>
        <path d="M24.914.428h1.439v.796c.388-.44.945-1.01 2.207-1.01 2.394 0 3.256 2.22 3.256 3.54 0 1.743-1.298 3.49-3.292 3.49-.732 0-1.5-.274-2.042-.821v2.79h-1.568V.43zm1.473 3.383c0 .962.744 1.983 1.947 1.983.992 0 1.913-.77 1.913-2.054 0-1.28-.862-2.078-1.888-2.078-.92 0-1.972.689-1.972 2.15zm12.754 3.207h-1.44v-.833h-.024c-.048.096-.839 1.06-2.17 1.06-1.817 0-3.281-1.461-3.281-3.481 0-2.196 1.499-3.55 3.187-3.55.824 0 1.793.44 2.288 1.031V.428h1.44v6.59zM37.655 3.74c0-1.223-.827-2.077-1.913-2.077-1.12 0-1.947.914-1.947 2.03 0 .985.66 2.1 1.947 2.1.932 0 1.913-.687 1.913-2.053z" transform="matrix(1 0 0 -1 0 39)"/>
        <path fill-rule="nonzero" d="M41.544 8.785L39.975 8.785 39.975 0 41.544 0z" transform="matrix(1 0 0 -1 0 39)"/>
        <path d="M48.929 7.018H47.49v-.833h-.024c-.048.096-.84 1.06-2.17 1.06-1.82 0-3.282-1.461-3.282-3.481 0-2.196 1.5-3.55 3.186-3.55.826 0 1.793.44 2.29 1.031V.428h1.439v6.59zM47.442 3.74c0-1.223-.825-2.077-1.911-2.077-1.122 0-1.947.914-1.947 2.03 0 .985.66 2.1 1.947 2.1.933 0 1.911-.687 1.911-2.053z" transform="matrix(1 0 0 -1 0 39)"/>
        <path fill-rule="nonzero" d="M49.764.428h1.568v3.135c0 .559 0 1.246.285 1.65.282.438.791.58 1.073.58 1.321 0 1.321-1.567 1.321-2.111V.428h1.57V3.99c0 .511 0 1.614-.603 2.338-.542.666-1.403.917-1.97.917-.991 0-1.533-.549-1.793-.798v.571h-1.45V.428m11.391 2.15c-.413-.666-.931-.915-1.45-.915-1.182 0-1.971.938-1.971 2.066 0 1.353.944 2.066 1.899 2.066.968 0 1.334-.63 1.522-.961h1.771c-.673 2.03-2.468 2.41-3.293 2.41-1.805 0-3.468-1.474-3.468-3.49 0-2.186 1.803-3.54 3.48-3.54 1.535 0 2.75.892 3.281 2.363h-1.77" transform="matrix(1 0 0 -1 0 39)"/>
        <path d="M69.907 3.017c.046.212.093.487.093.795 0 1.66-1.309 3.468-3.385 3.468-2.019 0-3.446-1.712-3.446-3.575 0-1.922 1.51-3.49 3.457-3.49 1.533 0 2.785 1.103 3.162 2.29h-1.652c-.295-.546-.813-.842-1.51-.842-1.122 0-1.735.926-1.804 1.354h5.085zm-5.133 1.27c.295 1.223 1.274 1.543 1.852 1.543.78 0 1.593-.486 1.77-1.543h-3.622zM26.706 22.271l-2.097-3.644L13 19.284l1.162 2.03 12.543.957zm8.391 11.613l1.052-4.022-16.47 1.089 1.16 2.029 14.258.903zm-10.92 4.93l9.643-.008.727-2.75-11.53.728 1.162 2.03h-.001zM23.33 16.36l-1.673-2.897-11.995-.012 1.162 2.027 12.506.882zm21.058 7.814l-2.903-5.064h2.765c1.282 0 3.577.643 4.283 2.479.655 1.705-.548 2.587-1.388 2.587l-2.757-.002zm2.769 4.843l2.411.015c1.605.009 3.28.748 3.892 2.247.565 1.39-.194 2.575-1.2 2.57l-2.333.003-2.77-4.835zm-10.917.844l2.435 4.25 8.242.533.288.516-7.624.537 1.783 3.115h14.139c4.348 0 7.565-1.563 6.314-6.163-.376-1.394-2.143-4.902-7.327-6.372 1.1-.132 3.84-1.354 3.369-4.521-.84-5.616-8.066-8.289-12.085-8.29l-16.693-.008-.823 3.25 8.743.62.297.514-9.483.58-1.022 3.853 13.495.793.292.51-24.242 1.54 1.162 2.027 26.094 1.705.295.511-7.65.5h.001z" transform="matrix(1 0 0 -1 0 39)"/>
    </g>
</svg>
