<svg xmlns="http://www.w3.org/2000/svg" width="70" height="44" viewBox="0 0 70 44">
    <g fill="#FFF">
        <path d="M2.07 43.826c-.089-.087-.265-.087-.397-.087C.925 43.52.44 43.042.22 42.345c-.396-1.395.308-3.486 1.497-4.357.572-.436 1.277-.697 2.07-.61.571.044 1.012.305 1.408.828.132-.697.264-1.307.396-1.917.088-.305.132-.61.22-.958.044-.131.088-.175.22-.175h1.453c-.22.915-.396 1.83-.572 2.745-.396 1.786-.748 3.616-1.145 5.402-.088.261-.132.392-.44.392-.308-.044-.66 0-.969 0-.176 0-.22-.044-.176-.218.044-.174.088-.392.132-.61-.176.131-.308.262-.396.349-.528.392-1.1.566-1.76.653l-.089-.043zm7.572 0c-.089-.087-.177-.044-.265-.087-1.232-.088-1.98-.741-2.025-1.917-.088-1.569.396-3.006 1.805-3.965.749-.566 1.673-.697 2.554-.479.924.218 1.54.872 1.629 1.873.088.567-.044 1.046-.088 1.612-.044.262-.22.175-.353.175H9.333c-.264 0-.352.087-.352.348 0 .566.22.959.66 1.133.529.174 1.057.043 1.41-.48.22-.304.396-.348.704-.26.352.086.748.13 1.1.217-.572 1.046-1.408 1.699-2.641 1.83-.088 0-.264-.087-.308.087-.044-.087-.132-.087-.264-.087zM4.755 39.86c0-.435-.044-.87-.44-1.045-.44-.262-.925-.174-1.321.087-.132.044-.176.087-.264.174-.705.784-.925 1.7-.793 2.701.044.567.66.872 1.233.74.44-.086.792-.391 1.056-.783.353-.61.485-1.22.529-1.874zm4.622.175h2.202c.132.043.176-.044.22-.175.176-.827-.44-1.437-1.233-1.22-.616.175-1.1.698-1.189 1.395zM34.384 21.477c-.573.567-1.057 1.22-1.63 1.786-.087.087-.131.087-.22.087h-.22c-10.522 0-21.132 0-31.654.044-.352 0-.44-.087-.396-.392.044-.392.044-.784 0-1.176 0-.218.088-.262.264-.262h33.944l-.088-.087zM34.34 4.661c-.088.088-.265.044-.397.044H.573c-.265 0-.397-.087-.353-.349.044-.392.044-.74 0-1.132 0-.218.088-.262.264-.262h31.83c.265 0 .44.088.66.262.441.479.925.958 1.366 1.437zM24.39.392h5.371c.264 0 .396.087.572.261.44.48.969.915 1.453 1.395-.176.087-.264.087-.396.087H.616c-.264 0-.396-.087-.352-.349.044-.436 0-.915 0-1.35C.352.349.484.392.572.392h23.466c.132 0 .264-.043.352 0zm7.396 23.917c-.484.48-1.012.915-1.497 1.394-.088.087-.22.087-.308.087H.704c-.352 0-.484-.087-.44-.436.044-.304 0-.653 0-.958 0-.174.044-.261.22-.218h31.214l.088.13zM55.384 38.206c.264-.174.44-.349.704-.48.572-.348 1.145-.478 1.805-.391.44.087.837.261 1.057.697.088.218.176.174.352.087.66-.567 1.409-.871 2.245-.74.925.13 1.409.74 1.277 1.655-.176 1.132-.44 2.265-.705 3.354-.088.349-.176.697-.22 1.046-.044.174-.088.217-.264.217h-1.232c-.177 0-.22-.087-.177-.217.265-1.177.485-2.31.749-3.485.044-.218.088-.436.088-.654.044-.523-.308-.784-.837-.697-.616.13-.968.523-1.232 1.046-.264.697-.397 1.437-.529 2.178-.088.523-.264 1.045-.308 1.568-.044.218-.088.261-.308.261h-1.145c-.22 0-.264-.087-.22-.26l.749-3.53c.044-.174.088-.348.088-.522.088-.523-.264-.828-.749-.741-.572.087-1.012.392-1.232.915-.353.784-.397 1.655-.617 2.483-.088.48-.22.915-.264 1.394-.044.174-.088.261-.308.261-.352-.043-.748-.043-1.057 0-.264 0-.352-.087-.264-.348.22-.958.396-1.96.617-2.919.176-.828.396-1.699.528-2.527.088-.305.132-.479.528-.392.264.044.572 0 .88 0 .22 0 .265.044.22.262-.175.087-.175.261-.22.479zM62.56 18.036H42.088c.396-.436.837-.872 1.233-1.307.308-.392.66-.48 1.144-.48h16.29c.264 0 .396.088.572.262.396.436.792.958 1.233 1.525zM42.22 8.234h20.34c-.573.61-1.1 1.176-1.63 1.742-.087.087-.22.087-.307.087H44.025c-.132 0-.264 0-.352-.087-.44-.61-.925-1.132-1.453-1.742zm18.006 2.7l-1.232 1.656c-.088.087-.176.087-.264.087H46.535c-.132 0-.265-.043-.309-.13-.396-.436-.88-.915-1.276-1.395-.088-.087-.132-.13-.088-.26.044-.088.176-.088.264-.088h15.012c-.088.044 0 .044.088.13zm.132 4.4H44.642c.572-.566 1.144-1.176 1.716-1.742.089-.087.22-.087.309-.087h11.842c.133 0 .265 0 .353.087.44.61.924 1.176 1.496 1.743zM17.698 42.998c-.264.174-.528.349-.792.48-.573.26-1.145.348-1.761.26-1.013-.13-1.497-1.001-1.145-2.003.264-.74.792-1.22 1.54-1.482.75-.26 1.586-.304 2.334-.522.44-.131.529-.175.484-.61 0-.392-.264-.48-.572-.523-.616-.087-1.189 0-1.54.566-.089.175-.22.175-.397.131-.396-.087-.748-.13-1.189-.261.397-.784.925-1.394 1.761-1.612.793-.262 1.63-.262 2.422-.087.924.217 1.232.74 1.1 1.612-.132.87-.352 1.742-.528 2.57-.132.61-.264 1.22-.088 1.873.044.13-.044.13-.132.13h-1.32c-.133 0-.177-.086-.22-.173.087 0 .087-.131.043-.349zm-1.365-.348c.925 0 1.761-.915 1.63-1.743 0-.174-.089-.087-.177-.087-.396.043-.836.174-1.233.261-.264.087-.528.174-.748.392-.22.218-.264.48-.176.784.132.305.396.393.704.393zM51.73 41.909c-.617 1.307-2.07 2.004-3.566 1.83-1.277-.175-1.894-.872-1.982-2.135 0-.392.044-.74.088-1.09.309-1.393 1.057-2.482 2.422-3.005.704-.261 1.409-.261 2.069-.087.836.261 1.277.915 1.365 1.742.088.567 0 1.046-.088 1.612-.044.218-.088.262-.308.262h-3.566c-.309 0-.397.087-.397.392 0 .522.264.915.705 1.045.484.175 1.056 0 1.409-.479.176-.305.396-.348.704-.261.396.087.748.13 1.145.174zm-22.101 0c-.925 1.742-2.818 2.178-4.27 1.655-.925-.305-1.277-1.045-1.277-1.96 0-1.655.572-3.05 2.069-3.92.792-.48 1.673-.567 2.553-.262.88.261 1.277.915 1.41 1.742.087.523 0 1.046-.089 1.569-.044.261-.132.305-.396.305h-3.522c-.308 0-.396.087-.396.392 0 .522.264.915.704 1.045.484.175 1.057 0 1.409-.523.176-.304.396-.304.66-.26.397.086.793.173 1.145.217zm39.49 0c-.572 1.002-1.364 1.612-2.465 1.786-.44.087-.88.087-1.32 0-.97-.13-1.674-.784-1.762-1.786-.088-1.743.44-3.224 2.025-4.182.793-.48 1.673-.567 2.554-.262.836.262 1.277.872 1.409 1.743.088.566 0 1.045-.088 1.612-.044.218-.132.261-.353.261h-3.522c-.264 0-.352.087-.352.305-.044.566.22.959.66 1.133.485.174 1.101.043 1.41-.48.176-.304.396-.391.704-.26.352.043.704.086 1.1.13zm-31.566-4.487c-.616.653-1.188 1.22-1.717 1.83-.264.304-.572.61-.88.914-.132.131-.132.262-.088.436.44.915.924 1.83 1.409 2.701.132.261.088.305-.176.261h-1.453c-.22 0-.308-.087-.396-.261-.265-.566-.485-1.046-.749-1.655-.528.566-1.012 1.132-1.453 1.699-.132.174-.264.26-.484.217h-1.629c.44-.522.88-.958 1.277-1.394l1.453-1.568c.132-.13.132-.261.088-.436-.397-.74-.749-1.524-1.189-2.265-.088-.13-.132-.305-.264-.48h1.893c.132 0 .132.088.22.219.176.392.396.827.572 1.263.088.174.132.218.265.044.352-.393.748-.785 1.056-1.22.176-.218.396-.305.66-.305h1.585zm-10.257 2.57h.968c.132 0 .22 0 .264-.13.176-.523-.176-1.177-.748-1.264-.793-.174-1.497.523-1.673 1.22-.044.174.088.174.176.174h1.013zm22.056 0c.352 0 .66 0 1.013-.043.132 0 .22 0 .264-.131.044-.48-.132-1.09-.748-1.22-.749-.174-1.541.436-1.717 1.22-.045.174.088.174.176.174h1.012zm17.434 0h.925c.132 0 .22 0 .264-.13.176-.523-.176-1.177-.749-1.264-.704-.174-1.584.523-1.673 1.22 0 .13.089.174.177.174h1.056zM37.245 7.362H27.56c-.573 0-1.145.131-1.585-.087-.44-.218-.793-.697-1.189-1.045-.264-.218-.484-.392-.748-.74h10.874c.352 0 .572.086.836.304 0 .044 1.497 1.568 1.497 1.568zM23.994 20.693c.66-.566 1.232-1.133 1.849-1.699.088-.087.22-.087.352-.087 1.453 0 2.906-.044 4.358-.044h6.736c-.352.349-.704.654-.968 1.002-.529.697-1.189.828-2.025.828-3.258-.043-6.56-.043-9.818-.043-.132.043-.22.043-.484.043zm2.905-12.46h11.007c.264 0 .44.088.616.262.396.436.836.871 1.233 1.263.088.088.132.131.088.262-.044.13-.176.087-.264.087h-10.61c-.088 0-.177.043-.265-.087-.528-.61-1.1-1.176-1.805-1.786zm0 9.803c.705-.61 1.277-1.177 1.893-1.743.089-.087.265-.087.353-.087h10.918c-.396.392-.837.784-1.145 1.22-.396.523-.88.61-1.497.61-3.39-.044-6.735 0-10.081 0h-.44zm25.447.87c-.572.567-1.1 1.134-1.629 1.7-.132.13-.308.087-.484.087-1.277 0-2.598-.043-3.919-.043H39.58c.572-.61 1.1-1.177 1.629-1.743.088-.087.176-.087.264-.087h10.654c.088.087.132.087.22.087zm-9.642-6.229H40.24c-1.673 0-3.346 0-5.019-.043h-3.346c-.132 0-.264.043-.396-.087-.528-.567-1.057-1.177-1.629-1.743 0-.044.088 0 .176 0h10.522c.22 0 .352.087.528.218.44.435.925.915 1.365 1.307.088.174.176.218.264.348zm-12.899 2.614c.616-.566 1.233-1.089 1.805-1.655.132-.131.264-.087.44-.087h10.742c-.572.566-1.144 1.176-1.673 1.742-.088.087-.176.087-.264.087H29.937c-.044-.043-.044-.043-.132-.087zm22.497-7.929H41.604c-.264 0-.396-.087-.573-.261-.396-.523-.88-1.002-1.32-1.481.088-.087.264-.087.352-.087 3.214 0 6.472 0 9.685-.044.529 0 .925.218 1.233.523.44.392.88.784 1.277 1.22.088.043.088.087.044.13zm-2.51 14.159c-.572.61-1.1 1.176-1.673 1.742-.088.087-.176.087-.264.087H37.29c-.044 0-.044 0-.088-.043.573-.566 1.057-1.133 1.63-1.743.087-.087.263-.087.351-.087-.044.044 10.61.044 10.61.044zM49.66 4.705H39.182c-.396 0-.66-.087-.924-.392-.352-.436-.749-.828-1.189-1.263.088-.088.22-.044.308-.044 3.434 0 6.868 0 10.302-.044.264 0 .396.088.573.262l1.452 1.35c.044.044 0 .044-.044.131zm3.346 14.202h9.95c.22 0 .352.043.484.218.44.523.925 1.045 1.453 1.568H54.9c-.264 0-.396-.087-.572-.261-.44-.523-.836-1.002-1.32-1.525zm11.755-13.33c-.44.566-.88 1.088-1.277 1.655-.088.087-.132.13-.264.13H53.182l-.088-.043c.485-.567 1.013-1.09 1.497-1.7.088-.086.176-.086.264-.086 3.214 0 6.516 0 9.73-.044.088.044.132.087.176.087zM55.384 21.52H65.42c.132 0 .265.043.353.174.396.566.88 1.046 1.276 1.568-.088.087-.22.087-.264.087h-9.51c-.22 0-.351-.043-.44-.217-.484-.48-.968-1.046-1.452-1.612zm-8.189 2.7l-1.585 1.57c-.088.086-.176.086-.264.086-3.478 0-6.956 0-10.434.044-.044 0-.088 0-.132-.044.528-.566 1.012-1.045 1.497-1.612.088-.087.132-.043.22-.043h10.698zM45.478.437c.572.566 1.057 1.089 1.673 1.699h-8.893c-.528 0-1.013 0-1.541.043-.176 0-.308-.043-.44-.174L34.692.436c.088-.087.22-.044.264-.044h10.17c.176 0 .22-.043.352.044zm21.616 2.57c-.44.566-.924 1.045-1.364 1.568-.088.087-.133.087-.265.087-3.301.088-6.56.044-9.861.044l-.088-.044c.484-.566.924-1.045 1.409-1.568.088-.087.132-.043.22-.087h9.773c.044-.044.088-.044.176 0zM40.9 35.244c-.133.653-.265 1.22-.397 1.873-.088.305.044.348.264.348.22 0 .573-.087.749.044.132.174-.088.436-.088.697-.088.566-.088.566-.749.566-.528 0-.528 0-.616.523-.176.784-.308 1.568-.484 2.396-.132.74 0 .915.748.697.088 0 .132-.043.264-.087-.044.392-.088.784-.088 1.176 0 .13-.088.13-.22.174-.528.175-1.057.262-1.629.131-.572-.087-.836-.392-.836-1.002 0-.915.264-1.742.44-2.57.088-.392.132-.74.264-1.133.044-.218 0-.261-.22-.261-.484 0-.484 0-.396-.48.044-.086.044-.217.088-.304.088-.523.088-.523.66-.523.176 0 .264-.087.264-.218 0-.043.044-.087.044-.087 0-.697.396-1.09 1.013-1.35.264-.218.572-.393.924-.61zM4.799 12.677H.572c-.264 0-.352-.087-.308-.305.044-.392.044-.827 0-1.22 0-.26.088-.26.264-.26h8.365c.264 0 .352.086.352.304 0 .392.044.828.088 1.22.044.261-.088.261-.264.261H4.8zM4.799 18.907H8.98c.264 0 .396.043.352.305-.044.392 0 .871 0 1.263 0 .175-.088.262-.264.262-2.553 0-5.107 0-7.66-.044H.484c-.176 0-.264-.043-.264-.218 0-.435.044-.915 0-1.35 0-.262.088-.262.308-.262 1.453 0 2.862 0 4.27.044 0-.044 0-.044 0 0zM57.805 2.09c.396-.566.925-1.045 1.32-1.568.089-.087.177-.13.265-.13h9.641c.044 0 .088 0 .177.043-.485.566-.969 1.089-1.41 1.612-.087.087-.175.087-.263.087h-9.598c.044 0 0-.044-.132-.044zm11.49 23.83H59.61c-.264 0-.396-.087-.572-.262-.396-.479-.749-.914-1.145-1.394.088-.087.176-.087.264-.087h9.378c.176 0 .308.044.44.218.396.48.836.958 1.32 1.525zM4.844 16.206h4.182c.264 0 .352.087.308.305-.044.392 0 .828 0 1.22 0 .218-.044.261-.264.261H.53c-.22 0-.265-.087-.265-.261 0-.392.044-.784 0-1.22 0-.261.088-.349.352-.349 1.41.088 2.774.044 4.227.044zm-.088-6.186H.616c-.264 0-.352-.087-.352-.349.044-.392 0-.827 0-1.22 0-.174.088-.26.264-.26h8.497c.132 0 .264 0 .264.173 0 .436.044.915.088 1.35.044.262-.088.262-.264.262-1.497.044-2.905.044-4.358.044zm0 5.315H.572c-.264 0-.308-.087-.308-.305.044-.392 0-.828 0-1.22 0-.218.044-.261.264-.261h8.41c.22 0 .307.087.307.26 0 .393.044.785.088 1.177.044.262-.044.392-.352.392H4.755v-.043zm.044-7.973H.572c-.264 0-.308-.087-.308-.305.044-.392.044-.74 0-1.132 0-.262.088-.305.308-.349H.97c2.597 0 5.239 0 7.836-.043.352 0 .396.087.396.392 0 .392.044.74.088 1.132.044.218-.088.262-.264.262H4.8v.043zM21.484 43.695c-.264 0-.616.087-.748-.087s.044-.48.088-.74c.528-2.527 1.057-5.01 1.585-7.494.044-.174.088-.261.308-.261.396.043.748 0 1.1 0 .22 0 .309.043.265.261-.485 2.222-.925 4.531-1.409 6.753-.088.392-.176.784-.264 1.22-.044.26-.132.304-.396.304-.132 0-.353.044-.529.044zM44.201 38.206c.132-.174.264-.349.396-.48.529-.435 1.277-.566 1.894-.217.132.087.176.13.088.305-.22.348-.397.697-.573 1.045-.088.131-.132.218-.308.088-.66-.349-1.233-.131-1.585.522-.352.61-.44 1.264-.572 1.917-.132.654-.264 1.264-.396 1.917-.044.218-.088.261-.309.261h-1.144c-.22 0-.264-.087-.22-.261.352-1.612.704-3.267 1.056-4.88.044-.26.132-.478.132-.74.044-.261.132-.392.397-.348.264.043.572.043.836 0 .264-.044.396.087.308.348-.044.087-.044.218-.088.305 0 .13.044.174.088.218zM33.987 36.028c-.22.13-.396.261-.572.392-.088.087-.22.13-.264-.087-.176-.48-.528-.915-.793-1.307-.396-.61-.66-1.22-.396-2.004.088-.218.176-.392.352-.567.66-.61 1.321-1.22 1.761-2.047.353.305.573.653.793 1.002.088.043.176.087.22.218.704 1.22.748 2.396-.176 3.528-.264.393-.484.741-.925.872z"/>
        <path d="M33.987 36.028c.309-.305.66-.61.925-.959.792-1.045.748-2.221.088-3.31-.088-.088-.088-.218-.176-.262.132-.218.264-.392.44-.61.793.959 1.585 1.917 1.409 3.311-.088.828-.616 1.438-1.233 2.004-.264.261-.572.436-.792.653-.132.088-.264.175-.308-.087-.088-.305-.22-.522-.353-.74z" opacity=".6"/>
        <path d="M24.39.392H.264C.352.262.528.305.616.305h23.466c.088.044.22.044.308.087zM45.478.436H35c-.088 0-.176 0-.264.043.088-.13.22-.087.308-.087H45.17c.088-.043.176-.043.308.044z"/>
    </g>
</svg>
