<svg xmlns="http://www.w3.org/2000/svg" width="100" height="20" viewBox="0 0 100 20">
    <path fill="#FFF" d="M2.684 15.632H0V.789h2.684v4.685c.316-.21.632-.421 1-.527.316-.105.684-.158 1.053-.158.631 0 1.263.106 1.842.369.579.263 1.105.579 1.526 1.053.421.42.79.947 1 1.473.263.58.369 1.21.369 1.842v6.106H6.737V9.526c0-.263-.053-.526-.158-.79-.21-.525-.579-.894-1.105-1.104-.263-.106-.527-.158-.79-.158s-.526.052-.79.158c-.526.21-.894.579-1.105 1.105-.105.263-.105.526-.105.79v6.105zM14.58 2.105c0 .263-.053.474-.158.684-.105.211-.21.422-.368.58-.158.157-.369.315-.58.368-.473.21-.947.21-1.42 0-.21-.105-.369-.21-.58-.369-.157-.157-.315-.368-.368-.579-.21-.42-.21-.947 0-1.42.158-.422.527-.79.948-.948.473-.21.947-.21 1.42 0 .211.105.37.21.58.368.158.158.315.369.368.58.158.263.158.526.158.736zm-.474 13.527h-2.737V5h2.737v10.632zm12.369-1.369c0 .737-.158 1.421-.421 2.105-.264.632-.685 1.21-1.158 1.737-.474.474-1.106.895-1.737 1.158-.684.263-1.369.421-2.105.421h-1.369v-2.737H21c.368 0 .737-.052 1.105-.158.527-.21 1-.578 1.263-1.105l.316-.79c-.105.159-.263.317-.473.422-.211.105-.422.21-.685.263-.263.053-.473.105-.737.158-.263 0-.526.052-.736.052-.737 0-1.421-.105-2.106-.368-1.315-.526-2.368-1.526-2.894-2.842-.316-.737-.421-1.526-.421-2.368 0-.737.157-1.527.42-2.211.264-.632.632-1.263 1.106-1.737.474-.526 1.053-.895 1.737-1.158.684-.263 1.368-.42 2.105-.42.316 0 .684.052 1 .104.316.106.684.211 1 .369.316.158.632.368.895.579.263.21.579.42.79.684l1.052-1.263h.684v9.105h.053zm-2.79-4.052c0-.369-.052-.737-.21-1.053-.106-.316-.316-.632-.58-.947-.262-.264-.526-.474-.841-.632-.316-.158-.685-.263-1.053-.263-.368 0-.737.052-1.053.21-.315.106-.631.316-.842.58-.263.262-.42.578-.579.894-.158.368-.21.79-.21 1.21 0 .422.052.79.21 1.211.106.316.316.632.58.895.262.263.526.42.841.579.316.158.685.21 1.053.21.368 0 .737-.052 1.053-.21.315-.158.631-.369.842-.632.263-.263.42-.579.579-.947.158-.369.21-.737.21-1.105zm7.527 5.42h-2.685V.79h2.685v4.685c.315-.21.631-.421 1-.527.315-.105.684-.158 1.052-.158.632 0 1.263.106 1.842.369.58.263 1.053.579 1.474 1.053.421.42.79.947 1 1.526.263.579.368 1.158.368 1.79v6.105h-2.684V9.526c0-.263-.052-.526-.158-.79-.21-.525-.579-.894-1.105-1.104-.263-.106-.526-.158-.79-.158-.263 0-.526.052-.789.158-.526.21-.895.579-1.105 1.105-.105.263-.105.526-.105.79v6.105zm14.526 0h-6.158v-2.684h6.158c.368 0 .684-.315.684-.684 0-.158-.053-.316-.21-.368-.158-.053-.316-.106-.474-.106h-2.79c-.473 0-.894-.105-1.315-.263-.79-.368-1.421-1-1.79-1.79-.368-.841-.368-1.789 0-2.63.316-.79 1-1.474 1.79-1.79.42-.158.842-.263 1.315-.263h5.474v2.684h-5.526c-.369 0-.684.316-.684.684 0 .21.052.368.21.474.105.158.316.21.474.21h2.79c.42 0 .894.053 1.315.21.368.159.737.37 1.053.632.315.264.579.632.736 1 .158.421.264.842.264 1.264 0 .473-.106.894-.264 1.315-.157.421-.42.737-.736 1.053-.316.316-.685.579-1.053.737-.368.21-.842.316-1.263.316zm14.052-8.526l-2 2c-.105-.263-.21-.526-.42-.737-.158-.21-.369-.42-.58-.579-.21-.157-.473-.263-.684-.368-.263-.105-.526-.105-.79-.105-.368 0-.736.052-1.052.21-.316.158-.631.369-.842.632-.263.263-.421.631-.579.947-.158.421-.21.842-.21 1.263 0 .369.052.737.21 1.053.105.316.316.579.58.842.262.263.525.421.841.58.58.262 1.21.262 1.79.104.263-.052.473-.158.684-.315.21-.158.368-.316.579-.474.158-.21.316-.421.42-.632l2 2c-.262.369-.525.685-.841 1-.316.263-.684.527-1.053.737-.368.21-.79.369-1.21.474-.421.105-.843.158-1.316.158-.737 0-1.421-.158-2.105-.421-1.316-.527-2.316-1.58-2.895-2.895-.263-.684-.421-1.368-.421-2.105 0-.79.158-1.58.42-2.263.264-.685.685-1.316 1.159-1.843.473-.526 1.052-.947 1.737-1.263.684-.316 1.368-.473 2.105-.473.42 0 .895.052 1.316.157.842.211 1.631.685 2.263 1.264.368.315.684.684.894 1.052zm4.053 8.527h-2.684V5h.631l.895 1.263c.895-.79 2-1.263 3.21-1.263h2.37v2.684h-2.37c-.262 0-.526.053-.789.158-.526.21-.894.58-1.105 1.105-.105.264-.158.527-.158.79v5.895zM73.526 13c.106.053.21.053.316.053h.316c.263 0 .526-.053.737-.106.263-.052.473-.158.684-.315.421-.264.79-.685 1-1.158l2 2c-.263.368-.526.684-.842 1-.316.263-.684.526-1.053.737-.368.21-.79.368-1.21.473-.421.105-.842.158-1.316.158-1.421 0-2.79-.579-3.842-1.579-.474-.526-.895-1.105-1.158-1.79-.316-.736-.421-1.473-.421-2.262 0-.79.158-1.58.42-2.316.527-1.316 1.58-2.369 2.896-2.895.684-.263 1.368-.421 2.105-.421.42 0 .895.053 1.316.158.842.21 1.631.631 2.263 1.158.316.263.631.631.895.947L73.526 13zm1.421-5.579c-.105-.053-.263-.053-.368-.105h-.368c-.369 0-.737.052-1.053.21-.316.106-.632.316-.842.58-.263.262-.421.578-.58.894-.157.368-.21.79-.21 1.21v.316c0 .106 0 .263.053.369 0 .105.053.263.105.368.053.105.053.21.105.316l3.158-4.158zM84.105 13c.106.053.21.053.316.053h.316c.263 0 .526-.053.737-.106.263-.052.473-.158.684-.315.21-.158.368-.316.579-.474.158-.21.316-.421.42-.632l2 2c-.21.369-.525.685-.841 1-.316.263-.684.527-1.053.737-.368.21-.79.369-1.21.474-.421.105-.842.158-1.316.158-1.421 0-2.79-.58-3.842-1.58-.474-.526-.895-1.104-1.158-1.789-.316-.737-.421-1.473-.421-2.263 0-.79.158-1.579.42-2.316.527-1.315 1.58-2.368 2.896-2.894.684-.264 1.368-.421 2.105-.421.42 0 .895.052 1.316.157.842.211 1.631.632 2.263 1.158.316.264.631.632.895.948L84.105 13zm1.369-5.579c-.106-.053-.263-.053-.369-.105h-.368c-.369 0-.737.052-1.053.21-.316.106-.631.316-.842.58-.263.262-.42.578-.579.894-.158.368-.21.79-.21 1.21v.316c0 .106 0 .263.052.369 0 .105.053.263.106.368.052.105.052.21.105.316l3.158-4.158zm7.79 8.21h-2.738V5h.632l.895 1.053c.894-.79 2-1.264 3.21-1.264.632 0 1.263.106 1.842.369.58.263 1.106.579 1.527 1.053.42.42.79.947 1 1.526.263.579.368 1.158.368 1.79v6.105h-2.684V9.526c0-.263-.053-.526-.158-.79-.21-.525-.58-.894-1.105-1.104-.264-.106-.527-.158-.79-.158s-.526.052-.79.158c-.526.21-.894.579-1.105 1.105-.105.263-.157.526-.157.79l.052 6.105z"/>
</svg>
