<svg xmlns="http://www.w3.org/2000/svg" width="90" height="22" viewBox="0 0 90 22">
    <path d="M83.588 6.73c-.03 0-.042.03-.042.048v.434c0 .024.024.042.041.042h.812v2.795c0 .023.023.035.041.035h.474c.059 0 .059-.023.059-.041V7.248h.829c.06 0 .06-.06.06-.06v-.534l-2.274.077zM49.98 2.492c0 .892.71 1.606 1.658 1.606.888 0 1.598-.714 1.598-1.606 0-.892-.71-1.605-1.598-1.605-.889 0-1.6.713-1.6 1.605h-.058zm8.467 5.233l-.119.06-.237-.595c-.059-.238-.236-.357-.414-.357H56.67c-.236 0-.473.238-.473.476v13.259c0 .238.237.476.503.476h1.836c.284 0 .509-.238.509-.476V9.864l.059-.06c.77-.415 1.54-.653 3.02-.653 1.823 0 2.19.654 2.19 1.784v9.632c0 .297.22.476.474.476h1.836c.278 0 .473-.238.473-.5V11.03c0-2.914-1.717-4.46-4.973-4.46-1.202 0-2.428.416-3.612 1.13l-.065.024zm-5.383-.38c0-.274-.236-.476-.491-.476h-1.818c-.296 0-.473.202-.473.475v13.272c0 .237.236.475.473.475h1.777c.296 0 .485-.226.485-.475l.047-13.272zM46.776.713c0-.256-.225-.476-.491-.476h-1.877c-.278 0-.486.238-.486.505v19.92c0 .237.225.475.486.475h1.788c.26 0 .486-.238.486-.476L46.776.714zm-27.77 12.13c.137-1.82.616-3.52 3.168-3.52 2.191 0 2.63 1.206 2.683 3.531v.101h-5.862l.012-.119v.006zm-2.865 1.248c0 1.825 0 7.39 6.04 7.39 1.811 0 2.995-.118 4.558-.612.178-.06.297-.255.297-.44v-1.51c.002-.165-.084-.32-.225-.404-.137-.107-.297-.078-.462-.048-1.35.28-2.428.375-4.175.375-2.51 0-3.002-1.606-3.167-3.33l-.018-.119H27.2c.267 0 .492-.238.492-.476v-.832c0-3.568-.415-7.432-5.519-7.432-6.04 0-6.04 5.53-6.04 7.372l.007.066zm16.59-1.314c.143-1.843.616-3.508 3.186-3.508 2.19 0 2.63 1.189 2.665 3.508v.06H32.72l.012-.12v.06zm-2.86 1.248c0 1.784 0 7.373 6.04 7.373 1.824 0 3.008-.118 4.577-.654.178-.06.296-.297.296-.475v-1.487c0-.178-.089-.357-.237-.416-.13-.119-.284-.06-.438-.06-1.362.298-2.427.357-4.174.357-2.546 0-3.02-1.605-3.198-3.33v-.118h8.172c.236 0 .473-.238.473-.476v-.832c0-3.568-.473-7.403-5.506-7.403-6.099 0-6.099 5.59-6.099 7.397l.095.124zm42.182-1.314c.119-1.783.592-3.508 3.138-3.508 2.191 0 2.606 1.231 2.665 3.568v.119h-5.862v-.101l.06-.078zm-2.842 1.25c0 1.842 0 7.432 6.04 7.432 1.776 0 2.96-.12 4.559-.63.177-.06.237-.239.237-.417v-1.546c0-.178-.119-.333-.237-.416-.178-.12-.296-.06-.474-.06-1.362.298-2.427.38-4.204.38-2.546 0-3.02-1.604-3.197-3.329v-.119h8.23c.237 0 .474-.238.474-.475v-.833c0-3.567-.415-7.373-5.507-7.373-6.04 0-6.027 5.542-6.027 7.373l.106.012zM7.105 11.724c2.842 0 3.849.869 3.849 3.33 0 1.635-.474 3.318-3.967 3.318H2.842v-6.6l4.204.012.06-.06zm-.219-8.74c3.02 0 3.434 1.427 3.434 2.973 0 1.962-1.054 2.913-3.197 2.913H2.961V2.985h3.978-.053zM.592.238c-.296 0-.51.238-.51.517v19.92c0 .296.238.534.516.534h6.454c4.618 0 7.164-2.2 7.164-6.124 0-2.14-1.006-3.984-2.723-4.876 0 0 0-.06-.06-.06l.119-.059c1.303-1.01 2.072-2.497 2.072-4.102 0-2.177-.829-5.768-6.631-5.768l-6.4.018zm88.224 6.48c-.03 0-.048.025-.048.037l-.9 2.14-.905-2.14c0-.012-.018-.03-.036-.03h-.533l-.06.06v3.27c0 .06 0 .06.06.06h.533v-2.26l.829 1.902.06.06h.414l.829-1.903v2.319l.059.06h.456s.059 0 .059-.06v-3.27h-.06l-.757-.244z"/>
</svg>
