<svg xmlns="http://www.w3.org/2000/svg" width="70" height="25" viewBox="0 0 70 25">
    <path fill="#FFF" d="M7.966 24.879c-2.052-.08-3.742-.645-5.07-1.694-.24-.201-.844-.806-1.045-1.048-.523-.685-.885-1.33-1.127-2.056-.764-2.258-.362-5.202 1.086-8.428C3.057 8.871 4.99 6.13 8.368 2.34 8.85 1.774 10.339.12 10.339.12s-.08.12-.16.323c-.886 1.491-1.65 3.225-2.053 4.717-.643 2.42-.563 4.476.242 6.089.563 1.089 1.529 2.056 2.615 2.58 1.89.928 4.666 1.009 8.006.243.24-.04 11.747-3.105 25.586-6.815C58.414 3.548 69.718.565 69.718.565S37.575 14.355 20.88 21.492c-2.655 1.129-3.339 1.411-4.586 1.855-3.178 1.088-6.034 1.613-8.327 1.532z"/>
</svg>
