<svg xmlns="http://www.w3.org/2000/svg" width="70" height="53" viewBox="0 0 70 53">
    <g fill="#FFF">
        <path d="M21.714 20.484v9.55c0 .334-.19.477-.428.572 0 0-12.096 6.399-15.476 8.26-.381.192-.62.192-1 0l-4-1.861c-.381-.191-.524-.335-.239-.717 1.524-2.292 3.048-4.631 4.572-6.923.095-.191.238-.334.476-.43l15.952-8.499c-.047 0 0 .048.143.048zM21.762 9.024l15.762 8.404c.333.19.619.382.81.716l4.428 6.78c.238.43.19.573-.238.764l-4 1.862c-.334.144-.572.144-.857 0l-15.429-8.26c-.333-.19-.571-.286-.571-.764l.047-9.167c0-.096 0-.144.048-.335zM20.143 19.672c-2.81 1.48-5.62 2.913-8.333 4.44-.715.383-1.239.383-1.905 0L5.81 21.965c-.286-.143-.572-.334-.762-.62 0 0-2.953-4.537-4.429-6.733-.238-.382-.286-.573.19-.764 1.381-.573 2.715-1.242 4.048-1.91.238-.096.476-.143.714 0L20 19.624c.048-.047.048 0 .143.048zM23.048 8.213L37.476.525c.334-.19.62-.19 1-.048 1.286.621 2.572 1.242 3.857 1.815.477.19.572.334.238.812-1.476 2.196-2.952 4.44-4.38 6.684-.191.239-.334.478-.62.573-1.619.86-3.19 1.671-4.81 2.579-.237.095-.428.238-.713.047l-9-4.774zM28.619 46.172c1.857 1.146 2.429 2.435 1.857 4.154-.476 1.337-1.524 1.91-2.762 2.197-1.857.382-3.762.143-5.619.19-.333 0-.428-.19-.428-.477V40.824c0-.477.19-.525.619-.525 1.476 0 2.952-.048 4.428.048 1.429.048 2.762.43 3.381 1.958.429 1.289 0 2.53-1.476 3.867zm17.762 2.483c-.762 0-1.571.048-2.381 0-.381 0-.476.143-.476.525.047.907.571 1.576 1.428 1.815 1.048.286 2.096.047 3.143-.191.286-.048.762-.335.715.238 0 .478.761 1.05-.239 1.385-1.571.525-3.142.62-4.761.191-1.762-.525-2.286-1.958-2.524-3.581-.096-.955-.048-1.862.19-2.817.476-2.006 2.048-3.104 4.19-3.056 2 .095 3.286 1.337 3.572 3.486.238 2.005.238 2.005-1.762 2.005h-1.095zm-20.905-1.432c-.286 0-.524.047-.762 0-.714-.144-.904.19-.857.859.048.764 0 1.528 0 2.292 0 .334.048.573.476.525.857-.095 1.715.048 2.572-.143.952-.239 1.38-.764 1.428-1.72 0-.954-.38-1.431-1.333-1.718-.524-.143-1.048-.048-1.524-.095zm-1.571-3.582c0 1.672 0 1.672 1.762 1.672.238-.048.523 0 .762-.048.857-.096 1.38-.62 1.428-1.433.048-1.002-.333-1.527-1.238-1.718-.38-.096-.762-.048-1.143-.048-1.571 0-1.571 0-1.571 1.575zm21.38 3.438h1.572c.19 0 .381 0 .333-.334-.047-.812-.571-1.528-1.333-1.719-.857-.239-1.619.048-2 .764-.619 1.098-.476 1.29.714 1.29h.715zM60.238 52.618c1.048-1.385 1.952-2.722 2.952-4.01.477-.622.381-.956-.047-1.481-.953-1.194-1.81-2.435-2.81-3.82h2.19c.334 0 .477.239.667.478.572.811 1.143 1.623 1.762 2.53.477-.764 1.048-1.432 1.429-2.196.333-.62.81-.907 1.571-.812.429.048.905 0 1.429 0-.286.716-.762 1.194-1.19 1.72-.572.763-1.143 1.575-1.715 2.339-.286.334-.286.573 0 .907 1.048 1.385 2.095 2.817 3.238 4.345h-2.238c-.333 0-.476-.239-.666-.477-.477-.717-1-1.385-1.429-2.101-.333-.526-.524-.382-.762.047-.238.43-.619.764-.857 1.242-.762 1.623-2.048 1.48-3.524 1.289zM53.286 47.843v1.767c0 1.241.38 1.576 1.714 1.432.381-.047.905-.43 1 .478.048.668.19 1.194-.762 1.194-.428 0-.905.143-1.333.143-1.857 0-2.81-.907-2.81-2.817-.047-1.433-.047-2.817 0-4.25 0-.525-.047-.86-.666-.764-.762.143-.62-.477-.62-.86 0-.381-.19-1.002.572-.859.571.048.762-.143.714-.716-.047-.43-.238-1.098.19-1.337.525-.239 1.191-.19 1.81-.19.334 0 .19.333.19.572.048 1.623.048 1.623 1.715 1.671.286 0 .905-.334.762.43-.048.525.333 1.337-.857 1.337-1.667-.048-1.667 0-1.667 1.623l.048 1.146zM38.524 49.61c0 1.337.333 1.671 1.619 1.432.476-.047.857-.143.905.526.047.525.19 1.193-.715 1.193-.38 0-.762.096-1.143.144-1.761.047-3-.812-2.952-2.865v-8.786c0-.764.19-1.05.952-.955.191.048.429 0 .62-.048.571-.143.761.048.714.621v8.738zM34.333 51.997c0 .526-.095.764-.666.717-2-.048-1.572.19-1.62-1.576C32 48.846 32 44.214 32 44.214c0-.764.143-.907.952-.907h.429c.714 0 .905.096.905.907 0 0 0 6.494.047 7.783zM59.476 47.986c0 1.337-.047 2.674 0 3.964.048.62-.19.764-.762.716-1.428 0-1.428 0-1.428-1.433v-7.162c0-.573.047-.86.762-.812 1.428.048 1.428 0 1.428 1.433v3.294zM58.333 42.448c-.714-.048-1.238-.669-1.19-1.385.047-.716.619-1.194 1.333-1.098.714.048 1.19.62 1.143 1.337 0 .573-.667 1.146-1.286 1.146zM33.19 39.917c.667 0 1.286.525 1.286 1.194.048.668-.619 1.337-1.286 1.337-.619 0-1.19-.621-1.19-1.29 0-.716.476-1.24 1.19-1.24z"/>
    </g>
</svg>
