<svg xmlns="http://www.w3.org/2000/svg" width="100" height="25" viewBox="0 0 100 25">
    <path fill="#FFF" d="M97.74 25H2.192c-.89 0-1.576-.676-1.576-1.554v-2.77c0-.879.685-1.554 1.576-1.554H97.74c.89 0 1.575.675 1.575 1.554v2.77c0 .878-.685 1.554-1.575 1.554zm-6.302-13.784c.96-2.838 1.918-5.54 2.877-8.108.89-2.567.343-2.094 3.014-2.162h.89c.89-.068 1.165.27 1.165 1.149 0 4.121-.069 8.31 0 12.432 0 1.149-.48 1.216-1.37 1.216-.96 0-1.37-.27-1.37-1.284.068-2.973 0-6.013-.137-9.121-.48 1.351-1.096 2.77-1.575 4.121-.685 1.757-1.302 3.582-1.918 5.338-.343.879-.89.879-1.644.879-.754 0-1.233-.068-1.507-.879-.89-2.838-1.986-5.608-2.945-8.378-.069-.338-.274-.54-.548-.81v8.445c0 1.554-.822 2.095-2.397 1.622-.48-.135-.48-.473-.48-.879V1.757c0-.676.274-.879.89-.879h.138c3.356-.135 3.356-.135 4.452 2.973.753 2.298 1.575 4.527 2.328 6.892-.205.068-.137.203.137.473zM15.411 8.243c0-2.094.068-4.324 0-6.419 0-.878.48-.878 1.301-.878.89 0 1.507 0 1.507.878-.068 1.487 0 2.906 0 4.46 0 .675.274.946.89.946h.138c1.37-.068 3.15.54 4.11-.338.821-.81.136-2.5.273-3.784v-.676c0-1.486.822-2.027 2.329-1.554.41.136.41.406.41.811v13.176c0 1.149-.821.81-1.506.81s-1.301.068-1.301-.878v-4.46c0-.81-.274-1.08-1.096-1.08-1.165.067-2.192.067-3.356 0-.754 0-.96.27-.89.946 0 1.351-.07 2.702 0 4.054.068 1.148-.343 1.351-1.37 1.351-.96 0-1.37-.338-1.302-1.284-.069-2.027-.137-4.054-.137-6.08zM6.986.946c1.439 0 1.576.338 1.918 1.284 1.301 4.054 2.808 8.04 4.11 12.094.137.406.685.879 0 1.284-.548.338-2.192 0-2.466-.473-.069-.135-.137-.338-.137-.473-.89-2.838-.343-2.297-3.288-2.365h-.48c-2.533 0-2.054-.405-2.876 2.027-.41 1.217-1.575 1.757-2.74 1.284-.753-.338-.274-.81-.068-1.149.822-2.567 1.78-5.202 2.74-7.77.48-1.554 1.096-2.973 1.575-4.527.137-.878.48-1.216 1.712-1.216zm55.617 7.297V1.96c0-.81.274-1.148 1.096-1.08 1.233.067 2.397 0 3.63 0 2.466.067 4.246 2.094 4.383 4.526 0 2.433-1.917 4.527-4.383 4.73h-.89c-.891-.067-1.165.338-1.097 1.149.069 1.148-.068 2.297 0 3.378.069 1.081-.547.946-1.3.946-.686 0-1.508.27-1.508-.946.069-2.094.069-4.257.069-6.419zm10.959-.067V2.027c0-.81.137-1.216 1.096-1.149 1.986.068 3.972.068 5.821 0 .89 0 1.096.338 1.096 1.149 0 .743-.068 1.284-1.096 1.216-.958-.067-1.917 0-2.876 0-.274 0-.411-.067-.685 0-1.165 0-.685 2.973-.685 2.973 0 .54 0 1.081.822.946s1.644 0 2.466 0c.89-.067.958.406.958 1.149s-.137 1.08-.958 1.08c-.822-.067-1.576-.067-2.398 0-1.986.271-.753 1.69-.959 2.568-.137.676-.274 1.555.96 1.352 1.095-.068 2.123 0 3.218 0 .89-.068.96.473.96 1.148 0 .676 0 1.217-.891 1.217h-6.027c-.822 0-1.096-.338-1.096-1.149.274-2.095.274-4.19.274-6.351zM45.616 15.81c-3.287-.068-5.821-1.284-7.054-4.325-1.233-2.905-1.096-5.81 1.164-8.31C41.918.743 44.795.27 47.946.878c1.232.338.684 1.352.547 2.027-.068.811-.753.27-1.164.136-2.124-.541-4.384.135-5.685 1.891-1.302 1.757-1.37 4.19-.137 6.014 1.233 1.892 3.356 2.703 5.616 2.162.411-.067 1.165-.946 1.507.27.343 1.352.069 1.892-1.164 2.095-.754.27-1.37.338-1.85.338zm8.425-6.42V4.19c0-.743-.274-1.08-.959-.946-.48 0-.959-.067-1.507 0-1.164.135-1.37-.405-1.37-1.351.069-.743.343-.878.96-.878h8.493c.821 0 .958.405.89 1.08 0 .541.137 1.284-.89 1.217h-.411c-2.535 0-2.535 0-2.535 2.5 0 2.905-.068 5.946 0 8.851 0 1.149-.548 1.149-1.37 1.149-.89 0-1.37-.068-1.37-1.216.206-1.825.07-3.514.07-5.203zm-25.137-1.08V2.027c0-.81 0-1.149 1.096-1.149h6.233c.822 0 1.096.338 1.096 1.081 0 .744 0 1.284-1.096 1.217-1.096-.068-2.055.067-3.15 0-1.234-.135-1.576.405-1.508 1.554.069 3.175 0 6.419.069 9.594 0 1.081-.137 1.487-1.37 1.487-1.096 0-1.507-.338-1.37-1.352.069-2.162 0-4.121 0-6.148zm-15 13.378s.069 0 .206-.067c.274.54.41 1.148.685 1.689.068.203.137.54.547.473.343 0 .411-.203.48-.473.274-.54.342-1.216.822-1.757v1.69c0 .337 0 .675.41.675.48 0 .549-.27.549-.676v-2.432c0-.473.137-.879-.548-.879-.48 0-.822.136-.96.676-.273.608-.479 1.149-.753 1.96-.342-.811-.547-1.42-.821-2.163-.274-.54-.685-.405-1.096-.405-.48-.068-.48.338-.48.676v2.702c0 .27.069.54.48.54.41 0 .48-.202.48-.54V21.69zm27.74.27c0 .406 0 .811-.137 1.284-.069.676.137.879.822.811.548 0 1.164 0 1.644-.068.616-.135.959-.54.959-1.216 0-.675-.274-1.08-.96-1.216-.41-.135-1.37.27-1.3-.405.136-.676 1.027-.203 1.506-.338.206 0 .548 0 .548-.338.137-.405-.205-.405-.548-.473-2.26-.338-2.534-.068-2.534 1.96zm13.904 0c0 2.095 0 2.095 2.055 2.027h.48c.342-.067.684 0 .684-.405.069-.54-.342-.405-.685-.473-.548-.203-1.438.406-1.507-.338-.068-.878.822-.338 1.302-.473.205-.067.48-.067.48-.405 0-.27-.275-.27-.412-.338-.48-.135-1.37.405-1.37-.405 0-.744 1.028-.203 1.507-.338.343-.068.685 0 .685-.406 0-.405-.41-.405-.685-.405-2.397-.338-2.534-.135-2.534 1.96zm-27.466 0c0 2.027 0 2.095 1.713 2.095.479 0 1.37.405 1.37-.473 0-.676-.823-.203-1.302-.338-.342-.067-.822.27-.822-.405 0-.473.411-.338.754-.406.41-.067 1.095.338 1.095-.405-.137-.608-.753-.27-1.095-.338h-.274c-.206-.067-.48-.067-.48-.405s.206-.406.48-.406h1.164c.205 0 .548 0 .548-.337.137-.406-.206-.473-.548-.473-.548 0-1.096.067-1.644 0-.685 0-1.027.135-.959.946v.945zm44.932.27c0-.405-.137-.675.137-.945.137-.946-.274-1.352-1.233-1.216h-.48C70.411 20 70 20.27 70.068 21.35c0 .744.343 1.622-.753 2.027-.137.068-.137.406-.068.54.137.204.41.136.548.136.753-.135 1.095-.608 1.164-1.284V21.42c0-.27.068-.54.48-.54.342 0 .684 0 .684.472 0 .27-.068.473 0 .744.137.608-.48 1.756.48 1.756.89 0 .137-1.148.41-1.621zm10.41-.27v.811c-.205 1.149.275 1.42 1.37 1.284h.685c.685-.068 1.37-.27 1.37-1.216s-.548-1.352-1.37-1.352c-.684-.067-1.164 0-1.095-.878.068-.27-.069-.54-.48-.54-.41 0-.48.202-.48.54v1.351zM7.193 4.257h-.137c-.548 1.621-1.028 3.175-1.507 4.797-.069.27-.206.743.274.743.89.068 1.712 0 2.603 0 .41 0 .342-.405.274-.675L7.192 4.257zm58.15 1.216c0 .473 0 1.081.137 1.486 0 .406.069.676.48.744.959.338 2.466-.27 2.945-1.217.48-.878.206-1.756-.342-2.5-.754-.878-1.85-1.013-2.74-.743-.959.338-.343 1.284-.48 1.96v.27z"/>
</svg>
