<svg xmlns="http://www.w3.org/2000/svg" width="70" height="17" viewBox="0 0 70 17">
    <path fill="#FFF" d="M65.013 5.201c-.024 0-.033.023-.033.037v.335c0 .019.019.032.032.032h.631v2.16c0 .018.019.027.033.027h.368c.046 0 .046-.018.046-.032V5.6h.645c.046 0 .046-.045.046-.045V5.14l-1.769.06zm-26.14-3.276c0 .69.553 1.24 1.29 1.24.69 0 1.243-.55 1.243-1.24s-.553-1.24-1.243-1.24c-.691 0-1.244.55-1.244 1.24h-.046zm6.586 4.043l-.093.046-.184-.46c-.046-.183-.184-.275-.322-.275h-.783c-.184 0-.368.184-.368.368v10.246c0 .183.184.367.391.367h1.428c.22 0 .396-.184.396-.367v-8.27l.046-.047c.598-.321 1.197-.505 2.348-.505 1.419 0 1.704.505 1.704 1.378v7.444c0 .23.17.367.369.367h1.427c.217 0 .369-.184.369-.386V8.523c0-2.251-1.336-3.446-3.869-3.446-.934 0-1.888.322-2.809.873l-.05.018zm-4.187-.294c0-.211-.184-.367-.382-.367h-1.414c-.23 0-.368.156-.368.367V15.93c0 .184.184.368.368.368h1.382c.23 0 .378-.175.378-.368l.036-10.255zM36.382.551c0-.197-.175-.367-.383-.367h-1.46c-.216 0-.377.184-.377.39v15.392c0 .184.175.368.377.368h1.391c.203 0 .378-.184.378-.368L36.382.551zm-21.6 9.373c.107-1.406.48-2.72 2.465-2.72 1.704 0 2.044.933 2.086 2.73v.078h-4.56l.01-.092v.004zm-2.228.965c0 1.41 0 5.711 4.697 5.711 1.41 0 2.33-.092 3.546-.473.139-.046.23-.198.23-.34V14.62c.002-.128-.064-.247-.174-.312-.106-.083-.23-.06-.36-.037-1.05.216-1.888.29-3.246.29-1.953 0-2.335-1.241-2.464-2.574l-.014-.092h6.388c.207 0 .382-.183.382-.367v-.643c0-2.757-.323-5.744-4.292-5.744-4.698 0-4.698 4.273-4.698 5.698l.005.05zm12.904-1.015c.11-1.425.479-2.711 2.478-2.711 1.703 0 2.044.919 2.072 2.71v.047h-4.56l.01-.092v.046zm-2.224.965c0 1.378 0 5.697 4.697 5.697 1.418 0 2.34-.092 3.56-.505.138-.046.23-.23.23-.368v-1.149c0-.138-.069-.275-.184-.321-.101-.092-.221-.046-.34-.046-1.06.23-1.89.275-3.248.275-1.98 0-2.348-1.24-2.487-2.573v-.091h6.356c.184 0 .368-.184.368-.368v-.643c0-2.757-.368-5.72-4.283-5.72-4.743 0-4.743 4.318-4.743 5.715l.074.097zM56.04 9.823c.093-1.378.461-2.71 2.441-2.71 1.704 0 2.027.95 2.073 2.756v.092h-4.56v-.078l.046-.06zm-2.21.965c0 1.424 0 5.743 4.697 5.743 1.382 0 2.303-.092 3.546-.487.139-.046.185-.183.185-.321v-1.195c0-.138-.093-.257-.185-.322-.138-.091-.23-.045-.368-.045-1.06.23-1.888.294-3.27.294-1.98 0-2.349-1.24-2.487-2.573v-.092h6.402c.184 0 .368-.184.368-.368v-.643c0-2.757-.322-5.697-4.283-5.697-4.697 0-4.688 4.282-4.688 5.697l.083.01zM5.526 9.061c2.21 0 2.994.67 2.994 2.573 0 1.263-.369 2.563-3.086 2.563H2.211v-5.1l3.27.01.045-.046zm-.17-6.755c2.349 0 2.671 1.103 2.671 2.298 0 1.516-.82 2.251-2.487 2.251H2.303V2.306h3.094-.041zM.46.184c-.23 0-.397.184-.397.4v15.391c0 .23.185.414.401.414h5.02c3.592 0 5.572-1.7 5.572-4.733 0-1.654-.783-3.078-2.118-3.767 0 0 0-.046-.046-.046l.092-.046c1.013-.781 1.612-1.93 1.612-3.17 0-1.682-.645-4.457-5.158-4.457L.46.184zm68.618 5.008c-.023 0-.037.018-.037.027l-.7 1.655-.704-1.655c0-.009-.014-.023-.028-.023h-.415l-.046.046V7.77c0 .046 0 .046.046.046h.415V6.07l.645 1.47.046.047h.322l.645-1.47v1.791l.046.046h.354s.046 0 .046-.046V5.38h-.046l-.59-.188z"/>
</svg>
