<svg xmlns="http://www.w3.org/2000/svg" width="80" height="32" viewBox="0 0 80 32">
    <g fill="none">
        <path fill="#F06722" d="M32.27 7.797c2.561-2.569 5.123-5.093 7.64-7.662.27-.27.36-.045.494.09l7.326 7.347c.135.135.27.225.36.315.18.045.27.18.36.27l7.28 7.302c.135.135.27.226.315.406 0 .27-.18.405-.36.54-2.516 2.525-5.033 5.003-7.505 7.527-2.517 2.48-4.989 5.003-7.506 7.527-.135.135-.27.316-.494.406h-.135c-.135-.09-.27-.18-.36-.27l-7.236-7.257c-.09-.09-.18-.18-.224-.27L24.36 16.18c-.09-.09-.18-.18-.18-.315.09-.226.314-.36.45-.496l7.1-7.121c.135-.225.315-.36.54-.45z"/>
        <path fill="#C89265" d="M24.18 15.82c.09.135.18.225.314.36l7.371 7.392c.135.135.27.225.405.36-.27.226-.495.451-.72.676l-6.786 6.806c-.135.135-.27.316-.494.406h-.09c-.18-.09-.315-.226-.45-.36-1.393-1.308-2.696-2.66-4-4.012-.854-.856-1.708-1.668-2.561-2.479-.225-.225-.405-.406-.585-.676-.27-.316-.314-.316-.584-.045-.809.766-1.528 1.622-2.292 2.389-.764.766-1.573 1.487-2.337 2.253-.45.496-.9 1.037-1.393 1.487-.54.496-1.034.992-1.574 1.398h-.09c-1.438-1.443-2.876-2.93-4.359-4.372-1.079-1.082-2.202-2.209-3.326-3.29-.225-.226-.27-.316 0-.586C5.753 18.434 10.831 13.34 15.91 8.203c.09-.09.225-.18.315-.27.224-.09.314.09.45.225.763.72 1.482 1.487 2.246 2.208l4.99 5.003c.089.18.224.27.269.45z"/>
        <path fill="#82665E" d="M64.045 23.797c-.989.992-1.933 1.983-2.921 2.93l-5.08 5.093h-.089c-.135-.09-.27-.18-.404-.316l-7.236-7.256c-.09-.09-.225-.18-.27-.36.09-.136.18-.226.315-.361l7.28-7.302c.135-.135.27-.225.315-.405.135-.045.225.09.315.18l7.64 7.662c.09.045.09.09.135.135z"/>
        <path fill="#82665F" d="M79.91 7.977c-1.258 1.262-2.517 2.524-3.82 3.741-1.303 1.307-2.652 2.614-3.955 3.967-.09.09-.18.135-.27.225-.18-.135-.314-.316-.494-.45-2.472-2.48-4.9-4.959-7.371-7.392-.045-.045-.135-.09-.135-.226.225 0 .27-.135.405-.27 2.472-2.434 4.899-4.913 7.37-7.392.225-.225.315-.225.585 0l7.685 7.707v.09z"/>
        <path fill="#75534B" d="M63.91 7.842c.135.135.27.226.405.36l7.28 7.302c.135.135.27.226.27.406l-2.427 2.434c-1.708 1.712-3.416 3.38-5.078 5.093-.09.09-.225.225-.36.315-.18 0-.27-.18-.36-.27l-7.37-7.392c-.09-.09-.225-.18-.315-.27l-6.652-6.67c-.404-.406-.809-.857-1.258-1.263l6.292-6.31c.494-.495.989-.946 1.438-1.442.135-.135.225-.18.36 0 2.607 2.524 5.168 5.138 7.775 7.707z"/>
        <path fill="#D5A47E" d="M24.18 15.82c-.135-.09-.225-.18-.36-.316l-7.236-7.256c-.135-.135-.18-.27-.404-.27 1.977-1.984 3.91-3.967 5.887-5.95.63-.63 1.304-1.262 1.888-1.893.18-.18.315-.18.494 0 1.304 1.307 2.562 2.614 3.91 3.921 1.17 1.127 2.293 2.344 3.461 3.516.135.09.225.27.405.225-2.562 2.524-5.079 5.093-7.64 7.617-.09.135-.225.27-.405.406z"/>
        <path fill="#FEFEFE" d="M45.573 20.462c-.27 0-.54-.09-.809-.18-.45-.226-.854-.406-1.303-.631-.18-.09-.315-.045-.45.09-.36.36-.36.36 0 .721.45.45.854.901 1.304 1.307.36.316.134.496-.09.721-.18.18-.36.406-.674.09-1.349-1.397-2.742-2.749-4.135-4.146-.18-.18-.18-.27 0-.45.45-.452.899-.902 1.393-1.353.584-.54 1.303-.631 1.978-.27.764.405 1.258 1.262 1.123 1.983-.09.36.045.45.315.586.314.135.584.27.899.405.314.135.584.18.854-.045.27-.225.449.09.584.225.18.136.225.316 0 .496s-.54.451-.989.451zm-9.169-9.87c.63 0 1.034.135 1.349.405.809.721 1.573 1.442 2.292 2.299.494.586.584 1.307.18 1.983-.405.721-.989 1.172-1.843 1.172-.54 0-.944-.226-1.303-.586-.675-.631-1.304-1.262-1.933-1.938-.54-.586-.719-1.307-.36-2.028.315-.812.944-1.262 1.618-1.307zm12.9 6.039c-.046.766-.495 1.397-1.214 1.758-.674.36-1.303.27-1.933-.18-.135-.09-.224-.18-.314-.271-.99-.992-1.933-1.983-2.967-2.93-.314-.315-.134-.495.09-.676.18-.18.36-.405.72-.09.943.992 1.932 1.938 2.876 2.885.404.405.764.496 1.168.27.585-.315.674-.991.18-1.487l-2.876-2.885c-.135-.135-.36-.18-.225-.45.135-.27.36-.496.63-.586.09-.045.134.09.224.135l3.011 3.02c.36.405.584.901.63 1.487z"/>
        <path fill="#FEFDFD" d="M40.584 9.735c-.36-.766-.629-1.442-.809-2.118-.09-.45-.045-.902.27-1.262.18-.18.36-.27.54-.045.179.18.494.36.224.676-.18.225-.135.45-.045.676.225.856.63 1.668.944 2.479.045.09.135.18.225.27.449.451.898.947 1.393 1.397.314.27.18.496-.045.722-.18.18-.405.45-.674.09-.09-.09-.18-.18-.225-.27-.854-1.082-1.978-1.758-3.28-2.164-.45-.135-.9-.406-1.44-.045-.224.135-.404-.135-.583-.36-.135-.181-.09-.316.045-.451.314-.316.674-.406 1.078-.361.63.09 1.169.316 1.753.54.135 0 .315.091.63.226z"/>
        <path fill="#FEFEFE" d="M31.191 16.586c-.225-.09-.45-.27-.54-.496-.134-.225.09-.315.18-.405.765-.767 1.529-1.533 2.248-2.3.27-.27.45-.134.629.046.18.18.36.406.045.676-.27.225-.674.496-.674.766-.045.316.45.541.674.812l2.831 2.839c.315.315.135.496-.09.676-.18.18-.36.406-.674.09-1.078-1.127-2.247-2.253-3.326-3.38-.224-.225-.314-.225-.539 0-.18.225-.36.405-.584.586-.045.045-.09.09-.18.09z"/>
        <path fill="#FEFDFC" d="M42.337 24.248c0 .225-.584.811-.809.811-.225 0-.854-.63-.854-.856 0-.226.584-.811.81-.811.224 0 .853.63.853.856z"/>
        <path fill="#D5A47E" d="M16.315 11.944c.045.045.134.09.18.18 1.168 1.172 2.336 2.389 3.55 3.56.18.18.135.226 0 .406-1.169 1.172-2.382 2.344-3.55 3.56-.18.181-.27.181-.45 0-1.258-1.126-2.382-2.388-3.55-3.56-.18-.18-.135-.225 0-.405.808-.812 1.617-1.668 2.426-2.524.36-.361.764-.722 1.169-1.082.045-.045.09-.135.225-.135zM8.27 26.907c-1.708 0-3.057-1.352-3.057-3.11 0-1.758 1.394-3.065 3.057-3.065 1.752 0 3.056 1.353 3.056 3.11.045 1.668-1.304 3.11-3.056 3.065zm18.472-3.425v2.433c0 .226-.045.316-.315.316h-4.764c-.27 0-.36-.09-.36-.36v-4.733c0-.315.135-.36.405-.36h4.719c.27 0 .36.09.36.36-.045.721-.045 1.532-.045 2.344z"/>
        <path fill="#75534B" d="M59.236 23.887c.045 1.623-1.393 3.11-3.146 3.02-1.663-.045-3.011-1.397-3.011-3.11 0-1.667 1.393-3.065 3.056-3.065 1.753 0 3.19 1.533 3.101 3.155zM71.91 11.854c-.135 0-.18-.09-.27-.18-1.168-1.173-2.337-2.39-3.55-3.561-.18-.18-.135-.27 0-.406 1.213-1.172 2.382-2.389 3.55-3.56.18-.18.27-.136.45 0l3.506 3.515c.224.225.224.36 0 .586-1.169 1.127-2.293 2.298-3.461 3.47 0 .045-.09.136-.225.136z"/>
        <path fill="#82665F" d="M59.056 7.887c.09 1.668-1.393 3.11-3.056 3.065-1.753 0-3.056-1.352-3.056-3.065-.045-1.667 1.393-3.11 3.146-3.11 1.618.09 3.056 1.443 2.966 3.11z"/>
        <path fill="#82665E" d="M60.944 15.82c-.135-1.443 1.393-3.11 3.146-3.02 1.663.09 3.011 1.352 2.966 3.065 0 1.712-1.168 3.065-3.1 3.065-1.709 0-3.147-1.488-3.012-3.11z"/>
        <path fill="#C89265" d="M27.236 7.932c.09 1.623-1.348 3.11-3.056 3.065-1.753-.045-3.056-1.307-3.101-3.11-.045-1.757 1.573-3.11 3.146-3.064 1.618.045 3.1 1.397 3.011 3.11z"/>
        <path fill="#F06823" d="M42.966 18.073c-.045.406-.27.631-.494.902-.45.405-.45.405-.854 0l-.225-.226c-.18-.225-.629-.45-.54-.676.18-.36.54-.72.99-.901.45-.135 1.123.45 1.123.901z"/>
        <path fill="#F06822" d="M36.494 11.673c.315 0 .54.135.764.316l1.843 1.848c.36.36.405.81.09 1.171-.36.406-.809.496-1.213.136-.765-.631-1.439-1.352-2.068-2.074-.225-.27-.27-.585-.09-.901.09-.27.36-.45.674-.496z"/>
    </g>
</svg>
