<svg xmlns="http://www.w3.org/2000/svg" width="70" height="71" viewBox="0 0 70 71">
    <g fill="none">
        <path fill="#EF6325" d="M37.976.11c1.433.495 2.977.495 4.465.826C55.78 4.238 64.488 12.384 68.843 25.373c.11.33.165.66.22 1.046-1.764 0-3.528-.055-5.236 0-.662 0-.717-.44-.827-.826-1.157-3.357-2.921-6.384-5.181-9.136-.386-.496-.662-.606-1.213-.166-5.456 4.404-11.63 6.935-18.63 7.54-.826.056-1.322.276-1.102 1.212.22 1.21-.33 1.54-1.433 1.376-.165-.055-.386 0-.551 0-1.709 0-1.764 0-1.764-1.707 0-.77-.33-.825-.937-.88-6.945-.55-13.56-3.192-18.906-7.65-.55-.44-.771-.22-1.102.22-2.26 2.696-3.968 5.724-5.126 9.08-.22.716-.551.937-1.323.937-1.598-.055-3.141 0-4.85 0 .882-3.468 2.26-6.605 4.134-9.522C11.134 7.375 19.843 1.927 31.03.385c.276-.055.607-.11.772-.11.22-.055.882-.165.882-.165 1.488.165.717.165 2.205 0h3.086zM3.913 44.471c.882 0 1.874-.275 2.59.055.717.33.717 1.541 1.048 2.312 1.158 2.697 2.646 5.174 4.465 7.43.386.496.661.66 1.323.165 5.456-4.403 11.74-6.88 18.74-7.485.882-.055.992-.385.992-1.1-.055-1.432 0-1.432 1.488-1.432h.22c1.875 0 1.93 0 2.04 1.872.055.715.44.605.882.66 4.795.44 9.315 1.706 13.559 4.018 1.819.99 3.583 2.091 5.126 3.412.716.66 1.047.496 1.598-.22 2.15-2.697 3.859-5.614 4.96-8.916.221-.66.497-.936 1.213-.88 1.268.054 2.591.11 3.859 0 1.047-.056.992.33.771 1.1-1.598 5.229-4.189 9.907-7.937 13.87-7.22 7.65-16.204 11.448-26.732 11.283-15.212-.22-28.716-10.623-33.016-25.153-.22-.77-.275-1.21.772-1.1.717.164 1.378.11 2.04.11z"/>
        <path fill="#231F20" d="M42.165 35.445c0-1.926.055-3.798 0-5.724 0-.716.22-.99.937-.88.276.054.607.054.882 0 .607-.056.992.054.882.825-.11.605.165.715.717.715 3.748.11 4.299.716 4.299 4.459v4.072c-.055 1.927-1.213 3.083-3.087 3.138-1.267 0-2.48-.055-3.748 0-.661.055-.882-.166-.882-.881.055-1.871 0-3.798 0-5.724zm15.874 1.761c0 1.266-.055 2.587 0 3.853 0 .66-.11.99-.882.936-1.212-.055-2.425 0-3.637 0-1.82-.055-2.977-1.156-3.032-2.973v-1.87c.055-1.872 1.213-2.973 3.087-3.028h1.102c.386 0 .717 0 .717-.55-.055-.496-.331-.55-.717-.55H51.37c-.606 0-.827-.11-.827-.771 0-1.927-.055-1.927 1.874-1.927h2.426c2.039 0 3.196 1.156 3.251 3.248-.055 1.21-.055 2.421-.055 3.632zM19.953 36.16c0-.935-.055-1.926 0-2.862.11-1.816 1.267-2.917 3.031-2.917h1.654c1.488.055 2.645 1.101 2.81 2.587.056.385.056.716.056 1.101 0 3.302-.717 4.073-4.024 4.183-.386 0-.826-.11-.826.55 0 .606.385.606.826.606 1.048 0 2.15.055 3.197 0 .717-.055.827.22.827.88 0 1.817 0 1.817-1.819 1.817H23.15c-2.04-.055-3.197-1.156-3.252-3.248 0-.935.055-1.816.055-2.697zm12.897 5.89c-3.968.275-5.015-1.046-4.795-4.734.055-1.266 0-2.476 0-3.742.055-1.982 1.213-3.138 3.142-3.193h1.433c.33 0 .661.055.992.166 1.764.605 2.315 2.146 1.93 5.173-.166 1.431-1.269 2.422-2.867 2.532-.276 0-.606-.055-.882 0-.386.055-1.047-.33-1.047.495 0 .88.661.606 1.157.606.937.055 1.93.055 2.867 0 .66-.055.881.11.881.825 0 1.817 0 1.817-1.874 1.817-.33.055-.606.055-.937.055zm-30.425-.055c-.275 0-.496-.055-.771 0C.606 42.16.33 41.775.33 40.729c0-1.156.33-1.541 1.433-1.376.496.055 1.047 0 1.543 0 .606 0 1.102-.11 1.158-.826.055-.715-.331-.936-.993-1.046-2.15-.33-3.196-1.65-3.086-3.797.055-1.817 1.378-3.193 3.197-3.303.606-.055 1.157 0 1.763 0 1.874 0 2.15.33 1.82 2.202-.056.44-.276.44-.607.44H4.244c-.606 0-1.102 0-1.213.77-.11.771.331.991 1.048 1.102 2.04.33 3.086 1.65 3.086 3.632-.055 1.982-1.378 3.357-3.362 3.468-.496.055-.937 0-1.378 0z"/>
        <path fill="#242021" d="M7.717 34.344c0-1.54.055-3.082 0-4.623 0-.77.275-.88.937-.88h.992c.55 0 .826.11.771.715-.11.715.276.88.882.825h.11c1.71 0 2.15.606 1.764 2.257-.165.495-.496.385-.827.385-1.984.11-1.984.11-1.984 2.092 0 1.156.055 2.256 0 3.412 0 .66.22.936.882.88h.22c1.544 0 2.04.716 1.599 2.312-.055.165-.11.386-.33.386-1.213-.055-2.536.275-3.639-.44-.881-.551-1.433-1.542-1.377-2.587v-4.734z"/>
        <path fill="#231F20" d="M36.213 34.4v-4.734c0-.606.11-.88.771-.826.386.055.717.055 1.103 0 .606-.055.882.165.771.77-.11.551.11.826.717.771h.22c1.82 0 2.095.44 1.764 2.257-.11.55-.44.385-.716.385-1.985.11-1.985.11-1.985 2.092 0 1.1.055 2.201 0 3.302-.055.826.276 1.046.992.99.552-.054 1.378-.274 1.544.11.275.606.11 1.432.11 2.147 0 .22-.11.33-.33.33-1.158-.054-2.37.22-3.473-.385-.992-.499-1.597-1.534-1.544-2.642.056-1.486.056-3.027.056-4.568z"/>
        <path fill="#252122" d="M58.646 34.344v-4.623c0-.66.11-.88.826-.88 1.82 0 1.82-.056 1.82 1.76 0 2.587.054 5.12 0 7.706 0 .88.275 1.156 1.102 1.1.44-.054 1.212-.33 1.378.22.22.661.055 1.432.055 2.202 0 .166-.166.276-.33.22-1.158-.054-2.371.22-3.473-.385-.937-.55-1.489-1.54-1.433-2.642.055-1.596.055-3.137.055-4.678zm5.732 0c0-1.54.055-3.082 0-4.623 0-.66.165-.88.882-.88 1.819 0 1.819-.056 1.819 1.76 0 2.587.055 5.12 0 7.706 0 .88.275 1.156 1.157 1.1.496-.054 1.213-.33 1.378.22.22.661.055 1.432.055 2.202 0 .166-.165.22-.33.22-1.158-.054-2.37.22-3.473-.385-1.047-.605-1.488-1.596-1.488-2.752v-4.568z"/>
        <path fill="#242021" d="M13.724 37.426v-3.412c.056-2.257 1.433-3.633 3.693-3.633h.22c1.765 0 2.15.496 1.765 2.257-.11.495-.441.385-.772.385-2.26.11-2.26.11-2.26 2.312 0 1.926-.055 3.798 0 5.724 0 .77-.165 1.1-.992.99-.276-.054-.606-.054-.882 0-.716.11-.882-.22-.882-.88.11-1.266.11-2.477.11-3.743z"/>
        <path fill="#FEFEFE" d="M36.874 13.044c0-2.091.055-4.183 0-6.274 0-.826.276-.99.992-.88 5.953.66 11.3 2.806 15.984 6.604.552.44.827.715.056 1.266-4.691 3.648-10.338 5.865-16.26 6.384-.607.055-.772-.11-.772-.715v-6.385zm-3.748-.055v6.385c0 .605-.11.825-.772.77-5.897-.55-11.52-2.752-16.204-6.384-.607-.44-.717-.716-.056-1.266 4.575-3.743 10.142-6.054 16.04-6.66.827-.11.992.165.992.936-.055 2.091 0 4.128 0 6.22zm0 44.967v6.274c0 .606-.165.826-.827.77-6.118-.605-11.575-2.861-16.37-6.769-.496-.44-.496-.66.055-1.046 4.796-3.742 10.252-5.834 16.315-6.44.717-.054.827.166.827.826-.055 2.092 0 4.238 0 6.385zm3.748-.055v-6.385c0-.55.055-.88.772-.77 5.952.605 11.354 2.697 16.094 6.33.717.55.662.88 0 1.43-4.542 3.677-10.058 5.953-15.874 6.55-.772.11-.992-.11-.992-.88V57.9z"/>
        <path fill="#F9F9F9" d="M24.031 35.61h-.66c-.442 0-.773-.33-.773-.77v-1.046c0-.44.331-.77.772-.77h.661c.441 0 .772.33.772.77v1.046c0 .44-.33.77-.772.77zm8.158 0h-.661c-.441 0-.772-.33-.772-.77v-1.046c0-.44.33-.77.772-.77h.661c.44 0 .772.33.772.77v1.046c0 .44-.331.77-.772.77zm22.433 3.798h-.661c-.441 0-.772-.33-.772-.77V37.59c0-.44.33-.77.772-.77h.661c.441 0 .772.33.772.77v1.046c0 .385-.331.77-.772.77zm-8.323 0h-.661c-.441 0-.772-.33-.772-.77v-4.844c0-.44.33-.77.772-.77h.661c.441 0 .772.33.772.77v4.843c.055.385-.33.77-.772.77z"/>
    </g>
</svg>
