<svg xmlns="http://www.w3.org/2000/svg" width="100" height="28" viewBox="0 0 100 28">
    <g fill="none">
        <path fill="#FFF" d="M59.833 21.96c-2.333 2.691-5.222 4.338-8.722 4.997-.555.11-1.111.055-1.667.274h-.5c-.333-.055-.666-.055-1 0h-.5c-.333-.22-.777-.164-1.166-.22-3.611-.713-6.39-2.635-8.778-5.27-.167-.22-.333-.439-.556-.659.223-.055.334.11.445.165 2.667 1.592 5.444 2.8 8.5 3.404 2.444.44 4.889.165 7.278-.44 2.222-.548 4.333-1.427 6.389-2.36.166-.055.277-.055.277.11zM99.056.275c.277-.165.61-.055.888-.055v.384h-.11c-.223-.22-.556-.11-.778-.33z"/>
        <path fill="#FFF" d="M48 27.286c.333-.164.667-.164 1 0h-1zM3.389 15.043H.444c-.388 0-.444-.11-.388-.44l.833-7.246.667-5.71c.055-.714.055-.769.777-.714h4.834c.61 0 1.222.11 1.833.275 1.833.549 2.556 1.757 2.167 3.623-.223 1.044-.723 1.867-1.611 2.416-.612.384-.612.384 0 .824.944.658 1.555 1.537 1.5 2.69-.112 1.537-.834 2.8-2.223 3.568-1 .55-2.055.714-3.166.714-.778.055-1.5.055-2.278 0zM99.056.275c.166 0 .333.054.5 0 .277-.055.277.11.277.329-.444 4.612-.944 9.278-1.389 13.89-.055.494-.222.659-.722.604-.61-.055-1.222 0-1.833 0-.278 0-.333-.055-.278-.33.056-.439.056-.823.111-1.317-.222.055-.278.22-.389.33-.777.823-1.666 1.317-2.777 1.482-1.5.164-2.612-.385-3.112-1.812-1-2.635-.666-5.16 1.056-7.357 1.389-1.812 3.667-2.25 5.833-1.153.445.22.445.11.5-.274.111-1.318.278-2.636.39-4.008 0-.22.11-.33.333-.33.388 0 .944-.054 1.5-.054zM19.61 13.286c-.555.55-.944.989-1.5 1.318-.778.494-1.555.769-2.5.659-1.444-.165-2.444-1.263-2.722-2.91-.389-2.196.111-4.173 1.333-5.984C15.333 4.776 17 4.392 18.833 4.392c1.445 0 2.834.494 4.223.824.222.055.222.22.222.33l-.5 4.336c-.167 1.538-.39 3.13-.556 4.667-.055.33-.11.494-.5.494-.61-.055-1.278 0-1.889 0-.277 0-.444 0-.389-.384.112-.384.112-.824.167-1.373zm51.5-8.894c.389 0 .945 0 1.445.165 1.722.44 2.833 1.757 2.888 3.568 0 1.044-.11 2.142-.333 3.13-.611 2.36-2.722 4.008-5.167 4.063-.777 0-1.555 0-2.333-.275-1.555-.549-2.444-1.592-2.611-3.184-.167-1.263-.056-2.526.389-3.734.722-2.36 2.833-3.733 5.722-3.733zm12 0c.445 0 .945 0 1.445.165 1.888.494 3 1.976 2.888 4.008-.055.768-.11 1.482-.277 2.25-.445 2.636-2.667 4.503-5.39 4.503-.721 0-1.444 0-2.166-.275-1.555-.549-2.5-1.647-2.667-3.24-.11-1.207 0-2.36.334-3.513.722-2.415 2.889-3.898 5.833-3.898zM29.167 6.204c.61-.604 1.222-1.098 1.944-1.428 2.389-1.098 4.278 0 4.445 2.58.055 1.154-.056 2.362-.167 3.515-.167 1.317-.333 2.58-.445 3.898-.055.329-.166.384-.444.384-.667-.055-1.278-.055-1.944-.055-.334 0-.39-.11-.39-.44.167-1.536.39-3.019.556-4.556l.167-1.757c0-.274 0-.549-.167-.823-.444-1.044-1.333-1.208-2.166-.44-1.112 1.043-1.612 2.361-1.778 3.789-.167 1.262-.278 2.525-.39 3.788-.055.384-.166.549-.555.494-.666-.055-1.277-.055-1.944-.055-.278 0-.333-.055-.333-.33.333-2.854.61-5.71.944-8.564.056-.384.111-.824.111-1.208 0-.274.056-.384.389-.384.722 0 1.444 0 2.167-.055.277 0 .333.055.277.33-.222.438-.222.878-.277 1.317zM44.444 13.341c-.555.604-1.11 1.098-1.777 1.483-1.223.658-2.39.713-3.611-.055-.89-.604-1.278-1.483-1.39-2.416-.277-2.141.223-4.118 1.5-5.93.834-1.207 2.112-1.701 3.556-1.811 1.778-.165 3.445.164 5.111.713.278.055.334.165.278.495-.389 2.58-.722 5.215-.833 7.85-.056.77-.167 1.538-.445 2.252-.777 2.25-2.277 3.733-5.11 3.678-1.279 0-2.5-.22-3.723-.494-.278-.055-.389-.165-.278-.44.167-.493.167-1.152.5-1.427.334-.33.89.11 1.39.165.777.11 1.555.11 2.332.055.945-.055 1.612-.494 2.056-1.318.389-.878.556-1.921.444-2.8zm14.89.055c-.39.33-.778.714-1.167.988-.834.604-1.667.989-2.723.879-1.666-.22-2.722-1.428-2.944-3.294-.167-1.922.278-3.679 1.333-5.326.834-1.318 2.056-1.976 3.611-2.141 1.834-.165 3.612.165 5.39.714.277.11.277.274.222.494-.223 1.592-.445 3.184-.612 4.776-.166 1.318-.11 2.69-.333 4.008-.222 1.537-.778 2.91-2 3.953-1 .878-2.222 1.043-3.444 1.043-1.223 0-2.445-.22-3.667-.494-.333-.055-.333-.165-.278-.44.167-.493.167-1.152.445-1.427.333-.329.944.11 1.444.165.778.11 1.611.11 2.389.055.778-.055 1.389-.44 1.778-1.098.5-.878.61-1.812.555-2.855zM89.5 21.522c.389-.33.778-.604 1.167-.824 1.055-.494 1.889-.274 2.5.769.166.274.222.164.333 0 .556-.494 1.167-.934 1.889-.989 1.167-.11 1.778.385 1.889 1.593.055 1.262-.111 2.525-.222 3.788-.112.878-.112.823-1.056.878-.5 0-.611-.11-.556-.604.112-1.098.167-2.14.223-3.239v-.22c0-.384-.056-.768-.445-.933-.389-.165-.666.055-.944.22-.778.549-1 1.317-1.056 2.196-.11.714-.166 1.482-.222 2.196 0 .274-.111.384-.389.384h-.222c-1 0-.945.055-.889-.988l.167-2.8c0-.494 0-1.098-.556-1.263-.555-.164-.944.33-1.278.714-.444.604-.555 1.263-.666 1.976-.056.66-.167 1.318-.223 1.977 0 .274-.11.384-.444.384-1.167 0-1.167 0-1.056-1.153.112-1.482.278-3.02.39-4.502.055-.439.11-.658.61-.549h.223c.777.11.777.11.833.989zm-7.5 5.38c-1.889 0-2.833-1.043-2.667-2.91.056-1.098.334-2.086 1.278-2.8 1-.768 2.167-.933 3.389-.604.944.275 1.5.988 1.556 1.977 0 .604-.056 1.153-.167 1.702C85 25.914 83.722 26.902 82 26.902zm-6.556.055c-2.333.165-3.666-1.482-3.11-3.788.5-2.032 2.277-3.02 4.555-2.58.111 0 .222.054.333.054.778.165.945.494.667 1.208-.111.22-.222.11-.333.055-.5-.165-1-.165-1.556-.165-1.056.055-1.833.769-2 1.812v.165c-.111 1.427.5 2.031 1.944 1.976.39 0 .723-.11 1.112-.165.222-.054.333 0 .388.275.056.769.056.823-.722.933-.444.11-.889.165-1.278.22zM65.389 25.53c.389 0 .611.219.611.603 0 .385-.278.604-.667.604s-.61-.274-.555-.604c0-.439.222-.604.61-.604zM59.833 21.96c-.055-.054-.11-.109-.222-.109.111-.055.222-.11.333-.22.056.22 0 .275-.11.33z"/>
        <path fill="#222" d="M5.389 9.059h1.167c1.166 0 1.888.988 1.555 2.086-.444 1.263-.944 1.647-2.278 1.647h-2.11c-.334 0-.445-.055-.39-.384.111-.988.223-2.032.278-3.02 0-.274.111-.384.389-.384.5.055.944.055 1.389.055zm.444-5.82h1.223c.722.055 1.277.604 1.222 1.318-.111 1.318-.667 2.086-2.056 2.086H4.278c-.278 0-.334-.055-.334-.33.112-.933.167-1.866.278-2.8 0-.274.111-.384.39-.329.388 0 .777 0 1.221.055 0-.055 0 0 0 0zm34.611 7.412c0-.878.223-1.757.667-2.526.778-1.592 2.389-1.811 3.778-1.372.222.055.222.22.222.384-.055 1.428-.222 2.8-.833 4.118-.334.769-.834 1.427-1.667 1.702-.889.274-1.611-.055-1.944-.933-.167-.33-.223-.879-.223-1.373zm19.5-2.965c-.055 1.153-.277 2.306-.722 3.404-.333.824-.833 1.537-1.722 1.867-.944.33-1.611-.055-2-.933-.222-.604-.222-1.263-.167-1.922.056-.659.278-1.263.556-1.867.778-1.647 2.333-1.921 3.833-1.482.167.055.278.165.222.384v.55zm31.89 2.91c0-.659.11-1.372.333-2.086.666-2.141 2.444-2.251 4-1.702.166.055.166.165.166.274 0 1.538-.166 3.02-.889 4.393-.388.713-.944 1.262-1.722 1.537-.722.22-1.222 0-1.61-.66-.223-.383-.334-.932-.279-1.756zm-71.667-2.91c-.111 1.153-.278 2.47-.834 3.679-.333.659-.777 1.262-1.5 1.537-1.055.384-1.833-.055-2.11-1.153-.167-.878-.056-1.702.11-2.525l.167-.55c.611-2.03 2.278-2.415 3.944-1.866.278.11.278.11.223.878zm47.61 3.185c.056-.989.056-1.867.445-2.636.5-1.043 1.167-1.811 2.445-1.757 1 .055 1.666.55 1.777 1.538.167 1.153 0 2.306-.444 3.404-.5 1.207-1.333 1.756-2.556 1.756-1 0-1.555-.494-1.666-1.427v-.878zm12.056-.165c.056-.824 0-1.702.39-2.526.5-1.043 1.166-1.811 2.5-1.756 1 .054 1.666.549 1.777 1.482.167 1.208.056 2.47-.5 3.569-.444 1.043-1.222 1.647-2.444 1.592-1.056-.055-1.612-.494-1.723-1.538-.055-.164 0-.494 0-.823zM81 24.156c0-.658.056-1.262.444-1.81.278-.385.667-.715 1.223-.66.666 0 1.055.33 1.166.989.056.658 0 1.262-.222 1.866-.278.714-.833 1.098-1.5 1.098s-1-.33-1.055-.988c-.056-.11-.056-.33-.056-.494z"/>
    </g>
</svg>
