<svg xmlns="http://www.w3.org/2000/svg" width="70" height="54" viewBox="0 0 70 54">
    <g fill="#FFF">
        <path d="M69.71 31.163h-2.03c-.248 0-.372-.082-.497-.288-.497-.948-1.035-1.855-1.698-2.72-.248-.29-.828-.495-1.201-.33-.207.082-.124.247-.124.37v2.639c0 .288-.042.412-.373.412-.414-.041-.87-.041-1.284 0-.331.041-.456-.083-.456-.454v-8.326c0-.206 0-.371.29-.413 1.45-.206 2.941-.33 4.39.042 1.699.412 2.445 1.401 2.403 3.091-.041.99-.538 1.69-1.408 2.185-.124.082-.373.082-.166.371.829 1.072 1.491 2.226 2.071 3.421 0 .042.042.042.083.042v-.042zM27.96 27.33v-4.988c0-.371.124-.495.455-.453.414.04.87.04 1.284 0 .249 0 .332.082.332.33v8.615c0 .288-.125.33-.373.37-.953.124-1.574-.123-2.071-1.071-.829-1.608-3.52-4.906-3.52-4.906v5.607c0 .33-.084.37-.415.37-.456-.04-.911 0-1.326 0-.248 0-.372-.04-.33-.33v-8.656c0-.247.082-.33.33-.33h1.202c.248 0 .372.165.538.33 1.284 1.402 3.686 4.823 3.894 5.112zm21.372-1.154c1.202.453 1.574 1.319 1.491 2.432-.04 1.113-.62 1.855-1.656 2.308-.415.165-.87.289-1.326.33-1.325.123-2.65.082-3.976-.124-.29-.041-.373-.124-.373-.412v-8.286c0-.206.042-.37.29-.412 1.491-.165 2.982-.33 4.432 0 1.45.33 2.195 1.196 2.154 2.515-.042.7-.456 1.195-1.036 1.649zm-32.887 4.987H14.33c-.248 0-.331-.165-.414-.33-.538-.948-1.077-1.896-1.74-2.761-.165-.248-.91-.412-1.16-.289-.165.083-.082.248-.082.371v2.638c0 .33-.083.413-.414.413-.456-.042-.912 0-1.326 0-.248 0-.373-.042-.373-.33v-8.533c0-.247.083-.33.332-.33 1.45-.206 2.858-.33 4.308 0 1.905.412 2.775 1.773 2.402 3.545-.166.783-.621 1.32-1.326 1.69-.29.165-.29.248-.124.495.58.742 1.036 1.525 1.491 2.308.125.33.332.701.539 1.113zm44.402 0H58.9c-.248 0-.29-.082-.372-.288-.125-.454-.332-.907-.456-1.36-.083-.248-.207-.371-.497-.371h-2.94c-.29 0-.415.082-.498.37-.124.454-.331.907-.456 1.36-.082.248-.165.33-.414.29h-1.532c-.29 0-.29-.083-.207-.33 1.035-2.927 2.153-5.854 3.479-8.657.124-.206.248-.33.497-.33.538.042 1.201-.165 1.615.083.373.247.497.907.704 1.36 1.119 2.432 2.03 4.947 2.941 7.461.042.165.042.247.083.412zM.124 22.424c0-.206-.041-.412.29-.453 1.45-.165 2.858-.289 4.308 0 1.988.412 2.9 1.855 2.444 3.834-.249.989-.912 1.566-1.823 1.896-.828.288-1.698.412-2.526.33-.497-.042-.622.164-.58.618.041.7 0 1.401 0 2.102 0 .289-.042.412-.373.412-.456-.04-.911-.04-1.408 0-.29 0-.332-.082-.332-.37v-8.369zm35.166-.535h3.438c.331 0 .455.082.414.412-.041.453.166 1.03-.083 1.278-.248.288-.828.04-1.284.082-.455.041-1.035-.206-1.325.083-.29.288-.083.865-.083 1.319v5.688c0 .33-.083.454-.414.412-.539-.04-1.284.248-1.616-.123-.248-.289-.083-.99-.083-1.525v-5.442c0-.33-.082-.453-.455-.453-.663.041-1.367 0-2.03 0-.248 0-.373-.083-.331-.33 0-.37.041-.742 0-1.072-.042-.33.124-.37.414-.37 1.118.04 2.278.04 3.438.04zM19.882 30.75c0 .371-.125.495-.456.454-.414-.042-.87 0-1.284 0-.249 0-.373-.042-.331-.33v-8.657c0-.247.082-.33.331-.33.456 0 .911.042 1.408 0 .332 0 .373.124.373.413-.041 1.401-.041 8.45-.041 8.45zM2.237 24.898v1.071c0 .165.041.289.29.289.538 0 1.077 0 1.574-.124.745-.206 1.035-.618.994-1.36 0-.618-.415-1.03-1.119-1.154-.414-.083-.87-.083-1.325-.083-.331 0-.456.165-.414.454v.907zm61.923-.083c0 1.484.041 1.525 1.574 1.237.124-.041.207-.041.331-.083.621-.164.911-.494.911-1.113 0-.66-.248-.989-.91-1.195-.332-.082-.664-.124-.995-.124-.911-.04-.911-.04-.911.866v.412zM45.52 28.36v.907c0 .124 0 .289.208.289.787 0 1.532.082 2.278-.206.497-.165.704-.577.704-1.072 0-.495-.248-.825-.746-.99-.372-.123-.745-.164-1.16-.164-1.283 0-1.283 0-1.283 1.236zm.912-2.803c.414 0 .828 0 1.243-.123.414-.124.662-.413.662-.866s-.207-.742-.621-.907c-.331-.124-.704-.165-1.036-.165-1.16 0-1.16 0-1.16 1.113v.041c0 .907 0 .907.912.907zm-35.539-.7c0 1.442 0 1.442 1.409 1.154.165 0 .331-.042.455-.083.622-.165.912-.536.912-1.154 0-.577-.29-.948-.912-1.113-.29-.082-.58-.124-.91-.124-.954-.04-.954-.04-.954.907v.412zm45.231-.866c-.455 1.195-.828 2.226-1.2 3.298-.084.206-.042.247.165.247h2.07c.208 0 .29-.041.208-.289-.414-1.03-.787-2.06-1.243-3.256zM33.633 3.834c-.166-.248-1.077-.371-1.45-.165-.33.123-.041.412-.124.577.042.494.042.907.083 1.319v.041c0 .206.124.247.29.247.166 0 .207-.082.207-.247.041-.206-.166-.495.083-.577.207-.082.331.247.497.371.083.041.124.124.207.206.166.124.373.247.497.083.166-.165 0-.33-.166-.454-.124-.082-.455-.165-.165-.453.29-.289.248-.619.041-.948z"/>
        <path d="M9.65 19.25c.415 0 .332-.37.415-.577C14.58 5.03 29.491-2.515 43.16 2.02c8.367 2.803 13.958 8.491 16.858 16.818.083.33.29.454.58.371.372-.082.082-.37.041-.494C56.953 8.409 49.704 2.267 38.852.37c-.083 0-.166-.041-.248-.041-1.409-.206-2.858-.248-4.308-.248-.332 0-.621 0-.953.042-.621.123-1.201.123-1.822.206-9.03 1.36-15.781 6.018-20.213 13.974-.829 1.443-1.45 2.968-1.947 4.575-.124.33 0 .371.29.371z"/>
        <path d="M59.52 19.168C56.912 10.305 47.924 1.402 35.25 1.278c-12.758-.124-22.036 8.739-24.728 17.89.414.165.621.041.745-.453 3.852-11.13 15.077-18.22 26.8-16.613 10.147 1.402 17.023 7.09 20.668 16.613.165.453.373.577.787.453zm5.592.536H34.917c-9.94 0-19.84 0-29.657-.041h-.414c-.207 0-.207.164-.207.288 0 .124-.041.289.166.289h60.307c.208.04.208-.124.208-.289 0-.124 0-.247-.208-.247z"/>
        <path d="M53.515 19.21c-.083-.207-.124-.372-.249-.537-3.438-7.049-9.07-11.17-16.94-11.707-7.87-.494-14.042 2.803-18.391 9.399-.497.783-.953 1.649-1.326 2.514-.082.248-.082.289.208.33.372.041.455-.206.58-.453 3.644-7.214 9.526-11.171 17.686-11.13 8.118 0 14 3.998 17.603 11.253.166.413.415.413.829.33z"/>
        <path d="M37.527 17.437H50.2c.249 0 .497.082.497-.33 0-.412-.248-.289-.455-.289h-6.296s-4.225 0-6.42-.04c-.207 0-.456-.042-.456.329 0 .37.207.33.456.33zm-4.97-.619H19.508c-.249-.04-.414-.04-.414.33.041.412.29.289.497.289h12.964c.207 0 .497.123.497-.289s-.248-.33-.497-.33zm22.532-1.236c.165-.083.373-.083.248-.371-.083-.248-.207-.165-.373-.124-.29.124-.58.206-.87.289.084-.413.705-.536.456-.99-.29-.577-.704.083-1.118-.082.207-.248.414-.495.621-.7.125-.166.207-.248.042-.413-.207-.165-.29-.041-.415.082-.372.412-.704.825-1.076 1.196-.125.123-.208.247-.083.453.124.206.29.165.455.124.249-.083.456-.124.704-.206 0 0 0 .04.042.082l-.497.618c-.124.124-.166.248-.042.413.125.165.249.206.415.123l1.49-.494zm-16.071-9.44c.248.041.29-.124.29-.289.041-.494.124-1.03.165-1.525 0-.123.125-.33-.124-.37-.207-.042-.414-.124-.538.164-.125.289-.332.577-.539.99-.165-.495-.248-.825-.331-1.114-.083-.247-.29-.164-.456-.206-.207-.04-.207.124-.207.248-.083.536-.124 1.113-.207 1.649 0 .206.041.288.249.288.207.041.248-.082.248-.247.041-.206.041-.454.083-.701.29.206.041.7.497.783.497.041.373-.536.704-.66 0 .248 0 .454-.041.66-.042.165-.042.289.207.33zm-21.622 5.153c-.124.165.083.247.166.33.373.37.704.741 1.077 1.112.166.124.249.207.414.042.207-.206.083-.289-.041-.413-.207-.206-.456-.37-.663-.577.042-.082.083-.123.083-.082.414.082.828.165 1.201.288.29.083.373-.082.497-.247.124-.165-.083-.206-.166-.288-.372-.371-.704-.742-1.076-1.113-.125-.124-.208-.289-.415-.083-.248.206-.041.289.083.412.166.206.373.371.539.577-.415 0-.787-.082-1.16-.206-.29-.082-.414.083-.539.248zm47.675 21.97H4.721c-.248-.04-.206.166-.206.33 0 .165.041.289.248.289h60.308c.249 0 .207-.206.207-.33 0-.123.042-.288-.207-.288zm-30.154 1.361c-.331 0-.29.206-.29.412v9.81c0 .248 0 .413.332.413.33 0 .29-.206.29-.412v-9.81c0-.248 0-.413-.332-.413zm-2.154 0c-.414 0-.331.247-.331.453v9.646c0 .289.083.412.373.412.373 0 .248-.247.248-.412V35.08c0-.206.125-.453-.29-.453zm4.35-.041c-.415 0-.29.247-.29.453v9.687c0 .33.207.454.497.33.207-.082.124-.247.124-.412v-9.605c0-.206.041-.453-.332-.453zm2.526 9.563v-9.192c.041-.248-.041-.33-.29-.33-.414 0-.331.247-.331.453v9.646c.497.083.621-.165.621-.577zm-9.154-9.522c-.373 0-.29.247-.29.453 0 3.01.042 6.06 0 9.07 0 .453.166.617.622.576.041-.082.041-.206 0-.33V35.08c0-.206.082-.453-.332-.453zm11.35 8.78v-8.244c0-.206.165-.536-.332-.536-.456.041-.29.33-.29.536v8.945c.456-.041.621-.206.621-.7zm-13.172.7v-9.068c0-.247.041-.453-.332-.453-.414.041-.29.288-.29.494 0 2.803.042 5.565 0 8.368 0 .454.166.619.622.66zm15.035-9.48c-.455 0-.331.289-.331.495v8.038c.455-.124.663-.289.621-.783v-7.297c0-.164.124-.453-.29-.453zm-17.23 8.492v-8.039c0-.206.082-.453-.332-.453-.373 0-.29.247-.29.453 0 2.432.042 4.865 0 7.297 0 .453.166.66.621.742zm-2.196-1.278v-6.76c0-.248.042-.454-.331-.454-.414 0-.332.247-.332.453 0 1.979.042 3.916 0 5.854 0 .494.208.7.663.907zm21.953-.948v-5.813c0-.206.083-.453-.332-.453-.372 0-.33.247-.33.453v6.72c.455-.165.662-.413.662-.907zm-24.48-6.307c-.372 0-.33.206-.33.453 0 1.278.04 2.515 0 3.793 0 .535.206.824.662 1.154 0-1.69 0-3.34-.041-4.988 0-.206.04-.412-.29-.412zm26.675 4.493v-4.163c0-.207-.041-.33-.331-.33-.29 0-.332.123-.332.37v4.947c.042.042.083.042.125.042.165-.289.538-.413.538-.866zm-12.467 9.027c-.207-.04-.249.083-.249.248v1.071c-.29-.453-.538-.783-.828-1.113-.125-.206-.332-.123-.497-.123-.207 0-.125.206-.125.33 0 .535.042 1.071.042 1.607.041.206.124.248.29.248.207 0 .248-.124.248-.289v-1.072c.332.454.58.783.787 1.154.125.207.332.207.497.165.207-.04.125-.247.125-.37 0-.537-.042-1.072-.042-1.608 0-.165-.041-.248-.248-.248zm-3.19-.123c-.165 0-.248.04-.331.206-.29.66-.58 1.278-.87 1.937.373.124.58.083.663-.33.041-.164.166-.206.373-.206.331-.04.538.042.58.413.04.288.248.288.414.247.248-.041.083-.206.041-.33-.166-.577-.331-1.113-.497-1.69-.083-.165-.166-.247-.373-.247zm-3.106 1.484c-.042.165-.042.288.207.33.207.04.248-.042.29-.207l.248-1.113c.042-.206.083-.37.373-.288.29.123.373-.083.456-.371-.497-.124-.994-.248-1.45-.33-.207-.041-.29-.082-.373.165-.083.247.083.247.249.288.248 0 .331.124.248.413l-.248 1.113zm20.296-12.202c.29.041.331-.288.455-.495v-1.813c0-.248-.083-.33-.331-.33-.249 0-.29.124-.29.33v1.772c.041.206-.166.495.166.536zm-30.071.041c.165-.04.124-.206.124-.288 0 0 0-1.732-.042-2.061 0-.206 0-.33-.29-.33-.207 0-.33.041-.33.33v1.607c0 .248.123.413.248.577.083.083.165.207.29.165zm5.633 11.048c.083 0 .124-.042.165-.083.249-.577.539-1.154.787-1.731.083-.206-.041-.247-.165-.289-.124-.082-.207-.04-.29.124l-.746 1.608c-.165.33.125.288.249.37zm-.746-1.526c.29-.082.414-.37.456-.66 0-.329-.953-1.112-1.326-1.03-.082 0-.124.083-.165.165-.249.495-.497 1.03-.787 1.567-.125.206-.042.247.124.33.166.082.249.082.331-.083.125-.165.083-.536.373-.495.207.042.124.413.207.619.042.082.042.206.083.288.042.206.166.371.373.33.248-.041.248-.247.124-.453-.166-.248-.207-.495.207-.578zm-.787-.783c0-.123.083-.247.207-.288.207.123.497.123.539.412 0 .124-.083.288-.249.206-.165-.082-.455-.082-.497-.33zm12.84 2.061c-.248.165-.04.619 0 .948 0 .083.042.165.042.248.124.99.124.99 1.077.865.621-.082.87-.37.87-.989.041-.7-.249-1.195-.787-1.237-.415-.04-.912-.082-1.202.165zm1.45.825c.042.082.042.165.042.165 0 .453-.249.7-.705.66-.165 0-.165-.124-.207-.248 0-.165-.041-.33-.041-.495 0-.247-.249-.536.248-.618.415-.041.622.124.663.536zm9.858-3.422c.207.083.456.165.704.207.207.04.415.04.456-.207 0-.164-.124-.247-.373-.247-.124 0-.538.041-.373-.37.042-.33-.082-.62-.331-.784-.29-.165-.538-.083-.787.082-.124.124-.248.206-.414.289-.414.206-.373.412-.124.7.248.248.414.619.662.866.166.165.166.66.58.371.373-.247-.124-.412-.166-.618 0-.082-.124-.124-.082-.206.041-.124.165-.124.248-.083zm-.58-.37c-.165.04-.29-.207-.248-.29.083-.205.29-.329.538-.37.124 0 .207.124.207.247-.083.248-.29.371-.497.412zm-4.142 1.813c.125-.041.29-.124.456-.165.29-.082.414-.288.248-.618-.455.165-.91.33-1.284.536-.165.082-.207.165-.124.33l.621 1.607c.083.165.166.248.332.165.373-.165.745-.33 1.118-.453.207-.042.249-.165.166-.33-.042-.206-.166-.124-.332-.083-.248.083-.455.165-.662.248-.166.041-.249 0-.29-.165-.083-.165-.042-.247.124-.289.166-.082.331-.165.497-.206.166-.041.207-.123.124-.288-.082-.165-.124-.248-.331-.165-.166.082-.331.123-.497.206-.166.041-.249.041-.29-.124-.041-.123.041-.165.124-.206zM23.32 45.014c0-.289-.912-1.196-1.202-1.196l-.165.165c-.332.495-.663.99-1.036 1.443-.124.206-.041.289.083.37.166.083.249.125.331-.04.249-.495.497-.371.829-.083.248.165.497.206.745.042.249-.207.415-.413.415-.701zm-.829.247c-.207-.082-.455-.165-.497-.412 0-.124.124-.371.29-.33.249.083.456.247.538.454-.082.164-.165.33-.33.288zm23.527 1.69c.248-.206.455-.206.704.041.207.206.373.042.497-.04.124-.083.041-.166-.041-.207-.498-.412-1.036-.824-1.574-1.237-.208-.164-.58.083-.539.33.124.7.249 1.443.373 2.144.373-.083.538-.248.373-.577-.042-.207.041-.33.207-.454z"/>
        <path d="M60.68 34.626c-.207-.041-.497-.124-.58.206-.04.124-.082.206-.124.33-3.645 9.81-10.603 15.953-21 17.56C28.787 54.29 20.42 50.662 14 42.622c-1.822-2.266-3.107-4.863-4.018-7.666-.124-.33-.29-.371-.58-.33-.29.082-.082.289-.041.412 3.562 10.058 10.603 16.2 21.166 18.302.87.165 1.74.248 2.61.371.786 0 1.532 0 2.36.042l.87-.042c.248 0 .455.042.704-.04 1.077-.042 2.112-.166 3.148-.413 10.23-2.308 17.065-8.368 20.503-18.22.041-.123.207-.33-.042-.412z"/>
        <path d="M10.645 34.585c-.29.123 0 .412.041.577 3.728 10.965 14.456 18.178 26.136 17.23 9.734-.783 16.817-5.688 21.332-14.303.58-1.113 1.035-2.268 1.408-3.463-.455-.124-.663 0-.787.412-4.266 12.16-16.982 19.168-29.532 16.118-8.823-2.144-14.787-7.667-17.935-16.16-.125-.37-.332-.576-.663-.411z"/>
        <path d="M16.568 34.626c.083.165.124.289.124.37 3.48 7.75 11.598 12.532 20.09 11.667 7.62-.784 13.088-4.782 16.443-11.625.083-.123.373-.33.041-.453-.207-.083-.538-.083-.621.288 0 .042-.041.124-.083.206-3.23 6.39-8.408 10.182-15.574 10.965-8.284.907-15.988-3.545-19.55-11.047-.207-.412-.456-.495-.87-.371zm23.444 13.19c-.083-.164-.166-.288-.373-.164-.207.124-.207.247-.083.412.29.454.539.948.829 1.402.082.165.165.288.414.206.248-.083.248-.248.248-.412v-.784c.249.206.456.454.58.701.124.165.249.165.414.124.166-.041.208-.165.208-.33v-1.69c0-.165-.042-.289-.29-.289-.29 0-.249.165-.249.33v.948c-.414-.165-.331-.824-.87-.7-.662.123-.124.741-.414 1.071-.166-.288-.331-.536-.414-.824zm-13.379 1.031c.207.042.29-.04.331-.206.125-.33.249-.618.373-1.03.125.536.249.948.29 1.36.042.247.207.289.414.33.249.041.208-.165.249-.289.166-.453.29-.948.456-1.401.041-.165.207-.33-.125-.454-.29-.082-.248.124-.331.289-.124.247-.124.536-.331.824-.083-.453-.208-.824-.29-1.236-.083-.248-.249-.289-.456-.33-.249-.041-.207.165-.249.288l-.497 1.484c-.082.206-.041.289.166.371zM14.911 17.85c-.207.082-.165.247-.124.37.041.207.207.125.331.083.373-.123.704-.618.704-1.03 0-.495-.538-.783-.952-.536-.124.082-.249.247-.373.33-.124.123-.248.412-.414.247-.207-.165 0-.371.166-.536.04-.041.082-.041.124-.082.165-.124.041-.248 0-.371-.083-.165-.207-.042-.29 0-.332.206-.539.536-.539.948-.041.247.083.412.29.494.249.124.456.124.663-.04.124-.083.249-.207.373-.33.124-.124.207-.413.414-.207.166.165-.041.371-.166.536-.041.041-.124.083-.207.124zm11.1-10.553c-.29.165-.455.041-.579-.206-.166-.33-.331-.66-.456-.99-.083-.164-.165-.205-.331-.123-.124.041-.207.124-.124.289.207.412.372.865.621 1.236.207.33.58.413.953.248.372-.165.662-.371.662-.866-.082-.495-.414-.948-.62-1.443-.042-.123-.167-.082-.29-.041-.125.041-.208.124-.125.289.207.33.331.7.497 1.03.124.247.041.454-.207.577zm-9.94 5.524c-.166.206-.041.33.041.495.29.412.539.865.829 1.277.083.124.083.413.331.289.207-.124.29-.33.083-.536-.207-.165-.124-.33.041-.536.166-.206.29-.33.539-.206.331.165.456-.041.58-.33-.663-.206-1.326-.37-1.988-.577-.166-.082-.332-.041-.456.124zm14.497-8.368c.207-.041.373-.083.58-.124.248-.041.207-.206.207-.37 0-.166-.124-.083-.207-.083-.373.041-.746.123-1.16.206-.166.041-.207.124-.166.288.125.578.249 1.113.332 1.69.041.207.166.207.331.165.207-.04.207-.164.166-.288 0-.083 0-.165-.042-.206-.124-.289-.041-.495.332-.495 0 0 .041-.041.083-.041.124-.083.455.082.372-.289-.082-.33-.29-.206-.455-.165-.124 0-.207 0-.332.042-.124.04-.165 0-.207-.124-.041-.165.042-.206.166-.206zm17.935 3.751c-.456.124-.953.742-.953 1.237 0 .453.373.907.912.989.124.041.29.124.33-.124 0-.165 0-.288-.248-.33-.248-.04-.497-.206-.455-.535.041-.33.248-.619.58-.742.29-.083.538.082.62.33.084.247.29.206.415.123.207-.124.042-.288-.041-.412-.249-.412-.746-.618-1.16-.536zM42.414 4.7c-.414-.165-.828-.288-1.242-.412-.125-.082-.249-.124-.332.082-.083.207 0 .289.207.33.332.041.29.248.207.495-.124.33-.207.7-.33 1.03-.084.165 0 .248.165.33.207.083.29 0 .331-.165.083-.37.249-.7.331-1.071.083-.207.166-.33.415-.207.248.124.372-.04.455-.247.042-.165-.124-.124-.207-.165zM16.651 15.911c.083-.164.041-.247-.124-.33-.29-.205-.58-.412-.912-.576-.207-.124-.331-.248-.124-.495.207-.247-.041-.371-.166-.495-.041.041-.082.041-.124.124-.29.412-.538.866-.828 1.278-.083.123.041.165.124.247.124.083.249.124.29-.041.207-.495.456-.289.746-.083.248.165.497.289.745.454.166.082.249.124.373-.083zM28.373 4.988c.248-.041.165-.289.124-.412-.041-.165-.207-.042-.29 0-.373.123-.787.288-1.16.412-.124.041-.29.082-.207.288.083.206.207.248.373.124.29-.165.373 0 .456.247.124.371.248.701.372 1.072.042.206.166.165.29.124.083-.041.207-.083.166-.248-.124-.33-.248-.7-.331-.989-.125-.288-.249-.536.207-.618zm9.692 6.472c.166-.165.373-.371.042-.578h.04c-.206-.164-.455.042-.62-.123.082-.248.248-.289.497-.289h1.242c.125 0 .249 0 .249-.123 0-.124 0-.248-.042-.371-.041-.083-.207-.083-.29-.083-.952-.041-1.946-.082-2.568.866-.538.536-1.035 1.072-1.574 1.607-.165.124-.207.207-.041.371.166.165.249.165.414 0 .414-.412.87-.824 1.284-1.277.124-.165.249-.207.332-.165-.042.04-.083.123-.125.206-.538.577-1.118 1.113-1.656 1.69-.125.165-.332.33-.332.577v.041c-.041-.206-.166-.412-.331-.577-.497-.495-.911-1.072-1.533-1.608h2.196c.372 0 .704-.164.91-.453.166-.247.166-.371-.165-.371h-2.858c-.456 0-.87-.082-1.325.041-.166.248-.042.454.124.619.373.33.663.742 1.077 1.071 1.035.825 1.491 1.814 1.284 3.092v.206c.166.907-.042 1.69-.953 2.185-.041 0-.083.041-.124.082-.207.248-.124.536.207.536 1.077.041 2.112 0 3.19 0 .165 0 .29-.082.33-.247.042-.124-.082-.248-.165-.33-.248-.206-.497-.453-.787-.66-.248-.164-.331-.37-.331-.7.041-.825.041-1.608 0-2.432 0-.33.124-.536.331-.742.704-.66 1.408-1.36 2.071-2.061zm-2.32 6.595H34.38c.828-.453.455-1.278.538-1.937.166-.619.042-1.278.083-1.897 0-.206-.083-.412.083-.577 0 .907.041 1.814 0 2.72-.042.66.041 1.238.663 1.691zm-14.33-7.461c.372-.289.538-.577.372-1.03-.166-.495-.704-.949-1.201-.949-.456.041-.87.412-1.16.783-.166.248.621.907.704 1.031.58.742.58.742 1.284.165zm-.788-1.484c.249 0 .704.495.663.783 0 .289-.29.412-.497.536-.083.041-.787-.824-.787-.907.041-.124.456-.412.621-.412zm34.627 9.234c.663-.165 1.077-.536 1.077-1.072-.082-.371-.248-.825-.497-1.072-.207-.206-.538.165-.828.247-.124 0-.207.083-.331.124-.912.412-.912.412-.456 1.32.248.411.58.576 1.035.453zm-.497-1.32c.207-.123.415-.206.622-.288.041 0 .083 0 .124-.041.166 0 .373.494.29.7-.083.248-.704.495-.953.413-.248-.083-.331-.33-.373-.536-.041-.206.166-.206.29-.248zm-4.39-7.584c-.249-.083-.414.33-.621.536-.29.247-.539.535-.787.824-.125.124-.125.206 0 .33.124.082.248.165.372 0 .042-.083.125-.124.207-.206.083-.083.125-.248.29-.165.125.041.083.165.083.247v.289c0 .082 0 .206-.083.37 0 .166.042.413.29.413.249-.041.249-.247.207-.454-.041-.247 0-.412.373-.412.456 0 .746-.536.58-.907-.207-.37-.538-.7-.911-.865zm.331 1.236c-.248 0-.414-.206-.497-.412-.041-.124.124-.288.207-.247.249.041.373.288.497.412 0 .165-.083.247-.207.247zM23.485 6.72c-.621 0-1.118.454-1.118 1.03 0 .619.538 1.237 1.118 1.237.58 0 1.119-.494 1.119-1.071 0-.619-.539-1.196-1.119-1.196zm.042 1.773c-.29.04-.705-.454-.663-.784.041-.37.29-.494.621-.535.249-.042.622.453.622.865-.042.289-.29.454-.58.454zm22.656-1.526c.083.042.208.083.29.165.29.206.497.206.663-.165-.207-.123-.373-.247-.621-.33-.87-.453-.87-.453-1.326.372-.662 1.071-.662 1.071.497 1.69.042.04.083.04.125.082.165.083.248.083.331-.082.083-.165.083-.248-.083-.33-.207-.083-.373-.206-.538-.289-.125-.123-.332-.164-.166-.412.166-.247.29-.041.414 0 .249.041.456.495.663.124.29-.454-.29-.33-.414-.536-.083-.082-.332-.041-.207-.289.124-.247.248-.04.372 0zm-9.609-2.308c0-.7-.456-1.113-1.118-1.113-.622 0-1.036.453-1.036 1.113 0 .7.414 1.113 1.077 1.154.663 0 1.077-.453 1.077-1.154zm-1.657-.041c0-.371.166-.66.58-.66.414.041.58.289.58.66 0 .37-.124.7-.58.7-.456 0-.58-.288-.58-.7zm8.574.453c-.29-.165-.29.083-.373.248-.165.412-.372.865-.538 1.277-.042.165-.29.33.041.495.373.206.332-.124.415-.288.124-.248.165-.495.58-.289.33.165.372.289.206.577-.082.124-.372.371 0 .536.373.165.332-.206.415-.371.207-.371.372-.783.538-1.195.083-.124.207-.289-.083-.413-.29-.123-.29.083-.372.248-.083.123-.042.33-.208.37-.414 0-.662-.33-.538-.741.041-.165.207-.33-.083-.454zm8.408 8.492c.58 0 1.202-.577 1.202-1.154.041-.577-.497-1.113-1.077-1.113s-1.202.618-1.202 1.195c0 .536.539 1.072 1.077 1.072zm.125-1.896c.414 0 .745.37.745.742 0 .412-.414.783-.828.783-.373 0-.746-.371-.746-.742s.414-.783.829-.783z"/>
    </g>
</svg>
