<svg xmlns="http://www.w3.org/2000/svg" width="70" height="39" viewBox="0 0 70 39">
    <g fill-rule="evenodd">
        <path fill-rule="nonzero" d="M.253.43h1.548v3.078c0 .55 0 1.225.28 1.62.28.432.78.572 1.06.572 1.304 0 1.304-1.54 1.304-2.075V.43h1.547v3.498c0 .502 0 1.585-.593 2.296-.534.654-1.385.9-1.943.9-.98 0-1.515-.538-1.77-.783v.561H.253V.43" transform="matrix(1 0 0 -1 .21 38.826)"/>
        <path d="M13.032 2.972c.045.209.093.478.093.781 0 1.63-1.293 3.406-3.342 3.406-1.991 0-3.4-1.681-3.4-3.51 0-1.889 1.491-3.43 3.412-3.43 1.514 0 2.748 1.084 3.12 2.25h-1.63c-.291-.536-.803-.826-1.49-.826-1.106 0-1.712.909-1.782 1.33h5.02v-.001zM7.967 4.22c.29 1.2 1.258 1.515 1.828 1.515.769 0 1.571-.477 1.746-1.515H7.967z" transform="matrix(1 0 0 -1 .21 38.826)"/>
        <path fill-rule="nonzero" d="M15.112 0.43L16.065 0.43 17.288 4.627 17.311 4.627 18.523 0.43 19.477 0.43 21.84 6.902 20.188 6.902 18.999 2.949 18.976 2.949 17.927 6.902 16.695 6.902 15.635 2.949 15.612 2.949 14.436 6.902 12.783 6.902 15.112 0.43z" transform="matrix(1 0 0 -1 .21 38.826)"/>
        <path d="M24.837.43h1.42v.781c.382-.432.932-.991 2.178-.991 2.362 0 3.212 2.18 3.212 3.476 0 1.712-1.28 3.428-3.247 3.428-.723 0-1.48-.27-2.016-.807V9.06h-1.547V.43zm1.454 3.322c0 .945.734 1.948 1.921 1.948.979 0 1.887-.757 1.887-2.018 0-1.258-.85-2.04-1.863-2.04-.908 0-1.945.676-1.945 2.111zm12.585 3.15h-1.422v-.818h-.023c-.047.094-.828 1.04-2.142 1.04-1.792 0-3.237-1.434-3.237-3.418 0-2.156 1.48-3.486 3.145-3.486.813 0 1.769.432 2.257 1.012V.43h1.422v6.472zm-1.467-3.22c0-1.2-.816-2.04-1.888-2.04-1.105 0-1.92.899-1.92 1.994 0 .968.651 2.064 1.92 2.064.92 0 1.888-.676 1.888-2.018z" transform="matrix(1 0 0 -1 .21 38.826)"/>
        <path fill-rule="nonzero" d="M41.246 9.059L39.698 9.059 39.698 0.43 41.246 0.43z" transform="matrix(1 0 0 -1 .21 38.826)"/>
        <path d="M48.534 6.902h-1.42v-.818h-.024c-.047.094-.828 1.04-2.142 1.04-1.794 0-3.237-1.434-3.237-3.418C41.71 1.55 43.19.22 44.855.22c.815 0 1.768.432 2.259 1.012V.43h1.42v6.472zm-1.467-3.22c0-1.2-.815-2.04-1.886-2.04-1.107 0-1.921.899-1.921 1.994 0 .968.652 2.064 1.92 2.064.921 0 1.887-.676 1.887-2.018z" transform="matrix(1 0 0 -1 .21 38.826)"/>
        <path fill-rule="nonzero" d="M49.358.43h1.547v3.078c0 .55 0 1.225.281 1.62.279.432.781.572 1.06.572 1.303 0 1.303-1.54 1.303-2.075V.43h1.55v3.498c0 .502 0 1.585-.596 2.296-.535.654-1.384.9-1.944.9-.978 0-1.512-.538-1.77-.783v.561h-1.431V.43m11.241 2.11c-.407-.653-.919-.897-1.431-.897-1.166 0-1.945.92-1.945 2.028 0 1.33.932 2.03 1.874 2.03.956 0 1.317-.619 1.502-.944h1.748c-.664 1.994-2.436 2.368-3.25 2.368-1.781 0-3.422-1.449-3.422-3.429 0-2.146 1.78-3.476 3.435-3.476 1.513 0 2.712.875 3.237 2.32h-1.748" transform="matrix(1 0 0 -1 .21 38.826)"/>
        <path d="M69.234 2.972c.045.209.092.478.092.781 0 1.63-1.292 3.406-3.34 3.406-1.992 0-3.401-1.681-3.401-3.51 0-1.889 1.49-3.43 3.411-3.43 1.513 0 2.749 1.084 3.12 2.25h-1.63c-.29-.536-.802-.826-1.489-.826-1.107 0-1.712.909-1.78 1.33h5.017v-.001zM64.169 4.22c.291 1.2 1.258 1.515 1.827 1.515.77 0 1.572-.477 1.747-1.515h-3.574zM26.605 21.883l-2.07-3.58-11.453.646 1.146 1.994 12.377.94zm8.28 11.405l1.038-3.95-16.253 1.07 1.146 1.992 14.07.887zm-10.774 4.841l9.514-.007.717-2.7-11.376.714 1.145 1.993zm-.837-22.051l-1.65-2.845-11.837-.013 1.146 1.992 12.341.866zm20.779 7.674l-2.865-4.973h2.729c1.264 0 3.53.632 4.226 2.435.647 1.674-.54 2.54-1.37 2.54l-2.72-.002zm2.732 4.757l2.38.014c1.584.01 3.236.735 3.84 2.207.557 1.366-.192 2.53-1.185 2.525l-2.302.003-2.733-4.749zm-10.772.829l2.403 4.175 8.133.523.284.506-7.524.528 1.76 3.06H55.02c4.29 0 7.464-1.536 6.23-6.054-.37-1.369-2.115-4.814-7.23-6.258 1.086-.13 3.79-1.33 3.324-4.44-.828-5.516-7.958-8.141-11.924-8.143l-16.473-.007-.811 3.191 8.627.61.293.505-9.357.57-1.009 3.784 13.316.778.289.501-23.921 1.512 1.146 1.991 25.748 1.675.292.502-7.549.49h.001z" transform="matrix(1 0 0 -1 .21 38.826)"/>
    </g>
</svg>
