<svg xmlns="http://www.w3.org/2000/svg" width="70" height="34" viewBox="0 0 70 34">
    <g fill="#FFF">
        <path d="M17.361 32.839l2.744-.216-.763.06-1.98.156zM2.617 33.99L2.505 34 0 8.774l1.326-.11c.737-.073 1.29-.73 1.216-1.498l-.147-1.317c-.074-.767.479-1.462 1.29-1.498l9.283-.732c.774-.073 1.474.512 1.548 1.28l.106.95-9.759 5.046L2.617 33.99z" opacity=".6"/>
        <path d="M25.863.037L45.021 7.75l-2.247 23.105-7.516.585-11.753.914L2.615 34l2.248-23.105 21-10.858zm-9.837 24.567s2.69 0 2.653-.036l-2.69-4.131c1.18-.256 2.174-1.28 2.174-3.218 0-2.01-1.4-3.51-3.684-3.51H9.358v10.895h2.32V20.73h1.954l2.394 3.875zm-.22-7.385c0 .914-.738 1.463-1.659 1.463H11.68v-2.925h2.468c.958 0 1.658.548 1.658 1.462zm4.383 7.385h7.737v-2.047h-5.415v-2.45h4.826V18.06H22.51v-2.303h5.452V13.71H20.19v10.894zm9.064-5.447c0 3.437 2.615 5.667 5.784 5.667 1.99 0 3.574-.805 4.679-2.048v-4.058h-5.232v2.048h2.91v1.17c-.441.402-1.362.84-2.32.84-1.99 0-3.427-1.535-3.427-3.582 0-2.048 1.437-3.583 3.427-3.583 1.06 0 2.046.538 2.615 1.426l1.953-1.06c-.81-1.317-2.247-2.45-4.531-2.45-3.243 0-5.858 2.193-5.858 5.63zM45.463 23.471c0-.731.626-1.316 1.326-1.316.737 0 1.327.621 1.327 1.316 0 .731-.59 1.316-1.327 1.316-.736 0-1.326-.621-1.326-1.316zm11.2 1.133l-2.616-3.875h-1.731v3.875h-2.321V13.71h5.12c2.285 0 3.685 1.499 3.685 3.51 0 1.937-1.216 2.96-2.395 3.217l2.948 4.13c0 .037-2.69.037-2.69.037zm-.258-7.385c0-.914-.7-1.462-1.658-1.462h-2.431v2.925h2.468c.921 0 1.621-.549 1.621-1.463zm4.163 3.035V13.71h2.358v6.47c0 1.536.663 2.56 2.358 2.56s2.321-1.06 2.321-2.56v-6.47H70v6.544c0 2.705-1.363 4.57-4.716 4.57-3.352-.037-4.716-1.901-4.716-4.57z"/>
    </g>
</svg>
