<svg xmlns="http://www.w3.org/2000/svg" width="70" height="28" viewBox="0 0 70 28">
    <g fill="none">
        <path fill="#FFF" d="M28.236 6.823c2.242-2.248 4.483-4.457 6.685-6.705.236-.236.315-.04.433.08l6.41 6.427c.118.119.236.198.315.276.157.04.236.158.314.237l6.371 6.389c.118.118.236.197.275.355 0 .236-.157.355-.314.473-2.203 2.208-4.405 4.377-6.568 6.586-2.202 2.169-4.365 4.377-6.567 6.586-.118.118-.236.276-.433.355h-.118c-.118-.08-.236-.158-.314-.237l-6.332-6.35c-.078-.078-.157-.157-.196-.236l-6.882-6.901c-.079-.08-.158-.158-.158-.276.079-.197.276-.316.394-.434l6.213-6.231c.118-.197.275-.316.472-.394z"/>
        <path fill="#FFF" d="M21.157 13.842c.079.119.158.197.276.316l6.449 6.467c.118.119.236.198.354.316-.236.197-.433.394-.63.591l-5.937 5.955c-.118.119-.236.276-.433.355h-.079c-.157-.079-.275-.197-.393-.315-1.22-1.144-2.36-2.327-3.5-3.51-.747-.75-1.494-1.46-2.242-2.17-.196-.196-.353-.354-.51-.59-.237-.277-.276-.277-.512-.04-.708.67-1.337 1.42-2.006 2.09-.668.67-1.376 1.301-2.045 1.972-.393.434-.786.907-1.219 1.301-.472.434-.904.868-1.376 1.223h-.079c-1.258-1.262-2.517-2.564-3.814-3.826-.944-.946-1.927-1.932-2.91-2.878-.197-.198-.236-.276 0-.513 4.483-4.456 8.927-8.913 13.37-13.409.079-.078.197-.157.276-.236.196-.079.275.079.393.197.668.631 1.298 1.301 1.966 1.932l4.365 4.378c.079.158.197.237.236.394zM56.04 20.823c-.866.867-1.692 1.735-2.557 2.563l-4.444 4.456h-.078c-.118-.079-.236-.157-.354-.276l-6.332-6.35c-.078-.078-.196-.157-.236-.315.079-.118.158-.197.276-.315l6.37-6.389c.118-.118.236-.197.276-.355.118-.04.196.08.275.158l6.685 6.704c.079.04.079.08.118.119zM69.921 6.98c-1.1 1.105-2.202 2.209-3.342 3.274-1.14 1.143-2.32 2.287-3.461 3.47-.079.079-.157.118-.236.197-.157-.118-.275-.276-.433-.394-2.162-2.17-4.286-4.338-6.449-6.468-.04-.04-.118-.079-.118-.197.197 0 .236-.118.354-.237 2.163-2.13 4.286-4.298 6.45-6.467.196-.197.275-.197.51 0L69.922 6.9v.08z"/>
        <path fill="#FFF" d="M55.921 6.862c.118.118.236.197.354.315l6.371 6.39c.118.118.236.196.236.354l-2.124 2.13c-1.494 1.498-2.988 2.957-4.443 4.456-.079.079-.197.197-.315.276-.157 0-.236-.158-.315-.237l-6.449-6.467c-.079-.079-.197-.158-.275-.237l-5.82-5.836c-.354-.355-.708-.75-1.102-1.105l5.506-5.52c.433-.435.865-.829 1.258-1.263.118-.118.197-.157.315 0 2.28 2.209 4.522 4.496 6.803 6.744zM21.157 13.842c-.118-.079-.196-.157-.314-.276l-6.332-6.35c-.118-.117-.157-.236-.354-.236 1.73-1.735 3.422-3.47 5.152-5.205.55-.552 1.14-1.105 1.652-1.657.157-.157.275-.157.432 0 1.14 1.144 2.242 2.288 3.422 3.431 1.022.986 2.005 2.051 3.028 3.076.118.08.196.237.354.198-2.242 2.208-4.444 4.456-6.686 6.664-.078.119-.196.237-.354.355z"/>
        <path fill="#A6A6A6" d="M14.275 10.45c.04.04.118.08.158.158 1.022 1.026 2.045 2.09 3.106 3.116.158.158.118.197 0 .355-1.022 1.025-2.084 2.05-3.106 3.115-.158.158-.236.158-.394 0-1.1-.986-2.084-2.09-3.106-3.115-.158-.158-.118-.197 0-.355.707-.71 1.415-1.46 2.123-2.209.315-.315.669-.63 1.023-.946.039-.04.078-.118.196-.118zM7.236 23.545c-1.494 0-2.674-1.183-2.674-2.721S5.78 18.14 7.236 18.14c1.534 0 2.674 1.183 2.674 2.721.04 1.46-1.14 2.721-2.674 2.682zm16.163-2.998v2.13c0 .197-.04.276-.275.276h-4.169c-.236 0-.315-.079-.315-.315v-4.141c0-.276.118-.316.354-.316h4.13c.236 0 .314.08.314.316-.04.63-.04 1.34-.04 2.05zM51.831 20.901c.04 1.42-1.219 2.722-2.752 2.643-1.455-.04-2.635-1.223-2.635-2.721 0-1.46 1.219-2.682 2.674-2.682 1.534 0 2.792 1.34 2.713 2.76zm11.09-10.53c-.118 0-.157-.078-.236-.157C61.663 9.19 60.64 8.124 59.58 7.1c-.158-.158-.118-.237 0-.355 1.061-1.026 2.084-2.09 3.106-3.116.158-.158.236-.118.394 0l3.067 3.076c.197.197.197.316 0 .513-1.022.986-2.006 2.011-3.028 3.037 0 .039-.079.118-.197.118zM51.674 6.901c.079 1.46-1.219 2.722-2.674 2.682-1.534 0-2.674-1.183-2.674-2.682-.04-1.459 1.219-2.72 2.753-2.72 1.415.078 2.674 1.261 2.595 2.72zM53.326 13.842c-.118-1.262 1.219-2.72 2.753-2.642 1.455.079 2.634 1.183 2.595 2.682 0 1.498-1.022 2.681-2.713 2.681-1.495 0-2.753-1.301-2.635-2.72zM23.831 6.94c.08 1.42-1.18 2.722-2.674 2.683-1.533-.04-2.674-1.144-2.713-2.722-.04-1.538 1.376-2.72 2.753-2.681 1.415.04 2.713 1.222 2.634 2.72z"/>
        <path fill="#FFF" d="M37.596 15.814c-.04.355-.236.552-.433.789-.393.355-.393.355-.747 0l-.197-.197c-.157-.198-.55-.395-.472-.592.157-.315.472-.63.865-.789.394-.118.984.395.984.79zM31.933 10.214c.275 0 .471.118.668.276l1.612 1.617c.315.316.354.71.08 1.025-.315.355-.709.434-1.063.119-.668-.552-1.258-1.183-1.809-1.814-.196-.237-.236-.513-.078-.79.078-.236.314-.393.59-.433z"/>
        <path fill="#121212" d="M39.876 17.904c-.236 0-.472-.079-.707-.158-.394-.197-.748-.354-1.14-.552-.158-.079-.276-.04-.394.08-.315.315-.315.315 0 .63.393.395.747.789 1.14 1.144.315.276.118.434-.078.63-.158.159-.315.356-.59.08-1.18-1.223-2.4-2.406-3.618-3.628-.158-.158-.158-.237 0-.395.393-.394.786-.789 1.219-1.183.511-.473 1.14-.552 1.73-.237.669.355 1.101 1.105.983 1.736-.078.315.04.394.276.512.275.119.51.237.786.355.275.119.511.158.747-.04.236-.196.394.08.512.198.157.118.196.276 0 .434-.197.158-.472.394-.866.394zm-8.022-8.636c.55 0 .904.118 1.18.355.708.63 1.376 1.262 2.005 2.01.433.513.512 1.144.158 1.736-.354.631-.866 1.025-1.613 1.025-.472 0-.826-.197-1.14-.512-.59-.552-1.14-1.105-1.691-1.696-.472-.513-.63-1.144-.315-1.775.275-.71.826-1.104 1.416-1.143zm11.286 5.284c-.039.67-.432 1.223-1.061 1.538-.59.316-1.14.237-1.691-.158-.118-.078-.197-.157-.276-.236-.865-.868-1.69-1.735-2.595-2.564-.275-.276-.118-.433.079-.591.157-.158.314-.355.629-.079.826.868 1.69 1.696 2.517 2.524.354.355.668.434 1.022.237.511-.277.59-.868.157-1.302l-2.517-2.524c-.117-.118-.314-.158-.196-.394.118-.237.314-.434.55-.513.08-.04.118.079.197.118l2.635 2.643c.314.355.511.788.55 1.301zm-7.629-6.034c-.314-.67-.55-1.262-.708-1.853-.078-.395-.039-.789.236-1.104.158-.158.315-.237.472-.04.158.158.433.316.197.592-.157.197-.118.394-.04.591.197.75.551 1.46.826 2.17.04.078.118.157.197.236.393.394.787.828 1.22 1.222.274.237.156.434-.04.631-.158.158-.354.395-.59.08-.079-.08-.157-.158-.197-.237-.747-.947-1.73-1.538-2.87-1.893-.394-.119-.787-.355-1.259-.04-.197.119-.354-.118-.511-.315-.118-.158-.079-.276.04-.395.274-.276.589-.355.943-.315.55.079 1.022.276 1.534.473.118 0 .275.079.55.197zm-8.219 5.995c-.196-.08-.393-.237-.472-.434-.118-.197.079-.276.158-.355.668-.67 1.337-1.34 1.966-2.011.236-.237.393-.119.55.04.158.157.315.354.04.59-.236.198-.59.434-.59.671-.04.276.393.473.59.71l2.477 2.484c.276.277.118.434-.078.592-.158.158-.315.355-.59.079-.944-.986-1.967-1.972-2.91-2.958-.197-.197-.276-.197-.472 0-.158.197-.315.355-.512.513-.039.04-.078.079-.157.079zm9.753 6.704c0 .197-.511.71-.708.71-.197 0-.747-.552-.747-.75 0-.197.511-.71.708-.71.196 0 .747.553.747.75z"/>
    </g>
</svg>
