<svg xmlns="http://www.w3.org/2000/svg" width="100" height="24" viewBox="0 0 100 24">
    <path fill="#FFF" d="M62.447.157c.053-.053.16-.105.266-.053 1.915.94 3.776 1.826 5.691 2.766L62.66 1.148c-1.915.522-3.83 1.148-5.798 1.722 1.861-.94 3.723-1.827 5.585-2.713zM48.032 3.339c1.17-.104 2.34.052 3.457.418.532.156 1.011.47 1.596.573.16.053.32 0 .426-.156.16-.157.266-.417.372-.574 0 .678.053 1.409 0 2.087 0 .574.053 1.148 0 1.722-.266-.313-.372-.73-.638-1.096-.532-.887-1.277-1.722-2.288-2.14-1.115-.495-2.395-.495-3.51 0-.851.366-1.596 1.044-2.128 1.775-.85 1.148-1.33 2.556-1.383 4.017-.053 1.461.16 2.974.904 4.226.807 1.474 2.296 2.467 3.99 2.661 1.542.052 3.085-.522 4.255-1.513.32-.26.585-.626.958-.835-.107.313-.32.522-.48.783-.903 1.096-2.18 1.878-3.616 2.087-.479.104-.904.052-1.383.052-1.277-.052-2.607-.313-3.777-.939-1.064-.574-1.968-1.513-2.5-2.609-.478-.991-.744-2.035-.798-3.13.054-1.513.532-3.026 1.383-4.278 1.224-1.774 3.139-2.922 5.16-3.13zm-11.064.104h3.99c-.32.105-.692.21-1.011.418-.479.313-.692.887-.638 1.46 0 1.618-.054 3.183 0 4.8v7.253c-.054.26-.32 0-.373-.104-2.127-2.661-4.255-5.322-6.436-7.983l-2.979-3.704c-.053.156-.053.313-.053.47v9.756c0 .47.213.991.638 1.304.266.157.639.157.958.209-1.277.052-2.553 0-3.83 0 .32-.157.745-.157 1.01-.365.32-.261.48-.679.48-1.044V5.322c0-.522-.213-1.096-.692-1.409-.266-.209-.638-.313-.958-.417h3.777c2.553 3.13 5.106 6.26 7.713 9.339V5.478c0-.574-.107-1.2-.532-1.565-.32-.313-.692-.365-1.064-.47zm34.255.053h3.617c1.383 2.87 2.713 5.791 4.096 8.713 1.277-2.922 2.553-5.844 3.83-8.713 1.17 0 2.34 0 3.51.052-.319.104-.638.209-.904.417-.425.365-.585.94-.532 1.513l1.277 9.861c.106.626.266 1.252.745 1.67.266.208.585.26.904.417h-4.894c.266-.104.585-.156.798-.417.426-.418.426-1.096.373-1.618-.426-2.974-.798-5.948-1.224-8.921-.053-.261-.053-.522-.16-.783-.265.47-.425.94-.69 1.46-1.224 2.766-2.395 5.583-3.565 8.349l-.16.313c-.106-.052-.212-.157-.265-.313-1.277-2.713-2.5-5.426-3.777-8.14-.266-.469-.425-.99-.745-1.408-.106.313-.053.626-.106.939l-.957 9.078c-.054.418.053.835.372 1.096.266.209.638.26 1.01.365h-3.51c.372-.104.745-.209 1.01-.522.48-.574.48-1.304.533-1.982.319-3.026.691-6.105 1.01-9.13.053-.627-.106-1.357-.638-1.775-.266-.313-.638-.365-.958-.521zm17.98.052c3.563-.052 7.074 0 10.637 0 .054.73.054 1.513.107 2.243v.574c-.107-.313-.053-.678-.213-.991-.16-.47-.532-.835-.957-1.044-.586-.26-1.277-.365-1.915-.365H93.67c-.266.052-.585-.052-.691.261-.16.47-.107.94-.107 1.409 0 1.095 0 2.243.054 3.339 0 .209.212.26.372.209h3.776c.426 0 .958-.157 1.17-.574.213-.313.213-.679.32-.992.053.679 0 1.41 0 2.087v1.566c-.107-.418-.16-.887-.426-1.2-.266-.366-.744-.47-1.17-.47h-3.457c-.213 0-.48.052-.585.209-.107.208-.054.47-.107.73v5.53c0 .157 0 .366.053.522.054.157.266.157.426.157h2.606c.798 0 1.596.052 2.394-.157.585-.156 1.17-.574 1.383-1.148.16-.313.16-.678.266-1.043 0 .94-.053 1.878-.053 2.87H89.202c.372-.053.745-.157 1.064-.418.479-.417.585-1.095.585-1.722V6.678c0-.626.053-1.252-.053-1.826-.053-.417-.266-.835-.638-1.095-.373-.053-.692-.105-.958-.21zM.318 3.652c1.596-.052 3.138 0 4.734 0h1.17c-.532.157-1.117.261-1.542.626-.32.261-.479.679-.479 1.096v10.852c0 .209.107.417.32.522.212.104.425.104.69.104H7.66c.691 0 1.383-.156 1.968-.47.532-.312.904-.782 1.117-1.304.106-.26.106-.521.266-.73-.16 1.043-.373 2.035-.585 3.026H.16c.531-.104 1.117-.209 1.595-.574.32-.209.479-.574.479-.94V5.479c0-.521-.213-.991-.691-1.304-.426-.261-.852-.365-1.224-.522zm69.15 4.122c-.64-1.722-2.022-3.13-3.724-3.913-1.33-.574-2.873-.783-4.309-.574-1.276.209-2.553.73-3.564 1.565-.957.835-1.755 1.878-2.18 3.078-.798 2.192-.48 4.8 1.01 6.679.851 1.148 2.128 1.982 3.51 2.4 1.33.417 2.767.417 4.15.156 1.861-.417 3.564-1.565 4.574-3.182 1.17-1.826 1.33-4.226.532-6.21zm-2.873 6.104c-.373.887-.958 1.722-1.756 2.296-.904.626-2.127.835-3.244.574-.91-.246-1.702-.8-2.234-1.565-.798-1.096-1.117-2.453-1.277-3.81-.106-1.251 0-2.556.266-3.808.266-1.095.745-2.139 1.649-2.922.532-.417 1.117-.73 1.809-.834 1.01-.157 2.074-.052 2.925.47.798.469 1.383 1.251 1.755 2.086.48 1.148.692 2.452.692 3.705.053 1.304-.107 2.608-.585 3.808zm-41.17 3.235c-.48-.417-.745-.991-1.011-1.617L19.309 3.6c-.054-.157-.213-.313-.426-.26-.16.103-.16.26-.266.364-1.702 4.018-3.457 8.087-5.16 12.105-.212.47-.425.939-.85 1.2-.213.156-.426.208-.692.26h3.457c-.425-.104-.904-.052-1.223-.417-.266-.313-.106-.73 0-1.095.585-1.357 1.117-2.714 1.702-4.07.053-.157.16-.313.266-.417.106-.105.266-.105.426-.105h2.446c.426 0 .798-.052 1.224 0 .16 0 .213.209.319.365.532 1.305 1.117 2.661 1.649 3.966.16.365.213.73.106 1.095-.16.418-.585.574-1.01.626-.16.053.16.053.16.053h4.627c-.213.052-.426 0-.638-.157zm-5.692-6.522h-2.66c-.16 0-.319 0-.425-.104-.053-.104.053-.26.053-.365.479-1.148.958-2.348 1.436-3.496.053-.156.16-.26.266-.365.266.209.32.522.426.782.425 1.2.85 2.348 1.276 3.548h-.372zm38.085 10.07c.585-.313 1.277-.313 1.915-.209.532.052 1.01.365 1.17.887-.213.052-.425.157-.638.209-.106-.261-.372-.47-.638-.522-.373-.104-.745-.104-1.117 0-.16.052-.373.157-.373.365.053.209.266.261.426.313.479.105.957.105 1.436.209.32.104.691.26.851.574.16.365.053.887-.32 1.148-.531.365-1.17.365-1.808.313-.585-.052-1.223-.365-1.489-.94.213-.051.426-.156.692-.208.16.365.585.574.957.574.426.052.904.052 1.277-.261.16-.156.053-.417-.107-.47-.744-.313-1.596-.104-2.287-.573-.479-.313-.426-1.148.053-1.41zm-3.032-.209h.692v3.391h-.692v-3.39zm-12.287.574c-.213-.417-.745-.522-1.17-.522h-2.234v3.392h.691V22.59h1.596c.372 0 .798-.104 1.01-.47.213-.364.213-.782.107-1.095zm-.638.678c-.107.209-.32.261-.532.261h-1.543v-.939h1.49c.16 0 .372 0 .478.104.16.157.16.418.107.574zm3.99-1.252h-.799c-.585 1.148-1.117 2.296-1.702 3.391h.745c.106-.26.266-.521.372-.782h1.968c.107.26.213.522.373.782h.744c-.585-1.095-1.117-2.243-1.702-3.39zm-1.118 2.035c.213-.47.479-.991.692-1.46.212.469.478.99.691 1.46h-1.383zm7.021 0c.213-.052.426-.104.585-.209.426-.313.48-.939.213-1.356-.266-.418-.798-.418-1.223-.418h-2.128v3.392h.692v-1.357h1.063c.32.418.692.887 1.011 1.357h.851c-.372-.47-.691-.94-1.064-1.409zm-1.861-.522v-.939h1.436c.16 0 .372 0 .532.104.212.157.212.418.106.627-.106.156-.372.208-.532.208h-1.542z"/>
</svg>
