<svg xmlns="http://www.w3.org/2000/svg" width="100" height="32" viewBox="0 0 100 32">
    <g fill="#FFF">
        <path d="M52.529 8.229l-.92-.915-.345-.628-2.873-1.257c-1.61-3.258-2.816-.458-5.173 1.485l1.61.629 2.241.971c.517.229 1.034.4 1.552.629l.057.057L50 8.914l1.264-.285c.518-.058 1.954.342 1.265-.4z"/>
        <path d="M9.655 14.171l1.437-.914 4.828-.457 4.827-.4c.92 0 4.828.629 4.828-.457l.517-.972v-.457l2.874-2.4c-.748-.857-1.38-1.028 0-.971l.977-.457h.92v.971l.459 1.943c0 .743-.345 1.429.46 1.429 2.241.628 2.241.685 3.85-.915l1.494-1.428 1.437-1.429.977-.457 1.437-.457 1.954-.914 1.437-.915 1.034-1.428C46.38.114 52.586 4.57 55 5.657l8.218 4c2.184 1.2 6.265 4.914 8.219 3.029l.92-.457.976-.515.46.515.517.457c.69.685 1.035.285 1.897.057h.517l.46-.457-.46-.515-.46-.971v-.457l8.161 3.028c1.265.686 2.586 1.315 3.85 2l3.851.515 4.828 1.028c1.207.457 2.931 1.315 2.414.057l-.46-.971c-.115-.743-.517-.743-1.897-1.029-1.321 0-2.126-.114-3.39-.514l-7.242-1.543-6.264-2.514-5.747-2.057-1.437.457-1.494.914-1.897.457h-1.839L60.92 7.03l-8.161-3.486L45.632.17l-5.862 2.8-6.781 1.886-7.3 1.314-1.436.915-1.954 1.485L19.425 10l-3.448.457-3.85.914c-4.598 2-4.943 2.343-7.07 2.515-.23 0-1.321 2.857-1.321 2.857.46.171 4.08-1.886 5.92-2.572zM25.92 24c-.115.229-.288.4-.633.514-.287.172-.632.229-1.092.229h-.632l.69-1.6H25c.172 0 .287.057.46.057.057 0 .115.057.172.057.115.114.23.229.288.343.057.171.057.286 0 .4zm2.528-.629c-.057-.171-.115-.342-.287-.457-.172-.114-.345-.228-.632-.343-.288-.057-.632-.114-1.035-.114h-1.839c.862-1.943 1.207-2-1.264-2l-1.724 3.886c-.633 1.428-.115 1.086 1.724 1.086l1.437-.058c.632 0 1.149-.057 1.666-.228.46-.114.92-.343 1.265-.629l.115-.114c.172-.114.287-.286.402-.457.057-.057.115-.114.115-.229.057 0 .057-.171.057-.343zm-20.632-1.2H6.494l1.322-1.428c.402-.4.747-.8 1.207-1.257l.172 2.628H7.816v.057zm5.058 1.6l-.518-6.114c-2.47 0-2.873-.286-4.482 1.429l-.288.285c-1.896 2.058-3.85 4.115-5.804 6.115 2.298 0 2.413-.686 3.85-2.229H9.31l.23 2.229c2.586 0 3.334.343 3.334-1.715zm7.413.629l-.344-3.886c-1.61 0-1.84-.171-2.817.915l-.23.228c-1.264 1.314-2.47 2.572-3.735 3.886 1.437 0 1.494-.457 2.471-1.429 0 0 1.897-2.057 2.184-2.343l.115 1.658.058.685.114 1.429c1.725-.057 2.242.171 2.184-1.143zm58.966-3.943H74.08c-.747 0-.804.343-.977.743h1.954l-.172.343-1.724 3.886h1.954l.172-.343 1.667-3.886 1.552-.057c.402.057.574-.343.747-.686zm-14.368 1.2s-.69.743-1.15 1.2l-.746-2.343c-1.38 0-2.127-.228-1.84.915l.977 3.142c-.46.458-.862.915-.977 1.029 1.207 0 1.954-.857 2.759-1.714 0 0 2.241-2.286 3.218-3.372-1.264-.057-1.436.286-2.24 1.143zm5.23 3.143c-.46 0-.862-.114-1.092-.286-.23-.114-.402-.343-.46-.628-.057-.286 0-.572.115-.857.115-.343.345-.629.632-.915.288-.285.633-.514.92-.685.057 0 .345-.229 1.092-.286h.92l.287-.686h-1.84c-.172 0-.861.057-1.149.114-.402.058-.747.229-1.207.4-.344.229-.69.458-1.034.743-.288.286-.517.629-.69 1.029-.23.457-.287.857-.23 1.257.058.343.23.629.518.857.287.229.69.4 1.092.457.46.115 1.091.172 1.494.115.46 0 .862-.115.862-.115l.172-.571-.402.057zM52.47 20.457c-1.437 0-1.092-.114-1.609 1.086l-.46 1.086c-.747 0-1.15-.058-1.896-.058l.287-.685.632-1.429h-.46c-1.436 0-1.321-.114-1.839 1.086l-1.436 3.486-.173.4h.173c1.609 0 1.551.285 2.126-1.086l.402-1.029h1.897l-.69 1.657-.172.4h.172c1.61 0 1.495.286 2.07-1.085l1.034-2.457.632-1.429h-.69v.057zm39.713.057c-.747 0-1.035-.057-1.207.115 0 0-2.759 2.742-3.563 3.485l1.609-3.657h-.402c-1.265 0-1.322-.228-1.84.914l-.23.572-1.264 2.971c-.172.572-.057.572.518.572 0 0 .747 0 .92-.057h.057c.747-.115.977-.515 1.724-1.315l1.666-1.714-1.092 2.629-.172.4h.172c1.61 0 1.495.228 2.07-1.143l1.034-2.457.632-1.429h-.632v.114zm1.322 1.429s.057-.057.057-.114c.173-.286.46-.572.747-.743.115-.115.288-.172.518-.229.574-.228 1.206-.286 1.954-.286 1.666 0 2.816-.285 2.241 1.086l-1.494 3.886h-1.84l.23-.514 1.61-3.943h-.575c-.23 0-.46.057-.69.114-.23.057-.402.229-.517.343-.172.114-.287.286-.345.457-.115.229-.057.457.115.629.115.171.46.228.862.228h.345c-2.988 3.029-2.184 2.572-4.655 2.572l2.471-2.172c-.287-.057-.517-.114-.69-.228-.172-.115-.287-.286-.344-.515-.058-.114-.058-.285.057-.457-.057 0-.057-.057-.057-.114zM32.01 20.514c-1.436 0-1.321-.114-1.839 1.086l-1.436 3.486-.173.4h.173c1.609 0 1.551.285 2.126-1.086l.23-.514 1.092-2.572h1.896c-.057.115-.057.172-.114.286l-.46 1.086-.288.743-.69 1.657-.172.4h.173c1.609 0 1.494.285 2.069-1.086l1.034-2.457.632-1.429h-4.253zm13.161-.057c-.69 0-.92-.057-1.092.057 0 0-4.252 2.172-4.367 2.229l2.069-5.086c-2.472 0-2.644-.343-3.564 1.772l-2.011 5.028c-.345 1.086-.058 1.086 1.034 1.086l1.092-.057 4.54-2.4-.804 1.885-.172.4h.172c1.61 0 1.494.229 2.069-1.085l1.034-2.457.633-1.429-.633.057zm8.851 4.286c.23-.229.345-.457.69-.743l.574-.686.862-.857c.23-.286.518-.514.748-.743l.114 1.657.058.686.057.743c-1.034-.057-2.126-.057-3.103-.057zm5.747.057h-.46c0-.229-.344-4.286-.344-4.286-1.61 0-1.84-.171-2.817.857l-.172.229-3.046 3.2c-.805.057-.92.343-1.092.743h7.471c.633 0 .862-.343 1.035-.686-.058-.057-.575-.057-.575-.057zm23.793-2.914c-.057.114-.172.285-.345.4-.115.114-.344.228-.517.343-.057.057-.115.057-.23.057-.115.057-.287.057-.46.057h-.69l.748-1.657h.632c.402 0 .69.057.805.228.115.229.115.4.057.572zm2.242-.515c0-.057 0-.057-.058-.114-.115-.286-.345-.457-.632-.628-.345-.172-.747-.229-1.38-.229h-1.264c-1.666 0-1.954-.343-2.586 1.086l-1.782 3.943c2.3 0 2.012-.058 2.874-2h1.724c.345 0 .69-.058 1.035-.115.344-.057.632-.228.862-.343.287-.114.46-.285.69-.457.172-.171.287-.343.402-.514.057-.057.057-.114.057-.229.115-.114.115-.228.058-.4zm-84.08 8.4l.229-.571h1.207c.23-.743-.287-.743-.517-.743-.518 0-.862.343-.92.514H.977c.23-.514.862-1.142 1.897-1.142 1.321 0 1.321.857 1.034 1.657-.632 1.6-1.839 1.714-2.241 1.714-.977 0-1.265-.514-1.035-1.257h.747c-.115.286 0 .628.518.628.287 0 .804-.114 1.092-.742H1.724v-.058zm4.54-1.028h.746l-1.379 1.086.517 1.2h-.804L5 30l-.402 1.029h-.69l.92-2.286h.69l-.346.914 1.092-.914zm2.93 1.428c-.172.343-.632.915-1.494.915-.747 0-1.034-.457-.747-1.257.23-.515.747-1.258 1.782-1.258.747 0 .862.458.69.915h-.69c.115-.343-.058-.457-.288-.457-.115 0-.517.057-.804.742-.288.743.057.8.23.8.344 0 .574-.342.632-.514l.69.114zm1.035.858h-.69l.92-2.286H12.7l-.92 2.286h-.689l.69-1.829h-.862l-.69 1.829zm4.942-.629c-.46.629-1.092.743-1.494.743-.287 0-1.207-.057-.747-1.257.267-.751.98-1.255 1.782-1.257 1.092 0 .804 1.028.69 1.257l-.116.171h-1.781c-.058.229-.115.629.287.629.23 0 .46-.115.575-.286h.804zm-.402-.743c.173-.514-.115-.571-.287-.571-.115 0-.517 0-.747.571h1.034zm2.414-.914l-.115.286c.402-.343.69-.343.862-.343.632 0 .862.457.575 1.257-.288.743-.862 1.257-1.552 1.257-.115 0-.46-.057-.575-.343l-.402 1.086h-.69l1.207-3.143c.058-.057.69-.057.69-.057zm-.23 1.943c.402 0 .69-.343.862-.743.23-.629-.057-.743-.23-.743-.172 0-.632.114-.862.743-.172.343-.172.743.23.743zm2.299-1.486l.172-.457h2.242l-.173.457h-.804L20 31.029h-.69L20 29.2h-.747zm5.517-.457c.23 0 .747 0 .517.571-.115.286-.402.515-.69.515.346.057.46.228.288.628-.172.457-.575.629-1.092.629h-1.38l.92-2.286 1.437-.057zm-1.38 1.828h.46c.345 0 .46-.114.46-.228.058-.172.058-.286-.287-.286h-.46l-.172.514zm.346-.914h.402c.115 0 .345 0 .46-.228.057-.229-.058-.229-.288-.229h-.344l-.23.457zm3.62 1.372h-.69l.92-2.286h1.724l-.23.457H27.99l-.633 1.829zm1.954-1.143c.345-.915 1.092-1.257 1.782-1.257s1.092.4.747 1.257c-.345.857-1.034 1.257-1.782 1.257-.69 0-1.091-.4-.747-1.257zm1.782 0c.287-.743-.058-.743-.23-.743-.172 0-.575.057-.862.743-.115.285-.23.743.23.743.517.057.747-.458.862-.743zm2.471-1.143l-.115.286c.403-.343.69-.343.862-.343.633 0 .862.457.575 1.257-.287.743-.862 1.257-1.552 1.257-.115 0-.46-.057-.574-.343l-.403 1.086h-.69l1.208-3.143c.057-.057.69-.057.69-.057zm-.172 1.943c.402 0 .69-.343.862-.743.23-.629-.058-.743-.23-.743-.23 0-.632.114-.862.743-.172.343-.172.743.23.743zm2.414.343h-.69l.92-2.286h.69l-.346.857h.862l.345-.857h.69l-.92 2.286h-.69l.345-.972h-.804l-.402.972zm2.643-1.143c.345-.915 1.092-1.257 1.782-1.257s1.092.4.747 1.257c-.345.857-1.034 1.257-1.782 1.257-.632 0-1.034-.4-.747-1.257zm1.84 0c.287-.743-.058-.743-.23-.743-.173 0-.575.057-.863.743-.115.285-.23.743.23.743.518.057.747-.458.862-.743zm2.24-.4l-.057.114-.574 1.486h-.69l.92-2.286h.919v1.6l1.264-1.6h.92l-.92 2.286h-.69l.575-1.486.058-.114-1.264 1.6h-.46v-1.6zm4.139.4c.344-.915 1.092-1.257 1.781-1.257.69 0 1.092.4.747 1.257-.344.857-1.034 1.257-1.781 1.257-.69 0-1.092-.4-.747-1.257zm1.839 0c.287-.743-.058-.743-.23-.743-.173 0-.575.057-.862.743-.115.285-.23.743.23.743.46.057.69-.458.862-.743zm2.528.914c-.344.286-.632.343-.92.343-.746 0-.516-.686-.401-.914l.574-1.429h.69l-.517 1.314c-.173.457-.115.629.172.629.46 0 .632-.457.69-.629l.517-1.257h.69l-.92 2.286h-.69l.115-.343zm2.012-2.057h.402l.288-.686h.69l-.288.686h.517l-.172.457h-.517l-.46 1.086c-.058.114-.115.285.115.285.115 0 .23-.057.23-.057l-.173.457c-.23.058-.46.058-.575.058-.46 0-.517-.229-.344-.686l.46-1.257h-.345l.172-.343zm2.931 2.286l.115-.286c-.345.286-.517.343-.862.343-.632 0-.862-.515-.575-1.257.288-.743.862-1.2 1.552-1.2.23 0 .517.114.575.285l.46-1.085h.689l-1.264 3.142h-.69v.058zm.287-1.886c-.402 0-.69.343-.862.743-.23.457-.115.743.23.743.288 0 .632-.229.862-.743.173-.457.115-.743-.23-.743zm1.552.743c.345-.915 1.092-1.257 1.782-1.257s1.092.4.747 1.257c-.345.857-1.035 1.257-1.782 1.257-.69 0-1.092-.4-.747-1.257zm1.782 0c.287-.743-.058-.743-.23-.743-.173 0-.575.057-.862.743-.115.285-.23.743.23.743.517.057.747-.458.862-.743zm1.322 0c.344-.915 1.091-1.257 1.781-1.257s1.092.4.747 1.257c-.345.857-1.034 1.257-1.781 1.257-.69 0-1.092-.4-.747-1.257zm1.781 0c.288-.743-.057-.743-.23-.743-.172 0-.574.057-.862.743-.115.285-.23.743.23.743.517.057.747-.458.862-.743zm3.276-.743h-.172c-.403 0-.748.171-1.092.971l-.345.915h-.69l.92-2.286h.69l-.116.343c.345-.343.69-.457.977-.457h.058l-.23.514zm3.62 1.028c-.172.343-.631.915-1.494.915-.747 0-1.034-.457-.747-1.257.23-.515.747-1.258 1.782-1.258.747 0 .862.458.69.915h-.69c.115-.343-.058-.457-.287-.457-.115 0-.518.057-.805.742-.287.743.057.8.23.8.345 0 .575-.342.632-.514l.69.114zm2.874-1.714h.115c.288 0 .862-.228 1.035-.571h.574l-1.264 3.143h-.747l.862-2.229h-.747l.172-.343zm2.874 1.829c-.058.228.172.285.402.285.345 0 .632-.228.92-.8-.115.115-.46.286-.805.286-.69 0-.92-.457-.69-1.086.23-.514.69-1.2 1.667-1.2.287 0 1.264.058.69 1.6-.115.343-.747 1.772-2.012 1.772-.804 0-.862-.514-.804-.857h.632zm1.264-1.943c-.46 0-.69.343-.804.628-.115.343 0 .629.344.629.46 0 .69-.343.805-.629.057-.114.172-.628-.345-.628zm1.897.343c.115-.343.632-.915 1.494-.915.805 0 1.034.4.862.915-.115.343-.402.571-.747.685.287.115.46.343.287.743-.115.286-.46 1.029-1.666 1.029-1.207 0-1.035-.686-.92-1.029.173-.4.46-.628.862-.743-.23-.114-.345-.342-.172-.685zm1.207 1.371c.057-.171.115-.514-.403-.514-.517 0-.747.343-.804.514-.115.229-.058.514.402.514.517 0 .747-.285.805-.514zm.46-1.314c.114-.229-.058-.343-.345-.343-.288 0-.575.114-.69.343-.115.343.115.457.345.457.402-.057.574-.286.69-.457zm1.436-.057c.115-.343.632-.915 1.494-.915.805 0 1.035.4.863.915-.115.343-.403.571-.748.685.288.115.46.343.288.743-.115.286-.46 1.029-1.667 1.029s-1.034-.686-.92-1.029c.173-.4.46-.628.863-.743-.173-.114-.288-.342-.173-.685zm1.265 1.371c.057-.171.115-.514-.403-.514-.517 0-.747.343-.804.514-.115.229-.058.514.402.514s.69-.285.805-.514zm.46-1.314c.114-.229-.058-.343-.345-.343-.288 0-.575.114-.69.343-.115.343.115.457.345.457.402-.057.574-.286.69-.457zm2.47 2.286h-.69l.92-2.286h1.782l-.172.457h-1.092l-.747 1.829zm1.955-1.143c.344-.915 1.092-1.257 1.781-1.257.69 0 1.092.4.747 1.257-.344.857-1.034 1.257-1.781 1.257-.747 0-1.092-.4-.747-1.257zm1.839 0c.287-.743-.058-.743-.23-.743-.173 0-.575.057-.862.743-.115.285-.23.743.23.743.46.057.69-.458.862-.743zm1.092.685c.344-.342.69-.8.92-1.428l.172-.457h2.011l-.69 1.828h.345l-.46 1.086h-.632l.23-.629h-1.781l-.23.629h-.632l.344-1.086h.403v.057zM92.24 29.2l-.115.229c-.23.514-.517.914-.69 1.142h.92l.518-1.371h-.633zm2.184.286c.345-.8 1.15-.857 1.437-.857 1.035 0 .862.628.69.857l-.46 1.028c-.115.229-.172.4-.058.457v.058h-.747l.058-.229c-.288.229-.632.286-.92.286-.747 0-.632-.457-.517-.686.23-.514.69-.629 1.15-.686.517-.057.69-.057.804-.285 0-.058 0-.058.058-.058.114-.285-.173-.285-.288-.285-.115 0-.46.057-.575.343l-.632.057zm1.265.457c-.23.114-.23.057-.518.114-.172.057-.46.057-.517.343-.115.229.115.286.23.286.172 0 .517-.115.747-.572l.058-.171z"/>
    </g>
</svg>
