<svg xmlns="http://www.w3.org/2000/svg" width="140" height="50" viewBox="0 0 140 50">
    <path d="M15.931 49.758c-4.103-.161-7.483-1.29-10.138-3.387-.483-.403-1.69-1.613-2.092-2.097-1.046-1.37-1.77-2.661-2.253-4.113C-.08 35.645.724 29.758 3.621 23.306c2.494-5.564 6.356-11.048 13.115-18.629C17.7 3.548 20.678.242 20.678.242s-.16.242-.322.645c-1.77 2.984-3.299 6.452-4.103 9.436-1.287 4.838-1.127 8.951.483 12.177 1.126 2.177 3.057 4.113 5.23 5.161 3.781 1.855 9.333 2.016 16.011.484.483-.08 23.494-6.21 51.172-13.629 27.679-7.42 50.288-13.387 50.288-13.387s-64.288 27.58-97.678 41.855c-5.31 2.258-6.679 2.822-9.173 3.71-6.356 2.177-12.069 3.225-16.655 3.064z"/>
</svg>
