<svg xmlns="http://www.w3.org/2000/svg" width="22" height="22" viewBox="0 0 22 22">
    <g fill="#5C50F2">
        <path d="M10 7h9c1.657 0 3 1.343 3 3v9c0 1.657-1.343 3-3 3h-9c-1.657 0-3-1.343-3-3v-9c0-1.657 1.343-3 3-3zm0 2c-.552 0-1 .448-1 1v9c0 .552.448 1 1 1h9c.552 0 1-.448 1-1v-9c0-.552-.448-1-1-1h-9z"/>
        <path d="M4 13H3c-.552 0-1-.448-1-1V3c0-.552.448-1 1-1h9c.552 0 1 .448 1 1v1c0 .552.448 1 1 1s1-.448 1-1V3c0-1.657-1.343-3-3-3H3C1.343 0 0 1.343 0 3v9c0 1.657 1.343 3 3 3h1c.552 0 1-.448 1-1s-.448-1-1-1z"/>
    </g>
</svg>
