<svg xmlns="http://www.w3.org/2000/svg" width="22" height="22" viewBox="0 0 22 22">
    <g fill="#FFB229">
        <path d="M9 6h9c1.657 0 3 1.343 3 3v9c0 1.657-1.343 3-3 3H9c-1.657 0-3-1.343-3-3V9c0-1.657 1.343-3 3-3zm0 2c-.552 0-1 .448-1 1v9c0 .552.448 1 1 1h9c.552 0 1-.448 1-1V9c0-.552-.448-1-1-1H9z" transform="translate(1 1)"/>
        <path d="M3 12H2c-.552 0-1-.448-1-1V2c0-.552.448-1 1-1h9c.552 0 1 .448 1 1v1c0 .552.448 1 1 1s1-.448 1-1V2c0-1.657-1.343-3-3-3H2C.343-1-1 .343-1 2v9c0 1.657 1.343 3 3 3h1c.552 0 1-.448 1-1s-.448-1-1-1z" transform="translate(1 1)"/>
    </g>
</svg>
