<svg xmlns="http://www.w3.org/2000/svg" width="275" height="212" viewBox="0 0 275 212">
    <path fill="#FFDC40" d="M116.79 0h12.988C70.618 24.678 35.236 39.408 10.832 49.5c-3.367 1.486-5.495 4.973-5.32 8.847.037 3.757 2.348 7.08 5.702 8.31 5.422 1.81 11.375 3.822 17.772 6.007l2.555.873c10.703 3.664 22.02 7.589 33.239 11.514 3.926 1.373 7.56 2.649 10.81 3.794 1.139.4 2.148.756 3.017 1.063l.793.28.273.096c.754.267 1.334.878 1.562 1.645l.368 1.234 1.038 3.49 3.712 12.456c3.841 12.886 7.69 25.772 11.292 37.798l.172.574c4.466 14.91 8.222 27.394 11.059 36.747.807 3 3.029 5.368 5.809 6.282 2.74.787 5.68-.048 7.67-2.206l38.697-40.783c.901-.95 2.384-1.044 3.397-.214l.244.2.711.582 2.701 2.21c2.91 2.379 6.156 5.03 9.656 7.886 10 8.158 20.028 16.317 29.43 23.93l.735.595c10.416 8.434 19.376 15.642 26.438 21.26l.021.016c3.204 2.605 7.518 3.236 11.241 1.68 3.973-1.776 6.828-5.475 7.61-9.904 4.309-22.534 10.214-54.268 21.764-116.766v27.496c-8.404 45.411-13.2 71.102-16.847 90.174-1.061 6.018-4.99 11.107-10.542 13.589-5.478 2.29-11.74 1.378-16.37-2.38-7.073-5.627-16.04-12.84-26.462-21.279l-.734-.595c-9.408-7.618-19.441-15.78-29.445-23.942-3.501-2.857-6.748-5.51-9.66-7.89l-1.86-1.521-37.073 39.072c-3.243 3.517-8.14 4.906-12.792 3.568-4.48-1.469-7.924-5.142-9.145-9.684-2.818-9.284-6.575-21.773-11.043-36.688l-.172-.575c-3.603-12.028-7.452-24.916-11.294-37.803-1.345-4.51-2.593-8.7-3.712-12.458l-1.039-3.49-.004-.015c-.836-.296-1.798-.635-2.876-1.014-3.248-1.144-6.878-2.418-10.801-3.79-11.209-3.922-22.516-7.844-33.208-11.503l-2.55-.873c-6.388-2.18-12.33-4.19-17.808-6.02C4.173 69.403.569 64.22.515 58.485c-.266-5.832 3.031-11.234 8.352-13.582C31.751 35.439 64.217 21.927 116.79 0zm120.003 0l-113.53 114.328-4.574 48.038c-.263 2.77-4.172 3.103-4.9.419l-20.99-77.257c-.275-1.01.109-2.084.96-2.691L209.919 0h8.61L98.08 85.897l16.933 62.327 3.357-35.26c.055-.576.308-1.115.715-1.525L229.748 0h7.045z"/>
</svg>
