<svg xmlns="http://www.w3.org/2000/svg" width="732" height="610" viewBox="0 0 732 610">
    <g fill="none" fill-rule="evenodd" stroke="#BA7400" stroke-width="5">
        <g transform="translate(3 -96) translate(158 226)">
            <path d="M65.36 184c45.093 0 86.64-42.068 86.64-82.11C152 61.85 127.173 36 88.667 36 50.16 36 0 73 0 113.041S20.267 184 65.36 184zM48 290.5L219.5 59.348c.317-.46.65-.91 1-1.348 5.101-6.393 13.54-10.5 22.5-10.5 14.5 0 22 9.469 22 23 0 5.457-1.983 10.734-5 15-.227.322-.461.638-.701.948L260 85.5 85.424 321.426c-.11.21-.25.403-.424.574-4.377 4.323-10.54 7.5-17 7.5-13.531 0-25-10.469-25-24 0-5.197 1.816-11.035 5-15z"/>
            <path d="M247.747 187.07C205.293 193.834 170 231.72 170 272.37c0 6.91.693 13.782 2.054 20.469l-42.729 59.706c-.086.167-.194.32-.325.455-3.714 3.833-9.307 6-14.788 6-3.49 0-6.82-.858-9.763-2.39-.997-.519-31.803-18.834-47.401-29.538 3.33 1.56 7.055 2.428 10.952 2.428 6.46 0 12.623-3.177 17-7.5.173-.171.314-.363.424-.574L260 85.5l-.701.948c.24-.31.474-.626.701-.948 3.017-4.266 5-9.543 5-15 0-2.182-.195-4.259-.583-6.207 5.432 19.019 16.39 50 18.54 57.162.694 2.309 1.043 4.87 1.043 7.623 0 4.764-1.414 9.198-4 12.922-.124.179-.25.356-.38.531l-31.873 44.538zM71.5 132c14.833 0 28.5-13.644 28.5-26.63C100 92.384 91.833 84 79.167 84 66.5 84 50 96 50 108.986 50 121.973 56.667 132 71.5 132z"/>
            <path d="M251.1 362c51.9 1.5 96.9-41 96.9-89.986C348 223.027 309.333 186 261.167 186 213 186 170 227.5 170 272.37c0 44.87 29.2 88.13 81.1 89.63z"/>
            <path d="M188.934 330.741c13.791 18.094 34.83 30.469 62.166 31.259 51.9 1.5 96.9-41 96.9-89.986 0-6.606-.703-12.994-2.038-19.104 5.737 18.782 12.424 43.574 13.487 52.282.364 2.977.551 6.021.551 9.122 0 41.184-38.427 76.915-82.746 75.654-15.869-.452-29.252-5.405-39.896-13.309C228.088 369.774 208 353 191.5 334c-1.048-1.207-1.896-2.288-2.566-3.259z"/>
            <path d="M254.426 302.007C271.337 302.5 286 288.498 286 272.358s-12.6-28.339-28.294-28.339c-15.695 0-29.706 13.673-29.706 28.457 0 14.783 9.515 29.036 26.426 29.53z"/>
            <path d="M254.05 301.993c-16.676-.692-26.05-14.843-26.05-29.517 0-14.784 14.011-28.457 29.706-28.457S286 256.22 286 272.36c0 4.24-1.012 8.332-2.81 12.053-1.483-.271-3.015-.412-4.581-.412-11.165 0-21.342 8.026-24.558 17.993zM23.815 171.307C34.103 179.345 47.862 184 65.36 184c45.093 0 86.64-42.068 86.64-82.11 0-11.561-2.07-21.94-5.941-30.854 9.721 17.098 23.853 42.545 27.93 49.652L97.717 223.49c-11.533-1.352-20.85-5.333-28.087-11.31-1.475-1.219-27.206-22.727-45.815-40.873z"/>
            <circle cx="162" cy="10" r="10"/>
            <circle cx="172" cy="402" r="10"/>
        </g>
        <g opacity=".8" transform="translate(3 -96) translate(354.5 181.95)">
            <path d="M298.5 328.05c41.421 0 81.5-40.08 81.5-81.5 0-41.422-24-72-67.5-73.5s-88.5 31.5-88.5 80 33.079 75 74.5 75z"/>
            <path d="M353.178 186.193c-10.62-7.87-24.26-12.578-40.678-13.144-43.5-1.5-88.5 31.5-88.5 80 0 17.987 4.55 32.949 12.388 44.654-12.16-15.203-32.279-55.528-33.279-57.61-.993-2.07-1.884-4.23-2.666-6.482l48.649-90.928c7.793-2.301 15.924-3.394 23.995-3.116 14.22.49 26.033 4.566 35.227 11.378 1.054.781 25.686 20.604 44.686 35.104.063.048.122.096.178.144z"/>
            <path d="M302.31 278c14.074 0 27.69-13.7 27.69-27.859 0-14.159-8.154-24.611-22.933-25.124-14.779-.513-30.067 10.767-30.067 27.346S288.238 278 302.31 278zM155.495 317.73c-1.943-7.032-4.045-14.262-6.033-20.77-3.372-15.435-10.775-29.09-21.057-39.972L245 38.049c5.088-7.665 14.384-13 24-13 14.636 0 25.5 11.865 25.5 26.5 0 5.635-1.759 10.859-4.757 15.153l-133.065 248.71c-.357.794-.752 1.568-1.183 2.318z"/>
            <path d="M125.097 186.102c30.332-13.89 51.403-44.51 51.403-80.053 0-5.036-.423-9.973-1.236-14.778l36.603-69.19h0c3.503-9.318 13.265-16.032 23.754-16.032 4.28 0 8.2 1.118 11.541 3.074.317.185 15.838 8.926 34.838 19.426l-.002.047C289.62 33.178 294.5 41.74 294.5 51.549c0 5.635-1.759 10.859-4.757 15.153l-133.065 248.71c-.357.794-.752 1.568-1.183 2.318-1.943-7.032-4.045-14.262-6.033-20.77-6.1-27.921-25.392-50.016-51.049-60.417l26.684-50.441zM.506 104.996c-.004-.314-.006-.63-.006-.947 0-4.337 1.373-38.586 2.089-42.718C8.619 26.52 38.968.049 75.5.049c10.963 0 21.369 2.384 30.728 6.662C119.488 12.77 134 26.549 152 45.049l.014.09C135.998 28.444 113.463 18.05 88.5 18.05c-48.25 0-87.43 38.83-87.994 86.947z"/>
            <path d="M67.917 108.342C65.899 98.21 58.662 91.55 46.5 91.55c-8.96 0-17.399 4.107-22.5 10.5-.35.438-.683.888-1 1.348L3.652 129.475C1.598 122.016.5 114.16.5 106.049c0-48.6 39.399-88 88-88s88 39.4 88 88c0 48.601-39.399 88-88 88-3.484 0-6.92-.202-10.298-.596l4.918-6.873c.13-.175.256-.352.38-.53 2.586-3.725 4-8.16 4-12.923 0-2.753-.35-5.314-1.043-7.622-2.15-7.164-13.108-38.144-18.54-57.163z"/>
            <path d="M68.5 114.55c0-2.183-.195-4.26-.583-6.208.388 1.948.583 4.025.583 6.207zm-.583-6.208c-.96-4.818-3.1-8.85-6.387-11.756C65.933 85.158 77.02 77.05 90 77.05c16.845 0 30.5 13.655 30.5 30.5s-13.655 30.5-30.5 30.5c-4.959 0-9.641-1.183-13.78-3.283z"/>
            <circle cx="244.5" cy="421.5" r="13.5"/>
        </g>
        <g opacity=".6" transform="translate(3 -96) translate(370.416 .139)">
            <path d="M376.084 301.861c34.242 0 13.5-15.5 13.5-61s-58-71.5-71.5-71.5-23 2-23 33 46.758 99.5 81 99.5z"/>
            <circle cx="323.084" cy="106.361" r="13.5"/>
            <path d="M361.534 259.861c12.239 0 4.825-5.615 4.825-22.098 0-16.483-20.73-25.902-25.555-25.902-4.825 0-8.22.725-8.22 11.955s16.712 36.045 28.95 36.045zM271.322 214.623c4.546 4.795 7.262 11.42 7.262 18.738 0 2.818-.44 5.532-1.254 8.08.814-2.548 1.254-5.262 1.254-8.08 0-9.808-4.879-18.371-12.502-22.953l.002-.047c-12.044-6.656-22.69-12.605-28.952-16.116l-3.048-120.384 35.5-1 13.855 211.785c.096.775.145 1.517.145 2.215 0 9.5-.5 18.5-15.5 18.5-6.617 0-13.888-4.74-19-10.5 3.687-6.76 6.619-12.009 9.26-16.791l-.278-.097 15.761-29.459c2.998-4.294 4.757-9.518 4.757-15.153 0-7.318-2.716-13.943-7.262-18.738zM303.084 172.861l-25.5 22.5M318.584 353.361l46.5-29.5M278.584 302.861l-24.5 19M149.584 211.861l-1 31.5M133.981 224.706c-17.034-17.414-30.929-30.36-43.67-36.183-9.358-4.278-19.764-6.662-30.727-6.662-15.362 0-29.631 4.681-41.458 12.695-19.497-26.995-24.21-56.44-9.498-71.676 3.782-3.916 41.994-50.534 47.456-52.019 7.373-2.005 16.057-1.387 25.32 1.347 4.841 18.052 17.39 38.59 36.04 56.601 34.589 33.402 77.134 45.525 95.32 27.25-.34.434-.734.868-1.18 1.302-14.909 14.506-57.187 49.558-77.603 67.345z"/>
            <ellipse cx="150.093" cy="95" rx="87.5" ry="47" transform="rotate(44 150.093 95)"/>
            <ellipse cx="154.131" cy="92.014" rx="33" ry="17" transform="rotate(44 154.131 92.014)"/>
        </g>
        <g opacity=".4" transform="translate(3 -96) translate(0 58.96)">
            <ellipse cx="133.598" cy="54" rx="35.5" ry="76" transform="rotate(75 133.598 54)"/>
            <path d="M388.542 135.734c-10.389 7.04-18.893 16.65-24.6 27.917-11.315 5.262-24.314 9.385-38.375 11.864-50.038 8.824-94.567-6.51-99.458-34.25-4.891-27.738 31.708-57.377 81.746-66.2 23.72-4.182 46.202-2.937 63.81 2.486-4.142 16.006 2.15 37.793 16.877 58.183z"/>
            <path d="M241.14 203.283C203.533 206.541 158 241.93 158 280.08c0 5.592.395 11.006 1.198 16.182-11.443 1.637-21.826-2.185-25.198-8.223-.128-.228-.21-.469-.267-.718L92.5 176.54l.198-.145c-1.031-1.32-1.723-2.798-2.006-4.408-.73-4.139 1.371-8.38 5.373-11.921l-.065-.026L264.396 17.97c2.815-5.57 11.27-10.648 21.875-12.518 13.87-2.445 26.162 1.525 27.457 8.867l.023.136 1.249-.916 8.793 59.5c-5.22.405-10.547 1.075-15.938 2.026-50.038 8.823-86.637 38.462-81.746 66.2.227 1.289.54 2.55.934 3.783l-.043-.009 13.5 58 .64.244z"/>
            <path d="M96.065 160.065l-.065-.026L264.396 17.97c2.815-5.57 11.27-10.648 21.875-12.518 13.87-2.445 26.162 1.525 27.457 8.867.741 4.205-2.284 8.603-7.61 12.054L138.443 172.967c-4.01 4.554-11.046 8.286-19.455 9.769-14.141 2.493-26.81-2.32-28.296-10.75-.73-4.139 1.371-8.38 5.373-11.921z"/>
            <ellipse cx="316.624" cy="121.496" rx="18" ry="33" transform="rotate(80 316.624 121.496)"/>
            <ellipse cx="133.445" cy="51.585" rx="13" ry="27" transform="rotate(75 133.445 51.585)"/>
            <path d="M62 78.04l33 83M207 34.04l6 27M227 145.04l13.5 58"/>
            <circle cx="10" cy="42.039" r="10"/>
        </g>
        <g opacity=".4" transform="translate(3 -96) translate(509.962 446.562)">
            <path d="M84.19 41.793c.416-.723.865-1.508 1.348-2.355l.903.77c3.993 4.467 8.554 8.312 13.58 11.515l-49.04 85.58c-18.659 2.623-36.957-1.796-50.34-12.733 4.376-8.792 6.982-18.4 7.351-28.367l2.933-5.482 3.969-.62c9.675-.617 19.576-3.137 29.056-7.635l.088-.028.56-.282c3.575-1.735 7.089-3.752 10.505-6.056.375-.253.747-.509 1.117-.767.929-.61 1.868-1.242 2.818-1.895 1.134-.78 2.328-1.816 3.538-2.993 9.674-8.19 16.978-18.1 21.614-28.652zM28.26.253c4.474 1.18 8.371 3.737 10.973 7.595 6.485 9.615 2.464 23.668-8.983 31.39-7.923 5.343-17.326 6.253-24.516 3.118L28.26.253z"/>
            <ellipse cx="212.234" cy="141.67" rx="77" ry="75.5" transform="rotate(56 212.234 141.67)"/>
            <path d="M140.71 166.21c2.165 6.106 5.134 12.048 8.932 17.679 23.78 35.256 71.081 44.934 105.65 21.617 12.87-8.68 22.16-20.71 27.525-34.212 7.098 26.873-3.184 56.545-27.683 73.07-30.906 20.846-72.734 12.877-93.426-17.8-4.433-6.572-7.536-13.652-9.372-20.927-1.754-6.95-7.73-25.066-11.627-39.428z"/>
            <circle cx="212.234" cy="139.67" r="25" transform="rotate(56 212.234 139.67)"/>
            <path d="M187.666 68.788c-6.411 2.093-12.633 5.096-18.49 9.046-26.7 18.009-37.994 50.433-30.797 80.506l-46.984 85.368c-.065.18-.157.352-.282.512-3.307 4.268-9.31 8.437-14.88 9.12-6.769.832-13.602-1.462-18.195-5.902-.716-.693-1.372-1.439-1.966-2.233L28.847 214.29c-4.694-3.38-8.01-8.615-8.668-14.883-.482-4.583.546-9.895 2.93-13.68.249-.397.512-.783.789-1.158L100.02 51.723c12.118 7.722 26.939 11.715 43.017 11.715 31.459 0 62.143-23.118 75.083-52.385-.327 2.061-.954 4.043-1.954 5.95-.134.256-.274.51-.419.76l-28.082 51.025zm28.5-51.785l-.418.76.419-.76z"/>
            <path d="M95.85 145.23c-2-1.17-4.328-1.841-6.812-1.841-7.456 0-13.5 6.044-13.5 13.5 0 5.05 2.773 9.453 6.88 11.768l-23.09 40.274c-.067.18-.163.349-.29.507-3.381 4.209-9.456 8.273-15.037 8.86-11.69 1.228-22.568-6.962-23.822-18.892-.482-4.583.546-9.895 2.93-13.68.249-.397.512-.783.789-1.158L100.02 51.723c12.044 7.675 26.759 11.666 42.724 11.714L95.85 145.231z"/>
        </g>
    </g>
</svg>
