<svg xmlns="http://www.w3.org/2000/svg" width="132" height="188" viewBox="0 0 132 188">
    <g fill="none" fill-rule="evenodd" stroke="#BA7400" stroke-width="2.813">
        <g transform="translate(-65 -172) translate(88.923 126.984)">
            <path d="M36.785 103.385c25.378 0 48.76-23.637 48.76-46.135 0-22.498-13.972-37.022-35.643-37.022C28.23 20.228 0 41.018 0 63.515c0 22.498 11.406 39.87 36.785 39.87zM27.014 163.225l96.52-129.879c.18-.258.367-.51.564-.757 2.87-3.592 7.62-5.9 12.663-5.9 8.16 0 12.382 5.32 12.382 12.923 0 3.066-1.117 6.031-2.814 8.429-.128.18-.26.358-.395.532l.395-.532-98.252 132.561c-.062.118-.141.226-.239.323-2.463 2.429-5.932 4.214-9.567 4.214-7.616 0-14.07-5.883-14.07-13.485 0-2.92 1.021-6.2 2.813-8.429z"/>
            <path d="M139.432 105.11c-23.893 3.802-43.756 25.088-43.756 47.929 0 3.882.39 7.743 1.156 11.5l-24.047 33.548c-.05.094-.11.18-.184.256-2.09 2.153-5.238 3.371-8.322 3.371-1.965 0-3.838-.482-5.495-1.343-.561-.291-17.899-10.582-26.677-16.596 1.874.876 3.97 1.364 6.164 1.364 3.635 0 7.104-1.785 9.567-4.214.098-.097.177-.205.239-.323l98.252-132.561-.395.532c.135-.174.267-.352.395-.532 1.697-2.398 2.814-5.363 2.814-8.429 0-1.226-.11-2.393-.329-3.487 3.058 10.686 9.224 28.093 10.435 32.118.39 1.297.587 2.736.587 4.283 0 2.677-.796 5.168-2.251 7.26-.07.101-.142.2-.214.299l-17.939 25.025zM40.24 74.168c8.349 0 16.04-7.666 16.04-14.963 0-7.297-4.596-12.007-11.725-12.007S28.14 53.94 28.14 61.237s3.752 12.93 12.1 12.93z"/>
            <path d="M141.32 203.4c29.209.843 54.535-23.037 54.535-50.562 0-27.524-21.762-48.329-48.87-48.329-27.108 0-51.309 23.318-51.309 48.53 0 25.21 16.434 49.518 45.644 50.36z"/>
            <path d="M106.332 185.836c7.762 10.166 19.603 17.12 34.988 17.564 29.209.843 54.535-23.037 54.535-50.562 0-3.711-.396-7.3-1.147-10.733 3.229 10.553 6.992 24.483 7.59 29.375.205 1.673.31 3.384.31 5.126 0 23.14-21.626 43.217-46.569 42.508-8.93-.254-16.463-3.036-22.453-7.478-5.218-3.868-16.523-13.293-25.81-23.969-.59-.678-1.067-1.286-1.444-1.831zM13.403 96.254c5.79 4.516 13.534 7.131 23.382 7.131 25.378 0 48.76-23.637 48.76-46.135 0-6.496-1.164-12.328-3.343-17.337 5.471 9.608 13.425 23.906 15.72 27.899l-42.926 57.762c-6.491-.76-11.736-2.997-15.808-6.355-.83-.685-15.311-12.77-25.785-22.965z"/>
            <ellipse cx="96.802" cy="225.875" rx="5.628" ry="5.619"/>
        </g>
        <path d="M135.714 147.349c-21.165 1.83-46.791 21.715-46.791 43.15 0 3.142.222 6.184.674 9.093-6.44.92-12.284-1.228-14.182-4.62-.071-.129-.118-.264-.15-.404l-23.206-62.246.112-.082c-.58-.741-.97-1.572-1.13-2.476-.41-2.326.772-4.709 3.025-6.698l-.037-.015 94.774-79.825c1.584-3.13 6.343-5.983 12.31-7.034 7.807-1.374 14.725.857 15.454 4.982l.012.076.704-.514 4.948 33.432c-2.938.227-5.936.604-8.97 1.138-28.161 4.958-48.76 21.611-46.006 37.197.127.723.303 1.432.525 2.125l-.024-.005 7.598 32.589.36.137z" opacity=".4" transform="translate(-65 -172)"/>
    </g>
</svg>
