<svg xmlns="http://www.w3.org/2000/svg" width="415" height="431" viewBox="0 0 415 431">
    <g fill="none" fill-rule="evenodd" stroke="#BA7400" stroke-width="3.75">
        <g transform="translate(2 -78) translate(118.5 169.42)">
            <path d="M49.02 137.935c33.82 0 64.98-31.537 64.98-61.553 0-30.017-18.62-49.395-47.5-49.395S0 54.724 0 84.741c0 30.016 15.2 53.194 49.02 53.194zM36 217.772L164.625 44.49c.237-.345.488-.682.75-1.01 3.826-4.793 10.155-7.872 16.875-7.872 10.875 0 16.5 7.099 16.5 17.242 0 4.09-1.488 8.046-3.75 11.245-.17.24-.346.478-.526.71l.526-.71-130.932 176.86c-.083.158-.188.302-.318.43-3.283 3.241-7.905 5.623-12.75 5.623-10.148 0-18.75-7.848-18.75-17.992 0-3.896 1.362-8.272 3.75-11.244z"/>
            <path d="M185.81 140.235c-31.84 5.072-58.31 33.472-58.31 63.946 0 5.18.52 10.331 1.54 15.344l-32.046 44.759c-.065.125-.146.239-.244.34-2.785 2.874-6.98 4.498-11.09 4.498-2.619 0-5.116-.643-7.323-1.791-.748-.39-23.853-14.12-35.551-22.143 2.497 1.169 5.292 1.82 8.214 1.82 4.845 0 9.467-2.382 12.75-5.623.13-.128.235-.272.318-.43L195 64.096l-.526.71c.18-.232.355-.47.526-.71 2.262-3.199 3.75-7.154 3.75-11.245 0-1.636-.146-3.193-.437-4.653 4.074 14.257 12.292 37.481 13.905 42.851.52 1.73.782 3.65.782 5.715 0 3.57-1.06 6.895-3 9.687-.093.134-.188.266-.285.398l-23.905 33.387zM53.625 98.953C64.75 98.953 75 88.725 75 78.99c0-9.735-6.125-16.02-15.625-16.02S37.5 71.966 37.5 81.701c0 9.735 5 17.252 16.125 17.252z"/>
            <path d="M188.325 271.371C227.25 272.496 261 240.636 261 203.914c0-36.723-29-64.48-65.125-64.48S127.5 170.544 127.5 204.18c0 33.636 21.9 66.066 60.825 67.19z"/>
            <path d="M141.7 247.938c10.344 13.564 26.123 22.841 46.625 23.433C227.25 272.496 261 240.636 261 203.914c0-4.952-.527-9.741-1.528-14.321 4.302 14.08 9.317 32.665 10.115 39.192.273 2.232.413 4.514.413 6.839 0 30.873-28.82 57.658-62.06 56.713-11.901-.338-21.939-4.051-29.921-9.977-6.954-5.16-22.019-17.736-34.394-31.979-.786-.905-1.422-1.715-1.925-2.443z"/>
            <path d="M190.82 226.398c12.683.37 23.68-10.127 23.68-22.226 0-12.099-9.45-21.244-21.22-21.244-11.772 0-22.28 10.25-22.28 21.332s7.136 21.767 19.82 22.138z"/>
            <path d="M190.538 226.388C178.03 225.868 171 215.26 171 204.26c0-11.082 10.508-21.332 22.28-21.332 11.77 0 21.22 9.145 21.22 21.244 0 3.179-.759 6.247-2.108 9.036-1.112-.203-2.26-.309-3.436-.309-8.373 0-16.005 6.017-18.418 13.489zM17.861 128.42c7.716 6.025 18.036 9.515 31.159 9.515 33.82 0 64.98-31.537 64.98-61.553 0-8.668-1.552-16.448-4.456-23.13 7.291 12.817 17.89 31.893 20.948 37.221l-57.204 77.065c-8.65-1.013-15.638-3.998-21.066-8.479-1.106-.913-20.404-17.037-34.361-30.64z"/>
            <ellipse cx="121.5" cy="7.496" rx="7.5" ry="7.496"/>
            <ellipse cx="129" cy="301.357" rx="7.5" ry="7.496"/>
        </g>
        <g opacity=".8">
            <path d="M116.62 238.185c-1.456-5.272-3.032-10.692-4.523-15.571-2.53-11.57-8.082-21.806-15.793-29.964L183.75 28.523c3.816-5.746 10.788-9.745 18-9.745 10.977 0 19.125 8.894 19.125 19.866 0 4.224-1.319 8.14-3.568 11.359L117.51 236.447c-.268.595-.565 1.175-.888 1.738z" transform="translate(2 -78) translate(265.875 136.398)"/>
            <path d="M93.823 139.51c22.749-10.412 38.552-33.367 38.552-60.01 0-3.776-.317-7.477-.927-11.08l27.453-51.868h0c2.627-6.984 9.948-12.017 17.815-12.017 3.21 0 6.15.838 8.656 2.304.237.139 11.878 6.691 26.128 14.563l-.002.035c5.718 3.435 9.377 9.854 9.377 17.207 0 4.224-1.319 8.14-3.568 11.359L117.51 236.447c-.268.595-.565 1.175-.888 1.738-1.457-5.272-3.033-10.692-4.524-15.571-4.575-20.93-19.044-37.494-38.287-45.291l20.013-37.813zM.38 78.71c-.003-.235-.005-.472-.005-.71 0-3.251 1.03-28.926 1.567-32.024C6.464 19.882 29.226.036 56.625.036c8.222 0 16.027 1.788 23.046 4.995C89.616 9.574 100.5 19.902 114 33.77l.01.068C102 21.322 85.098 13.53 66.376 13.53 30.188 13.53.803 42.64.38 78.71z" transform="translate(2 -78) translate(265.875 136.398)"/>
            <path d="M50.938 81.218c-1.514-7.595-6.942-12.589-16.063-12.589-6.72 0-13.05 3.08-16.875 7.872-.262.328-.513.665-.75 1.01L2.74 97.06C1.197 91.469.374 85.58.374 79.5c0-36.434 29.55-65.97 66-65.97s66 29.536 66 65.97c0 36.433-29.55 65.968-66 65.968-2.613 0-5.19-.152-7.724-.447l3.689-5.152c.097-.132.192-.264.285-.398 1.94-2.792 3-6.116 3-9.687 0-2.064-.262-3.984-.782-5.714-1.613-5.37-9.83-28.595-13.905-42.852z" transform="translate(2 -78) translate(265.875 136.398)"/>
            <path d="M51.375 85.871c0-1.636-.146-3.192-.437-4.653.29 1.46.437 3.017.437 4.653zm-.437-4.653c-.72-3.612-2.325-6.635-4.79-8.813C49.45 63.838 57.764 57.76 67.5 57.76c12.634 0 22.875 10.237 22.875 22.865 0 12.627-10.241 22.864-22.875 22.864-3.719 0-7.23-.887-10.335-2.461z" transform="translate(2 -78) translate(265.875 136.398)"/>
        </g>
        <g opacity=".6" transform="translate(2 -78) translate(277.812 .104)">
            <path d="M203.492 160.89c3.409 3.596 5.446 8.562 5.446 14.048 0 2.112-.33 4.147-.94 6.056.61-1.909.94-3.944.94-6.056 0-7.352-3.66-13.772-9.377-17.207l.002-.035c-9.033-4.99-17.018-9.45-21.714-12.081l-2.286-90.245 26.625-.75 10.391 158.763c.072.581.109 1.137.109 1.66 0 7.123-.375 13.87-11.625 13.87-4.963 0-10.416-3.555-14.25-7.872 2.765-5.067 4.964-9.002 6.945-12.588l-.208-.072 11.82-22.084c2.25-3.219 3.568-7.135 3.568-11.36 0-5.485-2.037-10.451-5.446-14.046zM112.188 158.82l-.75 23.614M100.486 168.45c-12.776-13.055-23.197-22.76-32.752-27.125-7.02-3.207-14.824-4.994-23.046-4.994-11.522 0-22.223 3.51-31.094 9.517-14.623-20.237-18.157-42.31-7.123-53.732 2.836-2.935 31.495-37.882 35.592-38.995 5.53-1.503 12.043-1.04 18.99 1.009 3.631 13.533 13.042 28.93 27.03 42.43 25.942 25.04 57.85 34.129 71.49 20.429-.256.325-.55.65-.885.976-11.182 10.874-42.89 37.15-58.202 50.484z"/>
            <ellipse cx="112.57" cy="71.216" rx="65.61" ry="35.241" transform="rotate(44 112.57 71.216)"/>
            <ellipse cx="115.599" cy="68.978" rx="24.744" ry="12.747" transform="rotate(44 115.599 68.978)"/>
        </g>
        <g opacity=".4" transform="translate(2 -78) translate(0 44.2)">
            <ellipse cx="100.199" cy="40.481" rx="26.613" ry="56.998" transform="rotate(75 100.199 40.48)"/>
            <path d="M291.406 101.752c-7.791 5.277-14.17 12.482-18.45 20.928-8.486 3.945-18.235 7.036-28.78 8.894-37.53 6.614-70.926-4.88-74.594-25.675-3.669-20.794 23.78-43.013 61.31-49.627 17.79-3.135 34.65-2.201 47.857 1.863-3.106 12 1.613 28.332 12.657 43.617z"/>
            <path d="M180.855 152.39c-28.205 2.442-62.355 28.972-62.355 57.57 0 4.192.296 8.25.899 12.131-8.583 1.228-16.37-1.638-18.899-6.164-.096-.171-.158-.352-.2-.538l-30.925-83.047.149-.11c-.774-.989-1.292-2.097-1.505-3.303-.548-3.103 1.028-6.283 4.03-8.937l-.049-.02 126.297-106.5c2.111-4.176 8.453-7.983 16.406-9.385 10.402-1.833 19.622 1.143 20.593 6.647l.017.102.937-.686 6.595 44.604c-3.915.303-7.91.806-11.954 1.518-37.528 6.614-64.978 28.833-61.31 49.627.171.966.405 1.91.701 2.835l-.032-.006 10.125 43.48.48.182z"/>
            <path d="M72.049 119.992l-.049-.02 126.297-106.5c2.111-4.176 8.453-7.983 16.406-9.385 10.402-1.833 19.622 1.143 20.593 6.647.556 3.152-1.713 6.45-5.707 9.037L103.832 129.664c-3.008 3.414-8.285 6.212-14.59 7.323-10.607 1.87-20.108-1.739-21.223-8.058-.548-3.103 1.028-6.283 4.03-8.937z"/>
            <ellipse cx="237.468" cy="91.079" rx="13.494" ry="24.75" transform="rotate(80 237.468 91.079)"/>
            <ellipse cx="100.083" cy="38.67" rx="9.746" ry="20.249" transform="rotate(75 100.083 38.67)"/>
            <path d="M46.5 58.502l24.75 62.22M155.25 25.517l4.5 20.24M170.25 108.728l10.125 43.48"/>
            <ellipse cx="7.5" cy="31.515" rx="7.5" ry="7.496"/>
        </g>
        <g opacity=".4">
            <path d="M63.143 31.33c.311-.542.648-1.13 1.01-1.766l.678.577c2.995 3.35 6.416 6.232 10.186 8.633L38.235 102.93c-13.994 1.966-27.717-1.347-37.754-9.546 3.281-6.59 5.237-13.793 5.513-21.265l2.2-4.11 2.977-.464c7.256-.463 14.682-2.352 21.791-5.724l.066-.021c.14-.07.28-.14.42-.212 2.682-1.3 5.317-2.812 7.879-4.54.281-.189.56-.38.838-.574.697-.458 1.401-.931 2.113-1.42.85-.585 1.747-1.362 2.654-2.244 7.256-6.14 12.734-13.568 16.21-21.479zM21.195.19c3.355.885 6.278 2.801 8.23 5.693 4.864 7.208 1.847 17.743-6.738 23.53-5.942 4.007-12.994 4.689-18.386 2.339L21.195.189z" transform="translate(2 -78) translate(382.472 334.763)"/>
            <path d="M140.75 51.567c-4.809 1.568-9.475 3.82-13.868 6.78-20.024 13.5-28.495 37.806-23.098 60.35l-35.243 64c-.048.135-.118.264-.211.384-2.48 3.2-6.983 6.325-11.16 6.838-5.077.623-10.202-1.096-13.647-4.425-.556-.537-1.063-1.117-1.52-1.736l-20.352-23.1c-3.531-2.533-6.026-6.463-6.52-11.171-.362-3.436.409-7.418 2.197-10.256.187-.297.385-.586.592-.867l57.097-99.59c9.088 5.789 20.203 8.782 32.261 8.782 23.599 0 46.616-17.337 56.319-39.282-.245 1.547-.716 3.036-1.468 4.468-.1.192-.205.382-.314.57L140.75 51.568zm21.38-38.825l-.315.57.314-.57z" transform="translate(2 -78) translate(382.472 334.763)"/>
            <path d="M71.886 108.87c-1.5-.877-3.245-1.38-5.108-1.38-5.591 0-10.125 4.531-10.125 10.12 0 3.786 2.08 7.086 5.16 8.822l-17.321 30.194c-.051.135-.123.261-.218.38-2.536 3.156-7.092 6.202-11.278 6.642-8.767.922-16.926-5.217-17.866-14.161-.36-3.436.41-7.418 2.198-10.256.187-.297.385-.586.592-.867l57.097-99.59c9.033 5.754 20.068 8.745 32.041 8.781l-35.172 61.316z" transform="translate(2 -78) translate(382.472 334.763)"/>
        </g>
    </g>
</svg>
