<svg xmlns="http://www.w3.org/2000/svg" width="785" height="418" viewBox="0 0 785 418">
    <g fill="none" fill-rule="evenodd" stroke="#BA7400">
        <g stroke-linejoin="round" stroke-width="6" opacity=".6">
            <path d="M7.567 178.105C37.01 138.634 77.93 92.169 144.803 11.729c15.51-15.266 30.441-13.99 42.418-5.496 11.977 8.493 18.964 18.486 0 41.469-12.642 15.322-46.91 58.79-102.802 130.403l48.906 9.492c4.325-18.32 7.652-33.641 9.98-45.965 3.494-18.486 7.985-19.985 14.972-22.483 6.986-2.499 27.946-1 36.43 5.995 8.483 6.995 7.984 17.487 3.493 39.47-2.994 14.656-5.157 26.148-6.488 34.475 10.647 1.998 20.794 3.997 30.442 5.995 14.472 2.998 14.472 20.485 13.474 28.48-.998 7.993-3.493 27.479-22.457 25.98-12.642-1-22.956-2.165-30.94-3.498-3.993 23.316-7.153 40.47-9.482 51.462-3.493 16.488-14.971 21.984-35.931 18.486-20.96-3.497-25.95-20.984-23.954-31.476 1.33-6.995 4.325-22.484 8.983-46.466C58.75 235.56 23.65 228.065 16.549 225.57 5.896 221.825.895 214.007.081 202.586c-.512-7.179 1.331-16.231 7.486-24.481z" transform="translate(3 3) translate(0 72)"/>
            <path d="M149.911 327.493c12.671-.667 20.01-6.85 22.685-19.44 2.335-10.995 5.506-28.156 9.51-51.481 8.009 1.332 18.353 2.499 31.033 3.498 19.02 1.5 21.524-17.993 22.525-25.99 1-7.998 1-25.492-13.515-28.49-9.677-2-19.855-4-30.533-5.999 1.335-8.33 3.504-19.826 6.507-34.488 4.505-21.992 5.006-32.489-3.504-39.486-.624-.514-1.316-.998-2.065-1.453 11.928 3.986 37.225 11.642 40.054 12.363 4.219 1.076 8.06 2.653 10.647 4.783 7.845 6.458 7.384 16.144 3.23 36.44-2.769 13.53-4.768 24.14-5.999 31.828 9.845 1.845 19.228 3.69 28.15 5.535 1.223.253 2.335.618 3.344 1.077l-1.78 2.395c-3.187 3.963-5.004 9.799-5.004 14.994 0 9.134 5.234 16.871 12.804 20.934-2.673 6.212-7.72 11.664-17.67 10.879-11.691-.923-21.228-2-28.612-3.23-3.692 21.527-6.614 37.364-8.768 47.511-2.708 12.76-10.603 18.39-24.503 17.975-2.374-.071-30.996.688-48.3.17-.079-.002-.157-.113-.236-.325zM189.297 8.269c.216-.201.353-.291.407-.264 18.616 9.397 22.252 10.783 34.447 16.646 0 5.499-2.693 10.562-2.002 18.494 1.001 11.496 1.001 10.496 3.003 22.492-10.443 17.382-20.393 32.296-36.722 56.51-9.967-3.96-24.705-4.541-30.35-2.528-7.008 2.499-11.512 3.998-15.016 22.492-2.336 12.33-5.673 27.657-10.011 45.984L84 178.598c56.06-71.642 90.43-115.127 103.111-130.455 17.834-21.557 12.787-31.69 2.186-39.874z" transform="translate(3 3) translate(0 72)"/>
        </g>
        <g stroke-linejoin="round" stroke-width="6" opacity=".6">
            <path d="M67.155 233.146c17.614 3.77 42.503 8.84 74.667 15.209-4.657 23.982-7.651 39.47-8.982 46.465-1.857 9.76 2.33 25.57 19.792 30.546-15.555-4.019-62.498-19.909-84.392-26.878 3.881-8.725 6.038-18.176 6.038-27.933 0-3.1-.188-6.144-.551-9.122-.639-5.226-3.303-16.248-6.572-28.287zM34.98 168.601c-9.567-9.507-21.416-16.716-34.702-20.902C25.45 116.662 58.482 78.464 104.96 22.706c8.192-8.04 10.683-9.982 26.005-12.336 9.129-1.402 30.183-5.309 46.738-7.514-4.227 1.883-8.553 4.872-12.926 9.175C103.358 85.914 63.83 131.135 34.98 168.601zM196.55 1.319c1.711.076 2.923.301 3.503.711.392.278.713.586.969.925-1.46-.662-2.95-1.212-4.472-1.636zm-48.07 120.72c7.47-.538 18.216-1.7 30.009-2.67-.08.027-.16.054-.237.082-6.986 2.498-11.478 3.997-14.97 22.483-2.33 12.324-5.657 27.646-9.982 45.966l-48.906-9.493c16.604-21.273 31.299-40.063 44.085-56.368z" transform="translate(3 3) rotate(4 -381.558 7554.936)"/>
            <path d="M34.98 168.6c28.85-37.465 68.378-82.686 129.798-156.569 15.511-15.265 30.442-13.99 42.419-5.496 11.977 8.494 18.963 18.486 0 41.47-12.643 15.321-46.91 58.789-102.803 130.402L153.3 187.9c4.325-18.32 7.652-33.642 9.981-45.966 3.493-18.486 7.985-19.985 14.971-22.483 6.987-2.498 27.947-1 36.43 5.995 8.484 6.995 7.985 17.487 3.494 39.471-2.995 14.656-5.157 26.147-6.488 34.474 10.646 1.999 20.793 3.997 30.442 5.996 14.472 2.998 14.472 20.485 13.474 28.479-.998 7.994-3.494 27.48-22.457 25.98-12.643-1-22.956-2.165-30.94-3.497-3.993 23.316-7.154 40.47-9.482 51.461-3.494 16.488-14.972 21.984-35.931 18.487-20.96-3.498-25.95-20.985-23.954-31.477 1.33-6.995 4.325-22.483 8.982-46.465-38.18-7.768-63.177-12.925-74.99-15.47-3.17-9.607-5.977-17.816-8.691-21.234-3.435-16.836-11.646-31.608-23.162-43.05z" transform="translate(3 3) rotate(4 -381.558 7554.936)"/>
        </g>
        <g stroke-width="5" transform="translate(3 3)">
            <path d="M287.36 184c45.093 0 86.64-42.068 86.64-82.11C374 61.85 349.173 36 310.667 36 272.16 36 222 73 222 113.041S242.267 184 287.36 184zM270 290.5L441.5 59.348c.317-.46.65-.91 1-1.348 5.101-6.393 13.54-10.5 22.5-10.5 14.5 0 22 9.469 22 23 0 5.457-1.983 10.734-5 15-.227.322-.461.638-.701.948L482 85.5 307.424 321.426c-.11.21-.25.403-.424.574-4.377 4.323-10.54 7.5-17 7.5-13.531 0-25-10.469-25-24 0-5.197 1.816-11.035 5-15z"/>
            <path d="M469.747 187.07C427.293 193.834 392 231.72 392 272.37c0 6.91.693 13.782 2.054 20.469l-42.729 59.706c-.086.167-.194.32-.325.455-3.714 3.833-9.307 6-14.788 6-3.49 0-6.82-.858-9.763-2.39-.997-.519-31.803-18.834-47.401-29.538 3.33 1.56 7.055 2.428 10.952 2.428 6.46 0 12.623-3.177 17-7.5.173-.171.314-.363.424-.574L482 85.5l-.701.948c.24-.31.474-.626.701-.948 3.017-4.266 5-9.543 5-15 0-2.182-.195-4.259-.583-6.207 5.432 19.019 16.39 50 18.54 57.162.694 2.309 1.043 4.87 1.043 7.623 0 4.764-1.414 9.198-4 12.922-.124.179-.25.356-.38.531l-31.873 44.538zM293.5 132c14.833 0 28.5-13.644 28.5-26.63C322 92.384 313.833 84 301.167 84 288.5 84 272 96 272 108.986c0 12.987 6.667 23.014 21.5 23.014z"/>
            <path d="M473.1 362c51.9 1.5 96.9-41 96.9-89.986C570 223.027 531.333 186 483.167 186 435 186 392 227.5 392 272.37c0 44.87 29.2 88.13 81.1 89.63z"/>
            <path d="M410.934 330.741c13.791 18.094 34.83 30.469 62.166 31.259 51.9 1.5 96.9-41 96.9-89.986 0-6.606-.703-12.994-2.038-19.104 5.737 18.782 12.424 43.574 13.487 52.282.364 2.977.551 6.021.551 9.122 0 41.184-38.427 76.915-82.746 75.654-15.869-.452-29.252-5.405-39.896-13.309C450.088 369.774 430 353 413.5 334c-1.048-1.207-1.896-2.288-2.566-3.259z"/>
            <path d="M476.426 302.007C493.337 302.5 508 288.498 508 272.358s-12.6-28.339-28.294-28.339c-15.695 0-29.706 13.673-29.706 28.457 0 14.783 9.515 29.036 26.426 29.53z"/>
            <path d="M476.05 301.993c-16.676-.692-26.05-14.843-26.05-29.517 0-14.784 14.011-28.457 29.706-28.457S508 256.22 508 272.36c0 4.24-1.012 8.332-2.81 12.053-1.483-.271-3.015-.412-4.581-.412-11.165 0-21.342 8.026-24.558 17.993zM245.815 171.307C256.103 179.345 269.862 184 287.36 184c45.093 0 86.64-42.068 86.64-82.11 0-11.561-2.07-21.94-5.941-30.854 9.721 17.098 23.853 42.545 27.93 49.652L319.717 223.49c-11.533-1.352-20.85-5.333-28.087-11.31-1.475-1.219-27.206-22.727-45.815-40.873z"/>
            <circle cx="384" cy="10" r="10"/>
            <circle cx="14" cy="129" r="14" opacity=".6"/>
            <circle cx="767" cy="368" r="12" opacity=".6"/>
            <circle cx="394" cy="402" r="10"/>
        </g>
    </g>
</svg>
