<svg xmlns="http://www.w3.org/2000/svg" width="162" height="21" viewBox="0 0 162 21">
    <g fill="none">
        <path fill="#FFB229" d="M66.56 5.054v.488h2.983V8.09h-2.897v8.62h-3.374V8.09h-1.794V5.542h1.794v-.51c0-2.569 1.6-4.246 4.498-4.246.951 0 1.946.19 2.573.615l-.887 2.4c-.367-.255-.843-.404-1.362-.404-.994 0-1.535.531-1.535 1.657zm9.621 1.74c.822-1.103 2.206-1.677 4-1.677v3.058c-.28-.021-.497-.043-.757-.043-1.86 0-3.092.998-3.092 3.185v5.394H72.96V5.287h3.222v1.508zm7.698-3.1c-1.254 0-2.098-.806-2.098-1.847C81.781.807 82.625 0 83.88 0s2.097.764 2.097 1.784c0 1.104-.843 1.91-2.097 1.91zm-1.687 13.017V5.287h3.373v11.424h-3.373zM97.176.956h3.373V16.71h-3.221v-1.317c-.844.998-2.076 1.487-3.633 1.487-3.286 0-5.816-2.294-5.816-5.882 0-3.588 2.53-5.882 5.816-5.882 1.427 0 2.638.446 3.481 1.38V.956zM94.28 14.163c1.665 0 2.962-1.19 2.962-3.164 0-1.975-1.297-3.164-2.962-3.164-1.687 0-2.984 1.19-2.984 3.164 0 1.975 1.297 3.164 2.984 3.164zm14.076-9.046c3.546 0 5.6 1.614 5.6 5.075v6.519h-3.157v-1.423c-.627 1.04-1.837 1.593-3.546 1.593-2.724 0-4.346-1.487-4.346-3.461 0-2.018 1.449-3.419 4.995-3.419h2.681c0-1.423-.865-2.25-2.68-2.25-1.233 0-2.51.403-3.352 1.06l-1.211-2.314c1.275-.891 3.157-1.38 5.016-1.38zm-.26 9.534c1.125 0 2.098-.51 2.487-1.55v-1.168h-2.313c-1.579 0-2.076.574-2.076 1.338 0 .828.713 1.38 1.903 1.38zm16.996-9.364h3.243l-5.254 12.125c-1.124 2.76-2.724 3.588-4.822 3.588-1.189 0-2.486-.382-3.243-1.04l1.232-2.357c.52.446 1.233.722 1.903.722.93 0 1.449-.404 1.903-1.423l.043-.106-5.038-11.509h3.481l3.265 7.75 3.287-7.75z"/>
        <path fill="#999" d="M6.876 5.117c3.265 0 5.795 2.294 5.795 5.882 0 3.588-2.53 5.882-5.795 5.882-1.557 0-2.811-.489-3.654-1.487v1.317H0V.956h3.373v5.541c.865-.934 2.054-1.38 3.503-1.38zm-.584 9.046c1.687 0 2.962-1.19 2.962-3.164 0-1.975-1.275-3.164-2.962-3.164-1.686 0-2.962 1.19-2.962 3.164 0 1.975 1.276 3.164 2.962 3.164zm8.627 2.548V.956h3.374V16.71h-3.374zm11.2-11.594c3.547 0 5.601 1.614 5.601 5.075v6.519h-3.157v-1.423c-.627 1.04-1.838 1.593-3.546 1.593-2.724 0-4.346-1.487-4.346-3.461 0-2.018 1.449-3.419 4.995-3.419h2.68c0-1.423-.864-2.25-2.68-2.25-1.233 0-2.508.403-3.352 1.06l-1.21-2.314c1.275-.891 3.156-1.38 5.016-1.38zm-.259 9.534c1.125 0 2.098-.51 2.487-1.55v-1.168h-2.314c-1.578 0-2.075.574-2.075 1.338 0 .828.713 1.38 1.902 1.38zm14.127 2.112c-3.784 0-6.487-2.441-6.487-5.881C33.5 7.442 36.203 5 39.987 5c2.443 0 4.367 1.04 5.21 2.909l-2.616 1.38c-.627-1.083-1.556-1.571-2.616-1.571-1.708 0-3.049 1.168-3.049 3.164 0 1.996 1.34 3.164 3.05 3.164 1.059 0 1.988-.468 2.615-1.572l2.617 1.402c-.844 1.826-2.768 2.887-5.211 2.887zm16.274-.052l-3.675-4.48-1.622 1.57v2.91h-3.373V.956h3.373v8.918l4.93-4.587h4.022l-4.844 4.841 5.276 6.583h-4.087z"/>
        <g fill="#FFF">
            <path d="M2.097 0c1.211 0 2.076.828 2.076 2.038 0 .552-.086.956-.562 2.124L2.357 7.219H.217l.929-3.354C.454 3.567 0 2.93 0 2.038 0 .807.908 0 2.097 0zM6.241 16.214v-1.256l5.63-6.747.042-.053c1.046-1.24 1.568-2.199 1.568-2.88 0-.55-.184-1.004-.553-1.358-.369-.355-.847-.532-1.434-.532-.53 0-.988.174-1.375.521-.387.348-.644.818-.773 1.413L6.37 3.85c.451-1.182 1.14-2.096 2.068-2.745.927-.648 2.014-.972 3.26-.972 1.497 0 2.754.473 3.77 1.418 1.018.946 1.526 2.124 1.526 3.534 0 .867-.23 1.764-.687 2.691-.459.928-1.168 1.921-2.127 2.981l-2.041 2.267h5.586l-.527 3.19H6.241zM23.18 8.426c0 1.54.18 2.747.542 3.62.362.874.858 1.31 1.488 1.31.637 0 1.137-.432 1.498-1.299.362-.866.543-2.077.543-3.63 0-1.562-.18-2.778-.537-3.648-.358-.87-.86-1.305-1.504-1.305-.623 0-1.117.439-1.483 1.316-.365.877-.547 2.09-.547 3.636zm-3.556 0c0-2.6.496-4.631 1.488-6.096C22.103.866 23.469.133 25.209.133c1.74 0 3.11.734 4.109 2.202.999 1.469 1.498 3.499 1.498 6.091 0 2.593-.5 4.623-1.498 6.091-1 1.468-2.369 2.202-4.11 2.202-1.74 0-3.105-.732-4.097-2.197-.992-1.464-1.488-3.496-1.488-6.096z" transform="translate(130.22 .786)"/>
        </g>
    </g>
</svg>
