<svg xmlns="http://www.w3.org/2000/svg" width="260" height="22" viewBox="0 0 260 22">
    <g fill="none">
        <path fill="#333" d="M0 12.57v-1.43h1.98l1.112-4.22H0V5.5h3.437L4.62.96h1.477L4.914 5.5H7.77L9.002.96h1.477L9.267 5.5h1.694v1.42H8.873L7.77 11.14h3.191v1.43H7.377l-1.153 4.3H4.737l1.172-4.3H3.092l-1.112 4.3H.483l1.122-4.3H0zm3.467-1.43h2.826l1.133-4.22H4.54l-1.073 4.22z" transform="translate(.73 .13)"/>
        <path fill="#5C50F2" d="M22.75 16.54c-1.26.433-2.459.65-3.595.65-1.136 0-2.142-.265-3.018-.795-.877-.53-1.561-1.248-2.054-2.155-.492-.907-.738-1.937-.738-3.09 0-1.74.558-3.183 1.674-4.33 1.116-1.147 2.462-1.72 4.038-1.72 1.162 0 2.393.223 3.693.67V7.6c-1.313-.607-2.488-.91-3.526-.91-.69 0-1.336.172-1.94.515-.604.343-1.072.882-1.403 1.615-.332.733-.498 1.487-.498 2.26 0 1.027.319 2.008.956 2.945.637.937 1.634 1.405 2.994 1.405.413 0 .819-.028 1.216-.085.397-.057 1.13-.268 2.201-.635v1.83zm7.061-.13l-5.21-10.99h2.069l4.156 8.59 3.476-8.59h1.881l-4.372 10.64c-.92 2.247-1.794 3.74-2.625 4.48-.83.74-1.906 1.11-3.225 1.11-.572 0-1.084-.053-1.537-.16v-1.68c.519.167 1.015.25 1.487.25.604 0 1.141-.12 1.61-.36.47-.24.9-.663 1.29-1.27.391-.607.669-1.133.833-1.58l.167-.44zm9.997-8.42c.577-.96 1.268-1.682 2.073-2.165.804-.483 1.541-.725 2.21-.725.946 0 1.795.413 2.547 1.24.751.827 1.127 2.08 1.127 3.76 0 1.327-.25 2.512-.748 3.555-.5 1.043-1.167 1.867-2.005 2.47-.837.603-1.87.905-3.097.905-.354 0-.893-.037-1.615-.11-.112-.013-.276-.03-.492-.05h-1.872V.32h1.872v7.67zm0 2.27v4.91c.682.173 1.31.26 1.88.26 1.137 0 2.093-.452 2.871-1.355.779-.903 1.168-2.142 1.168-3.715 0-1.14-.212-1.998-.636-2.575-.423-.577-.904-.865-1.443-.865-.584 0-1.229.302-1.935.905s-1.34 1.415-1.905 2.435zm20.06 5.85c-1.503.727-2.924 1.09-4.263 1.09-1.018 0-1.927-.257-2.728-.77-.801-.513-1.443-1.247-1.926-2.2-.482-.953-.724-1.973-.724-3.06 0-1.047.23-2.052.69-3.015.46-.963 1.1-1.713 1.92-2.25.82-.537 1.737-.805 2.748-.805 1.34 0 2.414.485 3.225 1.455.811.97 1.217 2.468 1.217 4.495v.41h-7.78c0 .793.163 1.517.492 2.17.328.653.758 1.145 1.29 1.475.532.33 1.136.495 1.812.495 1.215 0 2.557-.41 4.028-1.23v1.74zm-7.504-6.08h5.624v-.28c0-.933-.227-1.677-.68-2.23-.453-.553-1.053-.83-1.802-.83-.762 0-1.421.282-1.98.845-.558.563-.945 1.395-1.162 2.495zm11.484 6.84V5.42h1.88v2.5c.585-.947 1.256-1.653 2.015-2.12.758-.467 1.6-.7 2.526-.7.683 0 1.366.107 2.048.32v4.13h-1.812V6.93c-.315-.053-.564-.08-.748-.08-.696 0-1.382.28-2.059.84-.676.56-1.332 1.403-1.97 2.53v6.65h-1.88z" transform="translate(.73 .13)"/>
        <path fill="#333" d="M77.035 7.99c.578-.96 1.269-1.682 2.073-2.165.804-.483 1.541-.725 2.21-.725.946 0 1.795.413 2.547 1.24.752.827 1.127 2.08 1.127 3.76 0 1.327-.25 2.512-.748 3.555-.5 1.043-1.167 1.867-2.004 2.47-.837.603-1.87.905-3.098.905-.354 0-.893-.037-1.615-.11-.111-.013-.275-.03-.492-.05v4.45h-1.871V5.42h1.87v2.57zm0 2.27v4.91c.683.173 1.31.26 1.88.26 1.137 0 2.094-.452 2.872-1.355s1.167-2.142 1.167-3.715c0-1.14-.212-1.998-.635-2.575-.424-.577-.905-.865-1.443-.865-.585 0-1.23.302-1.935.905-.706.603-1.342 1.415-1.906 2.435zm15.324 6.93c-1.615 0-2.908-.573-3.88-1.72s-1.458-2.59-1.458-4.33c0-1.747.486-3.19 1.458-4.33.972-1.14 2.265-1.71 3.88-1.71 1.609 0 2.897.57 3.866 1.71.968 1.14 1.452 2.583 1.452 4.33 0 1.74-.484 3.183-1.452 4.33-.969 1.147-2.257 1.72-3.866 1.72zm0-1.59c.998 0 1.794-.397 2.388-1.19.595-.793.892-1.883.892-3.27 0-1.38-.297-2.467-.892-3.26-.594-.793-1.39-1.19-2.388-1.19-1.011 0-1.814.397-2.408 1.19-.594.793-.891 1.88-.891 3.26 0 1.387.297 2.477.891 3.27.594.793 1.397 1.19 2.408 1.19zm7.76 1.27V5.42h1.882v2.5c.538-.88 1.186-1.57 1.945-2.07.758-.5 1.518-.75 2.28-.75.67 0 1.277.18 1.822.54.545.36.927.83 1.147 1.41.22.58.33 1.72.33 3.42v6.4h-1.881v-6.63c0-1.107-.053-1.835-.158-2.185-.105-.35-.297-.638-.576-.865-.279-.227-.582-.34-.91-.34-.664 0-1.373.318-2.128.955-.755.637-1.379 1.432-1.871 2.385v6.68h-1.881zm21.795-.76c-1.503.727-2.925 1.09-4.264 1.09-1.018 0-1.927-.257-2.728-.77-.801-.513-1.443-1.247-1.925-2.2-.483-.953-.724-1.973-.724-3.06 0-1.047.23-2.052.69-3.015.459-.963 1.099-1.713 1.92-2.25.82-.537 1.736-.805 2.747-.805 1.34 0 2.415.485 3.226 1.455.81.97 1.216 2.468 1.216 4.495v.41h-7.78c0 .793.164 1.517.492 2.17.328.653.758 1.145 1.29 1.475.532.33 1.136.495 1.812.495 1.215 0 2.558-.41 4.028-1.23v1.74zm-7.504-6.08h5.623v-.28c0-.933-.226-1.677-.68-2.23-.452-.553-1.053-.83-1.801-.83-.762 0-1.422.282-1.98.845s-.945 1.395-1.162 2.495zm18.062 4.27c-.571.953-1.259 1.673-2.063 2.16-.805.487-1.545.73-2.221.73-.939 0-1.784-.413-2.536-1.24s-1.128-2.083-1.128-3.77c0-1.327.25-2.51.749-3.55s1.165-1.863 1.999-2.47c.834-.607 1.868-.91 3.102-.91.355 0 .893.04 1.615.12.105.013.266.03.483.05V.32h1.89v16.55h-1.89V14.3zm0-2.27V7.12c-.67-.18-1.29-.27-1.861-.27-1.156 0-2.12.455-2.89 1.365-.772.91-1.158 2.148-1.158 3.715 0 1.133.21 1.988.63 2.565.42.577.9.865 1.438.865.584 0 1.231-.3 1.94-.9.71-.6 1.343-1.41 1.901-2.43zm14.26 4.08c-1.503.727-2.924 1.09-4.264 1.09-1.017 0-1.927-.257-2.728-.77-.8-.513-1.443-1.247-1.925-2.2-.483-.953-.724-1.973-.724-3.06 0-1.047.23-2.052.69-3.015.459-.963 1.099-1.713 1.92-2.25.82-.537 1.736-.805 2.747-.805 1.34 0 2.415.485 3.226 1.455.81.97 1.216 2.468 1.216 4.495v.41h-7.78c0 .793.164 1.517.492 2.17.329.653.759 1.145 1.29 1.475.532.33 1.136.495 1.813.495 1.214 0 2.557-.41 4.028-1.23v1.74zm-7.504-6.08h5.624v-.28c0-.933-.227-1.677-.68-2.23-.453-.553-1.054-.83-1.802-.83-.762 0-1.422.282-1.98.845s-.945 1.395-1.162 2.495zm13.561 6.84V1.92h-3.378V.32h5.25v14.96h3.525v1.59h-5.397zm9.376 0V5.42h1.881v2.5c.539-.88 1.187-1.57 1.945-2.07.759-.5 1.519-.75 2.28-.75.67 0 1.277.18 1.822.54.545.36.928.83 1.148 1.41.22.58.33 1.72.33 3.42v6.4h-1.882v-6.63c0-1.107-.052-1.835-.157-2.185-.105-.35-.297-.638-.576-.865-.28-.227-.583-.34-.911-.34-.663 0-1.373.318-2.128.955-.755.637-1.378 1.432-1.87 2.385v6.68h-1.882zm15.57 0V7.01h-3.131V5.42h5.013v9.86h3.141v1.59h-5.022zm-.315-15.59c0-.427.145-.747.434-.96.289-.213.561-.32.817-.32.263 0 .539.107.827.32.29.213.434.533.434.96 0 .427-.145.747-.434.96-.288.213-.564.32-.827.32-.256 0-.528-.107-.817-.32-.29-.213-.434-.533-.434-.96zm10.066 15.59V.32h1.88v10.4l5.427-5.3h2.502l-5.417 5.3 5.555 6.15h-2.58l-5.486-6.15v6.15h-1.881z" transform="translate(.73 .13)"/>
        <path fill="#FFB4C4" d="M198.545 18.46L198.545 16.87 209.507 16.87 209.507 18.46zM221.227 16.87h-9.485v-1.75c0-.453.09-.938.271-1.455.18-.517.527-1.097 1.04-1.74.511-.643 1.053-1.262 1.624-1.855l1.074-1.11c.216-.22.688-.742 1.413-1.565.726-.823 1.205-1.453 1.438-1.89.233-.437.35-.865.35-1.285 0-.687-.27-1.217-.808-1.59s-1.146-.56-1.822-.56c-.38 0-.81.045-1.285.135-.476.09-.892.195-1.246.315-.355.12-.932.363-1.733.73V1.56c.847-.407 1.695-.688 2.545-.845.85-.157 1.552-.235 2.103-.235.814 0 1.564.135 2.25.405.687.27 1.195.69 1.527 1.26.332.57.497 1.175.497 1.815 0 .72-.213 1.455-.64 2.205-.427.75-1.234 1.718-2.423 2.905l-1.152 1.16-.965.96c-.61.627-1.105 1.235-1.482 1.825-.378.59-.586 1.292-.626 2.105h7.535v1.75zM228.85.48c1.779 0 3.136.762 4.072 2.285.935 1.523 1.403 3.572 1.403 6.145 0 2.587-.468 4.64-1.403 6.16-.936 1.52-2.293 2.28-4.073 2.28-1.78 0-3.138-.76-4.077-2.28-.939-1.52-1.408-3.573-1.408-6.16 0-2.573.47-4.622 1.408-6.145.939-1.523 2.298-2.285 4.077-2.285zm-3.064 11.84l5.427-8.63c-.348-.633-.722-1.062-1.123-1.285-.4-.223-.814-.335-1.24-.335-1.13 0-1.987.635-2.571 1.905-.585 1.27-.877 2.878-.877 4.825 0 .447.013.925.04 1.435.026.51.14 1.205.344 2.085zm6.097-6.73l-5.378 8.68c.29.493.622.865 1 1.115.377.25.796.375 1.256.375 1.28 0 2.19-.727 2.728-2.18.538-1.453.807-3.063.807-4.83 0-1.093-.138-2.147-.413-3.16zM246.045 16.87h-9.484v-1.75c0-.453.09-.938.27-1.455.181-.517.527-1.097 1.04-1.74.512-.643 1.053-1.262 1.624-1.855l1.074-1.11c.217-.22.688-.742 1.413-1.565.726-.823 1.205-1.453 1.438-1.89.233-.437.35-.865.35-1.285 0-.687-.27-1.217-.808-1.59s-1.146-.56-1.822-.56c-.38 0-.81.045-1.285.135-.476.09-.891.195-1.246.315-.354.12-.932.363-1.733.73V1.56c.847-.407 1.695-.688 2.546-.845.85-.157 1.55-.235 2.102-.235.814 0 1.565.135 2.25.405.687.27 1.196.69 1.527 1.26.332.57.497 1.175.497 1.815 0 .72-.213 1.455-.64 2.205-.426.75-1.234 1.718-2.422 2.905l-1.153 1.16-.965.96c-.61.627-1.104 1.235-1.482 1.825-.378.59-.586 1.292-.625 2.105h7.534v1.75zM253.667.48c1.78 0 3.137.762 4.073 2.285.935 1.523 1.403 3.572 1.403 6.145 0 2.587-.468 4.64-1.403 6.16-.936 1.52-2.293 2.28-4.073 2.28-1.779 0-3.138-.76-4.077-2.28-.939-1.52-1.408-3.573-1.408-6.16 0-2.573.47-4.622 1.408-6.145.939-1.523 2.298-2.285 4.077-2.285zm-3.062 11.84l5.426-8.63c-.348-.633-.722-1.062-1.123-1.285-.4-.223-.814-.335-1.24-.335-1.13 0-1.987.635-2.571 1.905-.584 1.27-.877 2.878-.877 4.825 0 .447.014.925.04 1.435.026.51.141 1.205.345 2.085zm6.096-6.73l-5.378 8.68c.29.493.623.865 1 1.115.378.25.796.375 1.256.375 1.28 0 2.19-.727 2.728-2.18.538-1.453.807-3.063.807-4.83 0-1.093-.137-2.147-.413-3.16z" transform="translate(.73 .13)"/>
    </g>
</svg>
